<?xml version="1.0" standalone="no"?>
<!DOCTYPE svg PUBLIC "-//W3C//DTD SVG 20010904//EN"
 "http://www.w3.org/TR/2001/REC-SVG-20010904/DTD/svg10.dtd">
<svg version="1.0" xmlns="http://www.w3.org/2000/svg"
 width="1024.000000pt" height="1024.000000pt" viewBox="0 0 1024.000000 1024.000000"
 preserveAspectRatio="xMidYMid meet">
<metadata>
Created by potrace 1.14, written by Peter Selinger 2001-2017
</metadata>
<g transform="translate(0.000000,1024.000000) scale(0.100000,-0.100000)"
fill="#000000" stroke="none">
<path d="M10188 9805 c-3 -3 -18 -8 -34 -11 -16 -3 -37 -7 -46 -10 -10 -3 -30
-7 -45 -10 -16 -3 -44 -9 -63 -14 -19 -5 -51 -12 -70 -15 -45 -9 -64 -13 -67
-15 -2 -2 -11 -3 -20 -5 -10 -1 -25 -4 -33 -8 -8 -3 -31 -8 -51 -10 -20 -3
-42 -7 -47 -11 -6 -3 -23 -8 -39 -10 -28 -4 -38 -7 -123 -26 -25 -5 -56 -12
-70 -14 -14 -3 -65 -14 -115 -25 -75 -18 -160 -37 -299 -67 -11 -3 -32 -7 -46
-10 -14 -3 -33 -7 -42 -10 -10 -3 -28 -7 -40 -10 -25 -4 -89 -18 -273 -58 -66
-15 -129 -29 -140 -31 -11 -2 -20 -4 -20 -5 0 -1 -13 -4 -30 -6 -16 -3 -45 -9
-62 -15 -18 -6 -37 -8 -43 -4 -5 3 -10 2 -10 -2 0 -5 -8 -9 -17 -10 -14 -2
-306 -65 -403 -88 -13 -3 -66 -15 -185 -41 -11 -2 -33 -7 -48 -9 -15 -3 -56
-12 -90 -21 -34 -8 -73 -17 -87 -19 -14 -2 -43 -8 -65 -14 -35 -9 -243 -55
-300 -67 -11 -2 -31 -6 -45 -10 -14 -3 -35 -7 -47 -9 -11 -2 -30 -6 -41 -9
-21 -7 -52 -14 -87 -21 -44 -8 -81 -16 -97 -21 -10 -3 -30 -7 -45 -10 -16 -2
-77 -16 -138 -30 -60 -14 -121 -28 -135 -30 -14 -3 -33 -7 -42 -10 -23 -7 -57
-13 -95 -18 -18 -3 -37 -7 -42 -10 -5 -4 -22 -8 -38 -11 -15 -2 -109 -22 -208
-45 -99 -22 -189 -42 -200 -45 -11 -2 -29 -6 -40 -8 -93 -23 -175 -40 -202
-41 -13 -1 -23 -4 -23 -7 0 -3 -6 -6 -12 -6 -31 -2 -95 -16 -110 -24 -10 -5
-18 -8 -18 -5 0 2 -28 -2 -62 -11 -35 -8 -71 -16 -81 -18 -10 -2 -26 -6 -35
-9 -9 -3 -30 -8 -47 -11 -16 -2 -41 -7 -55 -10 -14 -3 -36 -8 -50 -11 -14 -3
-29 -7 -35 -8 -19 -4 -130 -28 -145 -31 -8 -2 -15 -4 -15 -5 0 -1 -9 -3 -20
-5 -26 -5 -88 -18 -95 -20 -3 -1 -23 -5 -45 -10 -22 -4 -47 -9 -55 -11 -8 -2
-67 -15 -130 -29 -131 -30 -128 -29 -195 -45 -27 -6 -61 -14 -75 -16 -14 -2
-47 -9 -75 -16 -27 -6 -59 -13 -70 -14 -11 -1 -21 -3 -22 -4 -3 -3 -3 -3 -58
-15 -22 -4 -44 -9 -50 -11 -10 -2 -145 -32 -178 -39 -10 -2 -26 -6 -35 -9 -9
-3 -33 -8 -52 -11 -19 -3 -50 -10 -67 -15 -18 -4 -33 -6 -33 -3 0 3 -7 0 -15
-7 -8 -7 -15 -10 -15 -7 0 3 -14 2 -32 -3 -17 -5 -49 -12 -72 -16 -22 -3 -44
-8 -49 -11 -4 -3 -18 -6 -30 -8 -32 -5 -58 -11 -323 -70 -132 -30 -252 -56
-265 -59 -60 -12 -165 -35 -179 -40 -8 -3 -28 -7 -45 -10 -16 -3 -93 -19 -170
-36 -77 -18 -149 -33 -160 -36 -11 -2 -31 -7 -45 -10 -14 -3 -36 -8 -50 -11
-14 -2 -32 -7 -40 -10 -8 -3 -24 -7 -35 -7 -11 -1 -29 -5 -40 -9 -11 -3 -33
-9 -50 -12 -16 -2 -39 -7 -50 -9 -11 -3 -54 -12 -95 -21 -41 -9 -86 -19 -100
-21 -14 -3 -32 -7 -40 -10 -8 -3 -26 -8 -40 -10 -29 -6 -157 -33 -185 -40 -11
-3 -29 -7 -40 -9 -11 -3 -31 -7 -45 -11 -14 -3 -36 -7 -50 -9 -14 -2 -25 -4
-25 -5 0 -2 -9 -4 -20 -5 -11 -1 -49 -9 -85 -18 -36 -9 -81 -19 -100 -23 -19
-4 -39 -9 -45 -10 -5 -1 -40 -9 -76 -18 -37 -8 -78 -17 -90 -20 -28 -5 -165
-35 -194 -42 -20 -5 -31 -7 -90 -19 -39 -8 -60 -13 -60 -15 0 -1 -11 -3 -25
-6 -31 -5 -386 -82 -420 -91 -14 -4 -32 -8 -40 -9 -39 -7 -76 -15 -90 -20 -8
-4 -31 -8 -50 -11 -19 -3 -37 -7 -39 -9 -6 -6 -8 -195 -3 -212 5 -14 14 -13
162 4 25 3 56 7 70 9 14 2 50 7 80 10 30 3 66 8 80 10 14 2 54 6 90 10 36 3
76 8 90 10 31 5 124 17 165 20 26 3 98 11 175 20 50 6 126 15 170 20 63 6 141
16 170 20 14 2 50 6 80 10 30 3 71 8 90 10 19 3 55 7 80 10 25 3 61 7 80 10
19 2 60 7 90 10 30 4 66 8 80 10 14 2 54 7 90 10 36 4 76 8 90 10 14 2 50 6
80 10 30 3 66 8 80 10 14 2 54 7 90 11 36 3 76 7 90 9 14 2 48 6 76 9 78 9
134 15 189 22 28 4 61 8 75 9 14 1 50 6 80 9 80 10 118 14 180 21 30 4 67 8
81 11 14 2 52 6 85 10 72 7 118 12 164 19 19 3 58 7 85 9 28 3 50 6 50 7 0 1
14 3 30 4 17 1 57 5 90 9 33 4 80 9 104 11 24 3 62 7 85 11 22 3 52 7 66 9
100 10 164 17 178 19 9 2 44 7 77 10 33 4 71 9 85 11 14 2 50 6 80 10 30 3 69
7 85 9 17 2 59 7 95 11 36 4 76 9 90 11 14 1 46 5 72 8 26 2 52 8 58 11 5 3
10 1 10 -6 0 -8 4 -8 12 -1 7 5 45 13 84 16 39 4 80 8 90 10 11 2 51 7 89 11
39 4 84 9 100 11 17 2 50 6 75 8 25 3 61 7 80 10 19 2 62 7 95 11 33 4 71 8
85 10 14 2 50 7 80 10 30 3 66 8 80 10 14 2 54 6 90 10 36 4 76 8 90 10 14 2
50 7 80 10 30 4 58 9 63 12 4 2 7 -1 7 -7 0 -6 5 -8 13 -3 6 4 17 8 22 9 32 6
98 14 155 19 36 4 79 9 95 11 17 3 48 7 70 10 95 10 133 14 180 19 28 3 66 8
85 11 19 2 55 7 80 9 25 2 63 7 85 9 22 3 63 8 90 11 28 3 61 8 75 10 14 3 52
7 85 10 33 4 71 8 85 10 25 4 84 11 171 20 55 6 101 11 259 30 25 3 63 8 85
11 22 2 63 7 90 9 28 3 66 7 85 11 19 3 58 7 85 9 28 2 70 7 95 11 68 9 99 13
159 19 30 3 66 7 80 9 14 3 51 7 81 11 30 4 66 8 80 10 14 2 52 6 85 10 33 3
80 8 105 12 25 3 61 7 80 8 19 2 35 4 35 5 0 1 20 3 45 5 25 2 45 4 45 5 0 1
18 4 40 5 22 2 56 6 75 8 19 3 60 8 90 11 30 3 64 8 75 10 11 2 54 7 95 11 41
4 82 8 90 10 8 2 42 6 75 10 33 3 71 7 85 9 14 2 54 6 90 10 36 4 76 9 90 11
25 4 90 12 165 20 52 5 118 13 175 21 25 3 70 7 100 9 30 2 56 5 58 6 1 1 11
3 22 4 11 1 21 3 23 5 1 1 18 3 37 4 38 4 165 17 190 21 8 1 41 5 73 10 l57 7
0 639 0 639 -23 0 c-13 0 -26 -2 -29 -5z"/>
<path d="M9056 7623 c-1 -1 -28 -4 -61 -8 -33 -3 -85 -8 -115 -11 -30 -4 -71
-8 -90 -9 -19 -2 -35 -4 -35 -5 0 -1 -18 -3 -40 -5 -94 -8 -178 -17 -198 -21
-12 -2 -53 -6 -92 -9 -38 -3 -83 -7 -100 -10 -16 -2 -59 -6 -95 -10 -65 -6
-90 -9 -165 -19 -22 -3 -67 -8 -99 -11 -33 -3 -61 -7 -64 -10 -9 -9 -5 -4746
4 -4755 5 -4 38 -11 74 -14 70 -7 99 -10 200 -21 36 -4 81 -9 100 -11 19 -1
35 -3 35 -4 0 -1 20 -3 45 -5 25 -2 70 -6 100 -9 30 -4 73 -9 95 -11 22 -2 60
-6 85 -10 25 -3 68 -8 95 -10 28 -2 70 -6 95 -9 25 -3 65 -8 90 -10 25 -3 72
-8 105 -11 33 -3 76 -8 96 -11 l37 -5 -2 68 c-1 37 2 80 5 96 4 15 5 27 1 27
-9 0 -7 763 1 784 4 9 3 16 -1 16 -9 0 -7 123 2 145 3 8 2 15 -2 15 -9 0 -7
123 2 145 3 8 2 15 -2 15 -9 0 -7 123 2 145 3 8 2 15 -2 15 -8 0 -7 762 1 784
4 9 3 16 -1 16 -9 0 -7 123 2 145 3 8 2 15 -2 15 -9 0 -7 123 2 145 3 8 2 15
-2 15 -9 0 -7 123 2 145 3 8 2 15 -2 15 -8 0 -7 762 1 784 4 9 3 16 -1 16 -9
0 -7 123 2 145 3 8 2 15 -2 15 -9 0 -7 123 2 145 3 8 2 15 -2 15 -9 0 -7 123
2 145 3 8 2 15 -2 15 -8 0 -7 762 1 784 4 9 3 16 -1 16 -4 0 -7 38 -7 85 0 47
4 85 9 85 5 0 3 7 -4 15 -8 10 -27 14 -57 13 -25 -2 -45 -4 -47 -5z"/>
<path d="M6757 7354 c-1 -1 -29 -5 -62 -8 -33 -4 -78 -9 -100 -12 -22 -2 -65
-6 -95 -9 -30 -2 -55 -5 -55 -6 0 0 -16 -2 -35 -4 -39 -3 -121 -12 -195 -21
-27 -3 -69 -7 -92 -8 -24 0 -43 -3 -43 -6 0 -3 -21 -6 -48 -7 -70 -2 -121 -9
-129 -16 -7 -8 -9 -4275 -1 -4282 2 -3 31 -7 64 -10 32 -3 79 -7 104 -10 42
-3 66 -6 195 -21 28 -3 66 -8 85 -9 19 -2 62 -6 95 -10 33 -3 80 -7 105 -10
84 -8 155 -15 200 -21 25 -4 56 -7 70 -8 l25 -1 0 2240 0 2240 -43 0 c-24 1
-44 0 -45 -1z"/>
<path d="M4707 7194 c-1 -2 -23 -5 -47 -8 -108 -12 -158 -18 -195 -21 -22 -2
-62 -6 -90 -10 -100 -12 -225 -26 -280 -30 -22 -2 -40 -4 -40 -5 0 0 -20 -3
-44 -6 -24 -2 -46 -6 -50 -8 -5 -3 -7 -693 -2 -729 1 -5 6 -5 12 -1 7 4 53 9
103 11 154 6 251 11 251 13 0 1 36 3 80 5 44 2 80 4 80 5 0 1 36 2 81 4 44 1
85 5 90 7 5 2 37 4 71 4 35 0 64 5 65 10 2 6 3 179 3 385 l-1 375 -42 1 c-23
0 -43 -1 -45 -2z"/>
<path d="M2945 6981 c-2 -2 -32 -5 -67 -8 -94 -6 -153 -11 -153 -13 0 -1 -16
-3 -35 -4 -19 -2 -71 -7 -115 -11 -75 -8 -115 -11 -158 -14 -14 -1 -18 -9 -17
-38 1 -31 1 -306 1 -480 0 -24 0 -104 0 -178 0 -74 0 -143 0 -152 0 -10 0 -38
0 -63 0 -25 0 -65 0 -90 0 -25 0 -133 0 -240 0 -107 0 -214 0 -237 0 -24 0
-104 0 -178 0 -74 0 -143 0 -152 0 -10 0 -38 0 -63 0 -25 0 -65 0 -90 0 -25 0
-133 0 -240 0 -107 0 -214 0 -237 0 -24 0 -104 0 -178 0 -74 0 -143 0 -152 0
-10 0 -38 0 -63 0 -25 0 -65 0 -90 0 -25 0 -133 0 -240 0 -219 0 -336 -2 -347
-1 -5 -1 -31 0 -60 1 -60 -1 -58 116 -68 44 -4 98 -9 120 -11 22 -2 67 -6 100
-9 33 -3 83 -7 110 -10 236 -25 225 -24 226 -6 0 9 1 852 2 1874 l2 1857 -63
-2 c-35 -2 -65 -5 -67 -7z"/>
<path d="M1548 6854 c-3 -2 -97 -12 -178 -18 -45 -4 -141 -13 -215 -22 -21 -3
-41 -6 -43 -8 -2 -3 -5 -3141 -2 -3352 0 -17 5 -31 13 -31 6 0 41 -4 77 -7 36
-4 83 -9 105 -11 22 -2 65 -6 95 -10 73 -8 137 -15 180 -18 l35 -2 2 118 c0
65 3 120 5 122 1 2 1 56 -2 120 -3 64 -3 118 0 120 3 2 3 56 0 120 -3 64 -2
119 1 121 4 2 3 20 -1 39 -4 19 -5 37 -1 39 3 2 4 57 1 121 -3 64 -3 118 0
120 3 2 3 128 0 280 -3 152 -3 278 0 280 3 2 3 56 0 120 -3 64 -3 118 0 120 3
2 3 128 0 280 -3 152 -3 278 0 280 3 2 3 56 0 120 -3 64 -2 119 1 121 4 2 3
20 -1 39 -4 19 -5 37 -1 39 3 2 4 57 1 121 -3 64 -3 118 0 120 3 2 3 56 0 120
-3 64 -3 118 0 120 3 2 4 66 2 144 l-3 140 -34 -1 c-19 -1 -36 -2 -37 -4z"/>
<path d="M4580 5844 c0 -5 -39 -10 -87 -10 -73 -1 -466 -11 -525 -13 -17 -1
-18 -71 -18 -1331 0 -731 3 -1330 8 -1331 4 0 14 -2 22 -3 8 -2 56 -7 105 -11
50 -4 108 -9 130 -11 22 -3 65 -6 95 -8 30 -3 55 -5 55 -6 0 -1 21 -3 47 -5
26 -2 69 -6 95 -9 49 -6 97 -11 214 -21 l66 -6 -1 1383 -1 1383 -84 -3 c-46
-1 -86 -4 -89 -7 -3 -3 -11 0 -19 6 -7 6 -13 8 -13 3z"/>
<path d="M0 2796 c0 -133 -12 -118 120 -142 25 -4 48 -7 53 -6 4 1 7 -3 7 -9
0 -5 4 -8 8 -5 5 3 25 1 45 -5 21 -5 49 -12 65 -14 30 -5 163 -35 289 -65 45
-11 94 -22 110 -24 15 -2 35 -6 44 -10 9 -4 20 -6 25 -5 5 1 12 0 17 -1 23 -8
72 -20 102 -25 40 -8 30 -6 340 -75 273 -62 282 -64 345 -75 19 -3 42 -8 50
-11 8 -3 26 -8 40 -10 33 -6 189 -41 270 -60 74 -18 93 -22 135 -30 17 -2 46
-9 65 -14 32 -8 201 -45 260 -56 14 -3 41 -9 60 -14 19 -5 46 -11 60 -14 40
-8 213 -47 235 -52 11 -3 29 -7 40 -8 11 -2 28 -6 37 -10 9 -4 22 -5 28 -1 5
3 10 2 10 -2 0 -5 8 -9 18 -10 26 -2 85 -13 102 -19 8 -3 29 -8 45 -11 17 -2
44 -8 60 -13 17 -5 66 -16 110 -25 44 -9 87 -18 95 -20 45 -11 199 -45 222
-49 15 -2 31 -7 35 -9 5 -3 24 -8 43 -11 19 -3 46 -8 60 -11 14 -3 36 -7 50
-10 14 -3 40 -9 58 -14 17 -5 32 -8 32 -5 0 3 8 0 18 -5 9 -5 33 -12 52 -15
20 -3 98 -19 175 -37 77 -17 149 -33 160 -35 11 -2 38 -8 60 -13 22 -5 52 -12
68 -15 15 -2 35 -7 45 -10 9 -3 31 -8 47 -11 47 -9 72 -15 139 -30 33 -8 72
-16 86 -18 14 -3 43 -10 65 -15 43 -12 82 -20 130 -28 17 -3 37 -7 45 -10 8
-3 26 -8 39 -10 13 -3 54 -12 90 -20 36 -8 80 -17 96 -20 17 -3 66 -14 110
-25 44 -11 95 -21 112 -23 18 -3 36 -7 40 -9 7 -5 133 -33 188 -43 39 -7 50
-10 60 -15 6 -4 20 -5 33 -4 12 1 22 -2 22 -6 0 -4 8 -8 18 -7 18 0 64 -9 94
-18 10 -3 28 -7 40 -10 13 -2 52 -10 88 -18 182 -41 257 -58 280 -62 14 -2 31
-7 39 -10 8 -2 30 -7 50 -10 20 -3 43 -7 51 -10 8 -3 26 -8 39 -10 13 -3 54
-12 90 -20 36 -8 77 -17 91 -20 14 -3 45 -10 70 -15 25 -6 56 -13 70 -15 26
-5 100 -22 135 -31 11 -2 29 -6 40 -7 11 -2 27 -6 35 -9 8 -4 29 -9 45 -11 17
-2 37 -6 45 -9 8 -2 71 -17 140 -32 69 -14 132 -28 140 -30 8 -2 80 -18 160
-35 80 -18 153 -34 163 -36 9 -2 25 -6 36 -8 10 -2 35 -7 56 -10 20 -4 42 -9
47 -12 5 -3 19 -7 31 -9 20 -3 83 -16 132 -28 11 -3 56 -12 100 -21 44 -9 96
-21 115 -26 19 -5 46 -11 60 -14 14 -2 27 -5 30 -6 3 -1 10 -3 15 -4 39 -6
114 -23 118 -25 1 -2 13 -4 27 -7 21 -3 112 -23 180 -39 8 -2 60 -13 115 -25
55 -11 116 -25 135 -30 36 -9 72 -17 125 -26 17 -3 35 -10 41 -15 6 -5 13 -6
16 -4 3 3 25 1 49 -5 62 -15 100 -23 154 -34 11 -3 92 -21 180 -41 196 -45
193 -44 230 -51 17 -3 55 -11 85 -19 30 -8 69 -16 85 -19 17 -2 30 -5 30 -6 0
-2 13 -5 60 -13 17 -3 41 -8 55 -11 14 -3 35 -8 48 -10 13 -3 31 -7 40 -10 9
-3 28 -7 42 -10 14 -3 56 -12 95 -21 38 -8 73 -15 76 -15 11 0 6 1277 -5 1277
-6 0 -38 4 -71 8 -33 4 -71 8 -85 10 -14 2 -50 6 -80 10 -30 4 -75 9 -100 11
-25 3 -61 7 -80 9 -19 3 -55 7 -80 10 -25 3 -61 7 -80 10 -19 2 -60 7 -90 10
-30 3 -70 8 -88 10 -19 3 -60 8 -93 11 -32 3 -67 7 -76 8 -17 4 -120 16 -173
21 -14 2 -44 6 -67 9 -23 4 -66 9 -95 11 -29 3 -73 7 -98 10 -25 4 -58 8 -75
10 -16 2 -30 4 -30 5 0 1 -18 3 -40 5 -22 1 -62 5 -90 9 -27 3 -77 8 -110 12
-33 4 -71 8 -85 10 -56 8 -88 12 -155 18 -38 4 -77 9 -85 11 -8 2 -44 7 -80
10 -36 4 -76 8 -90 10 -14 2 -52 6 -85 9 -33 4 -71 9 -85 11 -14 3 -52 8 -85
10 -33 3 -71 7 -85 10 -14 2 -50 6 -80 10 -30 3 -71 7 -90 10 -19 3 -57 7 -85
10 -27 3 -66 8 -85 10 -19 3 -57 7 -85 10 -62 6 -118 13 -170 20 -22 2 -62 7
-90 10 -27 3 -84 10 -125 15 -41 6 -95 12 -120 15 -60 6 -128 14 -165 20 -16
2 -59 7 -95 10 -36 4 -81 9 -100 11 -19 3 -51 7 -70 9 -19 2 -57 6 -85 10 -27
3 -70 8 -95 10 -25 2 -45 5 -45 6 0 1 -11 2 -115 14 -36 4 -76 8 -90 10 -14 2
-52 6 -85 10 -33 3 -71 8 -85 10 -30 5 -96 13 -165 20 -27 3 -68 7 -90 10 -22
3 -58 7 -80 10 -165 19 -215 25 -250 30 -22 3 -62 7 -90 10 -27 2 -50 4 -50 5
0 1 -13 4 -30 5 -180 18 -210 22 -210 25 0 1 -18 3 -40 5 -22 1 -67 6 -100 10
-75 9 -95 12 -170 20 -33 3 -71 8 -85 10 -14 2 -50 6 -80 10 -30 3 -89 10
-130 15 -41 5 -97 12 -125 15 -58 7 -129 15 -165 20 -14 2 -54 7 -90 10 -75 8
-115 13 -115 15 0 1 -25 3 -55 6 -30 2 -71 6 -90 9 -19 3 -57 7 -85 10 -27 2
-66 7 -85 9 -19 3 -57 8 -85 11 -27 3 -66 8 -86 11 -20 3 -58 7 -85 10 -89 9
-109 11 -149 17 -22 3 -67 9 -100 12 -33 3 -73 8 -90 10 -16 3 -52 7 -80 10
-27 3 -69 8 -92 11 -24 3 -62 7 -85 9 -24 2 -56 7 -73 9 -16 3 -52 8 -80 11
-27 2 -66 6 -85 9 -19 2 -59 7 -89 10 -30 3 -73 8 -95 10 -23 3 -63 8 -91 12
-27 3 -68 8 -90 10 -22 3 -53 7 -70 9 -71 8 -143 16 -177 20 -21 3 -55 7 -75
9 -21 3 -63 8 -93 12 -30 4 -66 8 -80 9 -36 4 -129 15 -170 20 -66 9 -125 16
-180 21 -30 3 -68 7 -85 9 -16 2 -48 6 -70 9 -22 3 -65 8 -95 12 -30 4 -71 8
-90 9 -19 2 -55 6 -80 9 -25 4 -65 9 -90 11 -25 3 -59 8 -75 10 -17 3 -58 7
-90 10 -59 5 -112 12 -150 19 -11 2 -56 7 -100 11 -43 3 -83 9 -87 11 -4 3 -8
-47 -8 -110z"/>
</g>
</svg>
