<svg xmlns="http://www.w3.org/2000/svg" width="64" height="44" fill="none" fill-rule="evenodd" xmlns:v="https://vecta.io/nano"><path d="M17.929 8.7l.053 8.226 3.427.053v-1.266c.316-3.375 2.953-6.064 6.75-4.904 3.111.949 3.955 5.168 2.109 8.226-1.002 1.687-4.482 4.693-6.064 6.117l-6.275 5.906.053 7.593h19.247c0-.474.105-3.164-.105-3.269l.053-2.32c-.633-.158-5.642-.105-6.486 0-.949.105-6.275-.053-6.433 0 .158-.422.475-.633.791-.844l.896-.791c.369-.316 1.424-1.424 1.793-1.529.264-.369 3.269-2.953 4.113-3.797.264-.264 0-.158.316-.158.422-.791 2.215-2.056 3.691-4.851 1.213-2.215 1.476-4.008 1.318-6.908-.158-1.318-.316-1.951-.791-3.058-.158-.475-.369-.844-.633-1.266-.211-.369-.58-.738-.738-1.213-.633-.158-2.584-3.691-8.595-3.691-1.898 0-3.638.316-5.115 1.002-1.266.58-2.847 1.793-3.427 2.742h.053z" fill="#029801"/><path d="M.58 10.072v5.379h6.539c.685 0 2.004-.158 2.004.211L9.07 43.345c.58.211 6.328.158 7.277.053.053-.791 0-3.111 0-4.218 0-.58 0-.422.158-.58l20.723-.053v-3.269l1.16.053v-.105h-1.107l-.158.053c.211.105.105 2.795.105 3.269H17.982h-1.529v-5.642c0-.527-.053-.475.264-.738-.158-.105-.264 0-.211-.791.105-4.64-.158-9.913 0-14.448h4.904l.053-1.266v1.266l-3.428-.053h-1.582c.053-1.424-.211-4.957.158-5.958l-.053-.053-.053-.053-.053-.158c-.105-.685.158-9.228-.053-10.652h-5.853c-.158.844-.158 1.371-.369 2.162-.58 1.74-1.582 3.586-2.742 4.746C5.801 8.49 3.217 10.335.58 10.072z" fill="#03bb01"/><path d="M32.799 26.84l-.369-.105c-.633.791-1.371 1.213-2.056 1.898-.58.58-1.846 1.424-2.004 1.951.316.527.791.844 1.16 1.213.316.264 1.107.844 1.266 1.107l-6.539.053c.158-.053 5.431.105 6.433 0 .791-.105 5.853-.158 6.486 0l-.053 2.32.158-.053.053-2.267h1.318l.053 1.74c0 .633.105.422-.264.527v.105c3.533.053 6.697-1.107 9.122-3.164.633-.527 1.793-1.846 2.004-1.898-.053-.264-.053-.211.211-.527.475-.58.527-.738.949-1.424.475-.791.791-1.898 1.107-2.215 0-.791.738-2.215.633-4.535H39.496l.053 5.168h5.115c-.316.58-1.582 1.529-2.426 1.951-2.215 1.107-4.798 1.055-7.013-.053-1.424-.738-1.582-1.16-2.373-1.846l-.053.053z" fill="#017101"/><path d="M49.567 13.182c-.053.369.053.264.527.949 1.002 1.476 1.318 2.795 1.687 3.269 1.951-.633 3.217-.738 4.851.369 1.055.686 2.109 2.109 2.109 3.955 0 2.637-2.004 4.588-4.324 4.851-1.318.158-1.635-.211-2.637-.422-.264.264-.633 1.424-1.107 2.215-.422.686-.475.844-.949 1.424-.264.316-.264.264-.211.527 5.537 3.111 14.026-.791 14.026-8.648 0-3.902-2.267-6.644-4.377-8.015-1.266-.844-2.795-1.424-4.588-1.529-2.162-.158-3.375.316-5.062 1.002l.053.053z" fill="#014601"/><path d="M35.488 8.595l.844-.158c.158.475 1.107 1.687 1.424 2.426l.264.738c.264.58.422 1.951.633 2.162-.316.053-.685.053-.896.211 5.431-.58 7.224 3.375 7.751 3.427l6.275-.053c-.316-.475-.633-1.846-1.687-3.269-.475-.685-.58-.58-.527-.949-.527-.105-3.164-4.429-9.65-5.009-.685-.053-3.744-.053-4.429.422v.053zM16.61 10.968c-.369 1.002-.105 4.535-.158 5.959h1.582L17.981 8.7c-.369.422-1.213 1.74-1.318 2.267h-.053zm.053 21.251c-.316.264-.264.211-.264.738v5.642h1.529l-.053-7.593c-.264.211-1.055.896-1.266 1.213h.053z" fill="#017101"/><path d="M35.488 8.595h-.422c.105.475.475.844.738 1.213.264.422.475.791.633 1.265.422 1.107.633 1.687.791 3.058l.527-.105c.264-.158.58-.211.896-.211-.211-.211-.316-1.635-.633-2.162l-.264-.738c-.316-.738-1.266-1.951-1.424-2.426l-.844.158v-.053zm-7.699 21.251l.633.791c.158-.527 1.424-1.371 2.004-1.951.686-.686 1.424-1.107 2.057-1.898l.369.105c-.211-.264-.527-.633-.633-.949-.264 0 0-.105-.316.158l-4.113 3.797v-.053zm9.545 5.483h1.107c.369-.105.264.106.264-.527l-.053-1.74h-1.318l-.053 2.267h.053z" fill="#014601"/><path d="M9.123 15.661c0-.369-1.371-.211-2.004-.211H.58v-5.379c-.211.158-.053-.053-.158.264-.105.475.053 5.115.053 5.22.844-.105 8.121-.105 8.648.106z" fill="#98d998"/><path d="M9.07 43.397c.158.211-.211.158.369.211h.527l6.539-.053.053-4.904c-.158.105-.158 0-.158.58v4.218c-.949.053-6.697.105-7.277-.053H9.07z" fill="#6dce6b"/></svg>