<svg xmlns="http://www.w3.org/2000/svg" width="123" height="42" fill="none" fill-rule="evenodd" xmlns:v="https://vecta.io/nano"><path d="M27.39 33.917h1.001v6.797H27.39v-6.797zm5.203 6.796v-4.398h.901v.7l.7-.7c.2-.1.5-.2.7-.2.4 0 .7.1 1.001.4a1.28 1.28 0 0 1 .4.999v3.199h-.901v-2.899c0-.2-.1-.4-.2-.6-.2-.2-.4-.2-.6-.2-.3 0-.6.1-.8.4a1.69 1.69 0 0 0-.3 1v2.399h-.901v-.1zm8.305-5.698h.901v1.3h.901v.8h-.901v3.599h-.901v-3.599h-.7v-.8h.7v-1.3zm6.403 2.9h2.701c-.3-.6-.7-.9-1.301-.9s-1.101.3-1.401.9zm3.702.7h-3.802c.1.5.3.8.6.999a1.69 1.69 0 0 0 1.001.3c.5 0 1.001-.2 1.301-.7l.7.5c-.5.7-1.201 1-2.101 1-.7 0-1.201-.2-1.601-.7a2.41 2.41 0 0 1-.7-1.699c0-.6.2-1.2.7-1.599.4-.5 1-.7 1.601-.7s1.201.2 1.601.7c.5.5.7 1.1.7 1.799v.1zm5.103-2.3v.9a2.76 2.76 0 0 1 .6-.8c.2-.2.5-.2.8-.2.1 0 .2 0 .4.1l-.3.9c-.2 0-.3-.1-.4-.1-.3 0-.6.1-.8.3s-.3.5-.3.8v2.399h-.901v-4.398h.901v.1zm5.704 4.398v-4.398h.901v.7l.7-.7c.2-.1.5-.2.7-.2.4 0 .7.1 1.001.4a1.28 1.28 0 0 1 .4.999v3.199h-.9v-2.899c0-.2-.1-.4-.2-.6-.2-.2-.4-.2-.6-.2-.3 0-.6.1-.8.4a1.69 1.69 0 0 0-.3 1v2.399h-.901v-.1zm11.806-2.199a1.28 1.28 0 0 0-.4-1c-.3-.3-.6-.4-1.001-.4s-.7.1-1.001.4a1.28 1.28 0 0 0-.4 1c0 .4.1.8.4 1.1s.6.4 1.001.4.8-.1 1.001-.4a1.28 1.28 0 0 0 .4-1v-.1zm-.1-2.199h.901v4.398h-.901v-.9c-.5.7-1.001 1-1.701 1-.6 0-1.101-.2-1.501-.7a2.52 2.52 0 0 1-.6-1.699c0-.6.2-1.2.6-1.599.4-.5.9-.7 1.501-.7.3 0 .7.1 1.001.3s.6.4.7.7v-.9.1zm5.704-1.3h.901v1.3h.9v.8h-.9v3.599h-.901v-3.599h-.8v-.8h.8v-1.3zm5.703 1.299h.9v4.398h-.9v-4.398zm-.3-1.499c0-.2.1-.4.2-.5s.3-.2.5-.2.4.1.5.2.2.3.2.5-.1.4-.2.5-.3.2-.5.2-.4-.1-.5-.2-.2-.3-.2-.5zm9.205 3.699a1.28 1.28 0 0 0-.4-1c-.3-.3-.6-.4-1.001-.4s-.801.1-1.001.4a1.28 1.28 0 0 0-.4 1 1.28 1.28 0 0 0 .4 1c.3.3.6.4 1.001.4s.7-.1 1.001-.4a1.28 1.28 0 0 0 .4-1zm-3.802 0c0-.6.2-1.1.7-1.599s1.001-.7 1.601-.7 1.201.2 1.701.7.7 1 .7 1.599-.2 1.2-.7 1.599c-.5.5-1.001.7-1.601.7-.7 0-1.201-.2-1.701-.7s-.7-1-.7-1.599zm8.605 2.199v-4.398h.901v.7l.7-.7c.201-.1.501-.2.701-.2.4 0 .7.1 1 .4s.401.6.401.999v3.199h-.901v-2.899c0-.2-.1-.4-.2-.6-.2-.2-.4-.2-.6-.2-.301 0-.601.1-.801.4a1.69 1.69 0 0 0-.3 1v2.399h-.901v-.1zm11.806-2.199a1.28 1.28 0 0 0-.4-1c-.3-.3-.6-.4-1.001-.4a1.28 1.28 0 0 0-1 .4 1.28 1.28 0 0 0-.4 1c0 .4.1.8.4 1.1s.6.4 1 .4.801-.1 1.001-.4a1.28 1.28 0 0 0 .4-1v-.1zm-.1-2.199h.901v4.398h-.901v-.9c-.5.7-1 1-1.701 1a1.8 1.8 0 0 1-1.501-.7 2.52 2.52 0 0 1-.6-1.699c0-.6.2-1.2.6-1.599a1.8 1.8 0 0 1 1.501-.7c.3 0 .701.1 1.001.3s.6.4.7.7v-.9.1zm5.503-2.6h.901v6.997h-.901v-6.997z" fill="#000"/><path d="M11.681 15.823c1.701-.2 3.602-.6 5.703-1.499l2.802 5.498-6.203 3.099c-1.101-2.599-1.801-4.998-2.301-7.197v.1zM7.779 26.118a20.88 20.88 0 0 1-1.701-10.796 17.07 17.07 0 0 0 4.102.5h.7c.4 2.199 1.201 4.698 2.401 7.497l-5.503 2.799zm-4.202 2.099c-1.701-3.798-2.101-8.097-1.001-12.395.2-.6.4-1.099.6-1.699.5.3 1.301.6 2.201.9-.3 3.199-.1 7.197 1.801 11.395l-3.502 1.799h-.1zM7.079 7.926c-.6 1.499-1.201 3.299-1.601 5.498 0 .3-.1.6-.1.9-.8-.3-1.501-.6-2.001-.8.901-2.099 2.101-3.898 3.702-5.498v-.1zm4.102-3.199c-.6 1.999-1.201 5.498-.4 10.296-1.801.1-3.402-.2-4.703-.5 0-.3.1-.6.1-1 .5-2.999 1.601-5.498 2.301-6.997.8-.7 1.701-1.299 2.601-1.799h.1zm1.001-.5s.1 0 .1-.1l4.703 9.496c-2.001.8-3.802 1.3-5.503 1.399-.9-5.398 0-9.196.6-10.796h.1zm2.301-1c1.601 1.1 4.703 3.299 7.504 6.297-1.701 1.699-3.502 3.099-4.202 3.598l-4.703-9.396c.5-.2.9-.4 1.401-.6v.1zm4.302-.9c1.401.2 3.202.7 5.103 1.599.5.2 1.001.5 1.401.7-.5 1.499-1.501 2.999-2.702 4.298-2.501-2.799-5.403-4.898-7.104-5.998 1.101-.3 2.201-.5 3.302-.6zm6.704.6c0 .3 0 .7-.1 1-.4-.3-.901-.5-1.301-.7-.8-.4-1.601-.7-2.401-.9 1.301.1 2.601.3 3.802.6zm-7.104 26.989c-1.801-2.199-3.202-4.598-4.002-6.197l6.204-3.199.901 1.699.4-1-.6-1.1 1.301-.6.4-1.099-2.001.999-2.802-5.598c.7-.5 2.602-1.899 4.403-3.698.901 1 1.701 2.099 2.501 3.299l.4-.9a32.51 32.51 0 0 0-2.301-2.899c1.201-1.399 2.301-2.899 2.902-4.498.8.5 1.601 1.1 2.301 1.799.2-.2.5-.3.7-.4-.901-.9-1.801-1.599-2.802-2.199.1-.4.1-.8.1-1.2 3.902 1.2 7.304 3.798 9.706 7.197h2.101C34.594 4.327 27.991.529 20.786.529c-3.002 0-5.803.6-8.305 1.799C5.378 5.527.375 12.624.375 20.821c0 6.797 3.402 13.095 9.005 16.793a21.24 21.24 0 0 0 6.103 2.799c1.701.5 3.502.7 5.203.7.5 0 1.001 0 1.501-.1l-.1-1.699c-2.101.2-4.102 0-6.103-.6-5.403-1.4-9.505-5.098-11.807-9.696l3.502-1.799c.1.1.1.2.2.4 2.201 4.498 5.803 8.097 10.506 10.396l.3-.7c-2.702-1.299-4.903-2.999-6.804-4.998-1.201-1.399-2.201-2.799-3.002-4.298-.2-.4-.4-.7-.5-1.1l5.503-2.799c.7 1.499 2.101 3.898 4.302 6.497l.2.2c0-.2.1-.5.2-.7l.1-.1-.3-.1z" fill="#359740"/><path d="M30.192 15.124L26.89 24.52h6.404l-3.002-9.396h-.1zm5.303 16.093l-1.501-4.498h-8.005l-1.601 4.498h-3.302l8.705-21.691h.8l8.105 21.691h-3.202zm19.211-20.593l-1.001 2.499c-.901-.7-2.401-1-4.403-1-1.901 0-3.402.8-4.503 2.399s-1.701 3.699-1.701 6.297c0 2.399.6 4.398 1.701 5.897 1.201 1.499 2.702 2.299 4.503 2.299 2.001 0 3.502-.7 4.603-2.099l1.601 2.199c-1.701 1.699-3.902 2.499-6.504 2.499-2.802 0-5.003-1-6.604-2.999s-2.401-4.698-2.401-7.997c0-3.199.9-5.798 2.601-7.997 1.701-2.099 3.902-3.199 6.604-3.199 2.301 0 4.102.4 5.503 1.2zm7.204 1.799v7.897l2.001.1c3.602 0 5.403-1.399 5.403-4.298 0-2.599-1.901-3.898-5.803-3.898-.4 0-.9 0-1.601.1v.1zm0 10.496v8.197h-2.902V9.724l4.002-.1c6.204 0 9.305 2.099 9.305 6.197 0 4.798-2.702 7.197-8.205 7.197-.3 0-1.101 0-2.201-.1z" fill="#000"/><path d="M78.719 12.423v6.997c.7.1 1.401.1 2.001.1 1.801 0 3.002-.3 3.802-.8.8-.6 1.201-1.599 1.201-2.999 0-1.199-.4-2.099-1.301-2.599s-2.201-.8-4.102-.8c-.3 0-.9 0-1.701.1h.1zm8.805 18.792l-5.703-9.196c-.7 0-1.701 0-3.102-.1v9.296h-2.902V9.824l2.301-.1 3.102-.1c5.103 0 7.704 1.999 7.704 6.097 0 1.299-.4 2.599-1.201 3.599a5.14 5.14 0 0 1-2.902 1.999l6.204 9.796h-3.302l-.2.1zm13.908-7.696c-.9-.2-1.501-.3-1.801-.3-1.401 0-2.502.4-3.402 1.099s-1.301 1.599-1.301 2.599c0 1.599 1.001 2.399 2.902 2.399 1.401 0 2.602-.7 3.702-1.999v-3.798h-.1zm.3 5.898c-1.1 1.399-2.801 2.099-5.103 2.099-1.201 0-2.301-.4-3.202-1.299s-1.401-1.999-1.401-3.299c0-1.599.7-2.899 2.101-3.998s3.202-1.599 5.303-1.599c.6 0 1.201.1 2.001.4 0-2.499-1.101-3.798-3.402-3.798-1.701 0-3.102.5-4.002 1.399l-1.201-2.299c.5-.4 1.301-.8 2.201-1.099s1.801-.5 2.702-.5c2.301 0 3.902.5 4.903 1.499s1.501 2.699 1.501 4.898v5.598c0 1.399.4 2.299 1.2 2.699v1.399c-1.1 0-2.001-.2-2.501-.5-.6-.3-1.001-.9-1.201-1.599h.1zm9.706-19.691a1.66 1.66 0 0 1 1.201.5c.3.3.5.7.5 1.2s-.2.9-.5 1.2a1.66 1.66 0 0 1-1.201.5 1.66 1.66 0 0 1-1.201-.5c-.3-.3-.5-.7-.5-1.2s.2-.9.5-1.2a1.66 1.66 0 0 1 1.201-.5zm-1.501 21.591V18.023h-2.101v-2.299h4.903v15.594h-2.802zm7.404-4.5V9.224h2.802v17.193c0 .8.2 1.499.7 1.999s1.101.7 1.901.7v2.499c-3.602 0-5.403-1.599-5.403-4.698v-.1z" fill="#359740"/></svg>