<svg xmlns="http://www.w3.org/2000/svg" width="148" height="25" fill="none" fill-rule="evenodd" xmlns:v="https://vecta.io/nano"><path d="M131.292 19.757v-6.339c.244-4.267 3.779-4.998 4.388-2.926.366.975.122 8.046.122 9.265h3.78c0-1.828-.244-5.607.121-7.192.489-2.682 2.683-3.779 3.78-2.926.731.488.731 1.829.731 3.048 0 7.314-.61 7.192 3.657 7.192V13.54c0-2.072.244-3.901-.731-5.608-1.098-2.194-4.51-2.438-6.583-1.097-1.097.731-1.341 1.341-1.585 1.463-.974-1.341-1.585-2.194-3.779-2.316-1.829 0-3.414.975-4.023 1.951-.365-.366-.122-1.097-1.218-1.463-.489-.122-1.951-.122-2.439-.122v13.531h3.657l.122-.122z" fill="#0896ff"/><path d="M3.657 16.466c-.122-.732 0-1.829 0-2.56 0-2.682.122-2.438 2.926-2.438 3.413 0 3.17 3.413 1.951 4.511-.975.853-3.413.488-4.754.488h-.122zm0-7.924c0-4.51-.366-4.51 2.682-4.51 3.048.122 2.56 3.17 1.585 4.023-.853.731-2.926.488-4.267.488zM0 19.636h6.461c2.072 0 3.657-.488 4.876-1.585 1.829-1.585 2.316-4.876.731-6.949-.731-.975-1.341-1.097-1.829-1.463.366-.366 1.585-.975 1.951-3.17.488-3.17-1.585-5.242-4.754-5.608C5.973.74 3.779.74 2.194.74 0 .74 0 2.203 0 3.666v15.97zm84.602-10.24c.853-.244 1.95 0 2.438.366 1.585 1.341 1.463 5.608-.853 6.217-4.023 1.097-4.876-5.851-1.585-6.583zM83.993 25h1.829c.488-.244 6.095-.488 6.095-6.339V6.226c-.488 0-1.829-.122-2.194 0-.853.122-.853.488-1.219.975-.244-.122-.366-.366-.61-.488-.853-.488-1.463-.731-2.56-.853-8.655-.731-8.899 13.531-.61 13.653 1.585 0 2.194-.366 3.291-1.097.244 2.438-1.828 3.413-4.145 3.048-.975-.122-2.316-.853-2.926-.244-.244.244-.975 2.072-1.097 2.56.61.244 1.219.609 1.951.731.488.122 1.95.366 2.194.488zm-39.254-6.097v.853h3.901v-5.607c1.585 0 1.219.366 2.682 3.048 1.463 2.804.975 2.804 5.973 2.682-.366-.731-1.585-2.682-2.194-3.657s-1.463-3.17-2.194-3.657l1.097-1.463 3.169-4.754h-4.389l-2.56 4.023c-.366.61-.731.61-1.585.61-.244-1.463 0-4.145 0-5.851 0-4.023.244-3.901-3.901-3.901v17.92-.244zm23.772.854V16.1c0-2.194-.366-4.51 1.463-5.851.61-.488 2.072-.975 2.926-.366.731.488.731 1.829.731 2.926v3.657c0 2.56-.244 3.779 3.901 3.413v-6.217c0-1.829.122-4.023-.61-5.486-.732-1.341-1.951-2.194-3.901-2.194-1.463 0-2.438.244-3.535 1.097-.61.488-.488.488-.853.731l-.122-.122v-.122c-.609-1.463-1.829-1.219-3.779-1.219v13.531h3.901l-.122-.122zM35.84 9.273c4.511-.731 5.242 6.583 1.219 7.314-4.632.853-5.364-6.705-1.219-7.314zm.731 10.728c9.021 0 9.509-14.019-.244-14.019-9.143 0-9.631 14.019.244 14.019z" fill="#273b7d"/><path d="M115.81 13.418c-.487-5.12 6.096-5.608 6.583-.975.488 5.242-6.095 5.73-6.583.975zm2.317-7.436c-3.779.488-6.705 3.535-6.096 7.924.488 3.779 3.536 6.583 8.046 6.095 3.779-.366 6.583-3.657 6.095-7.924-.487-3.779-3.657-6.461-7.924-5.973l-.121-.122z" fill="#0896ff"/><path d="M20.48 9.273c4.511-.975 5.364 6.583 1.341 7.314-4.632.853-5.486-6.461-1.341-7.314zm-6.461 3.901c0 3.779 3.048 6.827 6.827 6.827 4.267 0 7.314-2.926 7.314-6.827v-.366c0-3.901-3.169-6.827-7.192-6.827-4.145 0-7.071 2.926-7.071 7.192h.122z" fill="#273b7d"/><path d="M110.081 14.879c-.976.61-2.316 2.438-4.877 1.829-4.144-.975-3.535-7.314.732-7.436 1.95 0 1.707.853 2.072 1.341.61.61 2.073.366 2.926.366.244-2.194-.122-3.413-1.707-4.267-1.341-.731-3.291-.853-4.998-.609-7.192 1.341-7.558 11.215-1.341 13.41 3.414 1.219 7.071 0 8.656-2.072l-1.585-2.682.122.122z" fill="#0896ff"/><path d="M58.515 19.755h3.901v-8.777c0-4.754.366-4.876-3.901-4.876v13.653z" fill="#273b7d"/><path d="M97.89 18.294c.366-1.341-.488-2.56-1.463-2.804-1.341-.366-2.56.488-2.804 1.463-.853 2.926 3.413 4.145 4.267 1.341z" fill="#0896ff"/><path d="M60.587.374h-.853c-.609.366-1.95.731-1.707 2.56.244 2.682 4.389 2.56 4.511-.122 0-1.707-1.219-2.072-1.95-2.316V.374z" fill="#273b7d"/></svg>