<svg xmlns="http://www.w3.org/2000/svg" width="53" height="37" fill="none" fill-rule="evenodd" xmlns:v="https://vecta.io/nano"><path d="M47.15.437H5.842C2.989.437.634 2.684.634 5.573V31.4c0 2.889 2.354 5.208 5.208 5.208H47.15c2.854 0 5.208-2.319 5.208-5.208V5.573c0-2.889-2.354-5.137-5.208-5.137z" fill="#f01414"/><path d="M48.542 31.398c0 .82-.606 1.498-1.427 1.498H5.807c-.82 0-1.427-.642-1.427-1.498V5.572c0-.82.606-1.498 1.427-1.498h41.308c.82 0 1.427.642 1.427 1.498v25.826z" fill="#fff"/><path d="M16.437 30.365H7.733V6.679h8.704c6.135 0 9.524 3.853 9.524 11.736 0 6.849-2.283 11.914-9.524 11.95zm3.781-11.451c0-4.78-.499-8.49-5.636-8.49H13.44v16.124h2.033c2.996 0 4.78-2.426 4.78-7.634h-.036zm20.761-.927c1.677-.428 4.138-2.354 4.138-5.529 0-.499-.107-5.779-6.778-5.779h-9.917v23.686h8.383c2.212 0 9.132 0 9.132-6.671 0-1.677-.678-4.78-4.958-5.743v.036zm-6.885-7.634h1.784c2.533 0 3.567.892 3.567 2.854 0 1.569-1.106 2.854-3.103 2.854h-2.247v-5.708zm2.319 16.195h-2.319v-6.1h2.497c2.961 0 3.674 1.712 3.674 3.032 0 3.032-2.925 3.032-3.817 3.032l-.036.036z" fill="#f01414"/></svg>