<svg xmlns="http://www.w3.org/2000/svg" width="117" height="17" fill="none" fill-rule="evenodd" xmlns:v="https://vecta.io/nano"><path d="M104.136 2.55v14.021c0 .093 0 .093.093.093h3.524V8.307h.093V8.4l.278.371 2.133 3.436 2.411 3.9c.556.743 1.484.557 2.411.557 1.02 0 1.576-.743 1.576-1.671V2.55c0-1.021-.649-1.671-1.483-1.671h-2.133v8.636L109.237 3.2c-.093-.093-.186-.186-.186-.279-.092-.093-.092-.186-.185-.279l-.742-1.114c-.186-.371-.649-.65-1.113-.65h-1.391a1.56 1.56 0 0 0-.927.279l-.186.186c-.092.186-.185.279-.278.464-.093.279-.093.464-.093.743zM88.557 8.771h-4.729V5.614c0-.279.093-.464.093-.65.093-.186.186-.186.278-.279 0-.093 0-.093.093-.186s.278-.186.371-.279c.185 0 .371-.093.649-.093h1.947c.556 0 1.113.464 1.298.929.093.279.093.371.093.743v1.114.371 1.207c0 .093.093.279-.093.279zM80.119 4.5v12.164h3.709v-4.829h4.729c.093 0 .093 0 .093.093v4.736h3.709V4.686c0-2.043-1.762-3.807-3.802-3.807H83.92a4.13 4.13 0 0 0-2.133.65c-.557.371-1.02.836-1.298 1.486-.186.371-.371 1.021-.371 1.486zm-9.83 4.271h-2.226c-.093 0-.093 0-.093-.093v-4.55h2.411c1.02 0 1.855.557 2.226 1.3.371.836.186 1.671-.278 2.321-.464.743-1.206 1.021-2.04 1.021zm-5.935-6.407v14.3h3.617v-4.829h1.298c.371 0 .556.093.742.371.093.186.278.371.371.557l.649 1.021.278.279 1.113 1.671c0 .093.093.186.185.278l.464.65h4.451c0-.186-.835-1.207-.927-1.393-.185-.186-.371-.464-.464-.65-.185-.186-.371-.464-.556-.65l-.742-1.021a.7.7 0 0 0-.186-.371c-.185-.186-.927-1.207-1.02-1.393.185 0 .464-.186.649-.279.556-.371 1.02-.929 1.391-1.486.093-.186.278-.279.371-.557 1.113-2.229.742-4.643-1.02-6.5-1.02-.929-2.411-1.486-3.802-1.486h-5.378c-.835 0-1.484.65-1.484 1.486zm-64.078 0v14.3h4.08V10.35H9.92c.371 0 .835-.093 1.113-.371.185-.279.556-.65.556-1.114V7.193H4.357V4.964c0-1.114 1.298-.836 2.04-.836h5.749c.371-.093.742-.279.927-.557.278-.279.371-.557.371-1.114V.879H1.76A1.53 1.53 0 0 0 .276 2.364zm49.334.186v1.671c0 .093 0 .093.093.093h4.266v12.35h3.895V4.314h2.782a1.53 1.53 0 0 0 1.484-1.486V.879H51.094c-.835 0-1.484.65-1.484 1.671zM15.114 15.179a1.53 1.53 0 0 0 1.484 1.486h8.346c.649 0 1.113-.371 1.298-.743.371-.557.186-.929.186-1.764v-.743h-6.399c-.649 0-.835-.372-.835-1.021V3.107c0-.743 0-1.114-.278-1.579-.278-.371-.649-.65-1.206-.65h-2.597v14.3z" fill="#73d700"/><path d="M35.144 2.457c0 .929.371 1.207.835 1.857l2.689 3.714c.093.093.186.279.278.371 0 .093.093.093.093.186l.185.186-.556.743-2.133 2.971c-.556.743-1.391 1.579-1.391 2.414 0 .371 0 .65.185.929.649 1.3 2.411 1.486 3.338.278l1.762-2.414 2.689-3.807.649-.836c.278-.371.278-.186-.186-.836-.093-.093-.093-.186-.185-.279L40.429 3.85c-.093-.093-.093-.186-.186-.279l-1.576-2.136c-1.298-1.671-3.524-.557-3.524 1.021z" fill="#ffad00"/><path d="M96.347 2.55v14.021c0 .093 0 .093.093.093h3.709V.879h-2.318c-.649 0-1.206.371-1.391.929-.093.279-.093.464-.093.743zM28.282 8.585v8.078h3.987V7.192h-2.411c-.927 0-1.576.743-1.576 1.393zm14.28-4.363c.093.093.185.279.278.371l1.576 2.229c.093.093.464.557.464.65.093-.093.278-.371.464-.557.093-.186.278-.371.371-.557l2.04-2.879c.371-.464.371-1.207.093-1.764-.093-.186-.093-.186-.185-.279-.742-.929-1.947-1.114-2.875-.279-.185.093-.556.743-.742.929-.093.093-.185.186-.185.279l-1.298 1.857zm0 9.099c0 .186 1.762 2.6 2.04 2.971.371.372.927.65 1.484.65 1.02 0 1.947-.928 1.947-1.857 0-.371 0-.65-.278-1.021l-2.782-3.9s0-.093-.093-.093c0 .093-.186.371-.278.371l-1.206 1.671c0 .093-.093.093-.093.186l-.464.65c-.093.093-.185.279-.278.371zm-14.28-11.05v3.436h2.411c.464 0 .835-.186 1.113-.371.186-.279.464-.65.464-1.114V2.364c0-.836-.649-1.486-1.484-1.486s-1.484-.186-2.04.371c-.278.279-.464.65-.464 1.021z" fill="#73d700"/></svg>