<svg xmlns="http://www.w3.org/2000/svg" width="118" height="35" fill="none" xmlns:v="https://vecta.io/nano"><path d="M37.252 19.476l-.002.282c-.017 1.177-.144 2.328-.37 3.443l-.45 1.766a18.42 18.42 0 0 1-.727 1.96 18.54 18.54 0 0 1-1.013 1.984l-.843 1.304-.295.406-.024.031-1.161 1.399-1.016-1.399-1.213-1.669-.017-.024-1.477-2.032-.808-1.113-.002-.002c.552-.8 1.003-1.677 1.333-2.61.156-.442.285-.897.385-1.363.164-.761.25-1.552.25-2.363s-.086-1.601-.25-2.363c-.311-1.448-.904-2.792-1.718-3.973l.002-.002-.096-.132-.107-.147a11.22 11.22 0 0 0-2.438-2.426c-1.014-.738-2.157-1.31-3.389-1.674-.66-.196-1.346-.332-2.05-.404l-1.13-.056-1.13.056c-.705.072-1.39.208-2.05.404-1.232.364-2.374.936-3.388 1.674-.932.679-1.755 1.497-2.438 2.426l-.106.147-.096.132.002.002c-.814 1.18-1.407 2.524-1.718 3.973-.164.761-.25 1.552-.25 2.363s.086 1.601.25 2.363a11.15 11.15 0 0 0 .385 1.363c.33.933.781 1.81 1.333 2.61l-.002.002-.808 1.113-1.477 2.032-.017.024-1.213 1.669-1.016 1.399-1.162-1.399-.024-.031-.295-.406-.842-1.304a18.54 18.54 0 0 1-1.013-1.984 18.49 18.49 0 0 1-.727-1.96C.644 24.39.494 23.8.372 23.201c-.226-1.114-.353-2.266-.37-3.443L0 19.476l.002-.282c.027-1.811.312-3.559.82-5.209.428-1.391 1.016-2.713 1.74-3.943l.842-1.304.293-.402.002-.004 1.185-1.43c.844-.922 1.779-1.758 2.792-2.495 1.007-.732 2.089-1.366 3.233-1.888.721-.329 1.467-.613 2.234-.849l1.472-.387a18.58 18.58 0 0 1 3.726-.431l.283-.002.283.002c1.278.019 2.524.166 3.726.431l1.472.387c.767.235 1.513.52 2.234.849a18.62 18.62 0 0 1 3.233 1.888 18.75 18.75 0 0 1 2.792 2.495l1.185 1.43.002.004.293.402.843 1.304c.724 1.231 1.311 2.552 1.74 3.943a18.61 18.61 0 0 1 .82 5.209l.002.282z" fill="#fdba20"/><path d="M24.039 26.925H13.213l.808-1.112.225-.311 1.673-2.302h5.413l1.673 2.302.225.311.808 1.112zm5.413 7.45H7.801l1.617-2.226.45-.619.639-.881h16.239l.639.881.45.619 1.617 2.226zM73.05 10.576h5.648c-.214-1.48-1.305-2.395-2.746-2.395-1.48 0-2.571.935-2.902 2.395zm8.063 1.928H73.05c.311 1.363 1.305 2.434 3.233 2.434a6.53 6.53 0 0 0 3.486-1.091l1.013 1.811c-.993.74-2.668 1.461-4.596 1.461-3.973 0-5.726-2.727-5.726-5.531 0-3.155 2.201-5.531 5.492-5.531 2.98 0 5.239 1.967 5.239 5.317 0 .428-.039.779-.078 1.13zm-22.078-1.742v6.154h-2.551v-6.154c0-1.402-.818-2.356-2.22-2.356-1.422 0-2.24.954-2.24 2.356v6.154h-2.551v-6.154c0-2.96 1.831-4.674 4.791-4.674 2.921 0 4.771 1.733 4.771 4.674zM95.44 8.494a2.62 2.62 0 0 0-.693-.088c-1.422 0-2.239.954-2.239 2.357v6.154h-2.551v-6.154c0-2.96 1.831-4.674 4.791-4.674a6.22 6.22 0 0 1 1.508.175l-.816 2.23zm-6.94 0c-.211-.058-.442-.088-.692-.088-1.422 0-2.24.954-2.24 2.357v6.154h-2.551v-6.154c0-2.96 1.831-4.674 4.791-4.674a6.22 6.22 0 0 1 1.508.175l-.816 2.23zm17.034 3.095c0-1.753-1.266-3.214-3.116-3.214-1.87 0-3.097 1.461-3.097 3.214 0 1.772 1.247 3.233 3.097 3.233s3.116-1.461 3.116-3.233zm2.356-5.278v10.575h-2.414v-1.305a4.48 4.48 0 0 1-3.448 1.558c-3.057 0-5.238-2.454-5.238-5.589 0-3.174 2.22-5.492 5.238-5.492 1.52 0 2.63.682 3.448 1.597V6.311h2.414zm4.663 0h-2.551v10.575h2.551V6.311zm4.634-4.225h-2.532v14.801h2.532V2.086z" fill="#161033"/><path d="M109.671 3.451a1.57 1.57 0 0 1 1.617-1.597c.895 0 1.616.682 1.616 1.597s-.721 1.597-1.616 1.597a1.57 1.57 0 0 1-1.617-1.597z" fill="#fdba20"/><path d="M47.355 6.311h-2.551v10.575h2.551V6.311zm-2.882-2.86a1.57 1.57 0 0 1 1.616-1.597c.896 0 1.617.682 1.617 1.597s-.721 1.597-1.617 1.597a1.57 1.57 0 0 1-1.616-1.597zM69.235 16.3c-.811.56-1.969.869-3.031.869-2.375 0-3.591-1.429-3.591-4.093V8.557h-1.737V6.434h1.776V2.727h2.491v3.707h3.514v2.124h-3.514v4.421c0 1.236.444 1.892 1.525 1.892.676 0 1.255-.232 1.776-.541l.792 1.969zm-22.62 11.385h5.673c-.215-1.487-1.311-2.406-2.758-2.406-1.487 0-2.582.939-2.915 2.406zm8.099 1.936h-8.099c.313 1.369 1.311 2.445 3.247 2.445 1.193 0 2.582-.45 3.502-1.096l1.017 1.819c-.998.743-2.68 1.467-4.617 1.467-3.991 0-5.751-2.739-5.751-5.556 0-3.169 2.211-5.556 5.517-5.556 2.993 0 5.262 1.976 5.262 5.341 0 .43-.039.782-.078 1.134zm1.918-.038v-6.182h2.563v6.182c0 1.409.822 2.367 2.23 2.367 1.428 0 2.25-.958 2.25-2.367v-6.182h2.563v6.182c0 2.973-1.839 4.695-4.812 4.695-2.934 0-4.793-1.741-4.793-4.695zm16.995-3.988c-.212-.058-.445-.088-.695-.088-1.428 0-2.25.958-2.25 2.367v6.182h-2.563v-6.182c0-2.973 1.839-4.695 4.813-4.695a6.25 6.25 0 0 1 1.515.176l-.82 2.24zm10.042 3.108c0-1.761-1.271-3.228-3.13-3.228-1.878 0-3.11 1.467-3.11 3.228 0 1.78 1.252 3.247 3.11 3.247s3.13-1.467 3.13-3.247zm2.367-5.302v10.622H83.61v-1.311c-.802.9-1.937 1.565-3.463 1.565-3.071 0-5.262-2.465-5.262-5.614 0-3.189 2.23-5.517 5.262-5.517 1.526 0 2.641.685 3.463 1.604V23.4h2.426zm4.696.001h-2.563v10.623h2.563V23.402zm4.66-4.246h-2.543v14.868h2.543V19.156z" fill="#161033"/><path d="M87.837 20.525c0-.919.704-1.604 1.624-1.604.9 0 1.624.685 1.624 1.604s-.724 1.604-1.624 1.604c-.919 0-1.624-.685-1.624-1.604z" fill="#fdba20"/></svg>