<svg xmlns="http://www.w3.org/2000/svg" width="67" height="44" fill="none" fill-rule="evenodd" xmlns:v="https://vecta.io/nano"><path d="M10.339 10.414c.153-.304.076-.228.305-.455.153-.152.229-.228.381-.303l1.908-1.897c.382-.379 2.213-2.428 2.671-2.428H28.12c.916 0 1.297.152 1.755.683l6.029 5.918c.763.759 1.45 1.593 2.442 2.276 2.289 1.669 5.189 1.29 8.395 1.29h9.539c-.229.455-3.663 3.718-4.579 4.552-.229.228-.382.531-.839.531H39.949c-1.068 0-2.213.152-2.976-.455-.458-.379-4.274-4.173-4.884-4.856-2.518-2.504-4.197-4.932-8.013-4.932H10.339v.076zM46.054.247c.305.152 4.503 4.401 5.113 5.008l2.595 2.58 2.213 2.2c.229.228.153.076.305.379h-9.92c-5.571 0-4.35.303-7.25-2.58l-4.884-4.932C32.241.929 31.096.171 27.128.171H14.841c-1.297 0-1.297-.228-1.984.455l-7.403 7.36L.57 12.842c.229.379 3.511 3.566 4.121 4.097l8.242 8.194c.611.607.458.455 1.603.455h6.029c-.916-1.214-9.692-9.408-10.15-10.167 3.205-.152 6.64 0 9.921 0 5.495 0 4.35-.379 7.25 2.504l4.961 4.932c2.442 2.428 3.434 2.731 7.021 2.731h12.44c1.374 0 1.145.228 1.908-.531l9.845-9.788c.534-.531 2.061-1.973 2.442-2.504-1.297-1.366-2.747-2.732-4.121-4.097L53.839.474c-.611-.607-.534-.455-1.603-.455-1.221 0-5.419-.076-6.029.076l-.153.152zm-.763 40.819c-.153-2.276 2.518-2.352 2.595-.303 0 .835-.229 1.745-1.145 1.821-.992.076-1.374-.607-1.45-1.517zm-1.374.076c.153 3.414 5.571 3.263 5.342-.379-.229-3.49-5.495-3.338-5.342.379zm-26.405-.757c0-1.517 2.29-1.593 2.213 0h-2.213zm3.129 1.745c-1.297.455-2.824 1.062-3.129-.835h3.511c0-1.442-.305-2.58-1.603-2.959-3.205-.986-4.197 3.263-2.366 4.704 1.068.835 2.366.531 3.587.152V42.13zm38.54-.988c0 .607-.153.986-.534 1.29-1.068.759-2.213-.607-1.068-1.138.458-.228 1.068-.152 1.603-.152zm-2.747-1.366c.839-.303 2.824-1.214 2.747.531-.839.152-1.679 0-2.442.303-2.213 1.062.076 4.628 2.518 2.2l.076.683h1.145c.076-.91 0-3.87-.382-4.477-.458-.835-1.832-.835-2.824-.683-.153 0-.305.076-.458.152l-.458.228v1.062h.076zm-5.037 3.718c.076-1.366-.382-3.945 1.068-4.173 1.45-.152.916 2.276.992 4.173h1.297c.076-.91.153-3.642-.229-4.401-.611-1.214-2.442-1.138-3.129-.076l-.076-.607h-1.297v5.084h1.297.076zm-43.501 0c.076-1.366-.382-4.097 1.068-4.173s.763 2.2.992 4.173h1.297v-3.035c0-1.138-.305-1.897-1.145-2.124-.992-.303-2.137.228-2.289.683l-.153-.683H6.523v5.084H7.82l.076.076zm25.108-1.896c.763-.531.916-.455 1.984-.455 0 .683-.229 1.29-.839 1.442-.839.228-1.297-.152-1.145-.986zm-.763-1.897c.534-.228.84-.531 1.603-.531s1.145.379 1.068 1.062c-1.603 0-3.663.152-3.205 2.124.153.607.763 1.138 1.526 1.138.992.076 1.45-.455 1.832-.835l.076.683h1.145c.076-.91 0-3.794-.382-4.477-.611-1.062-2.442-.835-3.663-.379v1.138.076zm-5.037 3.719c.076-1.366-.458-4.021 1.068-4.173 1.45-.152.916 2.125.992 4.173h1.297c.076-.986.153-3.642-.229-4.401-.687-1.138-2.061-.986-3.205-.076v-.607H25.83v5.084l1.297-.076.076.076zm-11.676-.988c-.916.228-1.221 0-1.221-.91 0-.531-.076-1.745.076-2.2h1.145v-.986h-1.145v-1.442l-1.297.379v1.062h-.992l.076.986.916.076c0 2.656-.611 4.552 2.595 4.097l-.076-1.062h-.076zm21.445-3.113h.992c0 2.504-.611 4.704 2.595 4.173l-.076-.986c-1.526.303-1.221-.228-1.221-3.111h1.145v-.986h-1.145v-1.442l-1.297.455v.986h-.992v.986-.076zm24.879 4.175h1.297v-7.436h-1.297v7.436zm-58.153.001l1.374-.076v-6.828H3.699v6.904zm19.842-.076c.076-.91-.076-1.897.076-2.807.153-.986.534-1.214 1.603-1.062v-1.29c-.992-.152-1.526.379-1.832 1.062v-.986h-1.221v5.084h1.297.076z" fill="#010066"/><path d="M41.552 43.494h1.297v-5.159h-1.297v.152 5.008z" fill="#000065"/><path d="M41.552 37.424h1.297v-.91-.379h-1.297v.379.607.303z" fill="#010066"/></svg>