<svg xmlns="http://www.w3.org/2000/svg" width="98" height="26" fill="#960038" fill-rule="evenodd" xmlns:v="https://vecta.io/nano"><path d="M81.821 13.314c1.317-.325 3.629-.03 5.706.532 1.317.354 2.546 1.004 3.687 1.832.527.355 1.551 1.064 2.078 1.773.614.886.322 1.27-.351 1.507-.556.207-1.609-.177-2.692.148-2.487.768-2.253 2.777.088 3.841.644.296 1.609.768 2.634 1.034 1.931.502 4.009.768 4.419.886.966.296.644.62.029.561l-3.19-.296-2.546-.325c-2.019-.414-4.243-1.448-6.321-2.275-2.458-1.005-6.35-1.802-9.715-1.566-1.141.089-2.078.62-3.073.916-.644.177-3.775 1.654-6.555 2.6-1.99.68-3.57.946-4.009.739-.293-.148.497-.414 1.551-.857l4.506-1.891c1.2-.62 1.844-1.241 2.633-1.743 2.985-1.921 3.98-2.807 6.847-3.457 1.668-.384 3.892-.945 7.696-1.005l1.346.03c1.083.118 1.931-.177 2.107-.473.146-.236-.673-.561-1.756-.768 0 0-1.873-.118-3.424-.443-1.726-.355-3.131-.945-1.668-1.33l-.029.03zM6.091 4.747h1.931a1.96 1.96 0 0 1 1.931 1.95v15.718H8.022a1.96 1.96 0 0 1-1.931-1.95V4.747zM2.17 18.219a1.979 1.979 0 1 1 0 3.959 1.97 1.97 0 0 1-1.961-1.98 1.97 1.97 0 0 1 1.961-1.98zM12.968.757h1.931a1.96 1.96 0 0 1 1.931 1.95v2.275h3.628v1.98H16.83v10.666c.088 1.536.585 2.246 1.346 2.57.995.414 2.429.03 4.067.03l.029 1.684c-1.2.059-2.575.325-3.804.207l-.907-.118c-.995-.177-1.961-.561-2.809-1.211-1.96-1.566-1.785-4.225-1.785-6.471V.787.757zm23.819 11.229v10.075h-1.785c-.995 0-1.785-.827-1.785-1.802-.79.709-1.112 1.152-2.019 1.477-2.019.739-4.623.886-6.584-.62-.849-.65-1.522-1.625-1.726-3.191-.439-3.368 1.609-6.352 5.911-6.352h4.419v-.739c0-1.389-.468-2.275-1.2-2.866-1.083-.886-2.809-1.064-4.477-1.064h-2.868V5.043h2.809c1.726 0 3.189.059 4.945.68 1.346.473 2.663 1.241 3.424 2.216.878 1.093.995 2.718.995 4.077l-.058-.03zm-3.745 1.477c0 1.3.117 2.541-.088 3.664-.527 2.748-2.897 3.457-4.448 3.102-.966-.207-1.785-.827-2.019-2.098-.176-.916-.059-1.98.585-2.866.702-1.005 2.078-1.684 3.746-1.773l2.195-.059.029.03zM39.479.757h1.931a1.96 1.96 0 0 1 1.931 1.95v14.921c.088 1.536.585 2.246 1.346 2.57.995.414 2.429.03 4.067.03l.029 1.684c-1.2.059-2.575.325-3.804.207l-.907-.118c-.995-.177-1.961-.561-2.809-1.211-1.96-1.566-1.785-4.225-1.785-6.471V.787.757zm16.386 4.256c4.623 0 8.369 3.871 8.369 8.627s-3.745 8.627-8.369 8.627-8.369-3.87-8.369-8.627 3.746-8.627 8.369-8.627zm-.146 1.98c2.604 0 4.711 3.014 4.711 6.737s-2.107 6.736-4.711 6.736-4.711-3.014-4.711-6.736 2.107-6.737 4.711-6.737z"/></svg>