<svg xmlns="http://www.w3.org/2000/svg" width="90" height="45" fill="none" fill-rule="evenodd" xmlns:v="https://vecta.io/nano"><path d="M49.062 32.435c0-.832-.651-1.663-1.488-1.663-.651 0-1.116.185-1.395.647-.093.185-.279.37-.372.554l-1.302 1.478-.465.462c-.279.277-.465.462-.744.647-.093.092-.093.185-.279.185-.186.185-.279.277-.558.37l-1.023.832c-.186.092-.372.277-.558.37-1.023.739-2.139 1.294-3.348 1.848-.744.37-1.581.647-2.325.924l-2.976.832c-3.812.739-7.16.832-10.973.092-.744-.092-1.395-.277-2.046-.462s-1.302-.37-1.953-.647c-.651-.185-1.209-.462-1.767-.739s-1.209-.554-1.674-.832l-1.581-.924c-.744-.462-1.488-1.017-2.139-1.571-.372-.277-1.674-1.479-1.953-1.848-.651-.832-1.395-1.571-1.953-2.495-.279-.554-.651-1.016-.93-1.571a17 17 0 0 1-1.488-4.805c-.186-.924-.186-1.848-.186-2.772 0-.462.093-.739.093-1.201 0-.185.093-.37.093-.555s.093-.37.093-.554c.465-2.587 1.581-4.897 3.162-7.023.186-.277.372-.462.558-.739l.558-.647.651-.647c.465-.462.93-.924 1.488-1.386.651-.554 1.302-1.016 2.046-1.479l1.395-.832 1.023-.554c.279-.185.558-.277.837-.37.279-.185.558-.277.93-.37 1.581-.739 4.278-1.294 6.044-1.571a27.22 27.22 0 0 1 9.485.277c1.302.277 2.511.647 3.72 1.016.651.185 1.395.554 2.046.832l.93.462c1.116.554 2.232 1.201 3.162 1.941l.837.647c.93.739 1.86 1.663 2.697 2.587.279.37.558.832.837 1.016l.465.462c1.488.832 3.069-.832 2.139-2.31-.186-.185-.279-.462-.465-.647-.465-.554-1.674-1.941-2.139-2.403l-.279-.277c-.465-.462-1.023-.832-1.581-1.294-.651-.554-1.302-.924-2.046-1.386-1.209-.832-2.418-1.386-3.72-1.941-1.674-.739-3.44-1.201-5.207-1.663S28.977 0 27.303 0h-2.046c-.372 0-1.023.092-1.395.092-.279 0-.651.092-.93.092-1.116.092-3.348.554-4.277.832-1.674.462-2.232.647-3.719 1.294-.279.092-.465.185-.744.277-2.139 1.016-3.069 1.479-5.114 2.957l-1.116.924c-.279.185-.558.462-.837.739l-.744.739-.93 1.016-.93 1.109c-.279.37-.558.739-.837 1.201-.186.185-.279.37-.372.647-1.116 1.663-1.953 3.789-2.418 5.637-.186.832-.372 1.756-.372 2.587-.186 1.756-.093 2.865.186 4.713.186 1.386.558 2.68 1.116 3.973.372.924.837 1.848 1.302 2.772.093.185.279.37.372.647.465.832 1.116 1.571 1.674 2.31.186.185.279.37.465.554.372.462 1.116 1.201 1.488 1.571l.558.462 1.674 1.386c.372.277.744.554 1.209.832.744.462 1.488.924 2.232 1.294.558.277 1.116.554 1.767.832 2.232.924 3.627 1.386 6.137 1.941 2.232.462 4.835.647 7.439.554.651 0 1.209-.092 1.86-.185 2.883-.277 6.881-1.294 9.485-2.587.465-.185.93-.462 1.395-.647l1.302-.739c.837-.462 1.581-1.016 2.418-1.663.093-.092.186-.185.279-.185.093-.092.186-.185.279-.185a9.85 9.85 0 0 1 1.116-.924 5.31 5.31 0 0 0 1.023-1.016c.279-.37.651-.739.93-1.109.465-.554 1.116-1.201 1.116-1.94l-.279-.37z" fill="#0097a8"/><path d="M24.885 17.65c0 .37 1.488 4.436 1.581 4.898.186.462.279.832.372 1.201l.837 2.403c.186.462.372.739.93.739.837 0 .93-.739 1.209-1.294l.651-1.848c.372-.832.651-1.848 1.023-2.772.093-.185.279-.832.372-.924.093.37 1.395 3.881 1.674 4.528l.651 1.756c.279.554 1.116.554 1.488.277.279-.185.558-1.386.744-1.756l2.046-6.006c.186-.554.372-.924.372-1.386 0-.739-1.302-1.201-1.767-.37-.186.277-1.209 3.696-1.488 4.435l-.558 1.571v.092l-.093.092-.279-.924c-.093-.277-.186-.647-.372-.924-.279-.555-.465-1.201-.651-1.756l-.651-1.756c-.186-.647-.372-1.294-1.116-1.294s-.93.647-1.116 1.294l-1.302 3.604c0 .092-.558 1.663-.651 1.756l-.279-.832-.279-.924c-.186-.739-.465-1.571-.744-2.218 0-.092-.093-.277-.093-.462l-.279-.924c-.186-.555-.279-1.294-1.116-1.294-.558 0-1.023.37-1.023.924l-.093.092zm54.585.276v7.67c0 1.294 1.116 1.386 1.581.924.558-.462.279-1.94.279-2.772v-2.125c.093.092 1.209 2.587 1.302 2.772l.651 1.386c.279.554.372.924 1.023 1.016.744 0 .93-.832 1.395-1.663l.279-.739.651-1.386c.093-.277.465-1.109.651-1.294l.093-.092v4.066c0 1.386 1.953 1.386 1.953-.092v-7.762c0-1.201-1.116-1.386-1.767-.739l-.279.555-2.139 4.435c-.093.277-.744 1.479-.744 1.663-.093-.092-.93-1.848-1.116-2.218l-1.86-3.881c-.279-.555-.651-1.201-1.395-.924-.372.092-.651.462-.651 1.016l.093.185zm-9.95 3.975c0-.554.093-.924.279-1.386a3.27 3.27 0 0 1 1.395-1.571c.651-.277.93-.277 1.581-.277 1.581 0 2.79 1.479 2.79 2.957 0 1.109-.186 1.941-.837 2.587-.372.37-.93.647-1.488.832-.837.185-1.674 0-2.418-.462l-.186-.185c-.558-.462-1.023-1.479-1.023-2.403l-.093-.092zm-2.046-.37c0 1.016.093 1.571.465 2.495.558 1.109 1.395 1.941 2.511 2.403 1.674.647 3.441.554 4.928-.462.372-.185.465-.37.744-.647.837-.832 1.395-2.125 1.395-3.327 0-.647 0-.924-.186-1.663l-.279-.924c-1.581-3.327-5.858-3.696-8.09-1.386a4.11 4.11 0 0 0-.744 1.016c-.093.185-.093.277-.186.37-.186.462-.465 1.294-.465 1.941l-.093.185zm-9.857-.092c0 1.017 0 1.663.465 2.587.558 1.109 1.209 1.848 2.418 2.403 1.302.555 3.441.555 4.742-.37l.372-.277c1.116-.924.372-1.848-.372-1.848-.465 0-.744.277-1.209.554-.837.462-1.953.555-2.883.092s-1.395-1.294-1.581-2.218a3.48 3.48 0 0 1 0-1.386c0-.277.093-.37.186-.554.372-1.201 1.581-1.848 2.883-1.848s1.86.924 2.511.924c1.116 0 1.302-1.109.558-1.756-.372-.277-.372-.37-.837-.554-2.418-1.201-5.579-.37-6.788 2.033 0 .092-.093.185-.093.185-.186.462-.465 1.294-.465 1.941l.093.092zm-45.471.184c0 .739.372 1.016 1.023 1.571l3.162 3.142c.465.462.465.462 1.116.462.465 0 1.116-.647.93-1.386-.093-.37-.837-1.017-1.116-1.294l-1.953-1.94-.465-.462c.093-.185 1.023-1.016 1.209-1.201l1.86-1.756c.465-.462.837-1.016.279-1.663-.465-.554-1.209-.462-1.674 0l-4.091 4.158c-.093.092-.186.37-.186.462l-.093-.092zm28.826-3.973v8.409c0 1.017 2.139 1.479 2.139-.37v-7.67c0-1.848-2.139-1.386-2.139-.37zm-31.523 0v8.224c0 .277.186.554.279.647.651.554 1.86.277 1.86-.832v-7.855c0-.277-.186-.647-.279-.739-.651-.647-1.86-.185-1.86.647v-.092zm11.252 0v8.224c0 1.386 2.139 1.294 2.139 0v-8.132c0-.832-1.023-1.386-1.767-.739-.093.092-.279.462-.279.647h-.093z" fill="#221e1f"/><path d="M49.155 22.178c0 .462 0 .554.186 1.016.837 1.571 3.348 1.016 3.348-.832 0-1.479-1.767-2.31-2.976-1.294-.279.277-.558.739-.558 1.109z" fill="#0097a8"/></svg>