<svg xmlns="http://www.w3.org/2000/svg" width="78" height="23" fill="none" fill-rule="evenodd" xmlns:v="https://vecta.io/nano"><path d="M25.819 12.104v9.481c0 .499 1.507.312 2.448.312h2.762c.439-1.747-.126-9.294.188-10.292.628-2.245 4.331-2.433 4.269 1.123v8.296c0 .561-.125.811.439.873 1.381.062 3.327 0 4.834 0 .377-1.684-.126-9.169.188-10.292.502-1.996 2.888-1.996 3.767-.811.439.561.502.936.502 1.934v8.296c0 .561-.126.811.377.873 1.444.062 3.39 0 4.834 0 .251-1.06.126-7.61.126-9.169 0-1.684-.44-3.68-1.507-4.928l-.879-.936c-.251-.187-.251-.249-.565-.374-2.511-1.684-6.026-1.996-8.537-.187-1.381 1.06-.628.873-1.82.062l-1.004-.624c-1.883-.936-4.269-.811-6.152-.062-1.444.561-3.076 2.058-3.641 3.493a6.96 6.96 0 0 0-.628 2.932zm42.749-2.308c5.336 0 4.834 7.734.439 7.734-.628 0-1.067.062-1.569-.125-.816-.249-1.632-.811-2.072-1.622-.753-1.559-.691-3.68.565-4.865.628-.624 1.444-1.123 2.636-1.123zm-.251 12.537c2.009 0 4.017-.374 5.65-1.497 1.444-.936 2.197-1.747 2.95-3.306.314-.561.44-.936.565-1.559.502-1.996.439-4.179-.502-6.05-1.318-2.807-4.331-4.803-7.784-4.803-2.448 0-4.08.25-6.089 1.559-1.13.811-2.448 2.308-2.95 3.618-.377.998-.691 2.557-.691 3.493 0 .998.377 2.62.816 3.493.816 1.622 1.13 1.996 2.385 3.056a3.44 3.44 0 0 0 .565.437c.439.312 1.004.561 1.507.811.691.312 2.511.749 3.578.749zm-56.873-8.546c0-.561.188-1.248.314-1.622.188-.437.439-.873.753-1.248.314-.312.628-.561 1.13-.748 2.762-1.123 5.399.624 5.399 2.994 0 .936.063 1.497-.314 2.308-.314.686-.942 1.372-1.632 1.684-1.381.686-3.766.437-4.645-.811-.565-.686-1.004-1.559-1.004-2.557zm4.52 8.545h-.942c-.691 0-1.381-.125-2.197-.25-.565-.125-1.13-.312-1.632-.561-.502-.187-1.632-.811-2.009-1.247l-.628-.437c-.691-.686-1.318-1.746-1.695-2.62-.439-.811-.753-2.37-.753-3.555 0-1.435.439-3.181 1.13-4.304.126-.249.251-.374.377-.624 2.574-3.742 8.349-4.553 11.864-2.807 1.946.936 3.39 2.308 4.269 4.429.691 1.622.879 3.68.439 5.427-.439 1.622-1.381 3.431-2.699 4.366-1.883 1.435-3.578 2.121-5.524 2.183zM52.561 5.554v15.531c0 .437-.063.811.314.811h4.645c.251 0 .314-.125.314-.312V5.741c0-.187-.063-.249-.314-.249-.753 0-4.457-.125-4.959.062z" fill="#09246a"/><path d="M.207 4.119c0 1.435.565 2.495 1.695 3.368a2.9 2.9 0 0 0 .628.312c3.641 1.809 7.407-3.056 4.331-6.05C6.108 1 5.166.564 4.162.564h-.188c-.942 0-1.82.374-2.574 1.06C.835 2.186.207 3.371.207 4.119z" fill="#ff6b6b"/></svg>