<svg xmlns="http://www.w3.org/2000/svg" width="481" height="165" fill="none" xmlns:v="https://vecta.io/nano"><path d="M39.602 22.273l-.002.3c-.018 1.251-.153 2.475-.393 3.66l-.479 1.877a19.61 19.61 0 0 1-.773 2.083 19.72 19.72 0 0 1-1.076 2.109l-.896 1.386-.314.432-.025.033-1.235 1.487-1.08-1.487-1.289-1.774-.018-.025-1.57-2.161-.859-1.183-.002-.002c.587-.851 1.066-1.783 1.417-2.774.166-.471.303-.954.41-1.449a11.92 11.92 0 0 0 0-5.023 11.81 11.81 0 0 0-1.826-4.223l.002-.002-.102-.14-.113-.156a11.93 11.93 0 0 0-2.591-2.579c-1.078-.784-2.293-1.392-3.602-1.78a11.87 11.87 0 0 0-2.18-.429l-1.202-.059-1.202.059a11.87 11.87 0 0 0-2.18.429c-1.309.387-2.524.995-3.602 1.78-.991.721-1.866 1.591-2.592 2.579l-.113.156-.102.14.002.002c-.865 1.255-1.495 2.683-1.827 4.223a11.93 11.93 0 0 0 0 5.023c.106.495.244.978.409 1.449a11.84 11.84 0 0 0 1.417 2.774l-.002.002-.859 1.183-1.57 2.161-.018.025-1.29 1.774-1.08 1.487-1.235-1.487-.025-.033-.314-.432-.896-1.386c-.399-.678-.759-1.382-1.076-2.109a19.66 19.66 0 0 1-.773-2.083 19.57 19.57 0 0 1-.478-1.877 19.83 19.83 0 0 1-.394-3.66l-.002-.3.002-.3a19.8 19.8 0 0 1 .872-5.537 19.7 19.7 0 0 1 1.85-4.192l.896-1.386.311-.428.002-.004 1.26-1.521c.897-.98 1.891-1.869 2.968-2.653 1.07-.779 2.221-1.453 3.437-2.007.767-.349 1.559-.652 2.375-.902l1.565-.411a19.75 19.75 0 0 1 3.961-.458l.301-.002.301.002a19.75 19.75 0 0 1 3.961.458l1.565.411a19.58 19.58 0 0 1 2.375.902c1.217.554 2.367 1.228 3.437 2.007 1.076.783 2.07 1.673 2.968 2.653l1.26 1.521.002.004.311.428.896 1.386a19.69 19.69 0 0 1 1.849 4.192 19.78 19.78 0 0 1 .872 5.537l.002.3z" fill="#fdba20"/><path d="M25.555 30.192H14.047l.859-1.183.239-.33 1.778-2.447h5.755l1.778 2.447.239.33.859 1.183zm5.754 7.92H8.292l1.719-2.366.478-.658.68-.936h17.263l.68.936.478.658 1.719 2.366zm46.349-25.3h6.004c-.228-1.573-1.387-2.546-2.919-2.546-1.573 0-2.733.994-3.085 2.546zm8.571 2.05h-8.571c.331 1.449 1.387 2.588 3.437 2.588 1.263 0 2.733-.476 3.706-1.159l1.077 1.925c-1.056.787-2.836 1.553-4.886 1.553-4.224 0-6.087-2.898-6.087-5.88 0-3.354 2.339-5.88 5.838-5.88 3.168 0 5.569 2.091 5.569 5.652 0 .455-.041.828-.083 1.201zm-23.47-1.853v6.542h-2.712v-6.542c0-1.491-.869-2.505-2.36-2.505-1.511 0-2.381 1.014-2.381 2.505v6.542h-2.712v-6.542c0-3.147 1.946-4.969 5.093-4.969 3.105 0 5.072 1.843 5.072 4.969zm38.701-2.411c-.224-.061-.47-.094-.736-.094-1.511 0-2.38 1.015-2.38 2.505v6.542h-2.712V13.01c0-3.147 1.946-4.969 5.093-4.969a6.61 6.61 0 0 1 1.604.186l-.868 2.371zm-7.377 0a2.79 2.79 0 0 0-.736-.094c-1.511 0-2.381 1.015-2.381 2.505v6.542h-2.712V13.01c0-3.147 1.946-4.969 5.093-4.969a6.61 6.61 0 0 1 1.603.186l-.867 2.371zm18.108 3.291c0-1.863-1.346-3.416-3.313-3.416-1.987 0-3.291 1.553-3.291 3.416 0 1.884 1.325 3.437 3.291 3.437s3.313-1.553 3.313-3.437zm2.505-5.611V19.52h-2.567v-1.387a4.76 4.76 0 0 1-3.665 1.656c-3.25 0-5.569-2.609-5.569-5.942 0-3.375 2.36-5.838 5.569-5.838 1.615 0 2.795.725 3.665 1.698V8.278h2.567zm4.957-.001h-2.712v11.242h2.712V8.277zm4.926-4.491h-2.692V19.52h2.692V3.786z" fill="#161033"/><path d="M116.589 5.237c0-.973.746-1.698 1.719-1.698.952 0 1.718.725 1.718 1.698s-.766 1.698-1.718 1.698c-.973 0-1.719-.725-1.719-1.698z" fill="#fdba20"/><path d="M50.342 8.277H47.63v11.242h2.712V8.277zm-3.064-3.04c0-.973.745-1.698 1.718-1.698.952 0 1.718.725 1.718 1.698s-.766 1.698-1.718 1.698c-.973 0-1.718-.725-1.718-1.698zm26.324 13.659c-.862.595-2.094.924-3.222.924-2.525 0-3.818-1.519-3.818-4.351v-4.803h-1.847V8.408h1.888V4.467h2.648v3.941h3.736v2.258h-3.736v4.7c0 1.314.472 2.011 1.622 2.011.718 0 1.334-.246 1.888-.575l.842 2.094zM49.555 31h6.031c-.229-1.581-1.393-2.558-2.932-2.558-1.581 0-2.745.998-3.099 2.558zm8.61 2.059h-8.61c.333 1.456 1.393 2.6 3.452 2.6 1.269 0 2.745-.478 3.723-1.165l1.081 1.934c-1.061.79-2.849 1.56-4.908 1.56-4.242 0-6.114-2.912-6.114-5.906 0-3.369 2.35-5.906 5.865-5.906 3.182 0 5.594 2.1 5.594 5.677 0 .457-.042.832-.083 1.206zm2.039-.041v-6.572h2.724v6.572c0 1.497.874 2.516 2.371 2.516 1.518 0 2.392-1.019 2.392-2.516v-6.572h2.724v6.572c0 3.161-1.955 4.991-5.116 4.991-3.119 0-5.095-1.851-5.095-4.991zm18.068-4.24a2.8 2.8 0 0 0-.739-.094c-1.518 0-2.392 1.019-2.392 2.516v6.572h-2.724V31.2c0-3.161 1.955-4.991 5.116-4.991a6.64 6.64 0 0 1 1.611.187l-.871 2.382zm10.675 3.303c0-1.872-1.352-3.431-3.327-3.431-1.996 0-3.307 1.56-3.307 3.431 0 1.893 1.331 3.452 3.307 3.452s3.327-1.56 3.327-3.452zm2.516-5.636v11.293h-2.579v-1.393c-.853.957-2.059 1.663-3.681 1.663-3.265 0-5.594-2.62-5.594-5.968 0-3.39 2.371-5.864 5.594-5.864 1.622 0 2.808.728 3.681 1.705v-1.435h2.579zm4.992.001h-2.724v11.293h2.724V26.446zm4.953-4.513h-2.703v15.805h2.703V21.933z" fill="#161033"/><path d="M93.377 23.387c0-.977.749-1.705 1.726-1.705.956 0 1.726.728 1.726 1.705s-.77 1.705-1.726 1.705c-.977 0-1.726-.728-1.726-1.705z" fill="#fdba20"/><g fill-rule="evenodd"><path d="M298.964 27.111v-6.114c.236-4.115 3.645-4.821 4.232-2.822.353.941.118 7.76.118 8.936h3.646c0-1.764-.236-5.408.116-6.937.471-2.587 2.587-3.645 3.646-2.822.705.47.705 1.764.705 2.939 0 7.055-.588 6.937 3.527 6.937v-6.114c0-1.999.236-3.762-.705-5.408-1.059-2.116-4.35-2.352-6.35-1.058-1.057.705-1.293 1.293-1.528 1.411-.94-1.293-1.529-2.116-3.645-2.234-1.764 0-3.292.941-3.88 1.881-.352-.353-.117-1.058-1.175-1.411-.471-.117-1.882-.117-2.352-.117v13.051h3.527l.118-.118z" fill="#0896ff"/><path d="M175.862 23.937c-.118-.706 0-1.764 0-2.469 0-2.587.117-2.352 2.822-2.352 3.292 0 3.057 3.292 1.881 4.35-.941.823-3.292.47-4.586.47h-.117zm0-7.643c0-4.35-.353-4.35 2.586-4.35 2.94.117 2.47 3.057 1.529 3.88-.823.705-2.822.47-4.115.47zm-3.528 10.7h6.232c1.999 0 3.527-.47 4.703-1.529 1.764-1.528 2.234-4.703.705-6.702-.705-.941-1.293-1.058-1.763-1.411.353-.353 1.528-.941 1.881-3.057.47-3.057-1.528-5.056-4.585-5.408-1.411-.118-3.528-.118-5.056-.118-2.117 0-2.117 1.411-2.117 2.822v15.403zm81.599-9.876c.823-.235 1.881 0 2.351.353 1.528 1.293 1.411 5.408-.823 5.996-3.88 1.058-4.703-5.644-1.528-6.349zm-.588 15.05h1.763c.471-.235 5.879-.47 5.879-6.114V14.061c-.47 0-1.764-.117-2.116 0-.823.118-.823.47-1.176.941-.235-.118-.353-.353-.588-.47-.823-.47-1.411-.705-2.469-.823-8.348-.705-8.583 13.051-.588 13.169 1.529 0 2.116-.353 3.175-1.058.235 2.351-1.764 3.292-3.998 2.939-.941-.118-2.234-.823-2.822-.235-.235.235-.94 1.999-1.058 2.469.588.235 1.176.588 1.881.705.471.118 1.881.353 2.117.47zm-37.86-5.881v.823h3.762v-5.408c1.529 0 1.176.353 2.587 2.939 1.411 2.704.941 2.704 5.761 2.587-.353-.706-1.528-2.587-2.116-3.527s-1.411-3.057-2.117-3.527l1.059-1.411 3.057-4.585h-4.233l-2.469 3.88c-.353.588-.706.588-1.529.588-.235-1.411 0-3.997 0-5.644 0-3.88.235-3.762-3.762-3.762v17.284-.235zm22.927.824v-3.527c0-2.116-.352-4.35 1.411-5.644.588-.47 1.999-.941 2.822-.353.705.47.705 1.764.705 2.822v3.527c0 2.469-.235 3.645 3.763 3.292v-5.996c0-1.764.117-3.88-.588-5.291-.706-1.293-1.881-2.116-3.762-2.116-1.411 0-2.352.235-3.41 1.058-.588.47-.47.47-.823.706l-.118-.117v-.118c-.588-1.411-1.763-1.176-3.645-1.176v13.051h3.763l-.118-.118zm-31.51-10.112c4.35-.705 5.056 6.349 1.175 7.055-4.467.823-5.173-6.467-1.175-7.055zm.705 10.347c8.701 0 9.171-13.521-.235-13.521-8.818 0-9.289 13.521.235 13.521z" fill="#273b7d"/><path d="M284.032 20.997c-.47-4.938 5.879-5.409 6.349-.941.47 5.056-5.879 5.526-6.349.941zm2.234-7.172c-3.645.47-6.467 3.41-5.879 7.642.47 3.645 3.41 6.349 7.76 5.879 3.645-.353 6.349-3.527 5.878-7.642-.469-3.645-3.526-6.231-7.642-5.761l-.117-.118z" fill="#0896ff"/><path d="M192.087 16.999c4.351-.941 5.174 6.349 1.294 7.055-4.468.823-5.291-6.232-1.294-7.055zm-6.231 3.762c0 3.645 2.939 6.584 6.584 6.584 4.115 0 7.055-2.822 7.055-6.584v-.353c0-3.762-3.057-6.584-6.937-6.584-3.998 0-6.82 2.822-6.82 6.937h.118z" fill="#273b7d"/><path d="M278.506 22.406c-.941.588-2.234 2.352-4.703 1.764-3.998-.941-3.41-7.055.705-7.172 1.881 0 1.646.823 1.999 1.293.588.588 1.999.353 2.822.353.235-2.116-.118-3.292-1.646-4.115-1.294-.705-3.175-.823-4.821-.588-6.937 1.293-7.29 10.817-1.293 12.933 3.292 1.176 6.819 0 8.348-1.999l-1.529-2.587.118.117z" fill="#0896ff"/><path d="M228.771 27.109h3.763v-8.465c0-4.585.352-4.703-3.763-4.703v13.168z" fill="#273b7d"/><path d="M266.748 25.7c.353-1.293-.47-2.469-1.411-2.704-1.293-.353-2.469.47-2.704 1.411-.823 2.822 3.292 3.998 4.115 1.293z" fill="#0896ff"/><path d="M230.77 8.416h-.824c-.587.353-1.881.705-1.646 2.469.236 2.587 4.233 2.469 4.351-.118 0-1.646-1.176-1.999-1.881-2.234v-.118z" fill="#273b7d"/><path d="M384.751 33.388h1.001v6.797h-1.001v-6.797zm5.203 6.796v-4.398h.9v.7l.701-.7c.2-.1.5-.2.7-.2.401 0 .701.1 1.001.4a1.28 1.28 0 0 1 .4 1v3.199h-.9v-2.899c0-.2-.1-.4-.201-.6-.2-.2-.4-.2-.6-.2-.3 0-.6.1-.8.4a1.69 1.69 0 0 0-.301 1v2.399h-.9v-.1zm8.305-5.698h.9v1.299h.901v.8h-.901v3.599h-.9v-3.599h-.701v-.8h.701v-1.299zm6.403 2.9h2.702c-.3-.6-.701-.9-1.301-.9s-1.101.3-1.401.9zm3.702.7h-3.802c.1.5.3.8.601 1a1.69 1.69 0 0 0 1 .3c.5 0 1.001-.2 1.301-.7l.7.5c-.5.7-1.2 1-2.101 1-.7 0-1.201-.2-1.601-.7a2.41 2.41 0 0 1-.7-1.699c0-.6.2-1.2.7-1.599.4-.5 1.001-.7 1.601-.7s1.201.2 1.601.7c.5.5.7 1.099.7 1.799v.1zm5.103-2.3v.9c.2-.4.401-.6.601-.8s.5-.2.8-.2c.1 0 .2 0 .4.1l-.3.9c-.2 0-.3-.1-.4-.1-.3 0-.6.1-.801.3s-.3.5-.3.8v2.399h-.9v-4.398h.9v.1zm5.704 4.398v-4.398h.9v.7l.7-.7c.201-.1.501-.2.701-.2.4 0 .7.1 1 .4s.401.6.401 1v3.199h-.901v-2.899c0-.2-.1-.4-.2-.6-.2-.2-.4-.2-.6-.2-.301 0-.601.1-.801.4a1.69 1.69 0 0 0-.3 1v2.399h-.9v-.1zm11.806-2.199a1.28 1.28 0 0 0-.4-1c-.3-.3-.601-.4-1.001-.4s-.7.1-1 .4-.401.6-.401 1 .101.8.401 1.099.6.4 1 .4.801-.1 1.001-.4a1.28 1.28 0 0 0 .4-1v-.1zm-.1-2.199h.901v4.398h-.901v-.9c-.5.7-1.001.999-1.701.999-.6 0-1.101-.2-1.501-.7a2.52 2.52 0 0 1-.6-1.699c0-.6.2-1.2.6-1.599.4-.5.901-.7 1.501-.7.3 0 .7.1 1.001.3s.6.4.7.7v-.9.1zm5.703-1.3h.901v1.299h.9v.8h-.9v3.599h-.901v-3.599h-.8v-.8h.8v-1.299zm5.704 1.299h.9v4.398h-.9v-4.398zm-.301-1.499a.76.76 0 0 1 .201-.5c.1-.1.3-.2.5-.2s.4.1.5.2.2.3.2.5-.1.4-.2.5-.3.2-.5.2-.4-.1-.5-.2a.76.76 0 0 1-.201-.5zm9.206 3.699a1.28 1.28 0 0 0-.401-1c-.301-.3-.6-.4-1-.4s-.801.1-1.001.4a1.28 1.28 0 0 0-.4 1 1.28 1.28 0 0 0 .4 1c.3.3.601.4 1.001.4s.7-.1 1-.4.401-.6.401-1zm-3.803 0c0-.6.201-1.099.701-1.599s1-.7 1.601-.7 1.2.2 1.701.7.7 1 .7 1.599-.2 1.2-.7 1.599c-.501.5-1.001.7-1.601.7a2.19 2.19 0 0 1-1.701-.7c-.5-.5-.701-1-.701-1.599zm8.605 2.199v-4.398h.901v.7l.7-.7c.2-.1.501-.2.701-.2.4 0 .7.1 1 .4a1.28 1.28 0 0 1 .4 1v3.199h-.9v-2.899c0-.2-.1-.4-.2-.6-.2-.2-.4-.2-.601-.2-.3 0-.6.1-.8.4a1.69 1.69 0 0 0-.3 1v2.399h-.901v-.1zm11.807-2.199a1.28 1.28 0 0 0-.4-1c-.3-.3-.6-.4-1.001-.4a1.28 1.28 0 0 0-1 .4c-.3.3-.401.6-.401 1s.101.8.401 1.099.6.4 1 .4.801-.1 1.001-.4a1.28 1.28 0 0 0 .4-1v-.1zm-.1-2.199h.901v4.398h-.901v-.9c-.5.7-1.001.999-1.701.999-.6 0-1.101-.2-1.501-.7a2.52 2.52 0 0 1-.6-1.699c0-.6.2-1.2.6-1.599.4-.5.901-.7 1.501-.7.3 0 .7.1 1.001.3s.6.4.7.7v-.9.1zm5.503-2.6h.901v6.997h-.901v-6.997z" fill="#000"/><path d="M369.042 15.294c1.701-.2 3.602-.6 5.703-1.499l2.802 5.498-6.204 3.099c-1.1-2.599-1.801-4.998-2.301-7.197v.1zm-3.902 10.296c-1.501-3.399-2.101-6.997-1.701-10.795 1.201.3 2.601.5 4.102.5h.701c.4 2.199 1.2 4.698 2.401 7.497l-5.503 2.799zm-4.203 2.099c-1.701-3.798-2.101-8.097-1-12.395.2-.6.4-1.1.6-1.699.5.3 1.301.6 2.201.9-.3 3.199-.1 7.197 1.801 11.395l-3.502 1.799h-.1zm3.502-20.292c-.6 1.499-1.2 3.299-1.601 5.498 0 .3-.1.6-.1.9-.8-.3-1.5-.6-2.001-.8.901-2.099 2.101-3.898 3.702-5.498v-.1zm4.103-3.199c-.601 1.999-1.201 5.498-.4 10.296-1.802.1-3.402-.2-4.703-.5 0-.3.1-.6.1-1 .5-2.999 1.601-5.498 2.301-6.997.801-.7 1.701-1.299 2.602-1.799h.1zm1-.5s.1 0 .1-.1l4.703 9.496c-2.001.8-3.802 1.299-5.503 1.399-.901-5.398 0-9.196.6-10.796h.1zm2.302-1c1.601 1.1 4.702 3.299 7.504 6.297-1.701 1.699-3.502 3.099-4.203 3.599l-4.702-9.396c.5-.2.9-.4 1.401-.6v.1zm4.302-.9c1.401.2 3.202.7 5.103 1.599.5.2 1.001.5 1.401.7-.501 1.499-1.501 2.999-2.702 4.298-2.501-2.799-5.403-4.898-7.104-5.998a19.12 19.12 0 0 1 3.302-.6zm6.704.6c0 .3 0 .7-.1 1-.4-.3-.901-.5-1.301-.7-.8-.4-1.601-.7-2.401-.9a23.23 23.23 0 0 1 3.802.6zm-7.104 26.989c-1.801-2.199-3.202-4.598-4.002-6.197l6.203-3.199.901 1.699.4-1-.601-1.1 1.301-.6.4-1.099-2.001 1-2.801-5.598c.7-.5 2.601-1.899 4.402-3.698.901 1 1.701 2.099 2.502 3.299l.4-.9a32.71 32.71 0 0 0-2.301-2.899c1.2-1.399 2.301-2.899 2.901-4.498.801.5 1.601 1.1 2.302 1.799.2-.2.5-.3.7-.4-.901-.9-1.801-1.599-2.802-2.199.1-.4.1-.8.1-1.2 3.903 1.2 7.305 3.798 9.706 7.197h2.101C391.955 3.798 385.351 0 378.147 0c-3.002 0-5.803.6-8.305 1.799-7.104 3.199-12.106 10.296-12.106 18.492 0 6.797 3.402 13.095 9.005 16.793a21.24 21.24 0 0 0 6.103 2.799c1.701.5 3.502.7 5.203.7.5 0 1.001 0 1.501-.1l-.1-1.699c-2.101.2-4.102 0-6.104-.6-5.403-1.399-9.505-5.098-11.806-9.696l3.502-1.799c.1.1.1.2.2.4 2.201 4.498 5.803 8.097 10.506 10.396l.3-.7c-2.702-1.299-4.903-2.999-6.804-4.998-1.201-1.399-2.201-2.799-3.002-4.298-.2-.4-.4-.7-.5-1.1l5.503-2.799c.701 1.499 2.101 3.898 4.303 6.497l.2.2c0-.2.1-.5.2-.7l.1-.1-.3-.1z" fill="#359740"/><path d="M387.552 14.595l-3.301 9.396h6.403l-3.002-9.396h-.1zm5.303 16.093l-1.5-4.498h-8.005l-1.601 4.498h-3.302l8.705-21.691h.801l8.104 21.691h-3.202zm19.212-20.593l-1.001 2.499c-.901-.7-2.401-1-4.403-1-1.901 0-3.401.8-4.502 2.399s-1.701 3.699-1.701 6.297c0 2.399.6 4.398 1.701 5.898 1.201 1.499 2.701 2.299 4.502 2.299 2.002 0 3.502-.7 4.603-2.099l1.601 2.199c-1.701 1.699-3.902 2.499-6.504 2.499-2.801 0-5.003-.999-6.603-2.999s-2.402-4.698-2.402-7.997c0-3.199.901-5.798 2.602-7.997 1.701-2.099 3.902-3.199 6.603-3.199 2.302 0 4.103.4 5.504 1.199zm7.204 1.799v7.897l2.001.1c3.602 0 5.403-1.399 5.403-4.298 0-2.599-1.901-3.898-5.804-3.898-.4 0-.9 0-1.6.1v.1zm0 10.496v8.197h-2.902V9.195l4.002-.1c6.204 0 9.305 2.099 9.305 6.197 0 4.798-2.701 7.197-8.204 7.197-.3 0-1.101 0-2.201-.1z" fill="#000"/><path d="M436.08 11.894v6.997c.701.1 1.401.1 2.001.1 1.801 0 3.002-.3 3.802-.8.801-.6 1.201-1.599 1.201-2.999 0-1.199-.4-2.099-1.301-2.599s-2.201-.8-4.102-.8c-.3 0-.9 0-1.701.1h.1zm8.805 18.792l-5.703-9.196c-.701 0-1.701 0-3.102-.1v9.296h-2.902V9.295l2.302-.1 3.102-.1c5.102 0 7.704 1.999 7.704 6.097 0 1.3-.4 2.599-1.201 3.599-.8 1.1-1.801 1.699-2.901 1.999l6.203 9.796h-3.302l-.2.1zm13.908-7.696c-.901-.2-1.501-.3-1.801-.3-1.401 0-2.502.4-3.402 1.099s-1.301 1.599-1.301 2.599c0 1.599 1.001 2.399 2.902 2.399 1.401 0 2.601-.7 3.702-1.999V22.99h-.1zm.3 5.897c-1.101 1.399-2.802 2.099-5.103 2.099-1.2 0-2.301-.4-3.202-1.299s-1.4-1.999-1.4-3.299c0-1.599.7-2.899 2.101-3.998s3.202-1.599 5.303-1.599c.6 0 1.2.1 2.001.4 0-2.499-1.101-3.798-3.402-3.798-1.701 0-3.102.5-4.002 1.399l-1.201-2.299c.5-.4 1.301-.8 2.201-1.1s1.801-.5 2.702-.5c2.301 0 3.902.5 4.903 1.499s1.5 2.699 1.5 4.898v5.598c0 1.399.401 2.299 1.201 2.699v1.399c-1.1 0-2.001-.2-2.501-.5-.601-.3-1.001-.9-1.201-1.599h.1zm9.706-19.69a1.66 1.66 0 0 1 1.201.5c.3.3.5.7.5 1.199s-.2.9-.5 1.2a1.66 1.66 0 0 1-1.201.5 1.66 1.66 0 0 1-1.201-.5c-.3-.3-.5-.7-.5-1.2a1.65 1.65 0 0 1 .5-1.199 1.66 1.66 0 0 1 1.201-.5zm-1.501 21.591V17.494h-2.101v-2.299h4.903v15.594h-2.802zm7.404-4.5V8.696h2.802v17.193c0 .8.2 1.499.7 1.999s1.101.7 1.901.7v2.499c-3.602 0-5.403-1.599-5.403-4.698v-.1z" fill="#359740"/><path d="M55.253 66.936H6.186C2.797 66.936 0 69.605 0 73.037v30.677c0 3.432 2.797 6.187 6.186 6.187h49.066c3.39 0 6.186-2.755 6.186-6.187V73.037c0-3.432-2.797-6.102-6.186-6.102z" fill="#f01414"/><path d="M56.905 103.713c0 .974-.72 1.779-1.695 1.779H6.144c-.975 0-1.695-.762-1.695-1.779V73.036c0-.974.72-1.78 1.695-1.78H55.21c.974 0 1.695.763 1.695 1.78v30.677z" fill="#fff"/><path d="M18.77 102.485H8.432V74.351H18.77c7.288 0 11.313 4.576 11.313 13.94 0 8.135-2.712 14.152-11.313 14.194zm4.491-13.601c0-5.678-.593-10.084-6.695-10.084H15.21v19.152h2.415c3.559 0 5.678-2.881 5.678-9.067h-.042zm24.661-1.101c1.991-.508 4.915-2.796 4.915-6.568 0-.593-.127-6.864-8.051-6.864H33.008v28.134h9.957c2.627 0 10.847 0 10.847-7.923 0-1.992-.805-5.678-5.89-6.822v.042zm-8.178-9.067h2.119c3.008 0 4.237 1.059 4.237 3.39 0 1.864-1.313 3.39-3.686 3.39h-2.669v-6.779zm2.754 19.237h-2.754v-7.246h2.966c3.517 0 4.364 2.034 4.364 3.602 0 3.602-3.474 3.602-4.534 3.602l-.042.042z" fill="#f01414"/><path d="M126.938 76.175c.163-.326.081-.244.327-.489.164-.163.246-.244.41-.326l2.047-2.036c.41-.407 2.376-2.606 2.867-2.606h13.433c.983 0 1.393.163 1.884.733l6.471 6.352c.819.814 1.556 1.71 2.621 2.443 2.457 1.792 5.57 1.384 9.01 1.384h10.239c-.246.489-3.932 3.99-4.915 4.886-.245.244-.409.57-.901.57h-11.713c-1.146 0-2.375.163-3.194-.489-.492-.407-4.587-4.479-5.242-5.212-2.703-2.687-4.505-5.293-8.601-5.293h-14.743v.081zm38.333-10.912c.328.163 4.833 4.723 5.488 5.375.901.977 1.802 1.792 2.785 2.769l2.375 2.362c.246.244.164.081.328.407h-10.648c-5.98 0-4.669.326-7.782-2.769l-5.242-5.293c-2.13-2.117-3.358-2.932-7.617-2.932H131.77c-1.392 0-1.392-.244-2.129.489l-7.946 7.899-5.242 5.212c.246.407 3.768 3.827 4.423 4.397l8.846 8.795c.656.651.492.489 1.721.489 1.883 0 4.914.081 6.47 0-.983-1.303-10.402-10.098-10.894-10.912 3.441-.163 7.127 0 10.649 0 5.897 0 4.668-.407 7.781 2.687l5.324 5.293c2.621 2.606 3.686 2.932 7.536 2.932h13.351c1.474 0 1.229.244 2.048-.57l10.566-10.505c.573-.57 2.211-2.117 2.621-2.687-1.392-1.466-2.949-2.932-4.423-4.398l-8.846-8.795c-.656-.651-.574-.489-1.72-.489-1.311 0-5.816-.081-6.471.081l-.164.163zm-.819 43.81c-.164-2.443 2.703-2.524 2.785-.326 0 .896-.246 1.873-1.229 1.955-1.065.081-1.474-.652-1.556-1.629zm-1.474.082c.163 3.664 5.979 3.501 5.733-.408-.245-3.746-5.897-3.583-5.733.408zm-28.341-.812c0-1.629 2.457-1.71 2.376 0h-2.376zm3.358 1.873c-1.392.488-3.03 1.14-3.358-.896h3.768c0-1.547-.328-2.769-1.72-3.176-3.44-1.059-4.505 3.502-2.539 5.049 1.146.896 2.539.57 3.849.163v-1.14zm41.365-1.06c0 .651-.164 1.058-.574 1.384-1.146.814-2.375-.652-1.146-1.222.491-.244 1.146-.162 1.72-.162zm-2.949-1.466c.901-.326 3.031-1.303 2.949.57-.901.163-1.802 0-2.621.326-2.376 1.14.081 4.967 2.703 2.361l.081.733h1.229c.082-.977 0-4.153-.409-4.805-.492-.895-1.966-.895-3.031-.733-.164 0-.328.082-.492.163l-.491.245v1.14h.082zm-5.406 3.99c.082-1.466-.41-4.234 1.147-4.479 1.556-.163.983 2.443 1.064 4.479h1.393c.082-.977.164-3.909-.246-4.723-.655-1.303-2.621-1.222-3.358-.081l-.082-.652h-1.392v5.456h1.392.082zm-46.689-.001c.082-1.465-.409-4.397 1.147-4.479s.819 2.362 1.065 4.479h1.392v-3.257c0-1.222-.327-2.036-1.228-2.28-1.065-.326-2.294.244-2.458.733l-.163-.733h-1.229v5.456h1.392l.082.081zm26.948-2.034c.819-.57.983-.489 2.13-.489 0 .733-.246 1.385-.901 1.547-.901.245-1.392-.162-1.229-1.058zm-.819-2.036c.574-.244.901-.57 1.72-.57s1.229.407 1.147 1.14c-1.72 0-3.932.163-3.44 2.28.164.652.819 1.222 1.638 1.222 1.065.081 1.556-.489 1.966-.896l.082.733h1.228c.082-.977 0-4.072-.409-4.805-.655-1.14-2.621-.896-3.932-.407v1.222.081zm-5.406 3.991c.082-1.466-.491-4.316 1.147-4.479 1.556-.162.983 2.281 1.065 4.479h1.392c.082-1.058.164-3.909-.245-4.723-.738-1.221-2.212-1.059-3.441-.081v-.652h-1.392v5.456l1.392-.081.082.081zm-12.532-1.06c-.983.244-1.31 0-1.31-.977 0-.57-.082-1.873.082-2.362h1.228v-1.059h-1.228v-1.547l-1.393.407v1.14h-1.065l.082 1.059.983.081c0 2.851-.655 4.886 2.785 4.398l-.082-1.14h-.082zm23.017-3.341h1.065c0 2.687-.655 5.049 2.785 4.479l-.082-1.059c-1.638.326-1.311-.244-1.311-3.338h1.229v-1.059h-1.229v-1.547l-1.392.488v1.059h-1.065v1.059-.082zm26.702 4.481h1.393v-7.981h-1.393v7.981zm-62.414.001l1.474-.081v-7.33h-1.474v7.411zm21.296-.082c.082-.977-.082-2.036.082-3.013.164-1.058.573-1.303 1.72-1.14v-1.384c-1.065-.163-1.638.407-1.966 1.14v-1.059h-1.31v5.456h1.392.082z" fill="#010066"/><path d="M160.438 111.68h1.393v-5.538h-1.393v.163 5.375z" fill="#000065"/><path d="M160.438 105.165h1.393v-.977-.407h-1.393v.407.652.325z" fill="#010066"/><path d="M304.406 101.612c0-1.052-.824-2.104-1.882-2.104-.824 0-1.412.234-1.765.819-.117.233-.353.467-.47.701l-1.647 1.87-.588.585c-.353.35-.588.584-.941.818-.118.117-.118.234-.353.234-.235.234-.353.35-.706.467l-1.294 1.052c-.235.117-.47.351-.706.468-1.294.935-2.705 1.636-4.234 2.338-.941.467-2 .818-2.941 1.169l-3.764 1.052c-4.823.935-9.058 1.052-13.88.117-.941-.117-1.765-.351-2.588-.585s-1.647-.467-2.47-.818c-.824-.234-1.53-.585-2.235-.935s-1.53-.702-2.118-1.052l-1.999-1.169c-.942-.585-1.883-1.286-2.706-1.987-.47-.351-2.117-1.871-2.47-2.338-.824-1.052-1.765-1.987-2.47-3.156-.353-.701-.824-1.286-1.177-1.987a21.51 21.51 0 0 1-1.882-6.078c-.235-1.169-.235-2.338-.235-3.507 0-.585.118-.935.118-1.52 0-.234.117-.468.117-.701s.118-.468.118-.701c.588-3.273 2-6.195 3.999-8.884.236-.351.471-.585.706-.935l.706-.818.823-.818c.588-.584 1.177-1.169 1.882-1.753.824-.701 1.647-1.286 2.588-1.87l1.765-1.052 1.294-.701c.352-.234.705-.351 1.058-.468.353-.234.706-.351 1.176-.468 2-.935 5.411-1.636 7.646-1.987 4-.584 8.117-.468 11.999.351 1.646.351 3.176.818 4.705 1.286.823.234 1.764.701 2.588 1.052l1.176.584c1.411.701 2.823 1.52 3.999 2.455l1.059.818c1.176.935 2.352 2.104 3.411 3.273.353.468.706 1.052 1.059 1.286l.588.584c1.882 1.052 3.882-1.052 2.705-2.922-.235-.234-.352-.585-.588-.818-.588-.701-2.117-2.455-2.705-3.039l-.353-.351c-.588-.585-1.294-1.052-2-1.636-.823-.701-1.647-1.169-2.588-1.753-1.529-1.052-3.058-1.753-4.705-2.455-2.117-.935-4.352-1.52-6.587-2.104s-5.646-.935-7.764-.935h-2.587c-.471 0-1.294.117-1.765.117-.353 0-.823.117-1.176.117-1.412.117-4.235.701-5.411 1.052-2.117.584-2.823.818-4.705 1.636-.353.117-.588.234-.941.351-2.706 1.286-3.882 1.87-6.47 3.741l-1.411 1.169c-.353.234-.706.585-1.059.935l-.941.935-1.176 1.286-1.177 1.403c-.353.468-.705.935-1.058 1.52-.236.234-.353.468-.471.818-1.411 2.104-2.47 4.793-3.058 7.13-.235 1.052-.471 2.221-.471 3.273-.235 2.221-.117 3.624.236 5.962a18.82 18.82 0 0 0 1.411 5.026c.471 1.169 1.059 2.338 1.647 3.506.118.234.353.468.47.819.589 1.052 1.412 1.987 2.118 2.922.235.234.353.468.588.701.47.585 1.411 1.52 1.882 1.988l.706.584 2.117 1.753c.471.351.941.702 1.529 1.052.941.585 1.882 1.169 2.823 1.637.706.351 1.412.701 2.235 1.052 2.823 1.169 4.588 1.753 7.764 2.455 2.823.584 6.117.818 9.41.701.824 0 1.529-.117 2.353-.234 3.646-.35 8.704-1.636 11.998-3.273.588-.234 1.176-.584 1.764-.818l1.647-.935c1.059-.585 2-1.286 3.058-2.104.118-.117.236-.234.353-.234.118-.117.236-.234.353-.234.353-.35 1.059-.935 1.412-1.169a6.71 6.71 0 0 0 1.294-1.286c.353-.467.823-.935 1.176-1.402.588-.702 1.412-1.52 1.412-2.455l-.353-.468z" fill="#0097a8"/><path d="M273.822 82.911c0 .468 1.882 5.611 2 6.195.235.584.353 1.052.47 1.52l1.059 3.039c.235.585.47.935 1.176.935 1.059 0 1.176-.935 1.529-1.636l.824-2.338c.47-1.052.823-2.338 1.294-3.507.117-.234.353-1.052.47-1.169.118.468 1.765 4.91 2.118 5.728l.823 2.221c.353.701 1.411.701 1.882.351.353-.234.706-1.753.941-2.221l2.588-7.598c.235-.701.47-1.169.47-1.753 0-.935-1.646-1.52-2.235-.468-.235.351-1.529 4.676-1.882 5.611l-.705 1.987v.117l-.118.117-.353-1.169c-.118-.351-.235-.818-.47-1.169-.353-.701-.589-1.52-.824-2.221l-.823-2.221c-.236-.818-.471-1.637-1.412-1.637s-1.176.818-1.411 1.637l-1.647 4.559c0 .117-.706 2.104-.824 2.221l-.352-1.052-.353-1.169a19.72 19.72 0 0 0-.941-2.805c0-.117-.118-.351-.118-.585l-.353-1.169c-.235-.701-.353-1.637-1.411-1.637-.706 0-1.294.468-1.294 1.169l-.118.117zm69.049.349v9.702c0 1.636 1.411 1.753 1.999 1.169.706-.584.353-2.455.353-3.507v-2.689c.118.117 1.529 3.273 1.647 3.507l.823 1.753c.353.701.471 1.169 1.294 1.286.941 0 1.177-1.052 1.765-2.104l.353-.935.823-1.753c.118-.351.588-1.403.823-1.637l.118-.117v5.143c0 1.753 2.47 1.753 2.47-.117v-9.819c0-1.52-1.411-1.753-2.235-.935l-.353.701-2.705 5.611c-.118.351-.941 1.87-.941 2.104-.118-.117-1.176-2.338-1.412-2.805l-2.352-4.909c-.353-.701-.824-1.52-1.765-1.169-.47.117-.823.584-.823 1.286l.118.234zm-12.587 5.028a4.25 4.25 0 0 1 .353-1.753c.353-.818.941-1.52 1.765-1.987.823-.351 1.176-.351 1.999-.351 2 0 3.529 1.87 3.529 3.741 0 1.403-.235 2.455-1.059 3.273-.47.468-1.176.818-1.882 1.052-1.058.234-2.117 0-3.058-.585l-.235-.234c-.706-.585-1.294-1.87-1.294-3.039l-.118-.117zm-2.588-.468c0 1.286.118 1.987.589 3.156.705 1.403 1.764 2.455 3.176 3.039 2.117.818 4.352.701 6.234-.585.47-.234.588-.468.941-.818 1.059-1.052 1.764-2.688 1.764-4.208 0-.818 0-1.169-.235-2.104l-.353-1.169c-1.999-4.208-7.41-4.676-10.234-1.753-.352.351-.705.818-.941 1.286-.117.234-.117.351-.235.468-.235.584-.588 1.636-.588 2.455l-.118.234zm-12.468-.116c0 1.286 0 2.104.588 3.273.706 1.403 1.529 2.338 3.058 3.039 1.647.701 4.352.701 5.999-.468l.471-.351c1.411-1.169.47-2.338-.471-2.338-.588 0-.941.351-1.529.701-1.059.584-2.47.701-3.646.117s-1.765-1.636-2-2.805c-.118-.585-.118-1.169 0-1.753 0-.351.117-.468.235-.701.471-1.52 2-2.338 3.647-2.338s2.352 1.169 3.176 1.169c1.411 0 1.646-1.403.705-2.221-.47-.351-.47-.468-1.058-.701-3.059-1.52-7.058-.468-8.587 2.572 0 .117-.118.234-.118.234-.235.584-.588 1.636-.588 2.455l.118.117zm-57.521.232c0 .935.47 1.286 1.294 1.987L263 93.897c.588.584.588.584 1.412.584.588 0 1.411-.818 1.176-1.753-.118-.468-1.059-1.286-1.412-1.636l-2.47-2.455-.588-.584c.118-.234 1.294-1.286 1.529-1.52L265 84.312c.588-.585 1.058-1.286.353-2.104-.588-.701-1.529-.584-2.118 0l-5.175 5.26a1.23 1.23 0 0 0-.236.585l-.117-.117zm36.465-5.026v10.637c0 1.286 2.706 1.87 2.706-.468v-9.702c0-2.338-2.706-1.753-2.706-.468zm-39.876.001v10.403c0 .351.235.701.353.818.823.701 2.352.351 2.352-1.052v-9.936c0-.351-.235-.818-.353-.935-.823-.818-2.352-.234-2.352.818v-.117zm14.233 0v10.403c0 1.753 2.705 1.636 2.705 0V83.028c0-1.052-1.294-1.753-2.235-.935a1.75 1.75 0 0 0-.353.818h-.117z" fill="#221e1f"/><path d="M304.523 88.638c0 .584 0 .701.236 1.286 1.058 1.987 4.234 1.286 4.234-1.052 0-1.87-2.235-2.922-3.764-1.636-.353.351-.706.935-.706 1.403z" fill="#0097a8"/><path d="M425.177 72.832l.063 9.771 4.071.063v-1.503c.376-4.009 3.507-7.203 8.017-5.825 3.695 1.127 4.698 6.138 2.505 9.771-1.19 2.004-5.324 5.574-7.203 7.266l-7.453 7.015.063 9.02h22.861c0-.564.125-3.758-.125-3.884l.063-2.756c-.752-.188-6.702-.125-7.705 0-1.127.126-7.453-.062-7.641 0 .188-.501.564-.751.94-1.002.375-.313.689-.626 1.064-.939.439-.376 1.691-1.691 2.13-1.816.313-.438 3.883-3.508 4.885-4.51.314-.313 0-.188.376-.188.501-.939 2.631-2.443 4.385-5.762 1.44-2.631 1.753-4.76 1.566-8.205-.188-1.566-.376-2.317-.94-3.633-.188-.564-.438-1.002-.752-1.503-.25-.438-.689-.877-.876-1.441-.752-.188-3.07-4.384-10.21-4.384-2.255 0-4.322.376-6.075 1.19-1.504.689-3.383 2.13-4.072 3.257h.063z" fill="#029801"/><path d="M404.57 74.462v6.389h7.767c.814 0 2.38-.188 2.38.251l-.063 32.883c.689.251 7.517.188 8.644.063.063-.939 0-3.695 0-5.011 0-.689 0-.501.188-.689l24.615-.062v-3.884l1.378.063v-.125h-1.315l-.188.062c.251.126.125 3.32.125 3.884H425.24h-1.817v-6.702c0-.627-.062-.564.313-.877-.188-.125-.313 0-.25-.94.125-5.512-.188-11.775 0-17.162h5.825l.063-1.503v1.503l-4.072-.063h-1.879c.063-1.691-.25-5.888.188-7.078l-.063-.063-.062-.063-.063-.188c-.125-.814.188-10.961-.062-12.652h-6.953c-.188 1.002-.188 1.629-.438 2.568-.689 2.067-1.879 4.259-3.257 5.637-1.942 1.879-5.011 4.071-8.143 3.758z" fill="#03bb01"/><path d="M442.84 94.38l-.439-.125c-.751.94-1.628 1.441-2.442 2.255-.689.689-2.193 1.691-2.381 2.317.376.626.94 1.002 1.378 1.441.376.313 1.316 1.002 1.504 1.315l-7.767.063c.188-.063 6.451.125 7.641 0 .94-.125 6.953-.188 7.704 0l-.062 2.756.188-.063.062-2.693h1.566l.063 2.067c0 .752.125.501-.313.626v.126c4.196.062 7.954-1.316 10.836-3.758.751-.627 2.129-2.193 2.38-2.255-.063-.313-.063-.251.25-.626.564-.689.627-.877 1.128-1.691.563-.94.939-2.255 1.315-2.631 0-.94.877-2.631.752-5.387h-15.409l.063 6.138h6.076c-.376.689-1.879 1.816-2.882 2.317-2.63 1.315-5.699 1.253-8.33-.063-1.691-.877-1.879-1.378-2.819-2.192l-.062.063z" fill="#017101"/><path d="M462.758 78.157c-.063.439.062.313.626 1.127 1.19 1.754 1.566 3.32 2.004 3.883 2.318-.752 3.821-.877 5.763.438a5.68 5.68 0 0 1 2.505 4.698c0 3.132-2.38 5.449-5.136 5.762-1.566.188-1.941-.25-3.132-.501-.313.313-.751 1.691-1.315 2.631-.501.814-.564 1.002-1.127 1.691-.313.376-.313.313-.251.626 6.577 3.696 16.661-.939 16.661-10.272 0-4.635-2.693-7.892-5.199-9.521a10.85 10.85 0 0 0-5.449-1.816c-2.568-.188-4.008.376-6.013 1.19l.063.063z" fill="#014601"/><path d="M446.034 72.709l1.002-.188c.188.564 1.316 2.004 1.692 2.881l.313.877c.313.689.501 2.318.751 2.568-.375.063-.814.063-1.064.251 6.451-.689 8.581 4.009 9.207 4.071l7.453-.063c-.375-.564-.751-2.192-2.004-3.883-.564-.814-.689-.689-.626-1.127-.627-.125-3.758-5.261-11.462-5.95-.815-.063-4.447-.063-5.262.501v.063zm-22.423 2.818c-.438 1.19-.125 5.387-.188 7.078h1.879l-.062-9.771c-.439.501-1.441 2.067-1.566 2.693h-.063zm.063 25.242c-.376.313-.313.25-.313.877v6.702h1.816l-.063-9.02c-.313.251-1.252 1.065-1.503 1.441h.063z" fill="#017101"/><path d="M446.034 72.708h-.501c.126.564.564 1.002.877 1.441.313.501.564.94.752 1.503.501 1.315.751 2.004.939 3.633l.627-.125c.313-.188.689-.251 1.064-.251-.25-.251-.375-1.942-.751-2.568l-.313-.877c-.376-.877-1.504-2.317-1.691-2.881l-1.003.188v-.063zM436.89 97.95l.751.94c.188-.626 1.691-1.629 2.38-2.318.815-.814 1.691-1.315 2.443-2.255l.438.125c-.25-.313-.626-.752-.751-1.127-.313 0 0-.125-.376.188l-4.885 4.51v-.063zm11.337 6.513h1.315c.438-.125.313.126.313-.626l-.063-2.067h-1.565l-.063 2.693h.063z" fill="#014601"/><path d="M414.717 81.101c0-.438-1.628-.251-2.38-.251h-7.767v-6.389c-.25.188-.062-.063-.188.313-.125.564.063 6.076.063 6.201 1.002-.125 9.646-.125 10.272.125z" fill="#98d998"/><path d="M414.655 114.046c.187.251-.251.188.438.251h.626l7.767-.063.063-5.825c-.188.125-.188 0-.188.689v5.011c-1.128.062-7.955.125-8.644-.063h-.062z" fill="#6dce6b"/><path d="M8.7 150.583c-.691-.491-1.381-1.769-2.368-1.769-.691 0-1.283.59-1.283 1.278 0 .786 1.184 1.671 1.677 2.163s1.48 1.671 1.973 1.966c.888-.59 3.355-3.343 4.342-4.326 1.184-1.179 2.96-3.539 5.032-3.539 2.171 0 3.75 1.573 3.75 3.834 0 1.77-1.381 2.851-2.27 3.736l-6.019 6.095c-.691.688-2.664 2.359-3.059 3.047.395.688 1.283.688 1.973.688 1.283 0 2.861-1.966 3.651-2.752l3.256-3.146c1.973-1.966 5.131-4.227 5.131-7.766 0-3.932-3.75-7.176-7.894-6.095-3.256.786-5.822 5.112-7.894 6.586zm103.311 1.279h.197c1.48 0 2.566.885 2.566 2.359h-5.329c.296-1.278.987-2.359 2.566-2.359zm-5.921 3.342v.787c0 5.21 6.118 7.766 9.868 5.013.69-.491 1.973-1.769 1.973-2.851l-2.763-.786c-.592 1.081-1.085 1.868-2.763 1.868-1.578 0-2.96-1.082-2.96-2.655h8.387c.79 0 .79-7.471-5.624-7.471-3.355 0-6.118 2.851-6.118 6.095zm-53.184 4.325c-1.381 0-1.677-.59-1.677-1.573 0-.786.888-1.18 1.579-1.278.789-.098 1.875-.393 2.566-.393 0 1.671-.197 3.244-2.467 3.244zm-4.736-6.292l2.96.59c.296-.59 0-.786.592-1.376 1.085-1.081 3.651-.688 3.651.688v.492c0 .688-3.059.884-3.848 1.081-5.624.885-4.046 7.373.099 7.373.987 0 1.875 0 2.763-.492.691-.393.888-.884 1.283-1.179l.099 1.376h3.158l-.197-4.325v-4.522c-.987-5.8-10.558-4.424-10.558.294zM8.7 161.299c.395-.295 7.203-7.177 8.19-8.16 1.085-1.081 2.566-2.064 2.566-3.244 0-.491-.691-1.081-1.283-1.081-.888 0-1.973 1.376-2.565 1.966-.789.787-1.48 1.573-2.27 2.359-.691.59-4.243 4.326-4.638 4.522-.493-.688-2.664-2.654-3.454-3.342-.987-1.081-2.664-2.261-2.664-4.227 0-2.064 1.677-3.736 3.75-3.736.987 0 1.677.394 2.368.787l1.776-1.77c-.493-.688-2.27-1.376-3.256-1.474-1.579-.197-2.862.098-3.947.688-1.875.983-3.454 3.244-3.256 6.095.296 2.752 2.269 4.325 3.848 5.8.789.884 1.579 1.573 2.368 2.457.592.492 1.875 1.966 2.467 2.36zm61.572-10.42v-1.376h-3.256v12.288h3.157c.395 0 .197-2.163.197-2.654 0-1.082-.099-4.817.197-5.604.592-1.278 1.48-1.278 2.467-1.278.789 0 1.382.59 1.579 1.18.493 1.278-.197 8.356.395 8.356h3.157v-7.865c0-2.555-1.48-4.718-4.144-4.718-2.763 0-2.862 1.081-3.75 1.671zm26.247 0v-1.376h-3.256v12.288h3.355v-6.488c0-1.475.493-3.048 1.974-3.048.987 0 1.776 0 2.368 1.18.494 1.278-.296 8.356.395 8.356h3.158v-7.865c0-2.555-1.579-4.718-4.145-4.718-2.762 0-2.96 1.081-3.848 1.671zm-66.9-1.082v2.458c0 .196 0 .295.197.295h2.072v5.996c0 1.77 1.678 3.343 3.454 3.343 1.973 0 1.48-.099 2.269-.197v-2.851c-.888.197-2.368.295-2.368-1.081v-5.21h2.368v-3.048h-2.368v-3.637c-3.75 0-3.157-.295-3.157 1.376 0 .787.099.983-.197 1.475-.592 1.18-2.269.491-2.269 1.081zm50.816-5.801v13.664c0 2.458 1.184 4.227 3.552 4.227 2.27 0 1.776.394 1.776-2.949-.888 0-1.974.099-1.974-1.376v-13.861h-3.158c-.197 0-.197.098-.197.295zm-37.594 7.177v-1.671h-3.256v12.288h3.355v-5.505c0-3.146 1.776-3.736 4.144-3.441v-1.77c0-1.769.296-1.671-1.085-1.671-1.678 0-2.368.885-3.158 1.77zm44.6-1.376v11.699c0 .196 0 .295.197.295h3.158v-12.288h-3.158c-.197 0-.197.098-.197.294zm-26.247 11.994h3.355v-12.288h-3.355v12.288zm25.852-16.417c0 3.047 4.144 2.752 4.144.196 0-.983-.789-2.064-1.776-2.064h-.493c-.987 0-1.875.983-1.875 1.868zm-26.247 0v.393c0 .884.987 1.769 1.776 1.769h.493c.987 0 1.875-.983 1.875-1.966s-.888-2.064-1.875-2.064h-.493c-.888 0-1.776.983-1.776 1.868z" fill="#00a88f"/><path d="M465.734 148.423v12.736c0 .084 0 .084.084.084h3.201v-7.59h.084v.084l.253.337 1.937 3.121 2.19 3.542c.506.675 1.348.506 2.19.506.927 0 1.432-.674 1.432-1.518v-11.302c0-.928-.589-1.518-1.347-1.518h-1.938v7.844l-3.453-5.735c-.084-.085-.169-.169-.169-.253-.084-.085-.084-.169-.168-.253l-.674-1.013c-.168-.337-.59-.59-1.011-.59h-1.263c-.337 0-.59.084-.842.253l-.169.169c-.084.168-.168.253-.253.421-.084.254-.084.422-.084.675zm-14.151 5.651h-4.295v-2.867c0-.253.084-.422.084-.591.084-.169.168-.169.252-.253 0-.084 0-.084.085-.169s.252-.168.337-.253c.168 0 .337-.084.589-.084h1.769c.505 0 1.011.422 1.179.844.085.253.085.337.085.674v1.012.338 1.096c0 .085.084.253-.085.253zm-7.665-3.88v11.049h3.37v-4.385h4.295c.085 0 .085 0 .085.084v4.301h3.369v-10.88c0-1.855-1.601-3.458-3.454-3.458h-4.211c-.674 0-1.432.253-1.938.59s-.926.76-1.179 1.35a3.55 3.55 0 0 0-.337 1.349zm-8.928 3.88h-2.022c-.084 0-.084 0-.084-.084v-4.133h2.19c.927 0 1.685.506 2.022 1.181.336.759.168 1.518-.253 2.108-.421.675-1.095.928-1.853.928zm-5.391-5.819v12.988h3.285v-4.385h1.179c.337 0 .506.084.674.337.084.169.253.337.337.506l.59.928.252.253 1.011 1.518c0 .084.084.169.169.253l.421.59h4.043c0-.168-.758-1.096-.843-1.265-.168-.168-.336-.421-.421-.59-.168-.169-.337-.422-.505-.591l-.674-.927c0-.085-.084-.253-.168-.338-.169-.168-.843-1.096-.927-1.265.169 0 .421-.169.59-.253.505-.337.926-.843 1.263-1.349.084-.169.253-.253.337-.506 1.011-2.025.674-4.218-.926-5.904-.927-.844-2.19-1.35-3.454-1.35h-4.885a1.33 1.33 0 0 0-1.348 1.35zm-58.203 0v12.988h3.706v-5.735h5.054c.337 0 .758-.084 1.01-.337.169-.253.506-.591.506-1.012v-1.519h-6.57v-2.024c0-1.012 1.179-.759 1.853-.759h5.222c.337-.084.674-.253.842-.506.253-.253.337-.506.337-1.012v-1.434h-10.613c-.674 0-1.347.59-1.347 1.35zm44.81.168v1.518c0 .085 0 .085.085.085h3.874v11.217h3.538v-11.217h2.527a1.39 1.39 0 0 0 1.348-1.35v-1.771h-10.024c-.758 0-1.348.59-1.348 1.518zm-31.333 11.471c0 .759.673 1.349 1.347 1.349h7.581c.59 0 1.011-.337 1.179-.674.337-.506.169-.844.169-1.603v-.675h-5.812c-.59 0-.758-.337-.758-.927v-8.435c0-.674 0-1.012-.253-1.434-.253-.337-.59-.59-1.095-.59h-2.358v12.989z" fill="#73d700"/><path d="M403.066 148.339c0 .843.337 1.096.758 1.687l2.443 3.373c.084.085.169.253.253.338 0 .084.084.084.084.168l.169.169-.506.675-1.937 2.699c-.506.674-1.264 1.434-1.264 2.193 0 .337 0 .59.169.843.589 1.181 2.19 1.35 3.032.253l1.601-2.193 2.442-3.458.59-.759c.253-.337.253-.169-.169-.759-.084-.084-.084-.169-.168-.253l-2.695-3.711c-.085-.085-.085-.169-.169-.253l-1.432-1.94c-1.179-1.518-3.201-.506-3.201.928z" fill="#ffad00"/><path d="M458.659 148.423v12.736c0 .084 0 .084.084.084h3.369v-14.338h-2.106c-.589 0-1.095.337-1.263.843-.084.254-.084.422-.084.675zm-61.826 5.482v7.338h3.622v-8.603h-2.19c-.842 0-1.432.675-1.432 1.265zm12.972-3.963c.084.084.168.253.253.337l1.432 2.024c.084.085.421.506.421.591.084-.085.252-.338.421-.506.084-.169.253-.338.337-.506l1.853-2.615c.337-.422.337-1.097.084-1.603-.084-.168-.084-.168-.168-.253-.674-.843-1.769-1.012-2.612-.253-.168.085-.505.675-.673.844-.085.084-.169.168-.169.253l-1.179 1.687zm0 8.264c0 .169 1.6 2.362 1.853 2.699.337.337.842.59 1.348.59.926 0 1.769-.843 1.769-1.686 0-.338 0-.591-.253-.928l-2.527-3.543s0-.084-.084-.084c0 .084-.169.337-.253.337l-1.095 1.519c0 .084-.084.084-.084.168l-.421.591c-.085.084-.169.253-.253.337zm-12.972-10.036v3.121h2.19c.422 0 .758-.169 1.011-.338.169-.253.421-.59.421-1.012v-1.687a1.33 1.33 0 0 0-1.347-1.349c-.758 0-1.348-.169-1.853.337-.253.253-.422.591-.422.928z" fill="#73d700"/><path d="M234.661 153.658c1.196-.295 3.295-.026 5.183.483 1.196.323 2.312.913 3.348 1.664.479.322 1.409.967 1.888 1.611.558.805.292 1.154-.319 1.368-.505.188-1.462-.161-2.446.134-2.259.698-2.046 2.523.08 3.489.585.269 1.462.698 2.392.94 1.754.456 3.642.697 4.014.805.877.268.584.563.026.51l-2.897-.269-2.312-.295c-1.834-.376-3.854-1.315-5.741-2.066-2.233-.913-5.768-1.637-8.825-1.423-1.036.081-1.887.564-2.79.832-.585.161-3.429 1.503-5.954 2.362-1.808.617-3.243.859-3.642.671-.265-.134.452-.376 1.409-.778l4.093-1.718c1.09-.564 1.675-1.127 2.392-1.583 2.712-1.745 3.615-2.55 6.22-3.14 1.515-.349 3.535-.859 6.99-.913l1.223.027c.983.107 1.754-.161 1.914-.429.133-.215-.612-.51-1.595-.698 0 0-1.701-.108-3.11-.403-1.568-.322-2.844-.859-1.515-1.207l-.026.026zm-68.787-7.781h1.754a1.78 1.78 0 0 1 1.754 1.771v14.278h-1.754a1.78 1.78 0 0 1-1.754-1.772v-14.277zm-3.562 12.237a1.798 1.798 0 1 1 0 3.596 1.798 1.798 0 1 1 0-3.596zm9.808-15.861h1.754a1.78 1.78 0 0 1 1.754 1.771v2.067h3.296v1.798h-3.296v9.688c.08 1.396.532 2.04 1.223 2.335.904.376 2.206.027 3.694.027l.027 1.53c-1.09.053-2.339.295-3.455.188l-.824-.108c-.904-.161-1.781-.51-2.552-1.1-1.781-1.423-1.621-3.838-1.621-5.877V142.28v-.027zm21.635 10.199v9.152h-1.621c-.904 0-1.621-.752-1.621-1.637-.718.644-1.011 1.046-1.834 1.342-1.834.67-4.2.805-5.981-.564-.771-.59-1.382-1.476-1.568-2.898-.399-3.06 1.462-5.77 5.369-5.77h4.014v-.671c0-1.262-.426-2.067-1.09-2.604-.984-.805-2.552-.966-4.067-.966h-2.605v-1.69h2.552c1.568 0 2.897.053 4.492.617 1.223.429 2.419 1.127 3.11 2.013.797.993.903 2.469.903 3.703l-.053-.027zm-3.402 1.342c0 1.181.106 2.308-.08 3.328-.478 2.496-2.631 3.14-4.04 2.818-.877-.188-1.621-.752-1.834-1.906-.159-.832-.053-1.798.532-2.603.638-.912 1.887-1.53 3.402-1.61l1.993-.054.027.027zm5.847-11.541h1.755a1.78 1.78 0 0 1 1.754 1.771v13.553c.08 1.396.531 2.04 1.223 2.335.903.376 2.206.027 3.694.027l.027 1.53c-1.09.053-2.339.295-3.456.188l-.824-.108c-.903-.161-1.78-.51-2.551-1.1-1.781-1.423-1.622-3.838-1.622-5.877V142.28v-.027zm14.885 3.865c4.199 0 7.601 3.516 7.601 7.837s-3.402 7.836-7.601 7.836-7.602-3.515-7.602-7.836 3.402-7.837 7.602-7.837zm-.133 1.799c2.365 0 4.279 2.737 4.279 6.118s-1.914 6.119-4.279 6.119-4.279-2.737-4.279-6.119 1.913-6.118 4.279-6.118z" fill="#960038"/><path d="M301.007 153.489v8.611c0 .454 1.369.284 2.224.284h2.509c.399-1.587-.114-8.442.171-9.348.57-2.04 3.934-2.21 3.877 1.019v7.536c0 .509-.114.736.399.793h4.391c.342-1.53-.114-8.329.171-9.348.456-1.813 2.623-1.813 3.421-.737.399.51.456.85.456 1.756v7.536c0 .509-.114.736.342.793h4.391c.228-.963.114-6.912.114-8.329 0-1.529-.399-3.342-1.369-4.475l-.798-.85c-.228-.17-.228-.227-.513-.34-2.281-1.53-5.474-1.813-7.755-.17-1.254.963-.57.793-1.653.056l-.913-.566c-1.71-.85-3.877-.737-5.587-.057-1.312.51-2.794 1.87-3.307 3.173-.343.793-.571 1.586-.571 2.663zm38.83-2.096c4.847 0 4.391 7.025.399 7.025-.57 0-.969.057-1.425-.113-.741-.227-1.483-.736-1.882-1.473-.684-1.416-.627-3.343.514-4.419.57-.567 1.311-1.02 2.394-1.02zm-.228 11.388c1.825 0 3.649-.34 5.132-1.36 1.311-.85 1.996-1.586 2.68-3.003.285-.51.399-.849.513-1.416.456-1.813.399-3.796-.456-5.496-1.198-2.549-3.934-4.362-7.07-4.362-2.224 0-3.707.226-5.531 1.416-1.027.737-2.224 2.096-2.68 3.286-.342.907-.627 2.323-.627 3.173 0 .907.342 2.38.741 3.173.741 1.473 1.026 1.813 2.167 2.776.114.113.399.34.513.396.399.284.912.51 1.368.737.627.283 2.281.68 3.25.68zm-51.659-7.763c0-.51.171-1.133.285-1.473a4.62 4.62 0 0 1 .684-1.133c.286-.284.571-.51 1.027-.68 2.509-1.02 4.903.566 4.903 2.719 0 .85.057 1.36-.285 2.097-.285.623-.855 1.246-1.482 1.529-1.255.624-3.421.397-4.22-.736-.513-.623-.912-1.417-.912-2.323zm4.105 7.762h-.855c-.627 0-1.254-.114-1.995-.227-.514-.113-1.027-.283-1.483-.51-.456-.17-1.482-.736-1.825-1.133l-.57-.397c-.627-.623-1.197-1.586-1.539-2.379-.399-.737-.684-2.153-.684-3.229 0-1.304.399-2.89 1.026-3.91.114-.226.228-.34.342-.566 2.338-3.4 7.583-4.136 10.777-2.55 1.767.85 3.079 2.096 3.877 4.023.627 1.473.798 3.342.399 4.929-.399 1.473-1.254 3.116-2.452 3.966-1.71 1.303-3.25 1.926-5.018 1.983zm33.242-15.24v14.107c0 .396-.057.736.285.736h4.22c.228 0 .285-.113.285-.283v-14.391c0-.169-.057-.226-.285-.226-.684 0-4.048-.113-4.505.057z" fill="#09246a"/><path d="M277.744 146.236c0 1.303.513 2.266 1.539 3.06.171.113.285.17.57.283 3.307 1.643 6.729-2.776 3.935-5.496-.685-.68-1.54-1.076-2.452-1.076h-.171c-.855 0-1.654.34-2.338.963-.513.51-1.083 1.586-1.083 2.266z" fill="#ff6b6b"/></g></svg>