<svg xmlns="http://www.w3.org/2000/svg" xmlns:xlink="http://www.w3.org/1999/xlink" width="752" height="105" fill="none" xmlns:v="https://vecta.io/nano"><g fill-rule="evenodd"><path d="M131.292 99.757v-6.339c.244-4.267 3.779-4.998 4.388-2.926.366.975.122 8.046.122 9.265h3.78c0-1.829-.244-5.608.121-7.192.489-2.682 2.683-3.779 3.78-2.926.731.488.731 1.829.731 3.048 0 7.315-.61 7.192 3.657 7.192V93.54c0-2.072.244-3.901-.731-5.608-1.098-2.194-4.51-2.438-6.583-1.097-1.097.731-1.341 1.341-1.585 1.463-.974-1.341-1.585-2.194-3.779-2.316-1.829 0-3.414.975-4.023 1.951-.365-.366-.122-1.097-1.218-1.463-.489-.122-1.951-.122-2.439-.122v13.531h3.657l.122-.122z" fill="#0896ff"/><path d="M3.657 96.466c-.122-.731 0-1.829 0-2.56 0-2.682.122-2.438 2.926-2.438 3.413 0 3.17 3.413 1.951 4.511-.975.853-3.413.488-4.754.488h-.122zm0-7.924c0-4.51-.366-4.51 2.682-4.51 3.048.122 2.56 3.17 1.585 4.023-.853.731-2.926.488-4.267.488zM0 99.636h6.461c2.072 0 3.657-.488 4.876-1.585 1.829-1.585 2.316-4.876.731-6.949-.731-.975-1.341-1.097-1.829-1.463.366-.366 1.585-.975 1.951-3.17.488-3.169-1.585-5.242-4.754-5.608-1.463-.122-3.657-.122-5.242-.122C0 80.74 0 82.203 0 83.666v15.97zm84.602-10.24c.853-.244 1.95 0 2.438.366 1.585 1.341 1.463 5.608-.853 6.217-4.023 1.097-4.876-5.852-1.585-6.583zM83.993 105h1.829c.488-.244 6.095-.488 6.095-6.339V86.226c-.488 0-1.829-.122-2.194 0-.853.122-.853.488-1.219.975-.244-.122-.366-.366-.61-.488-.853-.488-1.463-.731-2.56-.853-8.655-.731-8.899 13.531-.61 13.653 1.585 0 2.194-.366 3.291-1.097.244 2.438-1.828 3.413-4.145 3.047-.975-.122-2.316-.853-2.926-.243-.244.243-.975 2.072-1.097 2.56.61.243 1.219.609 1.951.731.488.122 1.95.366 2.194.488zm-39.254-6.097v.853h3.901v-5.608c1.585 0 1.219.366 2.682 3.047 1.463 2.803.975 2.803 5.973 2.682-.366-.731-1.585-2.682-2.194-3.657s-1.463-3.17-2.194-3.657l1.097-1.463 3.169-4.754h-4.389l-2.56 4.023c-.366.609-.731.609-1.585.609-.244-1.463 0-4.145 0-5.851 0-4.023.244-3.901-3.901-3.901v17.92-.244zm23.772.854V96.1c0-2.194-.366-4.51 1.463-5.851.61-.488 2.072-.975 2.926-.366.731.488.731 1.829.731 2.926v3.657c0 2.56-.244 3.778 3.901 3.413v-6.217c0-1.829.122-4.023-.61-5.486-.732-1.341-1.951-2.194-3.901-2.194-1.463 0-2.438.244-3.535 1.097-.61.488-.488.488-.853.732l-.122-.122v-.122c-.609-1.463-1.829-1.219-3.779-1.219v13.531h3.901l-.122-.122zM35.84 89.273c4.511-.731 5.242 6.583 1.219 7.314-4.632.853-5.364-6.705-1.219-7.314zm.731 10.728c9.021 0 9.509-14.02-.244-14.02-9.143 0-9.631 14.02.244 14.02z" fill="#273b7d"/><path d="M115.81 93.418c-.487-5.12 6.096-5.608 6.583-.975.488 5.242-6.095 5.73-6.583.975zm2.317-7.436c-3.779.488-6.705 3.535-6.096 7.924.488 3.779 3.536 6.583 8.046 6.096 3.779-.366 6.583-3.657 6.095-7.924-.487-3.779-3.657-6.461-7.924-5.973l-.121-.122z" fill="#0896ff"/><path d="M20.48 89.273c4.511-.975 5.364 6.583 1.341 7.314-4.632.853-5.486-6.461-1.341-7.314zm-6.461 3.901c0 3.779 3.048 6.827 6.827 6.827 4.267 0 7.314-2.926 7.314-6.827v-.366c0-3.901-3.169-6.827-7.192-6.827-4.145 0-7.071 2.926-7.071 7.193h.122z" fill="#273b7d"/><path d="M110.081 94.879c-.976.61-2.316 2.438-4.877 1.829-4.144-.975-3.535-7.314.732-7.436 1.95 0 1.707.853 2.072 1.341.61.61 2.073.366 2.926.366.244-2.194-.122-3.413-1.707-4.267-1.341-.731-3.291-.853-4.998-.609-7.192 1.341-7.558 11.215-1.341 13.409 3.414 1.219 7.071 0 8.656-2.072l-1.585-2.682.122.122z" fill="#0896ff"/><path d="M58.515 99.755h3.901v-8.777c0-4.754.366-4.876-3.901-4.876v13.653z" fill="#273b7d"/><path d="M97.89 98.294c.366-1.341-.488-2.56-1.463-2.804-1.341-.366-2.56.488-2.804 1.463-.853 2.926 3.413 4.145 4.267 1.341z" fill="#0896ff"/><path d="M60.587 80.374h-.853c-.609.366-1.95.731-1.707 2.56.244 2.682 4.389 2.56 4.511-.122 0-1.707-1.219-2.072-1.95-2.316v-.122z" fill="#273b7d"/><path d="M202.972 87.357c-.76-.541-1.521-1.948-2.607-1.948-.76 0-1.412.649-1.412 1.407 0 .866 1.303 1.84 1.847 2.381s1.629 1.84 2.172 2.165c.978-.649 3.694-3.68 4.78-4.762 1.304-1.299 3.259-3.896 5.54-3.896 2.39 0 4.128 1.732 4.128 4.221 0 1.948-1.52 3.139-2.498 4.113l-6.627 6.71c-.76.758-2.933 2.598-3.367 3.355.434.758 1.412.758 2.172.758 1.413 0 3.151-2.165 4.02-3.031l3.585-3.463c2.172-2.165 5.648-4.654 5.648-8.55 0-4.329-4.128-7.9-8.69-6.71-3.585.866-6.409 5.628-8.691 7.251zm113.738 1.407h.218c1.629 0 2.824.974 2.824 2.597h-5.866c.326-1.407 1.086-2.597 2.824-2.597zm-6.518 3.68v.866c0 5.736 6.736 8.549 10.864 5.519.76-.541 2.172-1.948 2.172-3.139l-3.041-.866c-.652 1.19-1.195 2.056-3.042 2.056-1.738 0-3.259-1.19-3.259-2.922h9.234c.869 0 .869-8.225-6.192-8.225-3.694 0-6.736 3.139-6.736 6.71zm-58.553 4.761c-1.52 0-1.846-.649-1.846-1.732 0-.866.977-1.299 1.738-1.407.869-.108 2.064-.433 2.824-.433 0 1.84-.217 3.572-2.716 3.572zm-5.214-6.926l3.259.649c.326-.649 0-.866.652-1.515 1.195-1.19 4.019-.757 4.019.758v.541c0 .758-3.367.974-4.236 1.19-6.192.974-4.454 8.117.108 8.117 1.087 0 2.064 0 3.042-.541.76-.433.978-.974 1.412-1.299l.109 1.515h3.476l-.217-4.762v-4.978c-1.087-6.385-11.624-4.87-11.624.325zm-43.453 8.874c.435-.325 7.93-7.901 9.017-8.983 1.195-1.19 2.824-2.273 2.824-3.571 0-.541-.76-1.19-1.412-1.19-.978 0-2.173 1.515-2.824 2.165-.869.866-1.63 1.732-2.499 2.597-.76.649-4.671 4.762-5.106 4.978-.543-.758-2.933-2.922-3.802-3.68-1.086-1.19-2.933-2.489-2.933-4.654a4.12 4.12 0 0 1 4.128-4.113c1.086 0 1.847.433 2.607.866l1.956-1.948c-.543-.758-2.499-1.515-3.585-1.623-1.738-.216-3.15.108-4.345.758-2.064 1.082-3.803 3.572-3.585 6.71.326 3.03 2.498 4.762 4.236 6.385.869.974 1.738 1.732 2.608 2.706.651.541 2.064 2.165 2.715 2.597zm67.787-11.471v-1.515h-3.585v13.528h3.476c.435 0 .218-2.381.218-2.922 0-1.19-.109-5.303.217-6.169.652-1.407 1.629-1.407 2.716-1.407.869 0 1.52.649 1.738 1.299.543 1.407-.218 9.199.434 9.199h3.477v-8.658c0-2.814-1.63-5.195-4.563-5.195-3.042 0-3.15 1.191-4.128 1.84zm28.896 0v-1.515h-3.585v13.528h3.694v-7.143c0-1.623.543-3.355 2.172-3.355 1.087 0 1.956 0 2.608 1.299.543 1.407-.326 9.199.434 9.199h3.476v-8.658c0-2.814-1.738-5.195-4.562-5.195-3.042 0-3.259 1.191-4.237 1.84zm-73.653-1.191v2.706c0 .216 0 .325.218.325h2.281v6.602c0 1.948 1.847 3.68 3.802 3.68 2.173 0 1.63-.108 2.499-.216V96.45c-.978.216-2.608.325-2.608-1.19v-5.736h2.608v-3.355h-2.608v-4.004c-4.128 0-3.476-.325-3.476 1.515 0 .866.109 1.082-.217 1.623-.652 1.299-2.499.541-2.499 1.191zm55.946-6.387v15.043c0 2.706 1.304 4.654 3.911 4.654 2.498 0 1.955.433 1.955-3.247-.978 0-2.173.108-2.173-1.515V79.78h-3.476c-.217 0-.217.108-.217.325zm-41.389 7.902v-1.84h-3.585v13.528h3.694v-6.061c0-3.463 1.955-4.112 4.562-3.788v-1.948c0-1.948.326-1.84-1.195-1.84-1.847 0-2.607.974-3.476 1.948zm49.102-1.515V99.37c0 .216 0 .325.217.325h3.477V86.167h-3.477c-.217 0-.217.108-.217.325zm-28.896 13.204h3.693V86.167h-3.693v13.528zm28.461-18.074c0 3.355 4.563 3.03 4.563.216 0-1.082-.869-2.273-1.955-2.273h-.544c-1.086 0-2.064 1.082-2.064 2.056zm-28.896 0v.433c0 .974 1.086 1.948 1.955 1.948h.544c1.086 0 2.064-1.082 2.064-2.165s-.978-2.273-2.064-2.273h-.544c-.977 0-1.955 1.082-1.955 2.056z" fill="#00a88f"/><path d="M596.136 85.55v14.021c0 .093 0 .093.093.093h3.524v-8.357h.093v.093l.278.371 2.133 3.436 2.411 3.9c.556.743 1.484.557 2.411.557 1.02 0 1.576-.743 1.576-1.671V85.55c0-1.021-.649-1.671-1.483-1.671h-2.133v8.636l-3.802-6.314c-.093-.093-.186-.186-.186-.279-.092-.093-.092-.186-.185-.278l-.742-1.114c-.186-.371-.649-.65-1.113-.65h-1.391a1.56 1.56 0 0 0-.927.279l-.186.186c-.092.186-.185.279-.278.464-.093.279-.093.464-.093.743zm-15.579 6.222h-4.729v-3.157c0-.279.093-.464.093-.65.093-.186.185-.186.278-.279 0-.093 0-.093.093-.186s.278-.186.371-.279c.185 0 .371-.093.649-.093h1.947c.557 0 1.113.464 1.298.928.093.279.093.372.093.743v1.114.371 1.207c0 .093.093.279-.093.279zm-8.438-4.271v12.164h3.709v-4.828h4.729c.093 0 .093 0 .093.093v4.736h3.709v-11.98c0-2.043-1.761-3.807-3.802-3.807h-4.636c-.742 0-1.577.279-2.133.65s-1.02.836-1.298 1.486a3.89 3.89 0 0 0-.371 1.486zm-9.83 4.271h-2.225c-.093 0-.093 0-.093-.093v-4.55h2.411c1.02 0 1.854.557 2.225 1.3.371.836.186 1.671-.278 2.321-.463.743-1.205 1.021-2.04 1.021zm-5.935-6.407v14.3h3.617v-4.828h1.298c.371 0 .556.093.742.371.093.186.278.371.371.557l.649 1.021.278.279 1.113 1.671c0 .093.093.186.185.279l.464.65h4.451c0-.186-.834-1.207-.927-1.393-.186-.186-.371-.464-.464-.65-.185-.186-.371-.464-.556-.65l-.742-1.021a.71.71 0 0 0-.185-.371c-.186-.186-.928-1.207-1.021-1.393.186 0 .464-.186.65-.278.556-.371 1.02-.929 1.391-1.486.092-.186.278-.279.371-.557 1.112-2.228.741-4.643-1.021-6.5-1.02-.929-2.411-1.486-3.802-1.486h-5.378c-.835 0-1.484.65-1.484 1.486zm-64.078-.001v14.3h4.081V93.35h5.564c.37 0 .834-.093 1.112-.371.186-.279.557-.65.557-1.114v-1.671h-7.233v-2.228c0-1.114 1.298-.836 2.04-.836h5.749c.371-.093.742-.279.927-.557.279-.278.371-.557.371-1.114V83.88H493.76a1.53 1.53 0 0 0-1.484 1.486zm49.334.186v1.671c0 .093 0 .093.093.093h4.265v12.35h3.895v-12.35h2.782a1.53 1.53 0 0 0 1.484-1.486v-1.95h-11.035c-.835 0-1.484.65-1.484 1.671zm-34.496 12.629c0 .836.741 1.486 1.483 1.486h8.346c.649 0 1.113-.371 1.298-.743.371-.557.186-.929.186-1.764v-.743h-6.399c-.649 0-.834-.371-.834-1.021v-9.286c0-.743 0-1.114-.278-1.579-.279-.371-.65-.65-1.206-.65h-2.596v14.3z" fill="#73d700"/><path d="M527.144 85.457c0 .929.371 1.207.834 1.857l2.69 3.714c.092.093.185.279.278.371 0 .093.092.093.092.186l.186.186-.556.743-2.133 2.971c-.557.743-1.391 1.578-1.391 2.414 0 .371 0 .65.185.929.649 1.3 2.411 1.486 3.339.278l1.761-2.414 2.69-3.807.649-.836c.278-.371.278-.186-.186-.836-.092-.093-.092-.186-.185-.279l-2.968-4.086c-.092-.093-.092-.186-.185-.279l-1.576-2.136c-1.299-1.671-3.524-.557-3.524 1.021z" fill="#ffad00"/><path d="M588.347 85.55v14.021c0 .093 0 .093.093.093h3.709V83.879h-2.318c-.649 0-1.206.371-1.391.929-.093.279-.093.464-.093.743zm-68.066 6.035v8.078h3.988v-9.471h-2.411c-.927 0-1.577.743-1.577 1.393zm14.281-4.363c.093.093.186.279.278.371l1.577 2.228c.093.093.464.557.464.65.092-.093.278-.371.463-.557.093-.186.278-.371.371-.557l2.04-2.879c.371-.464.371-1.207.093-1.764-.093-.186-.093-.186-.185-.279-.742-.928-1.948-1.114-2.875-.278-.186.093-.557.743-.742.928-.093.093-.185.186-.185.279l-1.299 1.857zm0 9.099c0 .186 1.762 2.6 2.04 2.971.371.371.928.65 1.484.65 1.02 0 1.947-.928 1.947-1.857 0-.371 0-.65-.278-1.021l-2.782-3.9s0-.093-.092-.093c0 .093-.186.371-.279.371l-1.205 1.671c0 .093-.093.093-.093.186l-.464.65c-.092.093-.185.279-.278.371zm-14.281-11.05v3.436h2.412c.463 0 .834-.186 1.112-.371.186-.279.464-.65.464-1.114v-1.857c0-.836-.649-1.486-1.484-1.486s-1.483-.186-2.04.371c-.278.279-.464.65-.464 1.021z" fill="#73d700"/><path d="M735.821 91.314c1.316-.325 3.628-.029 5.706.532 1.316.355 2.545 1.005 3.687 1.832.526.355 1.551 1.064 2.077 1.773.615.886.322 1.27-.351 1.507-.556.207-1.609-.177-2.692.148-2.487.768-2.253 2.777.088 3.841.644.295 1.609.768 2.633 1.034 1.932.502 4.009.768 4.419.886.966.296.644.621.029.562l-3.189-.296-2.546-.325c-2.019-.413-4.243-1.448-6.321-2.275-2.458-1.004-6.35-1.802-9.715-1.566-1.141.089-2.077.62-3.072.916-.644.177-3.775 1.655-6.555 2.6-1.99.68-3.57.946-4.009.739-.292-.148.498-.414 1.551-.857l4.507-1.891c1.199-.62 1.843-1.241 2.633-1.743 2.985-1.921 3.98-2.807 6.847-3.457 1.668-.384 3.892-.945 7.696-1.005l1.346.03c1.083.118 1.932-.177 2.107-.473.146-.236-.673-.561-1.756-.768 0 0-1.872-.118-3.423-.443-1.727-.355-3.131-.945-1.668-1.33l-.029.029zm-75.73-8.567h1.931a1.96 1.96 0 0 1 1.932 1.95v15.719h-1.932a1.96 1.96 0 0 1-1.931-1.95V82.747zm-3.921 13.472a1.97 1.97 0 0 1 1.96 1.98 1.97 1.97 0 0 1-1.96 1.98c-1.083 0-1.961-.887-1.961-1.98a1.97 1.97 0 0 1 1.961-1.98zm10.798-17.462h1.931a1.96 1.96 0 0 1 1.931 1.95v2.275h3.629v1.98h-3.629v10.666c.088 1.536.585 2.245 1.346 2.57.995.414 2.429.029 4.068.029l.029 1.684c-1.2.059-2.575.325-3.804.207l-.907-.118c-.995-.177-1.961-.561-2.809-1.211-1.961-1.566-1.785-4.225-1.785-6.471V78.787v-.03zm23.819 11.229v10.075h-1.785c-.995 0-1.785-.827-1.785-1.802-.79.709-1.112 1.152-2.019 1.477-2.019.739-4.624.886-6.584-.621-.849-.65-1.522-1.625-1.727-3.191-.439-3.368 1.61-6.352 5.911-6.352h4.419v-.739c0-1.389-.468-2.275-1.2-2.866-1.083-.886-2.809-1.064-4.477-1.064h-2.868v-1.861h2.809c1.727 0 3.19.059 4.946.68 1.346.473 2.663 1.241 3.423 2.216.878 1.093.995 2.718.995 4.077l-.058-.03zm-3.746 1.477c0 1.3.117 2.541-.088 3.664-.526 2.748-2.896 3.457-4.447 3.102-.966-.207-1.785-.827-2.019-2.098-.176-.916-.059-1.98.585-2.866.702-1.004 2.077-1.684 3.745-1.773l2.195-.059.029.029zm6.438-12.706h1.931a1.96 1.96 0 0 1 1.931 1.95v14.921c.088 1.536.585 2.245 1.346 2.57.995.414 2.429.029 4.068.029l.029 1.684c-1.2.059-2.575.325-3.804.207l-.907-.118c-.995-.177-1.961-.561-2.809-1.211-1.961-1.566-1.785-4.225-1.785-6.471V78.787v-.03zm16.386 4.256c4.624 0 8.369 3.871 8.369 8.627s-3.745 8.628-8.369 8.628-8.369-3.871-8.369-8.628 3.746-8.627 8.369-8.627zm-.146 1.98c2.604 0 4.711 3.014 4.711 6.737s-2.107 6.736-4.711 6.736-4.711-3.014-4.711-6.736 2.107-6.737 4.711-6.737z" fill="#960038"/><path d="M394.819 91.104v9.481c0 .499 1.506.312 2.448.312h2.762c.439-1.746-.125-9.293.188-10.291.628-2.245 4.332-2.433 4.269 1.123v8.296c0 .561-.126.811.439.873 1.381.063 3.327 0 4.834 0 .377-1.684-.126-9.169.188-10.291.503-1.996 2.888-1.996 3.767-.811.439.561.502.936.502 1.934v8.296c0 .561-.126.811.377.873 1.443.063 3.389 0 4.833 0 .251-1.06.126-7.609.126-9.169 0-1.684-.44-3.68-1.507-4.928l-.879-.936c-.251-.187-.251-.249-.565-.374-2.511-1.684-6.026-1.996-8.537-.187-1.381 1.06-.628.873-1.82.062l-1.005-.624c-1.883-.936-4.268-.811-6.152-.062-1.443.561-3.075 2.058-3.64 3.493-.377.873-.628 1.747-.628 2.932zm42.749-2.308c5.336 0 4.833 7.734.439 7.734-.627 0-1.067.062-1.569-.125-.816-.249-1.632-.811-2.072-1.622-.753-1.559-.69-3.68.565-4.865.628-.624 1.444-1.123 2.637-1.123zm-.251 12.537c2.009 0 4.017-.374 5.649-1.496 1.444-.936 2.198-1.746 2.951-3.306.314-.561.439-.936.565-1.559.502-1.996.439-4.179-.502-6.05-1.319-2.807-4.332-4.803-7.784-4.803-2.449 0-4.081.249-6.089 1.559-1.13.811-2.449 2.308-2.951 3.618-.376.998-.69 2.557-.69 3.493 0 .998.376 2.62.816 3.493.816 1.622 1.13 1.996 2.385 3.056a3.49 3.49 0 0 0 .565.437c.44.312 1.005.561 1.507.811.69.312 2.511.748 3.578.748zm-56.873-8.546c0-.561.188-1.248.314-1.622a5.08 5.08 0 0 1 .753-1.248c.314-.312.628-.561 1.13-.748 2.762-1.123 5.398.624 5.398 2.994 0 .936.063 1.497-.314 2.308-.313.686-.941 1.372-1.632 1.684-1.381.686-3.766.437-4.645-.811-.565-.686-1.004-1.559-1.004-2.557zm4.519 8.545h-.941c-.691 0-1.381-.124-2.197-.249-.565-.125-1.13-.312-1.632-.562-.503-.187-1.633-.81-2.009-1.247l-.628-.437c-.69-.686-1.318-1.746-1.695-2.62-.439-.811-.753-2.37-.753-3.555 0-1.435.439-3.181 1.13-4.304.125-.25.251-.374.376-.624 2.574-3.742 8.349-4.553 11.865-2.807 1.946.936 3.39 2.308 4.268 4.429.691 1.622.879 3.68.44 5.427-.44 1.622-1.381 3.431-2.699 4.366-1.884 1.435-3.579 2.121-5.525 2.183zm36.598-16.778v15.531c0 .437-.063.811.313.811h4.646c.251 0 .314-.125.314-.312V84.741c0-.187-.063-.249-.314-.249-.754 0-4.457-.125-4.959.062z" fill="#09246a"/><path d="M369.207 83.119c0 1.435.565 2.495 1.695 3.368.188.125.314.187.628.312 3.641 1.809 7.407-3.056 4.331-6.05-.753-.749-1.695-1.185-2.699-1.185h-.188c-.942 0-1.821.374-2.574 1.06-.565.561-1.193 1.746-1.193 2.495z" fill="#ff6b6b"/></g><path d="M37.252 23.476l-.002.282c-.017 1.177-.144 2.328-.37 3.443l-.45 1.766a18.42 18.42 0 0 1-.727 1.96 18.54 18.54 0 0 1-1.013 1.984l-.843 1.304-.295.406-.024.031-1.161 1.399-1.016-1.399-1.213-1.669-.017-.024-1.477-2.032-.808-1.113-.002-.002c.552-.8 1.003-1.677 1.333-2.61.156-.442.285-.897.385-1.363.164-.761.25-1.552.25-2.363s-.086-1.601-.25-2.363c-.311-1.448-.904-2.792-1.718-3.973l.002-.002-.096-.132-.107-.147a11.22 11.22 0 0 0-2.438-2.426c-1.014-.738-2.157-1.31-3.389-1.674a11.17 11.17 0 0 0-2.05-.404l-1.13-.056-1.13.056a11.17 11.17 0 0 0-2.05.404c-1.232.364-2.374.937-3.388 1.674-.932.679-1.755 1.497-2.438 2.426l-.106.147-.096.132.002.002c-.814 1.18-1.407 2.524-1.718 3.973-.164.761-.25 1.552-.25 2.363s.086 1.601.25 2.363a11.15 11.15 0 0 0 .385 1.363c.33.933.781 1.81 1.333 2.61l-.002.002-.808 1.113-1.477 2.032-.017.024-1.213 1.669-1.016 1.399-1.162-1.399-.024-.031-.295-.406-.842-1.304a18.54 18.54 0 0 1-1.013-1.984 18.49 18.49 0 0 1-.727-1.96C.644 28.39.494 27.8.372 27.201c-.226-1.114-.353-2.266-.37-3.443L0 23.476l.002-.282c.027-1.811.312-3.558.82-5.209.428-1.391 1.016-2.713 1.74-3.943l.842-1.304.293-.402.002-.004 1.185-1.43a18.74 18.74 0 0 1 2.792-2.495c1.007-.732 2.089-1.366 3.233-1.888.721-.329 1.467-.613 2.234-.849l1.472-.387a18.58 18.58 0 0 1 3.726-.431l.283-.002.283.002c1.278.019 2.524.166 3.726.431l1.472.387c.767.235 1.513.52 2.234.849a18.62 18.62 0 0 1 3.233 1.888 18.75 18.75 0 0 1 2.792 2.495l1.185 1.43.002.004.293.402.843 1.304c.724 1.231 1.311 2.553 1.74 3.943a18.61 18.61 0 0 1 .82 5.209l.002.282z" fill="#fdba20"/><path d="M24.039 30.925H13.213l.808-1.112.225-.311 1.673-2.302h5.413l1.673 2.302.225.311.808 1.112zm5.413 7.45H7.801l1.617-2.226.45-.619.639-.881h16.239l.639.881.45.619 1.617 2.226zM73.05 14.576h5.648c-.214-1.48-1.305-2.395-2.746-2.395-1.48 0-2.571.935-2.902 2.395zm8.063 1.928H73.05c.311 1.363 1.305 2.434 3.233 2.434a6.53 6.53 0 0 0 3.486-1.091l1.013 1.811c-.993.74-2.668 1.461-4.596 1.461-3.973 0-5.726-2.727-5.726-5.531 0-3.155 2.201-5.531 5.492-5.531 2.98 0 5.239 1.967 5.239 5.317 0 .428-.039.779-.078 1.13zm-22.078-1.742v6.154h-2.551v-6.154c0-1.402-.818-2.356-2.22-2.356-1.422 0-2.24.954-2.24 2.356v6.154h-2.551v-6.154c0-2.96 1.831-4.674 4.791-4.674 2.921 0 4.771 1.733 4.771 4.674zm36.405-2.268a2.62 2.62 0 0 0-.693-.088c-1.422 0-2.239.954-2.239 2.357v6.154h-2.551v-6.154c0-2.96 1.831-4.674 4.791-4.674.541 0 1.046.06 1.508.175l-.816 2.23zm-6.94 0c-.211-.058-.442-.088-.692-.088-1.422 0-2.24.954-2.24 2.357v6.154h-2.551v-6.154c0-2.96 1.831-4.674 4.791-4.674a6.22 6.22 0 0 1 1.508.175l-.816 2.23zm17.034 3.095c0-1.753-1.266-3.213-3.116-3.213-1.87 0-3.097 1.461-3.097 3.214 0 1.772 1.247 3.233 3.097 3.233s3.116-1.461 3.116-3.233zm2.356-5.278v10.575h-2.414v-1.305a4.48 4.48 0 0 1-3.448 1.558c-3.057 0-5.238-2.454-5.238-5.589 0-3.174 2.22-5.492 5.238-5.492 1.52 0 2.63.682 3.448 1.597v-1.344h2.414zm4.663 0h-2.551v10.575h2.551V10.311zm4.634-4.225h-2.532v14.801h2.532V6.086z" fill="#161033"/><path d="M109.671 7.451a1.57 1.57 0 0 1 1.617-1.597c.895 0 1.616.682 1.616 1.597s-.721 1.597-1.616 1.597a1.57 1.57 0 0 1-1.617-1.597z" fill="#fdba20"/><path d="M47.355 10.311h-2.551v10.575h2.551V10.311zm-2.882-2.86a1.57 1.57 0 0 1 1.616-1.597c.896 0 1.617.682 1.617 1.597s-.721 1.597-1.617 1.597a1.57 1.57 0 0 1-1.616-1.597zM69.235 20.3c-.811.56-1.969.869-3.031.869-2.375 0-3.591-1.429-3.591-4.093v-4.518h-1.737v-2.124h1.776V6.727h2.491v3.707h3.514v2.124h-3.514v4.422c0 1.236.444 1.892 1.525 1.892.676 0 1.255-.232 1.776-.541l.792 1.969zm-22.62 11.385h5.673c-.215-1.487-1.311-2.406-2.758-2.406-1.487 0-2.582.939-2.915 2.406zm8.099 1.936h-8.099c.313 1.369 1.311 2.445 3.247 2.445 1.193 0 2.582-.45 3.502-1.096l1.017 1.819c-.998.743-2.68 1.467-4.617 1.467-3.991 0-5.751-2.739-5.751-5.556 0-3.169 2.211-5.556 5.517-5.556 2.993 0 5.262 1.976 5.262 5.341 0 .43-.039.782-.078 1.134zm1.918-.038v-6.182h2.563v6.182c0 1.409.822 2.367 2.23 2.367 1.428 0 2.25-.958 2.25-2.367v-6.182h2.563v6.182c0 2.974-1.839 4.695-4.812 4.695-2.934 0-4.793-1.741-4.793-4.695zm16.995-3.988c-.212-.058-.445-.088-.695-.088-1.428 0-2.25.958-2.25 2.367v6.182h-2.563v-6.182c0-2.973 1.839-4.695 4.813-4.695a6.25 6.25 0 0 1 1.515.176l-.82 2.24zm10.042 3.108c0-1.761-1.271-3.228-3.13-3.228-1.878 0-3.11 1.467-3.11 3.228 0 1.78 1.252 3.247 3.11 3.247s3.13-1.467 3.13-3.247zm2.367-5.302v10.622H83.61v-1.311c-.802.9-1.937 1.565-3.463 1.565-3.071 0-5.262-2.465-5.262-5.614 0-3.189 2.23-5.517 5.262-5.517 1.526 0 2.641.685 3.463 1.604V27.4h2.426zm4.696.001h-2.563v10.623h2.563V27.402zm4.66-4.246h-2.543v14.868h2.543V23.156z" fill="#161033"/><path d="M87.837 24.525c0-.919.704-1.604 1.624-1.604.9 0 1.624.685 1.624 1.604s-.724 1.604-1.624 1.604c-.919 0-1.624-.685-1.624-1.604z" fill="#fdba20"/><g fill-rule="evenodd"><path d="M212.15 3.437h-41.308c-2.853 0-5.208 2.247-5.208 5.137V34.4c0 2.889 2.355 5.208 5.208 5.208h41.308c2.854 0 5.208-2.319 5.208-5.208V8.573c0-2.889-2.354-5.137-5.208-5.137z" fill="#f01414"/><path d="M213.541 34.398c0 .82-.606 1.498-1.426 1.498h-41.308c-.821 0-1.427-.642-1.427-1.498V8.572c0-.82.606-1.498 1.427-1.498h41.308c.82 0 1.426.642 1.426 1.498v25.826z" fill="#fff"/><path d="M181.437 33.365h-8.704V9.679h8.704c6.135 0 9.524 3.853 9.524 11.736 0 6.849-2.283 11.914-9.524 11.95zm3.781-11.451c0-4.78-.499-8.49-5.636-8.49h-1.142v16.124h2.034c2.996 0 4.78-2.426 4.78-7.634h-.036zm20.761-.927c1.677-.428 4.138-2.354 4.138-5.529 0-.499-.107-5.779-6.778-5.779h-9.916v23.686h8.382c2.212 0 9.132 0 9.132-6.671 0-1.677-.677-4.78-4.958-5.743v.036zm-6.885-7.634h1.784c2.533 0 3.567.892 3.567 2.854 0 1.569-1.106 2.854-3.103 2.854h-2.248v-5.708zm2.319 16.195h-2.319v-6.1h2.497c2.961 0 3.675 1.712 3.675 3.032 0 3.032-2.925 3.032-3.817 3.032l-.036.036z" fill="#f01414"/><path d="M275.338 10.414c.153-.304.077-.228.306-.455.152-.152.229-.228.381-.304l1.908-1.897c.382-.379 2.213-2.428 2.671-2.428h12.516c.916 0 1.297.152 1.755.683l6.029 5.918c.763.759 1.45 1.593 2.442 2.276 2.29 1.669 5.19 1.29 8.395 1.29h9.54c-.229.455-3.664 3.718-4.579 4.552-.229.228-.382.531-.84.531h-10.913c-1.068 0-2.213.152-2.976-.455-.458-.379-4.274-4.173-4.885-4.856-2.518-2.504-4.197-4.932-8.013-4.932h-13.737v.076zM311.054.247c.306.152 4.503 4.401 5.113 5.008l2.595 2.58 2.213 2.2c.229.228.153.076.306.379h-9.921c-5.572 0-4.35.303-7.25-2.58l-4.885-4.932C297.241.929 296.096.171 292.128.171h-12.287c-1.297 0-1.297-.228-1.984.455l-7.403 7.36-4.884 4.856c.229.379 3.511 3.566 4.121 4.097l8.242 8.194c.611.607.458.455 1.603.455h6.029c-.916-1.214-9.692-9.408-10.15-10.167 3.205-.152 6.639 0 9.921 0 5.495 0 4.35-.379 7.25 2.504l4.96 4.932c2.442 2.428 3.435 2.731 7.021 2.731h12.44c1.374 0 1.145.228 1.908-.531l9.845-9.788c.534-.531 2.06-1.973 2.442-2.504-1.298-1.366-2.748-2.732-4.121-4.097L318.838.474c-.61-.607-.534-.455-1.602-.455-1.221 0-5.419-.076-6.029.076l-.153.152zm-.763 40.819c-.153-2.276 2.519-2.352 2.595-.303 0 .835-.229 1.745-1.145 1.821-.992.076-1.374-.607-1.45-1.517zm-1.374.076c.153 3.414 5.571 3.263 5.343-.379-.229-3.49-5.495-3.338-5.343.379zm-26.405-.757c0-1.517 2.29-1.593 2.213 0h-2.213zm3.129 1.745c-1.297.455-2.823 1.062-3.129-.835h3.511c0-1.442-.305-2.58-1.603-2.959-3.205-.986-4.197 3.263-2.366 4.704 1.069.835 2.366.531 3.587.152V42.13zm38.54-.988c0 .607-.153.986-.535 1.29-1.068.759-2.213-.607-1.068-1.138.458-.228 1.068-.152 1.603-.152zm-2.748-1.366c.84-.303 2.824-1.214 2.748.531-.84.152-1.679 0-2.442.303-2.214 1.062.076 4.628 2.518 2.2l.076.683h1.145c.076-.91 0-3.87-.382-4.477-.457-.835-1.831-.835-2.823-.683-.153 0-.306.076-.458.152l-.458.228v1.062h.076zm-5.036 3.718c.076-1.366-.382-3.945 1.068-4.173 1.45-.152.916 2.276.992 4.173h1.297c.077-.91.153-3.642-.229-4.401-.61-1.214-2.442-1.138-3.128-.076l-.077-.607h-1.297v5.084h1.297.077zm-43.501 0c.077-1.366-.381-4.097 1.069-4.173s.763 2.2.992 4.173h1.297v-3.035c0-1.138-.305-1.897-1.144-2.124-.993-.303-2.137.228-2.29.683l-.153-.683h-1.144v5.084h1.297l.076.076zm25.108-1.896c.763-.531.916-.455 1.985-.455 0 .683-.229 1.29-.84 1.442-.839.228-1.297-.152-1.145-.986zm-.763-1.897c.534-.228.84-.531 1.603-.531s1.145.379 1.068 1.062c-1.602 0-3.663.152-3.205 2.124.153.607.763 1.138 1.526 1.138.992.076 1.45-.455 1.832-.835l.076.683h1.145c.076-.91 0-3.794-.382-4.477-.61-1.062-2.442-.835-3.663-.379v1.138.076zm-5.037 3.719c.077-1.366-.458-4.021 1.069-4.173 1.45-.152.915 2.125.992 4.173h1.297c.076-.986.153-3.642-.229-4.401-.687-1.138-2.06-.986-3.205-.076v-.607h-1.297v5.084l1.297-.076.076.076zm-11.676-.988c-.916.228-1.221 0-1.221-.91 0-.531-.076-1.745.076-2.2h1.145v-.986h-1.145v-1.442l-1.297.379v1.062h-.992l.076.986.916.076c0 2.656-.611 4.552 2.595 4.097l-.077-1.062h-.076zm21.445-3.113h.992c0 2.504-.611 4.704 2.595 4.173l-.077-.986c-1.526.303-1.221-.228-1.221-3.111h1.145v-.986h-1.145v-1.442l-1.297.455v.986h-.992v.986-.076zm24.879 4.175h1.297v-7.436h-1.297v7.436zm-58.153.001l1.374-.076v-6.828h-1.374v6.904zm19.842-.076c.076-.91-.076-1.897.076-2.807.153-.986.535-1.214 1.603-1.062v-1.29c-.992-.152-1.526.379-1.831 1.062v-.986h-1.222v5.084h1.298.076z" fill="#010066"/><path d="M306.552 43.494h1.297v-5.159h-1.297v.152 5.008z" fill="#000065"/><path d="M306.552 37.424h1.297v-.91-.379h-1.297v.379.607.303z" fill="#010066"/><path d="M396.929 8.7l.052 8.226 3.428.053v-1.266c.316-3.375 2.953-6.064 6.749-4.904 3.112.949 3.955 5.168 2.11 8.226-1.002 1.687-4.482 4.693-6.064 6.117l-6.275 5.906.052 7.593h19.247c0-.474.106-3.164-.105-3.269l.052-2.32c-.632-.158-5.642-.105-6.485 0-.95.105-6.275-.053-6.434 0 .159-.422.475-.633.791-.844l.897-.791c.369-.316 1.424-1.424 1.793-1.529.263-.369 3.269-2.953 4.113-3.797.263-.264 0-.158.316-.158.422-.791 2.215-2.056 3.691-4.851 1.213-2.215 1.477-4.008 1.318-6.908-.158-1.318-.316-1.951-.791-3.058-.158-.475-.369-.844-.632-1.266-.211-.369-.58-.738-.739-1.213-.632-.158-2.583-3.691-8.595-3.691-1.898 0-3.638.316-5.115 1.002-1.265.58-2.847 1.793-3.427 2.742h.053z" fill="#029801"/><path d="M379.58 10.072v5.379h6.539c.685 0 2.004-.158 2.004.211l-.053 27.684c.58.211 6.328.158 7.277.053.053-.791 0-3.111 0-4.218 0-.58 0-.422.158-.58l20.723-.053v-3.269l1.16.053v-.105h-1.107l-.158.053c.211.105.105 2.795.105 3.269h-19.247-1.529v-5.642c0-.527-.052-.475.264-.738-.158-.105-.264 0-.211-.791.105-4.64-.158-9.913 0-14.448h4.904l.053-1.266v1.266l-3.428-.053h-1.582c.053-1.424-.211-4.957.158-5.958l-.052-.053-.053-.053-.053-.158c-.105-.685.158-9.228-.052-10.652h-5.854c-.158.844-.158 1.371-.369 2.162-.58 1.74-1.582 3.586-2.742 4.746-1.634 1.582-4.218 3.427-6.855 3.164z" fill="#03bb01"/><path d="M411.799 26.84l-.369-.105c-.633.791-1.371 1.213-2.057 1.898-.58.58-1.845 1.424-2.004 1.951.317.527.791.844 1.16 1.213.317.264 1.108.844 1.266 1.107l-6.539.053c.159-.053 5.432.105 6.434 0 .79-.105 5.853-.158 6.485 0l-.052 2.32.158-.053.053-2.267h1.318l.053 1.74c0 .633.105.422-.264.527v.105c3.533.053 6.697-1.107 9.122-3.164.633-.527 1.793-1.846 2.004-1.898-.053-.264-.053-.211.211-.527.475-.58.527-.738.949-1.424.475-.791.791-1.898 1.108-2.215 0-.791.738-2.215.632-4.535h-12.971l.052 5.168h5.115c-.316.58-1.582 1.529-2.425 1.951-2.215 1.107-4.799 1.055-7.014-.053-1.423-.738-1.582-1.16-2.373-1.846l-.052.053z" fill="#017101"/><path d="M428.567 13.182c-.053.369.053.264.528.949 1.001 1.476 1.318 2.795 1.687 3.269 1.951-.633 3.216-.738 4.851.369a4.78 4.78 0 0 1 2.109 3.955c0 2.637-2.003 4.588-4.324 4.851-1.318.158-1.634-.211-2.636-.422-.264.264-.633 1.424-1.107 2.215-.422.686-.475.844-.95 1.424-.263.316-.263.264-.211.527 5.537 3.111 14.027-.791 14.027-8.648 0-3.902-2.268-6.644-4.377-8.015-1.265-.844-2.795-1.424-4.587-1.529-2.162-.158-3.375.316-5.063 1.002l.053.053z" fill="#014601"/><path d="M414.488 8.595l.844-.158c.158.475 1.107 1.687 1.423 2.426l.264.738c.264.58.422 1.951.633 2.162-.317.053-.686.053-.897.211 5.432-.58 7.225 3.375 7.752 3.427l6.275-.053c-.317-.475-.633-1.846-1.688-3.269-.474-.685-.58-.58-.527-.949-.527-.105-3.164-4.429-9.65-5.009-.685-.053-3.743-.053-4.429.422v.053zm-18.878 2.373c-.369 1.002-.105 4.535-.158 5.959h1.582l-.053-8.226c-.369.422-1.212 1.74-1.318 2.267h-.053zm.053 21.251c-.316.264-.263.211-.263.738v5.642h1.529l-.053-7.593c-.264.211-1.055.896-1.266 1.213h.053z" fill="#017101"/><path d="M414.488 8.595h-.422c.106.475.475.844.739 1.213.263.422.474.791.632 1.265.422 1.107.633 1.687.791 3.058l.528-.105c.263-.158.58-.211.896-.211-.211-.211-.316-1.635-.633-2.162l-.263-.738c-.317-.738-1.266-1.951-1.424-2.426l-.844.158v-.053zm-7.699 21.251l.633.791c.158-.527 1.424-1.371 2.004-1.951.685-.686 1.424-1.107 2.056-1.898l.369.105c-.21-.264-.527-.633-.632-.949-.264 0 0-.105-.317.158l-4.113 3.797v-.053zm9.545 5.483h1.107c.369-.105.264.106.264-.527l-.053-1.74h-1.318l-.053 2.267h.053z" fill="#014601"/><path d="M388.123 15.661c0-.369-1.371-.211-2.004-.211h-6.539v-5.379c-.211.158-.052-.053-.158.264-.105.475.053 5.115.053 5.22.844-.105 8.12-.105 8.648.106z" fill="#98d998"/><path d="M388.07 43.397c.158.211-.211.158.369.211h.527l6.539-.053.053-4.904c-.158.105-.158 0-.158.58v4.218c-.95.053-6.697.105-7.277-.053h-.053z" fill="#6dce6b"/><g fill="#000"><path d="M654.39 34.917h1.001v6.797h-1.001v-6.797zm5.203 6.796v-4.398h.901v.7l.7-.7c.2-.1.5-.2.7-.2.401 0 .701.1 1.001.4a1.28 1.28 0 0 1 .4.999v3.199h-.9v-2.899c0-.2-.1-.4-.2-.6-.2-.2-.401-.2-.601-.2-.3 0-.6.1-.8.4a1.69 1.69 0 0 0-.3 1v2.399h-.901v-.1zm8.305-5.698h.9v1.3h.901v.8h-.901v3.599h-.9v-3.599h-.701v-.8h.701v-1.3zm6.403 2.9h2.702c-.3-.6-.7-.9-1.301-.9s-1.1.3-1.401.9zm3.702.7h-3.802c.1.5.301.8.601.999a1.69 1.69 0 0 0 1 .3c.501 0 1.001-.2 1.301-.7l.7.5c-.5.7-1.2 1-2.101 1-.7 0-1.2-.2-1.601-.7a2.41 2.41 0 0 1-.7-1.699c0-.6.2-1.2.7-1.599.401-.5 1.001-.7 1.601-.7s1.201.2 1.601.7c.5.5.7 1.1.7 1.799v.1zm5.103-2.3v.9c.201-.4.401-.6.601-.8s.5-.2.8-.2c.1 0 .2 0 .4.1l-.3.9c-.2 0-.3-.1-.4-.1-.3 0-.6.1-.8.3s-.301.5-.301.8v2.399h-.9v-4.398h.9v.1zm5.704 4.398v-4.398h.9v.7l.701-.7c.2-.1.5-.2.7-.2.4 0 .7.1 1.001.4a1.28 1.28 0 0 1 .4.999v3.199h-.901v-2.899c0-.2-.1-.4-.2-.6-.2-.2-.4-.2-.6-.2-.3 0-.601.1-.801.4a1.69 1.69 0 0 0-.3 1v2.399h-.9v-.1z"/><use xlink:href="#B"/><path d="M706.22 36.015h.9v1.3h.901v.8h-.901v3.599h-.9v-3.599h-.801v-.8h.801v-1.3zm5.703 1.299h.9v4.398h-.9v-4.398zm-.3-1.499c0-.2.1-.4.2-.5s.3-.2.5-.2.4.1.5.2.2.3.2.5-.1.4-.2.5-.3.2-.5.2-.4-.1-.5-.2-.2-.3-.2-.5zm9.205 3.699a1.28 1.28 0 0 0-.4-1c-.301-.3-.601-.4-1.001-.4s-.8.1-1.001.4a1.28 1.28 0 0 0-.4 1 1.28 1.28 0 0 0 .4 1c.301.3.601.4 1.001.4s.7-.1 1.001-.4a1.28 1.28 0 0 0 .4-1zm-3.802 0c0-.6.2-1.1.7-1.599s1.001-.7 1.601-.7 1.201.2 1.701.7.7 1 .7 1.599-.2 1.2-.7 1.599c-.5.5-1.001.7-1.601.7-.7 0-1.201-.2-1.701-.7s-.7-1-.7-1.599zm8.604 2.199v-4.398h.901v.7l.7-.7c.201-.1.501-.2.701-.2.4 0 .7.1 1 .4s.401.6.401.999v3.199h-.901v-2.899c0-.2-.1-.4-.2-.6-.2-.2-.4-.2-.6-.2-.301 0-.601.1-.801.4a1.69 1.69 0 0 0-.3 1v2.399h-.901v-.1z"/><use xlink:href="#B" x="36.821"/><path d="M742.84 34.715h.901v6.997h-.901v-6.997z"/></g><path d="M638.681 16.823c1.701-.2 3.602-.6 5.703-1.499l2.802 5.498-6.204 3.099c-1.1-2.599-1.801-4.998-2.301-7.197v.1zm-3.902 10.296c-1.501-3.399-2.101-6.997-1.701-10.796 1.201.3 2.601.5 4.102.5h.701c.4 2.199 1.2 4.698 2.401 7.497l-5.503 2.799zm-4.202 2.099c-1.701-3.798-2.102-8.097-1.001-12.395.2-.6.4-1.1.6-1.699.501.3 1.301.6 2.202.9-.301 3.199-.1 7.197 1.801 11.395l-3.502 1.799h-.1zm3.502-20.292c-.601 1.499-1.201 3.299-1.601 5.498 0 .3-.1.6-.1.9-.801-.3-1.501-.6-2.002-.8.901-2.099 2.102-3.898 3.703-5.498v-.1zm4.102-3.199c-.6 1.999-1.201 5.498-.4 10.296-1.801.1-3.402-.2-4.703-.5 0-.3.1-.6.1-1 .5-2.999 1.601-5.498 2.301-6.997.801-.7 1.701-1.299 2.602-1.799h.1zm1-.5s.101 0 .101-.1l4.702 9.496c-2.001.8-3.802 1.3-5.503 1.399-.9-5.398 0-9.196.6-10.796h.1zm2.302-1c1.601 1.1 4.702 3.299 7.504 6.297-1.701 1.699-3.502 3.099-4.202 3.598l-4.703-9.396c.5-.2.9-.4 1.401-.6v.1zm4.302-.9c1.401.2 3.202.7 5.103 1.599.5.2 1.001.5 1.401.7-.5 1.499-1.501 2.999-2.702 4.298-2.501-2.799-5.403-4.898-7.104-5.998a19.14 19.14 0 0 1 3.302-.6zm6.704.6c0 .3 0 .7-.1 1-.4-.3-.901-.5-1.301-.7-.8-.4-1.601-.7-2.401-.9 1.301.1 2.601.3 3.802.6zm-7.104 26.989c-1.801-2.199-3.202-4.598-4.002-6.197l6.203-3.199.901 1.699.4-1-.6-1.1 1.3-.6.401-1.099-2.002.999-2.801-5.598c.7-.5 2.601-1.899 4.402-3.698.901 1 1.701 2.099 2.502 3.299l.4-.9c-.7-1-1.501-1.999-2.301-2.899 1.2-1.399 2.301-2.899 2.901-4.498.801.5 1.601 1.1 2.302 1.799.2-.2.5-.3.7-.4-.9-.9-1.801-1.599-2.802-2.199.101-.4.101-.8.101-1.2 3.902 1.2 7.304 3.798 9.705 7.197h2.101c-3.602-5.998-10.206-9.796-17.41-9.796-3.001 0-5.803.6-8.304 1.799-7.104 3.199-12.107 10.296-12.107 18.492 0 6.797 3.402 13.095 9.005 16.793a21.24 21.24 0 0 0 6.103 2.799c1.701.5 3.502.7 5.203.7.501 0 1.001 0 1.501-.1l-.1-1.699a15.71 15.71 0 0 1-6.103-.6c-5.403-1.4-9.506-5.098-11.807-9.696l3.502-1.799c.1.1.1.2.2.4 2.201 4.498 5.803 8.097 10.506 10.396l.3-.7c-2.701-1.299-4.903-2.999-6.804-4.998-1.2-1.399-2.201-2.799-3.001-4.298-.201-.4-.401-.7-.501-1.1l5.503-2.799c.701 1.499 2.102 3.898 4.303 6.497l.2.2c0-.2.1-.5.2-.7l.1-.1-.3-.1z" fill="#359740"/><path d="M657.192 16.124l-3.302 9.396h6.403l-3.001-9.396h-.1zm5.303 16.093l-1.501-4.498h-8.005l-1.601 4.498h-3.302l8.705-21.691h.801l8.104 21.691h-3.201zm19.211-20.593l-1.001 2.499c-.9-.7-2.401-1-4.402-1-1.901 0-3.402.8-4.503 2.399s-1.701 3.699-1.701 6.297c0 2.399.6 4.398 1.701 5.897 1.201 1.499 2.702 2.299 4.503 2.299 2.001 0 3.502-.7 4.602-2.099l1.601 2.199c-1.701 1.699-3.902 2.499-6.504 2.499-2.801 0-5.002-1-6.603-2.999s-2.402-4.698-2.402-7.997c0-3.199.901-5.798 2.602-7.997 1.701-2.099 3.902-3.199 6.604-3.199 2.301 0 4.102.4 5.503 1.199zm7.204 1.799v7.897l2.001.1c3.602 0 5.403-1.399 5.403-4.298 0-2.599-1.901-3.898-5.803-3.898-.401 0-.901 0-1.601.1v.1zm0 10.496v8.197h-2.902V10.724l4.002-.1c6.204 0 9.306 2.099 9.306 6.197 0 4.798-2.702 7.197-8.205 7.197-.3 0-1.101 0-2.201-.1z" fill="#000"/><path d="M705.719 13.423v6.997c.701.1 1.401.1 2.001.1 1.801 0 3.002-.3 3.803-.8.8-.6 1.2-1.599 1.2-2.999 0-1.199-.4-2.099-1.3-2.599s-2.202-.8-4.103-.8c-.3 0-.9 0-1.701.1h.1zm8.805 18.792l-5.703-9.196c-.7 0-1.701 0-3.102-.1v9.296h-2.901V10.824l2.301-.1 3.102-.1c5.103 0 7.704 1.999 7.704 6.097 0 1.299-.4 2.599-1.201 3.599a5.14 5.14 0 0 1-2.901 1.999l6.203 9.796h-3.302l-.2.1zm13.908-7.696c-.9-.2-1.501-.3-1.801-.3-1.401 0-2.501.4-3.402 1.099s-1.301 1.599-1.301 2.599c0 1.599 1.001 2.399 2.902 2.399 1.401 0 2.602-.7 3.702-1.999v-3.798h-.1zm.3 5.898c-1.1 1.399-2.801 2.099-5.103 2.099-1.2 0-2.301-.4-3.201-1.299s-1.401-1.999-1.401-3.299c0-1.599.7-2.899 2.101-3.998s3.202-1.599 5.303-1.599c.6 0 1.201.1 2.001.4 0-2.499-1.101-3.798-3.402-3.798-1.701 0-3.102.5-4.002 1.399l-1.201-2.299c.5-.4 1.301-.8 2.201-1.099s1.801-.5 2.702-.5c2.301 0 3.902.5 4.903 1.499s1.501 2.699 1.501 4.898v5.598c0 1.399.4 2.299 1.2 2.699v1.399c-1.1 0-2.001-.2-2.501-.5-.6-.3-1.001-.9-1.201-1.599h.1zm9.706-19.691a1.66 1.66 0 0 1 1.201.5c.3.3.5.7.5 1.2s-.2.9-.5 1.2a1.66 1.66 0 0 1-1.201.5 1.66 1.66 0 0 1-1.201-.5c-.3-.3-.5-.7-.5-1.2s.2-.9.5-1.2a1.66 1.66 0 0 1 1.201-.5zm-1.501 21.591V19.023h-2.101v-2.299h4.903v15.594h-2.802zm7.404-4.5V10.225h2.802v17.193c0 .8.2 1.499.7 1.999s1.101.7 1.901.7v2.499c-3.602 0-5.403-1.599-5.403-4.698v-.1z" fill="#359740"/><path d="M539.062 32.435c0-.832-.651-1.663-1.487-1.663-.651 0-1.116.185-1.395.647-.093.185-.279.37-.372.554l-1.302 1.478-.465.462c-.279.277-.465.462-.744.647-.093.092-.093.185-.279.185-.186.185-.279.277-.558.37l-1.023.832c-.186.092-.372.277-.558.37-1.023.739-2.138 1.294-3.347 1.848-.744.37-1.581.647-2.325.924l-2.976.832c-3.812.739-7.16.832-10.972.092-.744-.092-1.395-.277-2.046-.462s-1.302-.37-1.953-.647c-.651-.185-1.209-.462-1.766-.739s-1.209-.554-1.674-.832l-1.581-.924a18.15 18.15 0 0 1-2.139-1.571c-.372-.277-1.674-1.479-1.953-1.848-.65-.832-1.394-1.571-1.952-2.495-.279-.554-.651-1.016-.93-1.571a17 17 0 0 1-1.488-4.805c-.186-.924-.186-1.848-.186-2.772 0-.462.093-.739.093-1.201 0-.185.093-.37.093-.555s.093-.37.093-.554c.465-2.587 1.581-4.897 3.162-7.023.186-.277.372-.462.558-.739l.557-.647.651-.647c.465-.462.93-.924 1.488-1.386.651-.554 1.302-1.016 2.046-1.479l1.395-.832 1.023-.554c.279-.185.558-.277.837-.37.278-.185.557-.277.929-.37 1.581-.739 4.278-1.294 6.045-1.571 3.161-.462 6.416-.37 9.484.277 1.302.277 2.511.647 3.72 1.016.651.185 1.395.554 2.046.832l.93.462c1.115.554 2.231 1.201 3.161 1.941l.837.647c.93.739 1.86 1.663 2.697 2.587.279.37.558.832.837 1.016l.465.462c1.487.832 3.068-.832 2.138-2.31-.186-.185-.279-.462-.465-.647-.465-.554-1.673-1.941-2.138-2.403l-.279-.277c-.465-.462-1.023-.832-1.581-1.294-.651-.554-1.302-.924-2.046-1.386-1.209-.832-2.418-1.386-3.719-1.941-1.674-.739-3.441-1.201-5.208-1.663S518.977 0 517.303 0h-2.046c-.372 0-1.023.092-1.395.092-.278 0-.65.092-.929.092-1.116.092-3.348.554-4.278.832-1.674.462-2.232.647-3.719 1.294-.279.092-.465.185-.744.277-2.139 1.016-3.069 1.479-5.115 2.957l-1.116.924c-.278.185-.557.462-.836.739l-.744.739-.93 1.016-.93 1.109c-.279.37-.558.739-.837 1.201-.186.185-.279.37-.372.647-1.116 1.663-1.953 3.789-2.418 5.637-.186.832-.372 1.756-.372 2.587-.186 1.756-.093 2.865.186 4.713a14.89 14.89 0 0 0 1.116 3.973c.372.924.837 1.848 1.302 2.772.093.185.279.37.372.647.465.832 1.116 1.571 1.674 2.31.186.185.279.37.465.554.372.462 1.116 1.201 1.488 1.571l.558.462 1.673 1.386c.372.277.744.554 1.209.832.744.462 1.488.924 2.232 1.294.558.277 1.116.554 1.767.832 2.231.924 3.626 1.386 6.137 1.941 2.232.462 4.835.647 7.439.554.651 0 1.209-.092 1.86-.185 2.882-.277 6.881-1.294 9.485-2.587.464-.185.929-.462 1.394-.647l1.302-.739c.837-.462 1.581-1.016 2.418-1.663.093-.092.186-.185.279-.185.093-.092.186-.185.279-.185a9.85 9.85 0 0 1 1.116-.924c.372-.277.744-.647 1.023-1.016s.65-.739.929-1.109c.465-.554 1.116-1.201 1.116-1.94l-.279-.37z" fill="#0097a8"/><path d="M514.885 17.65c0 .37 1.488 4.436 1.581 4.898.186.462.279.832.372 1.201l.837 2.403c.186.462.372.739.93.739.837 0 .93-.739 1.209-1.294l.651-1.848c.372-.832.651-1.848 1.023-2.772.093-.185.279-.832.371-.924.093.37 1.395 3.881 1.674 4.528l.651 1.756c.279.554 1.116.554 1.488.277.279-.185.558-1.386.744-1.756l2.046-6.006c.186-.554.372-.924.372-1.386 0-.739-1.302-1.201-1.767-.37-.186.277-1.209 3.696-1.488 4.435l-.558 1.571v.092l-.093.092-.279-.924c-.093-.277-.186-.647-.372-.924-.279-.555-.465-1.201-.651-1.756l-.651-1.756c-.186-.647-.372-1.294-1.116-1.294s-.929.647-1.115 1.294l-1.302 3.604c0 .092-.558 1.663-.651 1.756l-.279-.832-.279-.924c-.186-.739-.465-1.571-.744-2.218 0-.092-.093-.277-.093-.462l-.279-.924c-.186-.555-.279-1.294-1.116-1.294-.558 0-1.023.37-1.023.924l-.093.092zm54.585.276v7.67c0 1.294 1.115 1.386 1.58.924.558-.462.279-1.94.279-2.772v-2.125c.093.092 1.209 2.587 1.302 2.772l.651 1.386c.279.554.372.924 1.023 1.016.744 0 .93-.832 1.395-1.663l.279-.739.651-1.386c.093-.277.465-1.109.651-1.294l.093-.092v4.066c0 1.386 1.952 1.386 1.952-.092v-7.762c0-1.201-1.116-1.386-1.766-.739l-.279.555-2.139 4.435c-.093.277-.744 1.479-.744 1.663-.093-.092-.93-1.848-1.116-2.218l-1.86-3.881c-.279-.555-.651-1.201-1.394-.924-.372.092-.651.462-.651 1.016l.093.185zm-9.95 3.975c0-.554.093-.924.279-1.386a3.27 3.27 0 0 1 1.395-1.571c.65-.277.929-.277 1.58-.277 1.581 0 2.79 1.479 2.79 2.957 0 1.109-.186 1.941-.837 2.587-.372.37-.93.647-1.488.832-.837.185-1.674 0-2.417-.462l-.186-.185c-.558-.462-1.023-1.479-1.023-2.403l-.093-.092zm-2.046-.37c0 1.016.093 1.571.465 2.495.558 1.109 1.395 1.941 2.511 2.403 1.673.647 3.44.554 4.928-.462.372-.185.465-.37.744-.647.837-.832 1.395-2.125 1.395-3.327 0-.647 0-.924-.186-1.663l-.279-.924c-1.581-3.327-5.858-3.696-8.09-1.386a4.11 4.11 0 0 0-.744 1.016c-.093.185-.093.277-.186.37-.186.462-.465 1.294-.465 1.941l-.093.185zm-9.857-.092c0 1.017 0 1.663.465 2.587.558 1.109 1.209 1.848 2.418 2.403 1.302.555 3.44.555 4.742-.37l.372-.277c1.116-.924.372-1.848-.372-1.848-.465 0-.744.277-1.209.554-.837.462-1.952.555-2.882.092s-1.395-1.294-1.581-2.218a3.48 3.48 0 0 1 0-1.386c0-.277.093-.37.186-.554.372-1.201 1.581-1.848 2.883-1.848s1.859.924 2.51.924c1.116 0 1.302-1.109.558-1.756-.372-.277-.372-.37-.837-.554-2.417-1.201-5.579-.37-6.788 2.033 0 .092-.093.185-.093.185-.186.462-.465 1.294-.465 1.941l.093.092zm-45.471.184c0 .739.372 1.016 1.023 1.571l3.161 3.142c.465.462.465.462 1.116.462.465 0 1.116-.647.93-1.386-.093-.37-.837-1.017-1.116-1.294l-1.952-1.94-.465-.462c.093-.185 1.023-1.016 1.209-1.201l1.859-1.756c.465-.462.837-1.016.279-1.663-.465-.554-1.209-.462-1.674 0l-4.091 4.158c-.093.092-.186.37-.186.462l-.093-.092zm28.826-3.973v8.409c0 1.017 2.139 1.479 2.139-.37v-7.67c0-1.848-2.139-1.386-2.139-.37zm-31.523 0v8.224c0 .277.186.554.279.647.651.554 1.86.277 1.86-.832v-7.855c0-.277-.186-.647-.279-.739-.651-.647-1.86-.185-1.86.647v-.092zm11.252 0v8.224c0 1.386 2.139 1.294 2.139 0v-8.132c0-.832-1.023-1.386-1.767-.739-.093.092-.279.462-.279.647h-.093z" fill="#221e1f"/><path d="M539.155 22.178c0 .462 0 .554.186 1.016.837 1.571 3.348 1.016 3.348-.832 0-1.479-1.767-2.31-2.976-1.294-.279.277-.558.739-.558 1.109z" fill="#0097a8"/></g><defs ><path id="B" d="M700.616 39.514a1.28 1.28 0 0 0-.4-1c-.3-.3-.6-.4-1.001-.4s-.7.1-1 .4a1.28 1.28 0 0 0-.4 1c0 .4.1.8.4 1.1s.6.4 1 .4.801-.1 1.001-.4a1.28 1.28 0 0 0 .4-1v-.1zm-.1-2.199h.901v4.398h-.901v-.9c-.5.7-1 1-1.701 1a1.8 1.8 0 0 1-1.501-.7 2.52 2.52 0 0 1-.6-1.699c0-.6.2-1.2.6-1.599a1.8 1.8 0 0 1 1.501-.7c.3 0 .701.1 1.001.3s.6.4.7.7v-.9.1z"/></defs></svg>