<svg xmlns="http://www.w3.org/2000/svg" width="131" height="23" fill="#00a88f" fill-rule="evenodd" xmlns:v="https://vecta.io/nano"><path d="M9.972 8.356c-.76-.541-1.521-1.948-2.607-1.948-.76 0-1.412.649-1.412 1.407 0 .866 1.304 1.84 1.847 2.381s1.629 1.84 2.173 2.164c.978-.649 3.694-3.68 4.78-4.762 1.304-1.299 3.259-3.896 5.54-3.896 2.39 0 4.128 1.732 4.128 4.221 0 1.948-1.521 3.139-2.499 4.113l-6.627 6.71c-.76.758-2.933 2.597-3.368 3.355.434.758 1.412.758 2.173.758 1.412 0 3.15-2.165 4.019-3.03l3.585-3.463c2.173-2.165 5.649-4.654 5.649-8.55 0-4.329-4.128-7.9-8.691-6.71-3.585.866-6.409 5.628-8.691 7.251zM123.71 9.764h.218c1.629 0 2.824.974 2.824 2.597h-5.866c.326-1.407 1.086-2.597 2.824-2.597zm-6.518 3.68v.866c0 5.736 6.736 8.55 10.864 5.52.76-.541 2.172-1.948 2.172-3.139l-3.041-.866c-.652 1.191-1.195 2.056-3.042 2.056-1.738 0-3.259-1.19-3.259-2.922h9.234c.869 0 .869-8.225-6.192-8.225-3.694 0-6.736 3.139-6.736 6.71zm-58.553 4.761c-1.521 0-1.847-.649-1.847-1.732 0-.866.978-1.299 1.738-1.407.869-.108 2.064-.433 2.825-.433 0 1.84-.217 3.571-2.716 3.571zm-5.214-6.926l3.259.649c.326-.649 0-.866.652-1.515 1.195-1.19 4.019-.758 4.019.758v.541c0 .758-3.368.974-4.237 1.19-6.192.974-4.454 8.117.109 8.117 1.086 0 2.064 0 3.042-.541.761-.433.978-.974 1.412-1.299l.109 1.515h3.476l-.217-4.762v-4.978c-1.086-6.385-11.624-4.87-11.624.325zM9.972 20.153c.435-.325 7.93-7.901 9.016-8.983 1.195-1.191 2.825-2.273 2.825-3.571 0-.541-.761-1.19-1.412-1.19-.978 0-2.173 1.515-2.824 2.165-.869.866-1.629 1.732-2.499 2.597-.76.649-4.671 4.762-5.106 4.978-.543-.758-2.933-2.922-3.802-3.68-1.086-1.19-2.933-2.489-2.933-4.654a4.12 4.12 0 0 1 4.128-4.113c1.086 0 1.847.433 2.607.866l1.955-1.948c-.543-.758-2.499-1.515-3.585-1.623-1.738-.216-3.15.108-4.345.758C1.934 2.837.195 5.326.413 8.465c.326 3.03 2.499 4.762 4.237 6.385.869.974 1.738 1.732 2.607 2.706.652.541 2.064 2.165 2.716 2.597zM77.759 8.682V7.167h-3.585v13.528h3.476c.434 0 .217-2.381.217-2.922 0-1.19-.109-5.303.217-6.169.652-1.407 1.629-1.407 2.716-1.407.869 0 1.521.649 1.738 1.299.543 1.407-.217 9.199.434 9.199h3.476v-8.658c0-2.814-1.63-5.195-4.562-5.195-3.042 0-3.15 1.19-4.128 1.84zm28.896 0V7.167h-3.585v13.528h3.694v-7.143c0-1.623.543-3.355 2.172-3.355 1.087 0 1.956 0 2.608 1.299.543 1.407-.326 9.199.434 9.199h3.476v-8.658c0-2.814-1.738-5.195-4.562-5.195-3.042 0-3.259 1.19-4.237 1.84zM33.002 7.491v2.706c0 .216 0 .325.217.325H35.5v6.602c0 1.948 1.847 3.68 3.802 3.68 2.173 0 1.63-.108 2.499-.216v-3.139c-.978.216-2.607.325-2.607-1.19v-5.736h2.607V7.166h-2.607V3.162c-4.128 0-3.476-.325-3.476 1.515 0 .866.109 1.082-.217 1.623-.652 1.299-2.499.541-2.499 1.19zm55.946-6.387v15.043c0 2.706 1.304 4.654 3.911 4.654 2.498 0 1.955.433 1.955-3.247-.978 0-2.173.108-2.173-1.515V.78h-3.476c-.217 0-.217.108-.217.325zM47.559 9.006v-1.84h-3.585v13.528h3.694v-6.061c0-3.463 1.955-4.113 4.563-3.788V8.897c0-1.948.326-1.84-1.195-1.84-1.847 0-2.607.974-3.476 1.948zm49.102-1.515V20.37c0 .216 0 .325.217.325h3.477V7.167h-3.477c-.217 0-.217.108-.217.325zM67.765 20.695h3.694V7.167h-3.693v13.528zM96.226 2.621c0 3.355 4.563 3.03 4.563.216 0-1.082-.869-2.273-1.955-2.273h-.543c-1.086 0-2.064 1.082-2.064 2.056zm-28.896 0v.433c0 .974 1.086 1.948 1.955 1.948h.543c1.086 0 2.064-1.082 2.064-2.165S70.915.565 69.829.565h-.543c-.978 0-1.955 1.082-1.955 2.056z"/></svg>