<svg xmlns="http://www.w3.org/2000/svg" xmlns:xlink="http://www.w3.org/1999/xlink" width="296" height="296" fill="none" xmlns:v="https://vecta.io/nano"><style><![CDATA[.B{fill-rule:evenodd}.C{opacity:.2}.D{fill:#fff}.E{fill:#200431}.F{opacity:.6}.G{fill:#012306}.H{fill:#96bf02}.I{fill:#ffb810}.J{fill:#ec7834}.K{fill:#fbe569}]]></style><mask id="A" maskUnits="userSpaceOnUse" x="0" y="0" width="296" height="296" mask-type="alpha"><path fill="#d9d9d9" d="M0 0h296v296H0z"/></mask><g mask="url(#A)"><path d="M259.351 77.854c-4.483 8.949-38.64-4.459-47.155-10.846-10.386-7.779-20.416-18.53-15.933-27.447 4.483-8.949 28.641-7.905 41.252-2.846s26.319 32.222 21.836 41.139zM1.046 95.172c11.663-46.628 122.37-45.929 172.485-35.074s81.268 57.451 69.605 104.078-64.397 129.028-114.543 118.172C78.479 271.494-10.648 141.8 1.046 95.172z" class="B D"/><use xlink:href="#a" fill="#35223b" class="B"/><g style="mix-blend-mode:soft-light" opacity=".5" class="B D"><path d="M105.818 58.188l3.897-5.123 17.487-3.539-9.565 8.84-11.819-.178z"/></g><path d="M90.779 76.32l-3.848 3.83.29 6.448 3.382-3.41.177-6.868z" class="B E"/><use xlink:href="#b" fill="url(#B)" class="B"/><path d="M192.818 209.55L102.34 95.68c-4.09-5.155-4.316-11.991-.516-15.725l44.362-43.505c4.348-4.267 12.109-2.764 16.666 3.216l91.912 120.705c4.154 5.462 4.025 12.573-.306 16.032l-45.811 36.669c-4.396 3.523-11.497 1.939-15.845-3.523h.016z" fill="#200c5e" class="B"/><path d="M128.024 67.544s20.514-20.977 32.349-30.447c0 0-5.539-5.188-12.415-2.133 0 0-23.59 10.763-80.962 72.837 0 0 47.663-49.242 61.028-40.273v.016z" fill="#393695" class="B"/><use xlink:href="#c" class="B E"/><path d="M157.99 237.427L67.527 123.558c-4.09-5.156-4.315-11.992-.515-15.725l44.362-43.505c4.347-4.266 12.108-2.764 16.665 3.216l91.912 120.706c4.154 5.462 4.026 12.573-.306 16.031l-45.811 36.669c-4.396 3.523-11.497 1.939-15.844-3.523z" fill="url(#C)" class="B"/><path d="M67.624 128.325s-6.827-11.458-1.739-19.118l46.101-45.412s-2.254 4.606-1.127 12.977l-43.234 51.569v-.016z" fill="#679cff" class="B"/><use xlink:href="#d" fill="#271966" class="B"/><use xlink:href="#e" fill="url(#D)" class="B"/><g style="mix-blend-mode:soft-light" opacity=".8" class="B"><path d="M176.829 131.638l3.43 4.509-6.409 8.194-25.441-33.405 4.895-10.197 23.525 30.899z" fill="#bfccbb"/></g><g style="mix-blend-mode:soft-light" opacity=".8" class="B"><path d="M177.682 149.351l7.423-6.836 2.367 3.103-6.795 7.514-2.995-3.781z" fill="#bfccbb"/></g><use xlink:href="#f" fill="url(#E)"/><use xlink:href="#g" fill="url(#F)"/><use xlink:href="#h" fill="url(#G)"/><use xlink:href="#i" fill="url(#H)"/><use xlink:href="#j" fill="url(#I)"/><use xlink:href="#k" class="B E"/><g style="mix-blend-mode:soft-light" class="C B D"><use xlink:href="#l"/></g><g style="mix-blend-mode:soft-light" class="C B D"><use xlink:href="#m"/></g><use xlink:href="#n" class="B E"/><use xlink:href="#o" class="B E"/><use xlink:href="#p" class="B E"/><g style="mix-blend-mode:color" class="B H"><path d="M129.923 47.343l.053-.028c5.943-4.796 11.452-8.763 16.059-11.319 1.297-.747 1.923-1.033 1.923-1.033 6.127-2.721 11.192 1.1 12.223 1.966.966.769 1.868 1.683 2.671 2.737l91.912 120.705c4.151 5.458 4.026 12.562-.296 16.024l.006.007-17.696 14.167c-.116.102-.235.202-.355.298l-1.497 1.196c.103-.083.204-.168.304-.255l-18.242 14.605-.005-.003-38.794 31.052.025.093-.157.013-4.223 3.381c-.129.103-.261.202-.394.296l-.459.368s-2.354 2.016-7.046 1.535c-2.714.25-8.087-.269-13.195-6.708v.001l-75.197-94.654h0l-.049-.062-7.808-9.829a14.31 14.31 0 0 1-.734-1.009l-.86-1.091s-.958-1.57-1.649-3.806c-1.646-3.641-4.084-10.826-.86-16.302.093-.162.191-.321.294-.478l-.008-.005.041-.045c.319-.475.686-.92 1.102-1.328l1.628-1.597 1.558-1.654-3.201 3.219 4.959-5.328v-.054l.079-.03 11.833-12.393 1.324-10.283 24.524-26.649h0l17.487-3.539-.06.056-.156.143 2.363-1.904.574-.477zm22.817 189.083l.008.009-.008.005v-.014zM90.603 83.159l.176-6.84 16.15-16.015 7.927-.203c-6.898 6.154-14.957 13.738-24.253 23.059z"/></g><use xlink:href="#a" fill="#171e2c" class="B"/><g style="mix-blend-mode:soft-light" opacity=".5" class="B D"><path d="M105.818 58.188l3.897-5.123 17.487-3.539-9.565 8.84-11.819-.178z"/></g><path d="M90.779 76.32l-3.848 3.83.29 6.448 3.382-3.41.177-6.868z" fill="#101828" class="B"/><use xlink:href="#b" fill="url(#B)" class="B"/><path d="M160.181 36.93c-1.031-.865-6.096-4.687-12.223-1.966 0 0-23.59 10.763-80.962 72.837 0 0 24.911-25.737 43.765-36.608l-8.936 8.763c-3.8 3.733-3.575 10.569.515 15.725l90.479 113.87h-.016c4.347 5.462 11.448 7.046 15.844 3.523l45.811-36.669c4.332-3.459 4.46-10.57.306-16.032L162.852 39.667c-.803-1.054-1.705-1.968-2.671-2.737z" class="B G"/><path d="M147.958 34.964c6.127-2.722 11.192 1.101 12.223 1.966.966.769 1.868 1.683 2.671 2.737l91.912 120.705c4.154 5.462 4.026 12.573-.306 16.032l-34.517 27.629a10.21 10.21 0 0 1-.296.248l-45.811 36.669c-4.396 3.523-11.497 1.939-15.845-3.523l-90.462-113.87c-4.09-5.155-4.315-11.991-.515-15.724l10.425-10.224c-6.247 5.86-10.44 10.192-10.44 10.192 57.372-62.074 80.962-72.837 80.962-72.837z" fill="#013024" class="B"/><path d="M77.437 97.609l33.937-33.281c4.346-4.264 12.102-2.765 16.659 3.208.484-.494 20.648-21.082 32.341-30.438 0 0-5.539-5.188-12.415-2.133 0 0-23.59 10.763-80.962 72.837 0 0 4.193-4.332 10.44-10.192z" class="B C H"/><use xlink:href="#c" fill="#000" class="B"/><path opacity=".8" d="M158.2 240.579c-2.004-.809-3.919-2.214-5.46-4.153v.016L69.685 131.897c-.913-1.147-1.616-2.385-2.108-3.652-.576-1.001-6.276-11.285-1.996-18.555.388-.678.864-1.302 1.43-1.857l44.362-43.505c4.348-4.266 12.109-2.763 16.666 3.216l91.912 120.705c4.154 5.462 4.025 12.573-.306 16.032l-45.811 36.669c-.129.103-.261.202-.394.296l-.459.368s-4.943 4.234-14.782-1.035h.001z" fill="url(#J)" class="B"/><use xlink:href="#d" fill="#042f0a" class="B"/><use xlink:href="#e" opacity=".8" fill="url(#K)" class="B"/><g style="mix-blend-mode:screen" opacity=".5" class="B"><path d="M67.578 128.245c-1.537-3.961-1.007-8.2 1.641-10.796l40.723-39.933a7.65 7.65 0 0 1 .914-.767c-1.12-8.357 1.13-12.955 1.13-12.955l-46.1 45.412c-4.841 7.288 1.105 18.015 1.693 19.039z" fill="#8db502"/></g><g style="mix-blend-mode:soft-light" class="F B H"><path d="M176.829 131.638l3.43 4.509-6.409 8.194-25.441-33.405 4.895-10.197 23.525 30.899z"/></g><g style="mix-blend-mode:soft-light" class="F B H"><path d="M177.682 149.351l7.423-6.836 2.367 3.103-6.795 7.514-2.995-3.781z"/></g><g style="mix-blend-mode:multiply" class="C G"><use xlink:href="#f"/></g><g style="mix-blend-mode:multiply" class="C G"><use xlink:href="#g"/></g><g style="mix-blend-mode:multiply" class="C G"><use xlink:href="#h"/></g><g style="mix-blend-mode:multiply" class="C G"><use xlink:href="#i"/></g><g style="mix-blend-mode:multiply" class="C G"><use xlink:href="#j"/></g><use xlink:href="#k" fill="#000" class="B"/><g style="mix-blend-mode:screen" opacity=".08" class="B D"><use xlink:href="#l"/></g><g style="mix-blend-mode:screen" opacity=".08" class="B D"><use xlink:href="#m"/></g><use xlink:href="#n" fill="#000" class="B"/><use xlink:href="#o" class="B E"/><use xlink:href="#p" fill="#000" class="B"/><path d="M101.888 142.961c1.638-.433 3.239-.623 4.784-.55 10.268-.008 20.409 6.286 20.409 6.286s4.313 5.241 5.974 16.791l.004.002s2.051 9.837-.235 21.321l-.01-.003c-1.044 7.376-3.111 15.91-6.685 25.677-8.34 22.776-18.132 35.13-25.762 41.776-3.086 2.89-7.218 5.174-7.218 5.174l-.004-.001c-3.44 1.933-5.578 2.355-5.578 2.355-11.413-1.75-18.065-6.661-18.065-6.661h.015l.004-.013c-3.081-1.136-5.587-3.444-7.501-6.683l-.005.005c-1.7-2.016-2.772-5.796-3.442-9.453-2.605-12.506-.678-30.529 6.142-49.163 6.466-17.665 15.93-32.055 25.46-40.184 4.366-4.335 9.281-6.052 11.712-6.676z" class="B I"/><path d="M69.502 255.128s6.652 4.911 18.065 6.661c0 0 22.108-4.367 38.562-49.304 16.453-44.952.952-63.788.952-63.788s-10.827-6.72-21.435-6.264L69.517 255.128h-.015z" fill="url(#L)" class="B F"/><path d="M115.298 208.47c11.313-30.911 9.162-60.144-4.806-65.294s-34.463 15.735-45.776 46.646-9.162 60.145 4.806 65.294 34.462-15.734 45.776-46.646z" fill="url(#M)"/><g style="mix-blend-mode:soft-light" class="B"><path d="M121.792 161.343l-64.29 68.155s.557 14.249 4.513 18.94l59.733-65.7s2.241-13.204.044-21.395z" fill="#fbf9fa"/></g><path d="M111.741 206.986c-9.787 26.762-27.149 45.26-39.748 42.907-.615-.103-1.26-.279-1.846-.5-12.688-4.676-14.651-31.276-4.366-59.362 10.285-28.1 28.921-47.069 41.61-42.393.6.221 1.186.515 1.728.824 11.135 6.396 12.425 31.762 2.623 58.509v.015z" fill="url(#N)" class="B F"/><path d="M111.741 206.986c-9.787 26.762-27.148 45.26-39.748 42.907-11.135-6.396-12.41-31.776-2.623-58.538s27.134-45.246 39.748-42.893c11.135 6.396 12.425 31.761 2.623 58.509v.015z" class="B I"/><path opacity=".4" d="M81.912 219.528c-.821-.397-.528-.177-1.392-.941s-2.212-11.264-3.106-12.278l4.014 1.455c.308.75.674 1.397 1.114 1.941a9.64 9.64 0 0 0 1.304 1.353c.483.412.967.765 1.451 1.074.776.191 1.597 0 2.447-.618s1.495-1.529 1.949-2.75c.425-1.132.601-2.191.528-3.176s-.249-1.956-.542-2.911-.645-1.927-1.055-2.941a18.42 18.42 0 0 1-.967-3.265c-.234-1.176-.337-2.441-.278-3.838.044-1.382.366-2.941.952-4.676.615-1.647 1.333-3.014 2.154-4.117s1.685-1.97 2.608-2.617c.908-.633 1.846-1.088 2.813-1.338s-2.154-1.78-1.304-1.706l5.333-15.175 7.179 2.691-5.758 14.557c.117.044.366.162.732.353.381.177.791.456 1.246.794.468.353.923.794 1.362 1.324.454.529.821 1.161 1.084 1.896l-3.326 8.029c-.424-.985-.937-1.809-1.509-2.485-.586-.676-1.113-1.22-1.626-1.632-.586-.485-1.201-.882-1.831-1.177-1.436.398-2.476 1.442-3.091 3.118-.308.838-.41 1.72-.308 2.647a18.25 18.25 0 0 0 .601 2.955l1.011 3.338a24.57 24.57 0 0 1 .835 3.809c.191 1.352.22 2.779.117 4.293s-.483 3.132-1.143 4.882c-1.04 2.809-2.432 4.941-4.175 6.411-1.729 1.471-3.546 2.191-5.436 2.177l-5.113 14.586-4.014-1.455 5.113-14.587h.029z" fill="url(#O)"/><path d="M79.01 218.896c-.82-.397-1.656-.986-2.505-1.736-.864-.764-1.729-1.661-2.623-2.676l3.545-8.161c.308.75.674 1.397 1.114 1.941a9.64 9.64 0 0 0 1.304 1.353c.484.412.967.765 1.451 1.073.776.192 1.597 0 2.447-.617s1.494-1.529 1.949-2.75c.425-1.132.601-2.191.527-3.176s-.249-1.956-.542-2.911l-1.055-2.941c-.41-1.015-.733-2.103-.967-3.265-.234-1.176-.337-2.441-.278-3.838.044-1.382.366-2.941.952-4.676.615-1.647 1.333-3.014 2.154-4.117s1.685-1.97 2.608-2.617c.908-.633 1.846-1.088 2.813-1.338s1.875-.339 2.725-.265l5.333-15.175 3.165 1.25-5.758 14.557c.117.044.366.162.733.353.381.177.791.456 1.245.794.469.353.923.794 1.363 1.324.454.529.82 1.161 1.084 1.896l-3.326 8.029c-.425-.985-.938-1.809-1.509-2.485-.586-.662-1.114-1.22-1.626-1.632-.586-.485-1.201-.882-1.831-1.177-1.436.397-2.476 1.441-3.091 3.118-.308.838-.41 1.72-.308 2.647a18.25 18.25 0 0 0 .601 2.955l1.011 3.338a24.57 24.57 0 0 1 .835 3.809c.191 1.352.22 2.779.117 4.293s-.483 3.132-1.143 4.882c-1.04 2.809-2.432 4.941-4.175 6.411-1.729 1.471-3.546 2.191-5.436 2.177l-5.113 14.586-3.165-1.25 5.377-13.983z" fill="#ffcb2b"/><path d="M98.467 191.192l4.029 1.441 3.311-8.014-4.014-1.455-3.326 8.028z" class="J"/><path opacity=".4" d="M85.926 220.984l-4.014-1.456-5.113 14.601 4.029 1.441 5.099-14.586zm15.442-40.732l-4.014-1.455 5.758-14.558 4.014 1.456-5.758 14.557z" class="J"/><g style="mix-blend-mode:soft-light" class="K"><path d="M121.792 161.343l11.266 4.146s2.051 9.838-.234 21.322l-11.076-4.088s2.285-13.131.044-21.395v.015z"/></g><g style="mix-blend-mode:soft-light" class="K"><path d="M80.182 254.658l12.966 4.779s4.176-2.309 7.267-5.22l-10.578-5.588s-5.157 4.896-9.655 6.014v.015z"/></g><path d="M90.145 149.667s10.93-1.176 13.274-7.028c0 0-7.179.955-13.274 7.028z" fill="#fbf9b8" class="B"/><path d="M38.643 144.479c.743.16 1.422.411 2.025.755 4.107 2.089 6.88 6.671 6.88 6.671s.657 2.975-1.032 7.932l.001.001s-1.184 4.352-4.438 8.478l-.003-.003c-1.92 2.737-4.486 5.728-7.905 8.905-7.975 7.409-14.408 10.354-18.813 11.457-1.823.526-3.941.598-3.941.598l-.001-.001c-1.77.072-2.71-.195-2.71-.195-4.207-3.025-5.866-6.344-5.866-6.344l.006.003.004-.005c-1.001-1.082-1.532-2.515-1.637-4.2l-.003.001c-.269-1.153.072-2.883.549-4.481 1.507-5.532 5.949-12.346 12.473-18.408 6.185-5.746 12.901-9.572 18.368-10.881 2.629-.844 4.944-.529 6.044-.283z" class="B I"/><path d="M2.84 182.732s1.659 3.319 5.866 6.344c0 0 9.73 2.758 25.465-11.858 15.738-14.623 13.377-25.313 13.377-25.313s-2.96-4.893-7.295-6.872L2.846 182.735l-.006-.003z" fill="url(#P)" class="B F"/><path d="M30.659 173.406c10.822-10.056 15.918-22.184 11.381-27.089s-16.986-.729-27.808 9.326-15.918 22.183-11.381 27.088 16.986.73 27.808-9.325z" fill="url(#Q)"/><g style="mix-blend-mode:soft-light" class="B"><path d="M42.858 155.884L3.264 170.039s-2.68 5.811-2.054 8.493l37.271-14.102s3.587-4.823 4.377-8.546z" fill="#fbf9fa"/></g><path d="M29.539 172.088c-9.366 8.707-20.077 12.566-24.636 9.058a4.47 4.47 0 0 1-.636-.576c-4.121-4.454.514-15.491 10.349-24.626 9.838-9.141 21.155-12.929 25.276-8.474.195.21.37.447.523.681 3.149 4.827-1.503 15.232-10.872 23.931l-.003.006z" fill="url(#R)" class="B F"/><path d="M29.539 172.088c-9.366 8.707-20.077 12.567-24.636 9.059-3.149-4.826 1.512-15.235 10.878-23.942s20.069-12.564 24.633-9.053c3.149 4.826-1.503 15.232-10.872 23.93l-.003.006z" class="B I"/><path opacity=".4" d="M15.056 171.026c-.247-.326-.175-.178-.365-.66s1.41-4.955 1.26-5.542l1.309 1.4c-.03.362-.015.695.05 1.003a4.3 4.3 0 0 0 .246.806c.11.263.231.503.361.725.272.235.639.325 1.104.252s.909-.307 1.34-.703c.401-.366.687-.754.858-1.163a5.92 5.92 0 0 0 .376-1.274l.177-1.391a8.26 8.26 0 0 1 .278-1.502c.146-.519.363-1.045.671-1.592.299-.544.746-1.101 1.334-1.676.582-.533 1.147-.933 1.7-1.207s1.075-.445 1.576-.515c.492-.068.96-.059 1.397.038s-.499-1.151-.174-.948l5.224-4.982 2.322 2.539-5.268 4.648a3.87 3.87 0 0 1 .221.29c.116.149.223.344.336.572.116.236.207.505.275.806.074.305.091.632.047.98l-2.966 2.533c.031-.481-.006-.915-.097-1.301-.096-.39-.197-.715-.318-.985a3.86 3.86 0 0 0-.493-.843c-.655-.134-1.284.072-1.871.617-.294.272-.515.604-.662.995s-.269.833-.362 1.305l-.276 1.54a11 11 0 0 1-.442 1.693c-.2.58-.478 1.156-.828 1.741s-.831 1.154-1.452 1.719c-.988.912-1.979 1.481-2.976 1.713-.991.236-1.864.154-2.617-.237l-5.017 4.791-1.309-1.4 5.017-4.791.012.006z" fill="url(#S)"/><path d="M14.025 170.182c-.247-.326-.461-.731-.648-1.205-.19-.481-.353-1.016-.503-1.604l3.081-2.541c-.03.363-.015.696.05 1.003s.148.579.246.807c.109.263.231.502.361.724.272.235.639.326 1.104.252s.909-.307 1.339-.702c.401-.367.687-.754.858-1.163s.299-.833.377-1.275l.177-1.391c.043-.489.135-.99.278-1.502a7.19 7.19 0 0 1 .671-1.591c.299-.544.746-1.102 1.334-1.676.582-.533 1.147-.934 1.7-1.208s1.075-.444 1.576-.515c.492-.068.96-.059 1.398.038a3.64 3.64 0 0 1 1.144.449l5.224-4.981 1.011 1.145-5.268 4.648c.038.041.114.139.221.29.116.148.223.343.336.571a3.69 3.69 0 0 1 .275.807 2.69 2.69 0 0 1 .047.979l-2.966 2.533a4.44 4.44 0 0 0-.097-1.301c-.099-.384-.197-.715-.318-.984a3.87 3.87 0 0 0-.493-.844c-.655-.133-1.284.072-1.871.617a2.58 2.58 0 0 0-.662.996 8.2 8.2 0 0 0-.362 1.304l-.276 1.541a11.03 11.03 0 0 1-.442 1.693c-.2.58-.478 1.156-.828 1.741s-.831 1.154-1.452 1.719c-.988.911-1.979 1.48-2.976 1.713-.991.236-1.864.153-2.617-.237l-5.017 4.791-1.011-1.145 4.999-4.496z" fill="#ffcb2b"/><path d="M27.45 163.068l1.317 1.397 2.957-2.53-1.309-1.4-2.966 2.533z" class="J"/><path opacity=".4" d="M16.365 172.425l-1.309-1.4-5.02 4.797 1.318 1.397 5.011-4.794zm14.473-13.141l-1.309-1.4 5.268-4.648 1.309 1.4-5.268 4.648z" class="J"/><g style="mix-blend-mode:soft-light" class="K"><path d="M42.857 155.885l3.66 3.954s-1.184 4.352-4.438 8.478l-3.596-3.891s3.589-4.785 4.377-8.546l-.003.005z"/></g><g style="mix-blend-mode:soft-light" class="K"><path d="M7.207 184.72l4.211 4.553s2.14-.072 3.97-.607l-3.091-4.389s-3.06.907-5.086.437l-.003.006z"/></g><path d="M32.582 144.768s4.61 1.757 6.74-.106c0 0-3.065-1.08-6.74.106z" fill="#fbf9b8" class="B"/><path d="M162.182 79.274l87.396-29.154 23.018 61.563-93.605 23.971-16.809-56.38z" fill="#791743" class="B"/><path d="M272.595 111.682l-.268.825-93.21 23.549-.127-.402 93.605-23.972z" fill="#9a1743" class="B"/><path d="M160.333 73.101l89.02-27.286 23.639 63.483-94.625 24.265-18.034-60.461z" fill="url(#T)" class="B"/><path d="M272.992 109.297l-.278.817-94.221 23.851-.126-.403 94.625-24.265z" fill="#9a1743" class="B"/><path d="M272.183 110.278l-.763.222-92.661 24.365-.265-.9 93.689-23.687z" fill="#b09ac2" class="B"/><path d="M213.154 63.625l.103.368c.149.505.21.535.715.384l6.184-1.864c.505-.151.535-.212.386-.717l-.103-.368.091-.031.775 2.615c.462 1.56-.135 2.875-1.51 3.3-1.367.414-2.587-.362-3.049-1.922l-.265-.899-2.267.683c-.504.151-.533.231-.384.735l.081.266-.091.031-.757-2.551.091-.031zm7.589-.607c-.131.169-.353.303-.592.372l-3.477 1.048.177.577c.392 1.302 1.329 1.791 2.687 1.387s1.88-1.338 1.489-2.64l-.228-.752-.046.015-.01-.008zm-6.241 5.14l.05.174c.081.266.422.327.819.38l7.604.878.242.797-.129.036c-.201.064-.462.183-.574.284l-5.274 4.262c-.431.36-.574.436-.46.812l.02.083-.092.031-.591-1.981.092-.031.242.797c.017-.174.242-.355.407-.481l1.254-1.01-1.23-4.119-1.45-.175c-.096-.007-.181-.005-.254.023-.239.069-.342.311-.265.625l.149.505-.091.031-.56-1.89.091-.031zm3.765 4.897l3.814-3.073a.86.86 0 0 1 .393-.203l-.03-.091s-.206.026-.457.002l-4.9-.578 1.182 3.963-.002-.019zm1.167 2.631l-.419.149c-1.213.433-1.755 1.503-1.47 2.485.28.945 1.013 1.394 2.03 1.081 1.899-.578.873-3.98 3.175-4.686 1.009-.302 1.923.305 2.297 1.542a2.31 2.31 0 0 1-.048 1.521c-.036.09-.164.212-.188.243l.047.07c.07-.047.18-.08.315-.145l.537-.193.033.11-2.416.854-.061-.183.438-.152c.812-.286 1.471-1.028 1.163-2.046-.258-.843-.835-1.188-1.659-.929-1.845.552-.783 4.016-3.224 4.75-1.248.37-2.18-.3-2.606-1.731-.195-.642-.146-1.163.068-1.809.037-.09.182-.3.279-.36l-.032-.025c-.089.05-.298.124-.427.16l-.648.226-.03-.091 2.79-.988.061.183-.005-.037zm1.487 4.961l-.419.149c-1.212.433-1.754 1.503-1.47 2.485.281.945 1.013 1.394 2.031 1.081 1.898-.578.873-3.98 3.174-4.686 1.01-.302 1.923.305 2.297 1.542a2.31 2.31 0 0 1-.047 1.521c-.037.09-.164.212-.189.243l.047.07c.07-.047.18-.08.315-.145l.538-.193.033.11-2.417.854-.061-.183.438-.152c.812-.286 1.471-1.028 1.163-2.046-.258-.843-.834-1.188-1.659-.929-1.834.56-.782 4.016-3.223 4.75-1.249.37-2.18-.3-2.607-1.731-.195-.642-.146-1.162.069-1.809.036-.09.181-.3.278-.36l-.031-.025c-.089.049-.299.124-.428.16l-.647.226-.031-.091 2.79-.988.061.183-.005-.037zm-1.073 5.416l.103.368c.149.505.21.535.715.384l6.184-1.864c.505-.151.535-.212.386-.717l-.103-.368.091-.031.775 2.615c.462 1.56-.135 2.875-1.51 3.3-1.367.414-2.588-.362-3.049-1.922l-.265-.899-2.267.683c-.505.151-.533.231-.384.735l.081.266-.091.031-.758-2.551.092-.031zm7.589-.607c-.131.169-.353.303-.592.372l-3.477 1.048.177.577c.391 1.302 1.329 1.791 2.687 1.387s1.88-1.338 1.488-2.64l-.227-.752-.046.015-.01-.008zm-2.178 5.425c2.285-.685 4.268.393 4.957 2.705.687 2.293-.387 4.289-2.661 4.982-2.294.696-4.276-.383-4.963-2.675-.689-2.312.374-4.316 2.678-5.003l-.011-.008zm1.819 6.843c2.486-.749 3.505-2.195 2.94-4.123-.56-1.89-2.072-2.553-4.309-1.864-2.486.749-3.505 2.195-2.929 4.131.56 1.89 2.069 2.534 4.298 1.856zm-3.026 2.448l.103.368c.149.505.21.535.715.384l6.184-1.864c.505-.151.535-.212.386-.717l-.103-.368.091-.031.806 2.706c.503 1.66-.095 3.042-1.481 3.459-1.276.383-2.41-.309-2.904-1.522l-.074-.209-.064.017c.092.512-.08 1.039-.371 1.372l-.666.772c-.34.396-.881.942-.765 1.337.03.091.098.178.214.268l.259.166-.057.074-.259-.166c-.383-.246-.585-.487-.655-.745-.162-.531.277-1.055.683-1.536l.906-1.059c.422-.503.623-.805.497-1.274l-.035-.129.174-.051.136.478c.377 1.256 1.32 1.716 2.705 1.299s1.92-1.324 1.544-2.58l-.326-1.082c-.094.164-.251.28-.49.349l-6.082 1.842c-.505.15-.533.23-.384.735l.179.596-.091.031-.866-2.889.091-.031zm2.093 6.989l.232.789c.149.505.21.535.715.384l6.633-2.007-.193-.623c-.295-.991-.6-1.295-1.606-1.041l-.434.103-.043-.185 2.452-.573.024.121-.621.128 1.444 4.843.581-.227.043.118-2.355.885-.061-.183.417-.168c.981-.374 1.066-.766.778-1.767l-.179-.596-6.633 2.007c-.505.151-.535.212-.386.717l.23.77-.092.031-1.035-3.477.091-.031-.002-.018zm-12.138-22.068l-5.504 1.662 2.741 9.188 5.504-1.662-2.741-9.188z" fill="#ffc200"/><path d="M24.156 95.858s11.357-5.806 14.463-20.899h14.528s-4.665 19.353-22.429 23.354l-6.562-2.455h0z" fill="url(#U)" class="B"/><path d="M252.421 79.635s11.735 3.442 21.221-6.975l11.852 7.612s-13.306 13.36-28.637 7.449l-4.44-8.103.004.017z" fill="url(#V)" class="B"/><path d="M79.799 34.072a19.28 19.28 0 0 1 2.219 4.735c2.63 8.273-.472 17.612-8.117 22.539-.882.568-1.8 1.066-2.744 1.476-6.37 2.822-13.675 2.001-19.223-1.878-2.053-1.424-3.862-3.267-5.295-5.495-1.87-2.892-2.892-6.089-3.102-9.295-.323-4.543.935-9.103 3.609-12.842 1.416-1.983 3.215-3.739 5.383-5.137l.105-.07a1.33 1.33 0 0 1 .149-.087c5.112-3.197 11.149-3.756 16.497-2.027a18.86 18.86 0 0 1 4.124 1.878c2.508 1.503 4.71 3.591 6.396 6.211v-.009z" fill="url(#W)"/><g style="mix-blend-mode:multiply" class="F B"><path d="M79.798 34.071c.97 1.503 1.713 3.101 2.219 4.735-.577.48-1.267.821-1.949.935l-1.284.25-1.993.353c-1.608.186-2.453-.585-3.413-1.461l-1.288-1.064-.672-.48c-.454-.333-.889-.651-1.416-.918-.344-.176-.731-.307-1.116-.437-.494-.167-.986-.334-1.383-.594-.617.719.309.938 1.016 1.104.264.062.497.117.609.189.603.392.653.999.703 1.614.023.276.045.554.118.814.141.516.359 1.016.575 1.511h0c.518 1.187 1.021 2.339.404 3.591l-.339.742h0l-.579 1.171c-.202.31-.5.534-.803.762-.261.196-.525.395-.735.653-.217.272-.398.8-.592 1.366-.399 1.164-.853 2.49-1.793 2.085-.49-.214-.613-.708-.732-1.183-.085-.339-.167-.668-.378-.879-.234-.234-.499-.356-.767-.48-.333-.154-.669-.309-.955-.682l-.636-.836h0l-.709-.928c-.419-.542-.847-1.005-1.389-1.572-.269-.282-.483-.624-.699-.969-.199-.317-.4-.638-.646-.918a1.87 1.87 0 0 0-.374-.317c-.162-.113-.319-.222-.447-.435-.103-.163-.136-.352-.17-.54-.034-.194-.069-.388-.18-.552-.208-.308-.439-.447-.623-.559-.318-.193-.499-.302-.189-1.049.175-.419.769-1.424 1.048-1.712.23-.225.557-.437.891-.654l.787-.552c.533-.454 1.136-.874 1.765-1.136.344-.142.73-.224 1.116-.305.468-.099.934-.197 1.322-.403.363-.196.761-.476 1.152-.751h0 0l.595-.411c-.306-.874-2.228-.646-3.058-.533.657 1.453-.637 1.531-1.735 1.597-.48.029-.922.056-1.148.194-.157-1.599.017-3.276 1.206-4.202l.377-.296h0c.977-.771 2.379-1.879 3.423-1.94.076 1.683 2.275.98 3.868.47.59-.189 1.097-.351 1.383-.356l.538-.006c.778-.005 1.63-.01 2.407-.187l.146-.034.116-.027a19.53 19.53 0 0 1 6.396 6.211l.009.009zm-3.365 16.59c-.566-.43-1.633-.495-2.437-.544l-.359-.023c-.888-.063-1.351.197-1.914.513l-.751.386c-.372.161-.48.16-.648.158-.096-.001-.212-.003-.41.026l-.333.039h0c-.369.037-.693.069-1.038.354-.669.556-.604 1.21-.533 1.941l.043.907-.022.597h0c-.03.894-.065 1.939-.249 2.696.261-.036.502-.123.733-.205l.455-.145c.37-.084.719-.078 1.062-.072l.572-.006c.572-.041 1.097.035 1.63.112l1.166.124c2.272.087 3.329-2.289 3.81-4.184.175-.69.559-2.979-.769-2.682l-.009.009zM48.691 37.75c.306-.725.751-2.105.664-2.9-.087-.821-1.258-1.441-2.211-1.538-2.674 3.739-3.932 8.299-3.609 12.842.672.309 1.81-1.665 2.833-3.439.453-.785.883-1.531 1.239-2.021.381-.534.556-1.18.728-1.819.104-.386.208-.77.356-1.125z" fill="url(#X)"/></g><path d="M52.623 28.114c.009.069.026.12.034.18l-.069-.163.034-.026v.009z" fill="url(#Y)" class="B"/><path d="M220.879 187.702s3.823 8.153 14.267 10.662l-.289 10.276s-13.387-3.697-15.817-16.348l1.839-4.59h0z" fill="url(#Z)" class="B"/></g><defs><linearGradient id="B" x1="211.49" y1="203.133" x2="99.703" y2="63.408" xlink:href="#q"><stop stop-color="#ff3422"/><stop offset=".98" stop-color="#ff472c"/></linearGradient><linearGradient id="C" x1="194.492" y1="216.732" x2="83.718" y2="78.273" xlink:href="#q"><stop stop-color="#25004f"/><stop offset="1" stop-color="#3e4cd6"/></linearGradient><linearGradient id="D" x1="185.98" y1="217.033" x2="84.281" y2="89.918" xlink:href="#q"><stop stop-color="#59279c"/><stop offset="1" stop-color="#4976fa"/></linearGradient><linearGradient id="E" x1="172.708" y1="234.314" x2="65.097" y2="99.808" xlink:href="#q"><stop stop-color="#451f7c"/><stop offset="1" stop-color="#4150de"/></linearGradient><linearGradient id="F" x1="181.956" y1="225.993" x2="74.194" y2="91.3" xlink:href="#q"><stop stop-color="#451f7c"/><stop offset="1" stop-color="#4150de"/></linearGradient><linearGradient id="G" x1="190.392" y1="219.141" x2="82.019" y2="83.682" xlink:href="#q"><stop stop-color="#451f7c"/><stop offset="1" stop-color="#4150de"/></linearGradient><linearGradient id="H" x1="198.199" y1="212.895" x2="89.3" y2="76.78" xlink:href="#q"><stop stop-color="#451f7c"/><stop offset="1" stop-color="#4150de"/></linearGradient><linearGradient id="I" x1="209.154" y1="204.054" x2="99.292" y2="66.735" xlink:href="#q"><stop stop-color="#451f7c"/><stop offset="1" stop-color="#4150de"/></linearGradient><linearGradient id="J" x1="194.437" y1="217.071" x2="83.414" y2="78.338" xlink:href="#q"><stop stop-color="#013024"/><stop offset="1" stop-color="#70a225"/></linearGradient><linearGradient id="K" x1="162.5" y1="231" x2="118.448" y2="75.157" xlink:href="#q"><stop stop-color="#1a590d"/><stop offset=".661" stop-color="#96bf02"/><stop offset="1" stop-color="#a9cb2f"/></linearGradient><linearGradient id="L" x1="81.384" y1="260.983" x2="126.897" y2="145.227" xlink:href="#q"><stop offset=".04" stop-color="#ff8447"/><stop offset=".26" stop-color="#ed3d47"/><stop offset="1" stop-color="#ff8427"/></linearGradient><linearGradient id="M" x1="69.508" y1="255.111" x2="110.741" y2="143.268" xlink:href="#q"><stop stop-color="#ffa700"/><stop offset="1" stop-color="#ffd328"/></linearGradient><linearGradient id="N" x1="70.137" y1="249.398" x2="107.623" y2="147.719" xlink:href="#q"><stop offset=".04" stop-color="#ff8447"/><stop offset=".26" stop-color="#ed3d47"/><stop offset="1" stop-color="#ff8427"/></linearGradient><linearGradient id="O" x1="104.347" y1="170.525" x2="79.094" y2="240.57" xlink:href="#q"><stop offset=".04" stop-color="#ff8447"/><stop offset=".26" stop-color="#ed3d47"/><stop offset="1" stop-color="#ff8427"/></linearGradient><linearGradient id="P" x1="6.399" y1="187.494" x2="48.183" y2="150.48" xlink:href="#q"><stop offset=".04" stop-color="#ff8447"/><stop offset=".26" stop-color="#ed3d47"/><stop offset="1" stop-color="#ff8427"/></linearGradient><linearGradient id="Q" x1="2.846" y1="182.727" x2="42.121" y2="146.405" xlink:href="#q"><stop stop-color="#ffa700"/><stop offset="1" stop-color="#ffd328"/></linearGradient><linearGradient id="R" x1="4.261" y1="180.57" x2="39.967" y2="147.55" xlink:href="#q"><stop offset=".04" stop-color="#ff8447"/><stop offset=".26" stop-color="#ed3d47"/><stop offset="1" stop-color="#ff8427"/></linearGradient><linearGradient id="S" x1="34.011" y1="156.003" x2="9.642" y2="178.866" xlink:href="#q"><stop offset=".04" stop-color="#ff8447"/><stop offset=".26" stop-color="#ed3d47"/><stop offset="1" stop-color="#ff8427"/></linearGradient><linearGradient id="T" x1="170.105" y1="105.217" x2="263.64" y2="77.313" xlink:href="#q"><stop stop-color="#ba0202"/><stop offset="1" stop-color="#f24c26"/></linearGradient><linearGradient id="U" x1="-4" y1="124.501" x2="34.24" y2="69.982" xlink:href="#q"><stop stop-color="#ba0202"/><stop offset="1" stop-color="#f24c26"/></linearGradient><linearGradient id="V" x1="261.885" y1="90.965" x2="273.635" y2="72.67" xlink:href="#q"><stop stop-color="#ffd328"/><stop offset="1" stop-color="#ffa700"/></linearGradient><radialGradient id="W" cx="0" cy="0" r="1" gradientTransform="translate(59.1308 36.8001) rotate(-32.7942) scale(28.3437 28.3411)" xlink:href="#q"><stop offset=".02" stop-color="#fff"/><stop offset=".98" stop-color="#ccbdab"/></radialGradient><radialGradient id="X" cx="0" cy="0" r="1" gradientTransform="translate(58.7656 36.7567) rotate(-26.5235) scale(26.0082 22.8222)" xlink:href="#q"><stop offset=".02" stop-color="#ccbdab"/></radialGradient><linearGradient id="Y" x1="52.69" y1="28.276" x2="52.597" y2="28.132" xlink:href="#q"><stop stop-color="#fdcdd3"/><stop offset="1" stop-color="#ffeacd"/></linearGradient><linearGradient id="Z" x1="227.097" y1="208.651" x2="227.097" y2="187.713" xlink:href="#q"><stop stop-color="#ffd328"/><stop offset="1" stop-color="#ffa700"/></linearGradient><path id="a" d="M83.838 90.218l1.353-10.505 24.524-26.649 17.487-3.539-11.433 10.553-8.84.226L90.779 76.32l-.177 6.868-6.763 7.03z"/><path id="b" d="M65.868 109.207s57.131-61.929 82.106-74.227l106.5 141.424-37.486 30.01-151.12-97.207z"/><path id="c" d="M238.227 173.398c4.654 5.705 2.722 13.85-1.803 17.47l-1.498 1.196c4.525-3.621 6.57-12.315 1.916-18.02L141.71 52.402c-2.608-3.167-10.208-5.608-16.537-1.115l4.75-3.943c5.894-3.103 11.32-1.454 14.75 2.764l93.538 123.291h.016z"/><path id="d" d="M209.339 206.011l7.633.404-43.991 35.198s-4.944 4.234-14.782-1.034l51.124-34.584.016.016z"/><path id="e" d="M152.74 236.441L69.685 131.897c-3.768-4.735-3.961-11.022-.467-14.448l40.722-39.934c3.994-3.911 11.111-2.537 15.297 2.957l84.376 110.815c3.816 5.01 3.688 11.539-.274 14.706l-42.059 33.663c-4.041 3.232-10.547 1.794-14.54-3.232v.016z"/><path id="f" d="M178.214 237.556l-8.341.679-98.015-123.356.097-12.46.789-.307.177 12.218 97.177 123.065 7.761-1.18.355 1.341z"/><path id="g" d="M186.281 230.203l-6.779.307-98.32-124.777-.097-11.83.692-.485v12.218l98.127 123.501 6.055-.291.322 1.357z"/><path id="h" d="M192.722 224.935l-5.427-.873L89.088 97.975l.386-12.153.741-.436-.37 11.846 97.966 125.586 4.847.791.064 1.326z"/><path id="i" d="M202.721 216.935l-5.41-.775L96.414 90.784l-1.24-10.44.886-.873 1.111 11.038 100.639 124.39 4.831.695.08 1.341z"/><path id="j" d="M211.433 209.889l-5.234-1.357L105.335 81.556l.306-11.523 1.465-1.455-.483 12.702 100.188 126.798 4.686.501-.064 1.309z"/><path id="k" d="M107.815 79.181l3.655 4.59s3.494-2.44 7.327-1.584 9.597 7.095 9.597 7.095l2.19-1.762 1.755-1.406-7.246-10.602s-6.892-5.123-11.626-1.325l-5.652 4.994z"/><path id="l" d="M107.815 79.18l1.192 1.503 5.603-4.493s3.993-1.891 8.937 2.376l7.037 8.953 1.755-1.406-7.246-10.601s-5.781-5.155-11.626-1.325l-5.652 4.994z"/><path id="m" d="M114.626 76.206l-.048-2.634s3.961-2.747 10.514 1.955l-1.642 2.715s-4.895-3.846-8.824-2.02v-.016z"/><path id="n" d="M207.81 212.168l-4.718-5.947 2.93-3.895s3.559-4.396-3.172-15.078l2.287-1.826 2.914-.695 5.845 7.353s6.473 8.42-1.707 16.565l-4.379 3.507v.016z"/><path id="o" d="M152.74 236.441l2.738-2.181s4.669 5.688 9.21 4.719l4.396-3.685 3.43 2.764-4.783 4.751s-7.761 2.747-14.991-6.368z"/><path id="p" d="M68.364 115.3l2.995 3.765s-1.465 9.422 7.971 21.3l-1.787 1.422-9.452-11.991s-5.443-8.921.258-14.512l.016.016z"/><linearGradient id="q" gradientUnits="userSpaceOnUse"/></defs></svg>