<svg xmlns="http://www.w3.org/2000/svg" xmlns:xlink="http://www.w3.org/1999/xlink" width="640" height="480" fill="none" xmlns:v="https://vecta.io/nano"><style><![CDATA[.B{opacity:.4}.C{opacity:.3}.D{fill:#d35950}.E{fill-rule:evenodd}.F{fill:#fff}.G{fill:#624735}.H{fill:#2c4001}.I{fill:#ff6d50}.J{fill:#ffa490}]]></style><mask id="A" maskUnits="userSpaceOnUse" x="48" y="16" width="610" height="464" mask-type="alpha"><path fill="#d9d9d9" d="M48 16h610v464H48z"/></mask><g mask="url(#A)"><path d="M313.175 120.388c-85.955-15.304-172.57 106.706-198.044 220.427s180.358 127.899 273.052 114.577c52.319-7.52 55.687-109.009 42.277-186.124-10.348-59.509-32.508-95.091-38.535-120.288-13.838-57.851-44.994-22.58-78.75-28.59v-.002zm90.338 26.217c1.171 24.204 40.54 115.986 36.376 183.104-4.657 75.064 69.676 54.223 64.197-54.129-5.136-101.579-70.46-151.364-94.983-138.076-1.636.886-5.831 4.126-5.59 9.101zM142.43 227.432c-30.505-.981-21.227-91.297 0-120.169s86.385-1.007 94.688 9.43-54.97 63.684-70.172 86.87-16.572 24.126-24.516 23.869z" fill="#f2eeeb"/><path d="M414.153 177.09v.905h2.238v-.905h-2.238zm-3.367 0h-2.249v.916h2.238v-.916h.011zm8.983.022v.916l2.238.022v-.906l-2.238-.021v-.011zm-14.599.021l-2.249.033.023.906 2.237-.033v-.906h-.011zm20.204.055l-.022.905 2.248.044.034-.905-2.249-.044h-.011zm-25.831.022l-2.249.043.034.906 2.237-.044-.022-.905zm31.458.098l-.033.905 2.248.066.045-.906-2.248-.065h-.012zm-37.063.033l-2.238.065.045.906 2.238-.066-.034-.905h-.011zm42.691.142l-.045.905 2.248.076.045-.905-2.248-.076zm-48.296.021l-2.237.077.044.905 2.238-.076-.045-.906zm53.923.197l-.056.905 2.237.098.067-.905-2.237-.098h-.011zm-59.517 0l-2.237.087.056.905 2.237-.087-.056-.905zm-5.582.24l-2.237.109.067.905 2.226-.109-.067-.905h.011zm70.715.011l-.067.905 2.237.12.078-.905-2.237-.12h-.011zm-76.297.261l-2.238.12.078.906 2.238-.12-.078-.906zm81.89.055l-.089.905 2.237.142.09-.905-2.238-.142zm-87.484.262l-2.237.142.089.905 2.237-.131-.078-.905-.011-.011zm93.078.109l-.101.905 2.227.164.1-.905-2.237-.164h.011zm-98.683.24l-2.237.153.1.905 2.238-.153-.09-.905h-.011zm104.265.185l-.111.906 2.226.185.123-.905-2.238-.186zm-109.858.208l-2.238.163.101.906 2.226-.164-.101-.905h.012zm115.441.272l-.123.906 2.226.207.134-.894-2.226-.208-.011-.011zm-121.024.153l-2.237.186.111.905 2.227-.185-.112-.906h.011zm126.606.404l-.145.894 2.226.24.146-.894-2.227-.24zm-132.188.065l-2.227.197.123.905 2.227-.196-.123-.906zm-5.572.502l-2.226.218.134.895 2.227-.208-.135-.905zm143.32.044l-.156.894 2.215.262.168-.895-2.227-.261zm-148.902.501l-2.226.23.145.894 2.226-.229-.134-.895h-.011zm154.451.186l-.179.894 2.215.295.179-.895-2.215-.294zm-160.011.404l-2.226.24.156.894 2.226-.24-.145-.894h-.011zm165.549.349l-.19.894 2.204.317.201-.895-2.215-.316zm-171.109.261l-2.226.262.156.895 2.215-.262-.156-.895h.011zm176.635.557l-.212.894 2.193.349.223-.883-2.204-.349v-.011zm-182.184.098l-2.215.273.168.894 2.215-.272-.168-.895zm-5.549.698l-2.215.295.179.894 2.215-.294-.179-.895zm193.238.109l-.235.884 2.181.382.246-.884-2.192-.382zm-198.776.622l-2.215.306.19.894 2.204-.305-.19-.895h.011zm204.257.36l-.257.884 2.182.414.268-.883-2.181-.426-.012.011zm-209.783.415l-2.204.327.201.894 2.204-.327-.201-.894zm215.243.665l-.28.873 2.159.458.291-.873-2.17-.458zm-220.758.164l-2.204.338.212.894 2.204-.338-.212-.894zm-5.516.872l-2.204.36.224.884 2.193-.36-.224-.884h.011zm231.7.142l-.303.873 2.148.502.314-.873-2.159-.502zm-237.193.775l-2.192.382.234.883 2.193-.382-.235-.883zm242.585.502l-.325.861 2.137.535.336-.862-2.148-.545v.011zm-248.078.469l-2.192.403.257.884 2.181-.404-.246-.883zm253.425.916l-.358.862 2.115.589.369-.851-2.126-.589v-.011zm-258.895.109l-2.182.426.269.883 2.181-.425-.257-.884h-.011zm-5.448 1.08l-2.171.447.28.873 2.17-.447-.279-.873zm269.657.306l-.38.851 2.092.632.391-.851-2.103-.632zm-275.083.84l-2.171.48.302.872 2.16-.48-.291-.872zm280.341.785l-.414.84 2.07.687.425-.84-2.081-.687zm-285.756.436l-2.159.513.313.873 2.148-.502-.313-.873.011-.011zm-5.381 1.299l-2.148.545.336.862 2.136-.546-.335-.861h.011zm296.328.021l-.447.83 2.036.741.47-.829-2.059-.742zm-301.675 1.364l-2.126.578.369.851 2.114-.578-.357-.862v.011zm306.788.546l-.493.818 2.003.796.503-.807-2.013-.807zm-312.102.949l-2.115.632.392.851 2.103-.622-.38-.85v-.011zm317.125 1.101l-.526.797 1.958.862.548-.797-1.98-.862zm-322.383.502l-2.092.688.425.84 2.069-.677-.414-.84.012-.011zm327.294 1.713l-.571.785 1.913.928.582-.775-1.935-.938h.011zm-332.485.055l-2.048.752.481.818 2.025-.752-.458-.829v.011zm-5.091 1.963l-1.991.851.537.796 1.969-.84-.515-.807zm342.364.382l-.615.764 1.857 1.003.626-.752-1.879-1.015h.011zm-347.297 1.855l-1.902.992.627.753 1.857-.971-.593-.774h.011zm351.94.73l-.66.731 1.79 1.08.682-.72-1.812-1.091zm-356.572 1.91l-1.7 1.232.783.644 1.633-1.178-.716-.698zm361.036.861l-.705.709 1.723 1.146.716-.698-1.734-1.157zm-364.985 2.488c-.47.556-.839 1.112-1.118 1.658l1.04.338c.246-.491.582-.982 1.007-1.484l-.929-.512zm369.292.447l-.739.676 1.656 1.211.761-.665-1.678-1.222zm4.128 3.098l-.783.644 1.577 1.276.794-.633-1.599-1.287h.011zm-373.979.84l-1.119.087a5.56 5.56 0 0 0 .146.731l.358 1.113 1.074-.251-.347-1.08a3.89 3.89 0 0 1-.123-.611l.011.011zm377.883 2.444l-.828.611 1.488 1.341.839-.6-1.51-1.352h.011zm-296.887 1.047h-.593v.905h.581 1.645l.022-.905c-.559 0-1.107-.011-1.667-.011l.012.011zm-3.972.065l-2.248.088.067.905 2.226-.087-.045-.906zm9.017.044l-.056.906 2.226.12.09-.906-2.249-.12h-.011zm-14.644.251l-2.238.175.124.905 2.226-.175-.101-.905h-.011zm20.26.153l-.134.894 2.204.24.168-.894-2.238-.24zm-90.113.196l-1.029.371c.324.589.671 1.145 1.051 1.658l.962-.458c-.358-.48-.682-1.015-.984-1.56v-.011zm64.248.153l-2.226.251.168.894 2.215-.251-.146-.894h-.011zm31.436.349l-.212.894 2.181.371.246-.883-2.215-.371v-.011zm-36.996.327l-2.215.317.201.894 2.204-.316-.19-.895zm42.5.709l-.302.873 2.115.524.358-.862-2.171-.535zm-48.038.12l-2.204.36.224.884 2.193-.36-.213-.884zm326.859.033l-.873.567 1.387 1.408.884-.557-1.398-1.429v.011zm-332.352.895l-2.192.392.246.884 2.181-.393-.235-.883zm58.89.436l-.414.84 2.048.698.447-.829-2.081-.709zm-64.371.556l-2.182.404.257.884 2.182-.404-.246-.884h-.011zm-39.268.077l-.816.621c.537.459 1.118.884 1.734 1.266l.682-.72c-.559-.349-1.096-.731-1.588-1.156l-.012-.011zm33.808.938l-2.181.403.246.884 2.193-.404-.247-.883h-.011zm74.989.283l-.504.808 1.98.829.526-.797-2.002-.84zm271.716.426l-.918.524 1.253 1.483.94-.502-1.275-1.505zm-352.175.273l-2.193.371.224.883 2.204-.371-.235-.883zm-23.963.534l-.448.829c.683.24 1.421.448 2.193.611l.302-.873-2.047-.567zm18.481.338l-2.204.295.168.894 2.226-.294-.19-.895zm90.896.6l-.57.786 1.913.927.582-.774-1.936-.939h.011zm-96.411.033l-2.204.142.067.905 2.26-.152-.112-.906-.011.011zm-7.72.087l-.123.906 2.283.12.033-.906-2.193-.12zm374.002 1.964l-.962.469 1.107 1.56.985-.436-1.13-1.582v-.011zm-265.049.327l-.615.753 1.846 1.015.637-.742-1.868-1.026zm4.621 2.608l-.661.73 1.79 1.08.683-.72-1.801-1.09h-.011zm263.135 1.069l-1.007.403.94 1.626 1.018-.371-.962-1.658h.011zm-258.672 1.712l-.705.709 1.723 1.146.716-.698-1.745-1.157h.011zm260.921 2.477l-1.052.327.75 1.691 1.062-.284-.76-1.723v-.011zm-256.625.447l-.738.687 1.667 1.2.749-.676-1.678-1.211zm4.162 3.055l-.772.654 1.611 1.244.783-.655-1.622-1.254v.011zm254.219.85l-1.085.24.526 1.735 1.096-.196-.548-1.779h.011zm-250.181 2.346l-.794.633 1.555 1.298.806-.633-1.567-1.298zm251.356 2.127l-1.108.142.291 1.778 1.119-.098-.302-1.822zm-247.474 1.157l-.827.61 1.51 1.331.839-.6-1.51-1.341h-.012zm3.748 3.392l-.85.589 1.454 1.375.862-.578-1.455-1.386h-.011zm244.285 0l-1.119.033.034 1.418v.371h1.119v-.382l-.034-1.451v.011zm-240.671 3.491l-.873.567 1.387 1.419.884-.557-1.398-1.418v-.011zm239.418 1.015l-.235 1.778 1.108.12.246-1.822-1.119-.076zm-235.973 2.563l-.895.546 1.343 1.451.906-.535-1.354-1.462zm235.168 1.866l-.515 1.734 1.085.229.526-1.789-1.096-.185v.011zm-231.845 1.833l-.917.523 1.275 1.484.928-.513-1.286-1.494zm230.368 2.476l-.772 1.68 1.04.338.795-1.724-1.063-.294zm-227.213 1.287l-.94.491 1.208 1.516.951-.48-1.219-1.527zm225.099 2.837l-1.019 1.592.985.437 1.04-1.626-1.006-.393v-.01zm-222.101 1.003l-.962.469 1.141 1.549.973-.458-1.152-1.56zm219.382 2.891l-1.242 1.484.918.523 1.275-1.516-.94-.491h-.011zm-216.563 1.026l-.984.436 1.074 1.582.984-.426-1.074-1.592zm122.411 1.996l-.772.654 1.656 1.233.749-.676-1.633-1.222v.011zm90.885.589l-1.443 1.353.839.6 1.477-1.386-.873-.578v.011zm-210.656 1.429l-.995.415.995 1.614 1.007-.393-1.007-1.625v-.011zm123.933.971l-.716.698 1.756 1.146.694-.709-1.734-1.135zm82.976.895l-1.623 1.221.75.677 1.656-1.244-.783-.644v-.01zm-78.58 1.865l-.66.731 1.846 1.047.638-.753-1.824-1.036v.011zm-125.89.371l-1.018.382.906 1.647 1.029-.36-.917-1.658v-.011zm200.308.709l-1.768 1.08.66.731 1.802-1.102-.694-.709zm-69.809 1.429l-.592.775 1.935.938.559-.786-1.913-.927h.011zm65.278 1.156l-1.902.928.56.785 1.935-.949-.604-.764h.011zm-193.551.884l-1.04.338.817 1.68 1.051-.327-.828-1.691zm133.106.186l-.514.807 2.025.818.481-.818-1.992-.807zm55.612 1.134l-2.002.764.458.829 2.048-.786-.504-.807zm-50.577.775l-.437.84 2.092.687.403-.851-2.058-.676zm45.498 1.025l-2.092.611.358.862 2.126-.622-.403-.851h.011zm-40.296.556l-.347.862 2.159.535.313-.873-2.125-.524zm-141.351.59l-1.063.294.716 1.713 1.063-.284-.727-1.723h.011zm176.378.25l-2.148.437.257.883 2.193-.447-.302-.873zm-29.68.371l-.257.884 2.215.382.213-.884-2.171-.382zm24.265.611l-2.192.273.145.895 2.238-.284-.191-.895v.011zm-18.805.218l-.157.895 2.249.229.123-.905-2.204-.219h-.011zm13.29.35l-2.215.109.045.905 2.26-.109-.09-.905zm-7.764.087l-.056.905 2.26.055v-.906c-.727 0-1.466-.032-2.204-.054zm-155.961 2.454l-1.074.251.604 1.735 1.085-.24-.615-1.757v.011zm1.431 4.408l-1.096.207.481 1.756 1.097-.185-.482-1.778zm-278.786 2.509l-.571.774 1.925.928.581-.775-1.924-.927h-.011zm279.894 1.963l-1.108.153.336 1.778 1.108-.131-.347-1.8h.011zm-275.095.382l-.593.775 1.902.949.593-.764-1.913-.96h.011zm4.755 2.411l-.604.764 1.879.982.604-.764-1.89-.982h.011zm271.078 1.724l-1.118.087.179 1.789 1.118-.065-.19-1.822.011.011zm-266.368.742l-.616.752 1.869 1.004.626-.753-1.868-1.003h-.011zm4.665 2.52l-.627.752 1.846 1.015.638-.742-1.857-1.025zm262.039 1.298l-1.119.022.011 1.145v.655h1.119v-.655l-.011-1.156v-.011zm-257.419 1.276l-.638.742 1.835 1.036.649-.742-1.835-1.036h-.011zm4.587 2.618l-.649.742 1.824 1.058.66-.731-1.824-1.058-.011-.011zm251.601.622l-.179 1.789 1.119.087.179-1.821-1.119-.055zm-247.048 2.04l-.66.731 1.801 1.069.672-.731-1.813-1.08v.011zm246.444 2.411l-.391 1.767 1.096.175.392-1.8-1.108-.142h.011zm-241.935.284l-.672.72 1.79 1.091.672-.72-1.79-1.091zm4.475 2.738l-.683.72 1.779 1.102.682-.72-1.778-1.102zm236.33 1.363l-.604 1.724 1.074.262.616-1.756-1.086-.23zm-231.878 1.386l-.671.72 1.801 1.08.671-.731-1.79-1.08-.011.011zm4.508 2.684l-.66.73 1.824 1.059.649-.742-1.824-1.047h.011zm225.681.196l-.828 1.658 1.029.36.851-1.702-1.052-.316zm-221.116 2.411l-.638.742 1.857 1.025.627-.753-1.846-1.025v.011zm218.867 1.68l-1.051 1.582.973.447 1.074-1.615-.996-.414zm-214.236.862l-.615.752 1.88.993.615-.753-1.868-.992h-.012zm4.688 2.465l-.604.764 1.902.971.593-.764-1.891-.96v-.011zm206.763.546l-1.253 1.472.906.535 1.287-1.506-.94-.501zm-202.009 1.843l-.581.775 1.924.938.571-.775-1.914-.938zm198.72 1.757l-1.443 1.363.839.6 1.476-1.385-.861-.578h-.011zm-193.92.556l-.56.785 1.936.906.559-.786-1.935-.905zm4.844 2.236l-.548.797 1.958.872.536-.796-1.957-.873h.011zm185.339.524l-1.6 1.244.761.665 1.634-1.265-.795-.644zm-180.439 1.636l-.526.797 1.98.84.515-.808-1.98-.84.011.011zm176.322 1.375l-1.734 1.123.683.72 1.767-1.134-.716-.698v-.011zm-171.366.709l-.504.807 2.003.807.503-.807-2.002-.807zm5.012 1.996l-.481.818 2.025.775.481-.818-2.014-.775h-.011zm161.924 0l-.861.469-.985.535.616.753.995-.535.873-.48-.638-.742zm-156.868 1.909l-.458.829 2.047.742.459-.829-2.036-.742h-.012zm152.192.557l-1.902.938.571.774 1.924-.949-.593-.763zm-147.079 1.265l-.448.829 2.07.709.436-.84-2.058-.709v.011zm142.28 1.026l-1.958.872.537.797 1.969-.873-.548-.785v-.011zm-137.111.709l-.414.84 2.092.676.414-.84-2.081-.665-.011-.011zm132.188 1.407l-2.002.796.481.819 2.025-.808-.504-.807zm-126.975.24l-.392.851 2.103.633.381-.851-2.103-.633h.011zm5.258 1.549l-.369.851 2.125.589.358-.862-2.114-.589v.011zm116.694.153l-2.036.72.436.829 2.059-.731-.459-.829v.011zm-111.391 1.287l-.347.862 2.148.556.335-.862-2.136-.545v-.011zm106.256.458l-2.081.644.392.851 2.103-.655-.414-.84zm-100.909.884l-.313.873 2.159.512.313-.872-2.148-.502-.011-.011zm95.685.676l-2.115.568.347.861 2.137-.578-.369-.851zm-90.293.546l-.291.872 2.182.459.28-.873-2.171-.458zm84.99.829l-2.148.491.302.872 2.159-.501-.313-.873v.011zm-79.564.283l-.257.884 2.193.415.246-.884-2.182-.415zm74.183.895l-2.17.415.246.883 2.192-.425-.268-.884v.011zm-68.712.098l-.235.884 2.204.36.212-.884-2.192-.36h.011zm5.493.862l-.202.895 2.215.316.191-.895-2.204-.305v-.011zm57.782.022l-2.193.338.202.895 2.203-.35-.223-.883h.011zm-52.256.709l-.168.894 2.227.262.156-.894-2.215-.251v-.011zm46.763.098l-2.204.273.157.894 2.226-.272-.179-.895zm-41.214.502l-.134.894 2.237.197.112-.906-2.226-.196.011.011zm35.687.12l-2.215.196.112.906 2.238-.197-.135-.894v-.011zm-30.116.327l-.089.906 2.248.141.079-.905-2.226-.142h-.012zm24.567.098l-2.226.12.067.906 2.249-.131-.09-.906v.011zm-18.984.197l-.056.905 2.248.077.045-.906-2.237-.076zm13.402.065l-2.237.055.022.905 2.249-.054-.045-.906h.011zm-7.82.077v.905l2.081.011h.157v-.906h-.157c-.694 0-1.387 0-2.081-.01z" fill="#475467"/><path d="M110.753 319.38l16.714-18.294-64.842-27.164 48.128 45.458z" class="E G"/><path d="M62.625 273.922l48.128 45.458 19.935-7.964-68.063-37.494z" class="E G"/><path d="M130.688 311.416l12.351 28.779-80.414-66.273 68.063 37.494z" fill="url(#B)" class="E"/><path d="M127.467 301.086l-3.01-16.255-61.832-10.909 64.842 27.164z" fill="url(#C)" class="E"/><path d="M143.039 340.195l-1.242.371-79.172-66.644 80.414 66.273z" fill="#a68c77" class="E"/><path d="M149.652 61.849s-46.853 30.078-54.955 68.465l-32.058-13.149s9.161-51.522 28.893-76.95c0 0 22.199 2.38 58.12 21.634z" fill="url(#D)"/><path d="M139.445 62.46S111.18 89.9 100.08 107.156L69.834 95.435s12.16-38.006 23.12-51.78c0 0 27.485 5.67 46.505 18.806h-.014z" fill="url(#E)"/><path opacity=".8" d="M108.739 90.921L77.447 78.67s12.522-14.849 14.307-14.278c1.771.571 1.45 9.532 1.45 9.532s18.058-12.238 18.755-11.463c.711.775-3.221 28.46-3.221 28.46z" fill="url(#F)"/><path d="M109.45 94.795s4.713-15.841 3.305-16.875-16.204 9.274-16.204 9.274l12.899 7.601z" fill="url(#G)"/><path style="mix-blend-mode:multiply" opacity=".83" d="M115.181 92.335s-.293-17.201 5.578-20.573l-1.492 16.005-4.086 4.569z" fill="url(#H)"/><path d="M245.353 106.87s-32.727-14.25-47.787-38.984-3.012-57.967 32.713-49.21 54.063 32.2 76.988 62.604c22.939 30.405 62.304 47.144 67.324 61.068 5.02 13.91-95.45-7.044-129.238-35.463v-.014z" fill="url(#I)"/><g style="mix-blend-mode:multiply" opacity=".23" class="H"><path d="M268.557 40.215s-44.831-11.572-60.156 8.05c-15.325 19.608 22.98 51.726 22.98 51.726l53.184-26.584s-8.157-26.053-16.008-33.192z"/></g><path style="mix-blend-mode:multiply" opacity=".83" d="M257.373 29.73s3.612 32.553-5.382 45.906l-11.365 17.188 51.344-6.16-10.738-34.511-23.859-22.436v.014z" fill="url(#J)"/><path d="M539.986 360.727s1.073 1.06-.168 2.95c-1.227 1.89-23.608 3.631-30.817 12.945s-7.767 21.553-7.767 21.553-2.12-16.494 8.98-26.965c11.1-10.483 29.772-10.47 29.772-10.47v-.013z" fill="#722440"/><path d="M443.811 354.676s2.482 14.699 10.793 28.664c1.826 3.059 3.932 6.092 6.358 8.92 1.604 1.863 3.431 3.467 5.425 4.854 11.197 7.778 27.484 8.363 35.837 6.486 2.691-.611 4.56-1.468 5.173-2.42 2.803-4.324-3.723-17.092-4.113-17.854-.028-.027-.028-.041-.028-.041s-3.11-1.359-14.725-3.073c-6.875-1.019-16.734-2.148-30.692-3.195 0 0-.126-.122-.363-.381-1.673-1.727-8.673-9.45-13.637-21.906 0-.027-.028-.041-.028-.054z" fill="url(#K)"/><path d="M457.128 380.974s.042.041.042.068a33.75 33.75 0 0 0 1.45 2.257c2.301 3.304 7.223 9.423 14.781 13.924 7.07 4.202 16.454 6.99 28.14 4.719 0 0 0-.109-.056-.313-.153-1.129-.669-5.317 0-10.606a37.61 37.61 0 0 1 1.771-7.669v-.028c1.492-4.269 3.96-8.648 7.99-12.414 5.787-5.412 14.795-9.532 28.712-10.185 0 0-16.343-13.815-42.321-11.3a71.29 71.29 0 0 0-11.226 2.04s-1.352.258-3.486.925c-4.127 1.251-11.197 3.984-16.887 9.096-4.127 3.685-7.53 8.621-8.589 15.148a26.87 26.87 0 0 0-.349 4.338h.028z" fill="url(#L)"/><path d="M224.646 163.586s-1.325 42.86 14.14 45.648c0 0 6.205-11.382 1.98-25.17s-13.261-20.22-16.12-20.478z" class="I"/><path d="M225.05 165.518s-9.245-3.29-45.975-20.967-54.16-25.918-64.2-34.675c0 0 4.141-6.785 7.488-10.049s5.466-5.154 4.936-7.22-1.771-21.729-3.012-22.069c-1.227-.34-6.233 1.21-6.595 7.819-.349 6.595 3.263 13.394 3.263 13.394s-16.204 2.924-15.855 14.604c-2.315 3.101-4.114 6.419-6.066 10.824h9.942c.879 0 38.222 39.339 55.485 48.354s54.718 15.882 80.906 36.156c0 0-5.159-23.537-20.317-36.156v-.014z" fill="url(#M)"/><path d="M276.826 169.555s-14.53-3.005-19.16-2.624-5.675 2.624-5.675 2.624-19.815-3.263-27.345-5.969c0 0 14.795 17.092 14.14 45.648 0 0 4.838-1.075 20.582.992l17.458-40.671z" fill="url(#N)"/><g style="mix-blend-mode:multiply" class="C D"><path d="M220.282 163.588s3.444 11.762-1.186 22.817l18.951 10.117s-3.124-21.05-11.978-31.098l-5.787-1.85v.014z"/></g><g style="mix-blend-mode:multiply" class="C"><path d="M119.936 113.82s12.968 23.157 23.203 33.668 19.453 16.984 19.453 16.984-24.654-16.821-53.631-47.307c0 0-2.022-3.957 5.899-7.302l5.076 3.944v.013z" fill="url(#O)"/></g><path style="mix-blend-mode:multiply" d="M257.68 166.932s3.556 9.423 3.026 19.458c0 0-4.49-13.067-8.715-16.847 0 0 2.189-2.72 5.675-2.625l.014.014z" fill="url(#P)" class="C"/><path style="mix-blend-mode:multiply" d="M274.595 171.705s-12.439 13.448-19.369 24.816-16.441 9.274-16.441 9.274v3.44s13.554-.816 20.582.993l15.228-38.509v-.014z" fill="url(#Q)" class="B"/><path d="M281.232 49.325l.126.19c2.008 2.951 27.15 39.923 42.795 57.954 4.714 5.425 8.562 9.138 10.654 9.695 0 0 .488-1.509 1.185-3.875 1.897-6.446 5.355-19.296 4.769-25.319a11.2 11.2 0 0 0-.599-2.706c-.823-2.407-2.357-4.596-4.128-6.636-3.319-3.821-7.446-7.112-9.273-10.239-1.966-3.372-3.124-7.737-5.438-11.613-1.409-2.352-3.236-4.514-5.913-6.16-4.602-2.828-17.486-2.543-26.048-1.985-3.988.258-7.042.571-7.893.666l-.237.027z" fill="url(#R)"/><g style="mix-blend-mode:multiply" opacity=".23" class="H"><path d="M281.232 49.325l.126.19L312.97 99.99l11.183 7.479 9.51 6.35 2.329-.53c1.897-6.445 5.355-19.295 4.769-25.319a11.2 11.2 0 0 0-.599-2.706s-1.799 7.628-14.977 3.481c-12.41-3.903-33.397-36.306-35.823-40.113-.154-.245-7.893.666-7.893.666l-.237.027z"/></g><g style="mix-blend-mode:multiply" opacity=".23" class="H"><path d="M321.323 68.417c2.204 3.631 14.726 10.253 14.726 10.253v-.041c-3.333-3.821-7.46-7.112-9.287-10.239-1.966-3.372-3.124-7.737-5.439-11.612-.125.422-2.161 8.104 0 11.64z"/></g><path d="M352.224 386.835l47.816 83.164 1.924 3.358 1.241 2.176 1.227 2.121 1.185 2.067 2.273 3.971 2.622 4.569.976 1.699 1.381 2.407.864 1.496 5.815 10.13h25.323s-3.876-12.387-10.57-24.408-17.444-20.097-19.02-24.734c-1.325-3.889-5.257-39.216-10.682-70.559-1.045-6.092-2.161-12.034-3.318-17.555-7.14-34.008-45.18-62.685-45.18-62.685-33.816-3.78-17.961 58.389-3.863 82.783h-.014z" fill="url(#S)"/><g style="mix-blend-mode:multiply" class="C D"><path d="M397.32 354.402s-5.842 40.114-36.883 46.709l-4.518-7.833 41.401-38.862v-.014z"/></g><path d="M298.314 372.583s-1.673 5.235-24.388-3.264-35.852-37.788-32.324-42.601c0 0 18.058-1.714 36.549 12.972s20.163 32.893 20.163 32.893z" class="G"/><path d="M392.384 184.677s-2.831-12.878-19.034-18.725c-16.204-5.833-31.18-12.537-31.18-12.537s14.098 30.568 23.427 42.942c9.329 12.36 20.428 23.035 18.853 30.405-1.59 7.37-13.038 12.183-30.734 8.58s-52.836-26.951-58.386-43.486-11.281-39.964-30.385-52.351-39.713-27.998-33.55-39.502 22.492-21.294 27.973-26.964c0 0 .808-11.599 7.069-11.164s17.794 21.131 17.794 21.131 51.022 50.584 71.605 61.557c20.582 10.96 38.375 18.792 36.562 40.127l-.014-.013z" fill="#3f1632"/><path d="M307.727 143.558s2.496 3.957 10.779 4.324c9.329.408 18.281-9.859 15.925-17.895-2.789-9.478-15.046-6.663-19.327-4.678-4.295 1.986-9.413 13.721-7.363 18.235l-.014.014z" fill="url(#T)"/><path d="M311.074 136.869s5.299-5.63 20.596-6.541c0 0-5.09 1.224-6.903 2.801 0 0 1.632 9.274-2.733 11.422l-.209-1.591s-12.159 2.394-10.737-6.091h-.014z" fill="url(#U)"/><path d="M347.817 239.693s29.507 26.121 48.667 45.512c5.312 5.371 10.583 11.068 15.576 16.534l.027.041c12.997 14.237 24.138 26.897 29.479 28.311 7.377 1.958 22.283 3.046 22.283 3.046-1.352-1.945-4.406-4.447-4.406-4.447l-1.213-.245-1.59-.312s-.335-.571-.572-1.483c-.418-1.577-.599-4.16 1.534-6.73 3.361-4.066 11.463-2.815 11.463-2.815l-.405 2.271 4.811 2.733s5.215-6.717 4.978-7.968c-.083-.422-.99-1.143-2.203-1.931-2.398-1.564-5.982-3.386-6.777-3.699-1.199-.476-2.092-4.31-5.773-6.336-3.695-2.04-2.566-1.877-3.849-3.046-1.283-1.183-4.099-1.333-5.536-2.584-1.45-1.251-3.848-1.251-3.848-1.251-3.445.707-16.678 11.966-16.678 11.966-6.582-5.793-16.203-26.434-22.465-38.169-1.296-2.42-3.067-4.745-5.131-6.935-7.893-8.403-19.885-14.93-24.208-18.397-5.452-4.379-25.992-31.751-25.992-31.751l-8.172 27.685z" fill="url(#V)"/><path d="M299.192 163.587s-9.566-1.972-16.733 1.849l.711 3.032s12.327-2.42 19.369 3.753c0 0-.655-6.35-3.347-8.634z" class="I"/><path d="M252.172 235.002c3.165 3.943 10.388 10.307 20.429 23.864 10.04 13.57 13.121 29.371 13.121 29.371s-5.02 6.881-4.838 7.737c0 .095.153.286.376.544 1.659 1.877 8.241 7.357 8.241 7.357 23.776 14.1 36.451-25.891 36.451-25.891l-.655-1.033s4.364-5.67 4.099-7.479c-.069-.53-.794-.952-1.785-1.278-2.3-.775-6.01-1.033-6.01-1.033-3.444-9.152-3.179-39.556-3.179-39.556 10.57 2.964 27.61 16.888 27.61 16.888 12.815-8.376 14.391-30.445 14.391-30.445-10.696-10.403-28.503-31.697-31.124-32.988-2.608-1.279-6.233-2.502-13.373-5.208-7.126-2.706-12.508-6.296-12.508-6.296-10.403-3.264-26.606 0-26.606 0-20.248 23.538-27.833 61.489-24.654 65.446h.014z" fill="url(#W)"/><path style="mix-blend-mode:multiply" d="M305.956 213.695l-20.234-5.779c-11.169-3.1-15.59-2.121-15.59-2.121s-6.051-4.405-8.91-4.12c-2.873.286-4.909 4.12-4.909 4.12l4.7-10.66 5.884-6.487 1.966 6.337 16.859 1.55 11.016-1.387s8.939 15.978 9.232 18.547h-.014z" fill="url(#X)" class="B"/><path d="M295.414 153.184s1.143 9.151 1.673 11.558 4.225 5.493 4.225 5.493-4.183 18.643-12.675 26.625c-7.809 7.342-17.082 8.933-17.082 8.933s-2.468-12.36-.879-19.064 12.509-18.275 12.509-18.275-1.702-7.873-3.319-11.803l15.562-3.467h-.014z" fill="url(#Y)"/><path style="mix-blend-mode:multiply" d="M259.368 75.541s-17.919 16.752-20.973 27.862 10.487 19.921 10.487 19.921l9.538-4.678 2.259-24.231-1.311-18.874z" fill="url(#Z)"/><path d="M256.119 149.934c2.384 2.951 3.779 5.848 4.587 6.051 3.71.952 16.65 2.706 30.915-1.414 2.008-.584 3.891-1.359 5.634-2.298 4.002-2.121 7.321-5.031 9.998-8.213 4.462-5.262 7.209-11.232 8.548-15.515 2.51-7.982 1.924-28.433-6.08-40.453-10.305-15.447-38.57-17.514-47.551-16.875 0 0-.739 1.006-1.757 2.597-1.366 2.189-3.277 5.453-4.518 8.675l-.139.408c-.446 1.21-.809 2.393-.99 3.522-1.06 6.445-.92 28.474-2.106 30.405-1.199 1.931-6.609 3.603-7.279 13.652-.655 10.049 8.367 16.494 10.738 19.458z" fill="url(#a)"/><path d="M302.149 117.939s-2.775.775-11.574.694c-8.813-.082-14.446-4.597-14.446-4.597s-.377-16.004 1.882-24.122c0 0 9.218 3.848 16.706 9.083s7.446 18.956 7.446 18.956l-.014-.014z" class="J"/><path d="M255.756 82.897s14.823-2.135 29.967 7.003c15.144 9.151 19.397 27.794 21.544 37.435 3.695 16.603-.042 4.052 4.156-2.706 4.769-7.669-23.148-50.23-23.148-50.23l-23.009-3.168-4.852 2.583-1.046 1.727c-1.45 2.57-2.399 4.188-3.472 6.948l-.14.408z" fill="url(#b)"/><path d="M259.981 98.983s1.561 8.049 0 16.807c0 0-3.584.775-7.335 1.034 0 0 .837-9.07 1.269-17.84l.432-8.771s3.835-.993 5.62 8.771h.014z" class="J"/><path d="M277.76 88.746s7.237 2.828 13.512 6.445c6.289 3.603 11.267 11.164 11.267 11.164s-6.247-7.111-14.098-8.798c-10.347-2.23-10.695-8.798-10.695-8.798l.014-.014z" fill="#000"/><path d="M264.679 59.116c5.634-1.21 6.512 2.57 19.885 14.291 13.387 11.721 37.176 31.914 48.095 45.484 10.932 13.571 34.875 29.371 50.562 41.909 12.523 10.007 12.118 27.358 11.449 33.94 2.273 2.243 4.03 4.514 5.02 6.853 6.554 15.433-9.427 38.196-10.277 39.365 3.026-5.289 4.197-12.958 4.197-12.958-7.265 6.051-18.142 5.915-18.142 5.915s5.257-2.462 6.903-7.126v-.027c.279-.802.446-1.659.474-2.583.181-6.364-8.98-16.834-24.654-26.448-13.721-8.431-19.745-28.147-24.542-40.766-.684-1.795-1.339-3.454-1.994-4.922-5.229-11.681-38.989-40.889-45.864-54.283-6.86-13.394-13.4-34.022-19.564-34.878-6.163-.87-6.874 12.66-6.874 12.66s-.335-15.23 5.312-16.426h.014zm115.893 102.881c-18.407-8.607-34.527-17.446-34.527-17.446 4.658 23.13 31.905 35.626 46.059 47.824.725-7.262.99-24.531-11.532-30.378z" fill="url(#c)"/><path d="M333.664 156.938v.027c4.796 12.618 10.82 32.335 24.542 40.766 15.673 9.613 24.835 20.084 24.654 26.447-.028.925-.196 1.782-.474 2.584.376-.857 8.436-19.241 2.9-29.806-5.675-10.824-28.53-18.167-38.18-25.251-9.636-7.085-13.442-14.767-13.442-14.767z" fill="#4a1c3d"/><path style="mix-blend-mode:multiply" d="M349.742 135.154s3.081 8.553 8.631 13.367 18.477 11.721 18.477 11.721-28.085-12.782-30.804-15.692-7.92-12.578-20.428-19.037-22.897-9.409-32.24-21.239c-9.329-11.83-9.524-28.637-9.524-28.637l52.724 47.687s9.719 9.083 13.15 11.83h.014z" fill="url(#d)"/><path d="M277.761 80.002s-10.403-6.799-18.393-4.46c0 0 .376-13.081 5.661-13.081 7.489 0 12.732 17.527 12.732 17.527v.014z" fill="#3f1632"/><path d="M253.832 27.691c.223.231 2.998 3.114 6.846 7.941l.028.027c5.996 7.492 14.642 19.662 20.527 33.926 9.872 23.878 25.183 47.633 54.383 53.738 12.118 2.53 20.471 5.508 26.09 8.118.168.082.265.136.265.136 7.711 3.617 10.166 6.527 10.166 6.527-2.622-5.167-10.933-10.28-31.306-26.597s-47.439-45.865-57.13-60.129c-9.538-14.033-29.256-23.402-29.869-23.687z" fill="url(#e)"/><path d="M259.981 115.792s-.125-9.722-2.537-11.53-4.853 8.403-4.853 8.403 4.56-1.523 7.39 3.114v.013z" fill="url(#f)"/><path d="M277.76 114.036s3.57-9.763 9.775-9.247 10.431 11.395 10.431 11.395h-2.97s-10.305-5.262-17.236-2.148z" fill="url(#g)"/><path d="M207.34 403.925c2.817 7.221 55.039 102.799 59.975 106.226 4.937 3.44 11.281-1.713 11.281-1.713s-13.386-39.162-16.566-59.422c-3.165-20.275-12.675-34.008-12.675-34.008 11.713-12.361 30.036-28.46 44.483-40.753.069-.054.111-.081.111-.081l21.977-18.262c-1.046-31.601-27.471-44.995-27.471-44.995l.683-2.366c-.739 2.447-6.679 9.573-6.679 9.573-10.207 7.9-77.936 78.595-75.119 85.801z" fill="url(#h)"/><path d="M241.602 326.719c29.939 2.923 56.712 45.865 56.712 45.865s16.315-15.61 19.202-16.671c2.886-1.047 7.404-.775 7.404-.775 6.777 6.119 24.543 36.225 26.286 39.175.028.055.056.096.07.136.041.068.055.109.055.109 40.69-8.498 51.79-55.9 51.79-55.9s-13.735-17.269-33.899-31.765l-8.785-6.227-30.12-20.438-5.006-3.277c-7.656 32.077-35.796 26.924-35.796 26.924l-.306.34-.628.666-.335.354c-.766.815-1.91 1.958-3.374 3.317-3.082 2.883-7.572 6.663-12.968 10.09-10.57 6.704-30.302 8.077-30.302 8.077z" fill="url(#i)"/><path d="M429.462 329.929c0 .163.028.286.042.395.655 6.023 1.994 14.345 4.685 24.04l.377 1.347.209.707c.404 1.427.878 2.91 1.255 4.093.056.176.111.367.181.557.056.177.112.34.153.49l.084.244c.028.082.056.15.07.218.028.095.07.19.097.299l.182.544c2.147 6.323 4.852 13.067 8.297 20.016l.613 1.197a135.86 135.86 0 0 0 5.09 9.273 5.65 5.65 0 0 1 .209.367l.209.381c.042.068.07.122.098.163 0 .014 0 .041.028.055v.013c8.952 14.903 19.801 27.441 30.915 36.986 9.747 8.363 19.675 14.4 28.711 17.718 27.903 10.212 39.7 11.259 54.133 10.09 14.154-1.156 15.715-37.53 1.924-48.177-3.207-2.475-7.739-5.575-12.871-9.029l-26.131-17.636c-6.262-4.42-11.853-8.662-15.66-12.266l-1.116-1.101c-1.227-1.237-2.217-2.393-2.914-3.44-3.389-5.113-6.986-11.694-10.696-18.045-2.035-3.481-4.113-6.907-6.233-9.994l-.055-.095c-2.022-2.924-4.058-5.534-6.108-7.601-8.186-8.213-16.204-14.631-16.204-14.631s-8.464-1.129-11.462 2.814c-3.012 3.957-.962 8.213-.962 8.213s9.412 6.65 21.251 18.847c1.646 1.7 3.347 3.494 5.062 5.412.976 1.074 1.938 2.175 2.914 3.304a156.77 156.77 0 0 1 3.724 4.419c4.755 5.847 8.241 11.3 10.695 16.195 1.241 2.475 2.217 4.8 2.97 6.976v.068c1.492 4.297 2.092 7.968 2.05 10.864-.028 1.673-.251 3.074-.641 4.202-.293.857-.67 1.537-1.13 2.053-.404.476-1.115.857-2.064 1.156-4.476 1.401-14.446.653-24.863-4.473a54.2 54.2 0 0 1-17.639-13.87c-.614-.721-1.214-1.469-1.813-2.244 0-.027 0-.041-.042-.068l-1.171-1.618c-3.807-5.453-6.777-11.109-9.092-16.576-1.172-2.746-2.176-5.452-3.026-8.049 0-.028-.028-.041-.028-.055l-.251-.761c-4.56-14.156-4.936-25.292-4.936-25.292l-9.762-8.73s-.083 3.712.6 10.035h.042z" fill="url(#j)"/><path d="M254.236 92.213s.168-1.931 1.855-1.346c1.394.489 3.89 8.118 3.89 8.118s-1.157-10.987-3.165-12.17c-1.032-.598-1.98.829-2.371 2.448l-.209 2.951zm23.524 21.822s2.663-4.011 8.91-3.59c6.247.435 9.803 5.398 10.765 5.453s5.104-.626 5.104-.626-4.058 2.149-6.163 1.89c-2.12-.258-6.875-2.583-11.63-3.141s-7 0-7 0l.014.014z" fill="#000"/><path d="M268.85 123.624s-5.634-7.52-10.138-6.269c-4.49 1.238-5.55 6.609-5.55 6.609s9.524 1.713 15.674-.34h.014z" class="J"/><path d="M255.282 119.422s-2.802 2.257-2.635 4.27 3.458 4.256 6.972 4.473c0 0-5.996-1.591-6.01-4.909 0-2.066 1.673-3.834 1.673-3.834z" fill="#d16365"/><path d="M268.85 123.624s-1.492 2.828-9.232 4.542c0 0-5.773-.408-6.01-4.909 0 0 2.496-1.102 15.242.353v.014z" fill="url(#k)"/><path d="M267.873 124.685s-3.877-.843-5.215 2.652c0 0 2.844-.504 5.215-2.652z" fill="#cb5254"/><path d="M288.274 117.938s-6.108-3.725-8.673-4.12l-1.841.218s4.406 2.774 10.528 3.916l-.014-.014z" fill="url(#l)"/><path d="M259.981 115.791s-3.026-.326-5.089.082c0 0 2.677-1.183 3.96-1.034.851.095 1.129.952 1.129.952z" fill="url(#m)"/><path d="M259.981 115.79s-2.231-3.399-4.783-3.576-1.812 3.196-2.259 3.631-2.802-1.686-3.597-4.787c0 0 1.548 2.067 2.677 2.149 0 0 .432-4.161 3.207-3.74 2.775.436 4.755 6.31 4.755 6.31v.013z" fill="#000"/><path d="M276.951 130.803s-2.607 1.686-8.631 1.455-9.901-2.679-15.73.394c0 0 .558 1.509 7.251 1.251 6.694-.245 13.917-1.577 17.11-3.114v.014z" fill="#c74244"/><path d="M277.788 131.252s-2.412 8.145-6.359 12.755c-4.504 5.262-11.448 4.691-13.456 2.502-1.339-1.455-1.576-6.84-1.576-6.84l21.377-8.417h.014z" fill="#d66a6b"/><path d="M277.788 131.251s-2.65 6.622-7.154 9.981-12.187 3.155-13.261 1.768c-1.088-1.387-.767-5.494-.767-5.494l-1.366-3.78s14.39.816 21.725-2.937l.837.449-.014.013z" fill="#ffedd1"/><path d="M275.375 131.428s-2.036 2.162-1.98 2.964c.07.802 2.078 1.672 2.078 1.672s2.035-3.209 2.3-4.827c0 0-.223-.544-.836-.448s-1.576.639-1.576.639h.014z" fill="url(#n)"/><path d="M278.611 130.966s-2.217-1.21-5.828-.938c0 0 1.464 2.733 5.828.938z" fill="url(#o)"/><path d="M256.606 137.506s.153 4.365 1.827 6.078c0 0-3.054-.462-1.827-6.078z" fill="url(#p)"/><g style="mix-blend-mode:multiply" opacity=".2" class="D"><path d="M296.18 158.978s-4.769 6.242-13.707 6.459l-2.608-8.77s10.11-.313 15.562-3.468l.767 5.793-.014-.014z"/></g><g style="mix-blend-mode:multiply" class="C D"><path d="M361.678 219.488s5.564 11.572-3.863 29.181l-8.074-7.248s7.586-7.873 10.291-24.081l1.646 2.148z"/></g><g style="mix-blend-mode:multiply" class="C D"><path d="M254.766 345.486s24.863 8.363 41.82 24.462c0 0-11.574-19.54-32.546-34.198l-9.287 9.736h.013z"/></g><path d="M271.429 205.155s-.809-12.197 1.436-18.248 9.412-17.473 9.412-17.473-10.026 10.687-11.615 17.296.641 17.772.753 18.411l.014.014z" class="D"/><path d="M271.54 205.795s11.421-1.373 20.052-8.389l.028-.028s9.998 7.044 14.335 16.318c0 0 8.395-22.532 6.01-39.692 0 0-6.54-8.689-12.745-10.402 0 0 .028.027.056.04.042.041.083.082.139.15a.26.26 0 0 1 .098.109c0 .013 0 .013.028.027.725.884 2.189 3.644.544 10.606-1.981 8.376-8.632 17.895-12.495 22.654l-.725.884c-3.681 4.365-15.325 7.723-15.325 7.723z" fill="url(#q)"/><path d="M271.43 205.155s-4.281-11.626-6.93-12.32c-2.636-.693-9.957 11.164-9.957 11.164s8.98-16.14 15.06-25.849 12.955-12.306 12.955-12.306l.599 2.624s-10.57 10.878-12.508 18.276c-1.938 7.383.753 18.411.753 18.411h.028z" fill="url(#r)"/><path style="mix-blend-mode:multiply" opacity=".5" d="M271.542 205.795s-7.46 17.949-4.658 29.289 22.256 36.075 25.086 47.919c2.831 11.857 1.506 17.011 1.102 18.289-.39 1.292 3.305 2.787 3.305 2.787s-2.608-.339-4.407-2.27 1.451-9.913-1.533-19.962c-4.714-15.841-24.71-42.765-25.491-47.402-.795-4.636 2.385-19.281 6.61-28.636l-.014-.014z" fill="url(#s)"/><path d="M270.509 200.234l-2.524 15.379s2.384-6.894 3.988-9.94l-1.478-5.425.014-.014z" class="I"/><g style="mix-blend-mode:screen" opacity=".43"><path d="M260.706 35.66c5.996 7.492 14.642 19.662 20.526 33.926 9.873 23.878 25.184 47.632 54.384 53.738 12.118 2.529 20.47 5.507 26.09 8.118-1.687-.871-11.128-5.671-20.875-8.58-10.765-3.196-34.401-13.19-46.031-32.676-11.615-19.458-19.076-41.419-34.094-54.527z" fill="#a4c822"/></g><path style="mix-blend-mode:soft-light" d="M386.722 212.009s2.831-7.928-.599-15.488l7.572-.517s3.946 1.646 4.978 3.617c0 0-3.11-4.8-9.036-9.287-.251-.19.279.163 0 0l.878 1.142-10.43-1.74-6.289-3.345s8.869 5.072 11.574 10.103 1.366 15.515 1.366 15.515h-.014z" fill="url(#t)"/><path style="mix-blend-mode:soft-light" d="M394.475 182.393s-.753-6.255-3.082-10.987l-2.385-1.101s2.901 5.072 3.249 12.863l2.218-.789v.014z" fill="url(#u)"/><path style="mix-blend-mode:soft-light" d="M334.807 154.436s-3.583-10.525-12.006-17.079l7.516 1.482s6.233.816 8.952.122l.391-2.434s4.699 5.004 6.373 10.675 3.179 8.675 3.179 8.675l-2.468-2.72s-8.716-.571-10.222 0l-1.729 1.251.014.028z" fill="url(#v)"/><g style="mix-blend-mode:multiply" class="C"><path d="M412.06 301.739l.028.041c12.997 14.237 24.138 26.896 29.479 28.311 7.377 1.958 22.283 3.046 22.283 3.046l-5.619-4.692-2.162-1.795c-.418-1.577-.599-4.161 1.534-6.73 3.361-4.066 11.463-2.815 11.463-2.815l-.084.449 5.09 3.766s4.615-5.929 4.378-7.18c-.084-.421-.99-1.142-2.203-1.93-2.231.19-4.755.489-7.6.938-16.385 2.57-20.136 3.807-20.136 3.807s-13.665-2.964-14.725-9.695c-6.582-5.793-16.204-26.434-22.465-38.169-1.296-2.42-3.067-4.746-5.131-6.935 0 0 9.622 17.242 11.727 28.583 2.12 11.327-5.857 11-5.857 11z" fill="url(#w)"/></g><path d="M267.999 216.876s9.692-1.795 15.869 3.699c0 0-5.508 1.115-15.869-1.292v-2.407z" fill="url(#x)"/><path d="M267.999 221.514s9.078 4.161 13.136 11.49c0 0-9.134.734-14.475-9.328l1.325-2.162h.014z" fill="url(#y)"/><g style="mix-blend-mode:multiply" opacity=".13" class="D"><path d="M400.054 470.013l1.91 3.345 1.241 2.176 1.227 2.121 1.185 2.067 2.273 3.971 2.622 4.568.976 1.7 1.381 2.407.864 1.496 5.815 10.13h25.323s-3.876-12.388-10.57-24.408-17.444-20.097-19.02-24.734c-1.325-3.889-5.257-39.216-10.682-70.559 0 0 8.311 73.387 6.206 81.124-2.064 7.506-10.277 4.746-10.738 4.596h-.013z"/></g><g style="mix-blend-mode:multiply" opacity=".13" class="D"><path d="M207.34 403.928c2.817 7.221 55.039 102.799 59.975 106.226 4.937 3.44 11.282-1.714 11.282-1.714s-13.387-39.161-16.566-59.422c-3.166-20.274-12.676-34.008-12.676-34.008 11.713-12.36 30.036-28.46 44.483-40.752-2.329 1.7-39.742 28.868-56.824 33.532-17.612 4.813-29.674-3.862-29.674-3.862z"/></g><g style="mix-blend-mode:multiply" class="B G"><path d="M298.315 372.584s16.315-15.61 19.201-16.671c2.887-1.047 7.405-.775 7.405-.775 6.777 6.119 24.542 36.225 26.285 39.175-1.617-3.358-16.608-28.256-17.026-35.408 0 0-11.853-36.007.07-47.47 12.508-12.02 26.188-10.769 26.188-10.769-17.682-12.374-35.127-23.715-35.127-23.715-7.655 32.077-35.795 26.924-35.795 26.924s-1.673 1.917-4.644 4.677c0 0 18.379 19.54 19.439 37.408.641 10.973-5.996 26.624-5.996 26.624z"/></g><path style="mix-blend-mode:multiply" d="M288.247 305.235s9.371 5.683 20.638 4.31c11.281-1.373 21.432-29.317 21.432-29.317l-5.006-3.277c-7.655 32.077-35.795 26.924-35.795 26.924l-.307.34-.627.666-.335.354z" fill="url(#z)" class="B"/><path style="mix-blend-mode:multiply" opacity=".6" d="M324.921 355.138s-10.277-6.84-20.722-10.497c0 0 6.721 6.989 6.986 10.035s-3.723 9.409-3.723 9.409 8.213-7.533 10.068-8.172 7.405-.775 7.405-.775h-.014z" fill="url(#AA)"/><g style="mix-blend-mode:soft-light" opacity=".7" class="F"><path d="M362.291 310.319l4.769-.218.753-.095-7.237-6.241h-.111c-20.666-1.822-32.756-10.593-32.881-10.674l-.321-.232-2.803 4.882.223.177c13.763 10.892 29.772 12.401 37.581 12.401h.027zm3.891-.816c-4.169.34-24.124 1.129-40.816-11.939l2.134-3.712c2.064 1.401 13.861 8.879 32.797 10.565l5.885 5.086z"/><path d="M354.469 303.656l.432-.544-30.468-22.518-.419.544 30.455 22.518zm41.207 42.139l.599-.339c-10.625-17.718-31.821-35.559-32.03-35.749l-.46.517c.209.177 21.321 17.962 31.891 35.571z"/><path d="M304.548 309.964c2.259 0 4.546-.313 6.749-1.102 10.445-3.753 16.413-24.544 16.664-25.427l-.669-.177c-.056.217-6.122 21.335-16.232 24.979-10.123 3.644-22.506-3.223-22.632-3.291l-.348.585c.097.054 8.018 4.446 16.482 4.446l-.014-.013z"/><path d="M323.931 354.849l.586-.367c-.056-.082-5.481-8.458-8.256-19.771-2.774-11.354-4.727-26.054-4.741-26.203l-.697.081c.014.15 1.966 14.876 4.755 26.271 2.789 11.436 8.283 19.907 8.339 19.989h.014z"/><path d="M320.612 348.379l.07-.68c-.084 0-8.981-.966-13.289-6.432-5.899-7.465-6.791-31.751-6.791-31.996l-.698.028c.028 1.006.907 24.748 6.945 32.39 4.49 5.697 13.386 6.649 13.763 6.69zm-23.413 14.726c.112-.109 11.644-10.783 25.17-11.3l-.028-.68c-13.805.53-25.504 11.381-25.63 11.49l.488.49z"/><path d="M300.783 370.106l.613-.313c-18.741-35.326-49.516-44.6-49.837-44.695l-.195.652c.306.096 30.817 9.301 49.405 44.356h.014zm48.178 20.317c33.118-6.499 51.762-54.187 51.943-54.663l-.655-.244c-.181.476-18.686 47.823-51.427 54.241l.139.666z"/></g><path style="mix-blend-mode:multiply" d="M277.788 203.592l-.962.625-9.566 47.756-15.088-16.97 11.448-24 8.367-8.472 5.801 1.061z" fill="url(#AB)" class="B"/><g style="mix-blend-mode:multiply" class="B G"><path d="M384.1 323.113s-2.538 40.712-9.371 55.479c0 0 14.656-22.287 14.474-30.894s-5.103-24.585-5.103-24.585z"/></g><path style="mix-blend-mode:multiply" d="M281.274 296.519c1.659 1.876 8.241 7.356 8.241 7.356 23.775 14.101 36.451-25.89 36.451-25.89l-.655-1.033s4.364-5.67 4.099-7.479c-.069-.53-.795-.952-1.785-1.278-2.3-.775-6.01-1.034-6.01-1.034-3.444-9.151-3.179-39.555-3.179-39.555l-14.209-3.93c.474.299 8.227 5.167 10.332 11.667 2.162 6.703 3.682 27.426.544 35.544-5.271 13.652-29.381 17.351-29.381 17.351s15.897 3.25 41.889-20.03c-.111.354-2.175 5.983-8.38 12.646-7.6 8.2-30.26 15.665-37.957 15.665z" fill="url(#AC)" class="B"/><path style="mix-blend-mode:multiply" d="M271.541 205.794s11.42-1.374 20.052-8.39l.028-.027s10.918-16.182 10.444-25.156c-.362-6.554-2.287-8.295-2.789-8.58.042.04.084.081.14.149.027.027.069.068.097.109 0 .014 0 .014.028.027.725.884 2.189 3.644.544 10.606-1.98 8.377-8.632 17.895-12.494 22.654l-.725.884c-3.682 4.365-15.325 7.724-15.325 7.724z" fill="url(#AD)" class="C"/><path style="mix-blend-mode:multiply" d="M358.206 214.606s-13.61.38-22.2-3.604c-8.589-3.997-14-7.465-14-7.465s17.528 14.808 25.811 14.944c8.269.122 10.389-3.862 10.389-3.862v-.013z" fill="url(#AE)" class="B"/><path d="M308.66 254.936s-1.715-14.835-7.92-19.608c0 0-.279 16.521 7.92 19.608z" fill="url(#AF)"/><path d="M310.251 255.82s8.046 2.258 10.5 8.281c0 0-7.293-2.991-9.357-5.058s-1.143-3.223-1.143-3.223z" fill="url(#AG)"/><path d="M308.662 255.82s-4.365 9.016-.725 21.131c0 0 4.462-9.79 3.458-17.908 0 0-1.534-2.964-2.733-3.223z" fill="url(#AH)"/><path d="M306.486 254.407s-5.619-4.256-16.97-7.085c0 0 5.285 7.601 14.265 9.274 0 0 4.392.34 2.705-2.189z" fill="url(#AI)"/><path d="M306.876 258.445s-8.464 9.532-9.44 19.581c0 0-3.696.081-4.756-2.747 0 0 2.775-8.594 13.806-17.609l.39.775z" fill="url(#AJ)"/><path d="M345.21 197.867s4.699 6.105 4.532 14.141c0 0-4.225-5.67-5.982-10.837s-1.214-6.255-1.214-6.255l2.664 2.951z" fill="url(#AK)"/><path d="M341.542 193.802s-1.436 5.426-12.229 12.429c0 0-1.674-3.563 2.342-8.853 4.142-5.439 8.451-5.167 8.451-5.167l1.436 1.591z" fill="url(#AL)"/><path d="M338.697 190.892s-5.006-3.087-11.113-2.76-7.949 2.76-7.949 2.76 4.421 1.469 10.389 1.482c5.968.027 8.966-1.183 8.966-1.183l-.279-.313-.014.014z" fill="url(#AM)"/><path d="M242.244 167.652s7.112 6.718 5.522 13.938c0 0-8.687-4.038-9.719-14.645l4.183.721.014-.014z" fill="url(#AN)"/><path d="M237.433 166.838s1.492 8.865-2.008 16.589c0 0-3.667-10.865-1.645-17.378l3.653.789z" fill="url(#AO)"/><path d="M341.472 199.377s1.185 7.519-1.185 13.924-5.592 9.831-5.592 9.831 2.44 2.57 5.243 1.183c0 0 5.313-12.66 2.538-25.02l-.99.068-.014.014z" fill="url(#AP)"/><path d="M277.788 203.591l-2.37-4.378s-5.02-2.597-9.162-1.741-13.47 10.824-13.387 13.829 5.467 7.465 5.369 8.24c-.084.775-1.325 2.924-1.855 3.005s-7.181-1.509-9.022-.734-7 12.496-6.735 17.908 6.875 10.307 8.06 10.307 21.363-19.091 23.301-23.265-4.281-8.948-5.062-8.948-2.356 3.087-2.105 3.862 4.03 1.686 5.313 3.862-19.397 17.011-19.397 17.011l22.144-38.55 1.673.816 3.235-1.224z" fill="#1d0815"/><path style="mix-blend-mode:soft-light" d="M255.519 228.123l-8.283 17.011s-5.633-.802-6.554-4.963 4.1-13.421 4.1-13.421l10.751 1.36-.014.013z" fill="url(#AQ)"/><path d="M491.376 339.34c-3.668 3.168-8.353 5.67-13.485 7.642 2.566 2.638 5.257 5.548 7.977 8.716 7.962-2.57 12.619-4.841 12.619-4.841l-7.056-11.422-.055-.095zM512.391 372c-4.114 1.659-8.172 3.1-12.104 4.311 3.709 7.383 5.09 13.529 5.034 17.908 20.512-3.903 22.743-9.94 22.743-9.94l-15.659-12.265-.014-.014zm41.721 29.859s-10.431 9.192-39.226 12.279-56.866-9.654-56.866-9.654l10.988 13.761s64.229 8.933 90.988-12.401l-5.884-3.985zm16.092 12.282s-4.587 11.857-28.377 18.044c-23.775 6.187-56.837 1.387-56.837 1.387l6.651 5.031s60.226 7.56 83.346-14.373c0 0-1.645-6.907-4.783-10.089zm-54.383 36.63c42.168 4.664 60.77-12.917 60.77-12.917v.013c.181 5.657-1.185 9.097-1.185 9.097-12.118 10.905-42.684 9.097-42.684 9.097l-16.901-5.29zm-70.726-67.888l-.002-.004h-.028l.03.004zm0 0l.152.299.46.894c1.45 2.76 4.323 7.9 5.299 9.64l.042.075.167.306c.083.136.125.218.125.218v.013c.391.245 5.843 3.44 25.254 2.829-6.066-2.992-12.285-7.466-17.64-13.87-8.294.247-13.426-.352-13.859-.404zm-10.529-27.172a40.83 40.83 0 0 1-.376-1.346s3.709-.014 9.37-.449a102.73 102.73 0 0 0 3.305 8.866c-3.263.149-6.623.177-10.068.081l-.181-.544c-.028-.095-.056-.19-.098-.299a1.15 1.15 0 0 0-.048-.157 2.04 2.04 0 0 1-.021-.06.96.96 0 0 1-.032-.095 1.08 1.08 0 0 0-.052-.15 10.22 10.22 0 0 0-.101-.326l-.052-.164-.039-.125c-.044-.14-.089-.286-.143-.432l-.049-.156-1.206-3.937-.207-.702-.002-.005z" fill="url(#AR)" class="E"/><path style="mix-blend-mode:multiply" d="M428.863 319.893l.599 10.035c0 .163.028.285.042.394l7.265 12.891s3.905 22.286 15.688 40.099c3.402 5.168 7.474 9.954 12.313 13.707 2.44 1.917 5.089 3.549 7.934 4.841 17.682 8.022 25.797 6.309 29.521 1.74 1.227-1.495 1.98-3.304 2.454-5.18.348-1.401.53-2.829.641-4.202l-3.82-3.196-12.969-10.81-22.464-18.724c-4.128 3.685-7.53 8.621-8.59 15.148-1.674-1.727-8.674-9.45-13.638-21.906 0-.027-.028-.041-.028-.054l-.251-.762c-4.56-14.155-4.936-25.292-4.936-25.292l-9.761-8.729z" fill="url(#AS)" class="B"/><path style="mix-blend-mode:multiply" d="M482.298 431.327c9.747 8.349 19.675 14.387 28.711 17.705 27.903 10.212 39.7 11.259 54.133 10.089 14.154-1.156 15.715-37.53 1.924-48.177-3.207-2.474-7.739-5.575-12.871-9.029-6.804-1.523-14.432-2.529-18.797-.815-9.147 3.603 10.933 36.754 6.345 45.906-4.574 9.164-44.567-4.365-59.445-15.679z" fill="url(#AT)" class="B"/><g style="mix-blend-mode:multiply"><path d="M95.408 110.473l-4.225 8.948-23.078-8.948 1.994-9.192 25.309 9.192z" fill="#f2eeeb"/></g><g style="mix-blend-mode:multiply" class="C"><path d="M190.328 149.935s-7.906.748-13.903-.721c-5.982-1.468-17.653-14.441-17.653-14.441l31.556 15.162z" fill="url(#AU)"/></g><path d="M326.747 274.966c.837-.884 1.618-1.822 2.301-2.856.335-.53.642-1.06.865-1.713.097-.326.223-.68.084-1.21-.056-.136-.112-.286-.196-.408l-.223-.245c-.167-.177-.321-.258-.474-.367-1.241-.734-2.44-1.047-3.667-1.387l-3.696-.734 1.004.897-1.338-9.274-1.172-9.3-1.004-9.328-.808-9.41c-.572 3.127-.879 6.296-.977 9.464l.196 9.505 1.046 9.45 1.798 9.355.196.843.808.055 3.556.367c1.158.163 2.385.354 3.305.748.098.054.237.095.265.149l.112.055c.055.027.083.299.041.544-.069.503-.265 1.06-.488 1.604-.446 1.088-.99 2.162-1.561 3.223l.027-.027zm-76.011-105.628c-2.105-.911-4.239-1.591-6.4-2.176l-6.484-1.55-6.554-1.142-6.666-.884c1.869 1.346 4.002 2.216 6.136 2.937a51.72 51.72 0 0 0 6.512 1.741c2.203.448 4.42.761 6.651.965s4.491.299 6.791.095l.014.014z" fill="#ffefc2"/><path d="M477.11 324.014c2.706 2.488 5.285 5.112 7.753 7.832 2.427 2.733 4.714 5.589 6.499 8.716 3.611 6.337 7.153 12.755 11.03 18.982 1.924 3.128 3.918 6.228 6.107 9.22 1.102 1.495 2.231 2.978 3.5 4.405.642.708 1.297 1.401 2.05 2.067.795.68 1.562 1.21 2.315 1.754l18.407 12.388 18.281 12.469c3.012 2.108 6.01 4.256 8.91 6.486 1.451 1.115 2.887 2.257 4.254 3.427 1.38 1.196 2.663 2.352 3.639 3.753 1.994 2.883 3.444 6.214 4.546 9.586 1.088 3.4 1.757 6.935 1.938 10.498.474 7.139-1.366 14.441-5.41 20.56 4.588-5.78 6.805-13.231 6.777-20.601-.014-3.699-.572-7.384-1.562-10.96-1.018-3.576-2.412-7.044-4.49-10.266-1.074-1.646-2.51-3.019-3.877-4.27-1.394-1.264-2.83-2.447-4.295-3.603-2.914-2.312-5.884-4.528-8.882-6.704-6.01-4.324-12.132-8.499-18.267-12.632l-18.463-12.252c-.753-.517-1.52-1.033-2.133-1.536-.642-.544-1.255-1.17-1.869-1.822-1.199-1.306-2.329-2.72-3.416-4.161-2.176-2.897-4.226-5.902-6.248-8.948-4.002-6.092-7.781-12.347-11.699-18.547-2.036-3.141-4.518-5.902-7.126-8.526-2.607-2.611-5.382-5.058-8.283-7.343l.014.028zm-38.403 5.912c-.306 4.297.07 8.621.753 12.877.684 4.269 1.827 8.458 3.277 12.551 1.506 4.079 3.472 8.009 5.871 11.666 2.412 3.658 5.438 6.922 8.869 9.614-2.608-3.481-5.007-6.962-6.987-10.688-.516-.911-.934-1.89-1.422-2.815l-.711-1.414-.614-1.455c-.404-.965-.878-1.903-1.255-2.896l-1.115-2.951c-1.464-3.943-2.678-7.982-3.779-12.061-1.074-4.093-2.022-8.227-2.873-12.442l-.014.014z" fill="#f3735c"/><path d="M571.181 348.149c-1.059-19.581 7.656-37.163 7.656-37.163l-2.887-1.333c-21.265-9.64-45.096-16.29-45.096-16.29l-9.691 28.256 50.018 26.53z" fill="url(#AV)"/><path d="M530.618 307.573c-1.98 8.199-9.455 14.046-9.455 14.046l-6.261-3.739s-5.647-3.467-2.552-15.121c3.082-11.544 10.863-11.544 10.863-11.544l7.642 2.148s2.217 4.025-.237 14.21z" fill="url(#AW)"/><g style="mix-blend-mode:multiply" class="B"><path d="M525.583 291.881s2.399 4.745-1.436 14.536c-3.374 8.634-8.171 11.395-10.096 10.729-1.924-.68-3.862-6.174-1.436-15.271 2.426-9.11 9.733-12.061 12.968-9.994z" fill="#41a6bc"/></g><path style="mix-blend-mode:multiply" d="M571.181 348.148c-1.059-19.581 7.656-37.163 7.656-37.163l-2.887-1.333s-11.56 12.048-10.319 31.806l-37.873-27.318-6.595 7.478 50.018 26.53z" fill="url(#AX)" class="C"/><path d="M554.726 321.131c2.162 0 3.724-1.033 4.309-2.923.698-2.258-.055-4.528-2.091-6.378-2.287-2.08-5.578-3.141-6.875-2.651-.446.163-.711.489-.753.911-.042.367.237.707.627.748.307.027.6-.15.712-.408.669-.136 3.123.516 5.117 2.203 1.283 1.074 2.65 2.855 1.939 5.194-.67 2.189-2.957 2.08-4.254 1.822-4.043-.802-8.561-4.8-8.115-8.567.153-1.278.669-2.162 1.603-2.706 2.873-1.672 8.493.463 8.548.49.363.136.767-.027.907-.381a.67.67 0 0 0-.391-.884c-.251-.095-6.317-2.406-9.775-.394-1.311.762-2.064 2.012-2.273 3.712-.53 4.515 4.532 9.111 9.232 10.049.543.109 1.073.163 1.561.163h-.028z" fill="url(#AY)"/><path d="M543.767 307.425a.72.72 0 0 0 .502-.204c.265-.272.265-.708-.014-.966l-3.5-3.291a.73.73 0 0 0-.99.014c-.265.272-.265.707.014.965l3.5 3.291a.73.73 0 0 0 .488.191z" fill="url(#AZ)"/><path d="M538.746 317.594c.084 0 .168 0 .237-.041l4.63-1.672c.363-.136.544-.517.404-.87a.69.69 0 0 0-.892-.395l-4.63 1.673c-.362.136-.543.516-.404.87a.72.72 0 0 0 .655.449v-.014z" fill="url(#Aa)"/><path d="M556.651 327.057c.14 0 .265-.041.391-.109.529-.34.725-.476-1.423-4.365-.181-.326-.599-.448-.948-.272-.335.177-.46.585-.279.925l1.562 3.114c0 .136.028.286.111.422.14.203.349.299.586.299v-.014z" fill="url(#Ab)"/><path d="M560.082 314.426h.042l6.512-.381c.39-.027.683-.34.655-.721s-.362-.679-.739-.639l-6.512.381c-.39.027-.683.34-.655.721.027.367.334.639.697.639z" fill="url(#Ac)"/><path d="M554.462 306.58a.7.7 0 0 0 .614-.367l1.283-2.366c.181-.326.056-.748-.293-.925a.71.71 0 0 0-.948.286l-1.283 2.366c-.181.326-.056.748.293.925a.66.66 0 0 0 .32.081h.014z" fill="url(#Ad)"/><path style="mix-blend-mode:soft-light" d="M531.147 305.098l-5.787-2.339s1.673-4.759.669-9.396l5.452 2.067s.6 4.215-.334 9.655v.013z" fill="url(#Ae)"/></g><defs><linearGradient id="B" x1="90.168" y1="336.052" x2="103.337" y2="271.594" xlink:href="#Af"><stop stop-color="#b39d8b"/><stop offset="1" stop-color="#c7b7a9"/></linearGradient><linearGradient id="C" x1="84.835" y1="299.388" x2="87.662" y2="272.159" xlink:href="#Af"><stop stop-color="#b39d8b"/><stop offset="1" stop-color="#c7b7a9"/></linearGradient><linearGradient id="D" x1="93" y1="130" x2="90" y2="36" xlink:href="#Af"><stop stop-color="#f2eeeb"/></linearGradient><linearGradient id="E" x1="104.656" y1="107.159" x2="104.656" y2="43.652" xlink:href="#Af"><stop stop-color="#ff9522"/><stop offset="1" stop-color="#ffd62c"/></linearGradient><linearGradient id="F" x1="112.144" y1="100.117" x2="98.991" y2="61.002" xlink:href="#Af"><stop stop-color="#b31238"/><stop offset="1" stop-color="#f24c26"/></linearGradient><linearGradient id="G" x1="113.064" y1="100.264" x2="103.816" y2="78.257" xlink:href="#Af"><stop stop-color="#b31238"/><stop offset="1" stop-color="#f24c26"/></linearGradient><linearGradient id="H" x1="117.97" y1="92.335" x2="117.97" y2="71.762" xlink:href="#Af"><stop stop-color="#cc9b9d"/><stop offset="1" stop-color="#ffcfc5"/></linearGradient><linearGradient id="I" x1="282.99" y1="146.739" x2="282.99" y2="17.234" xlink:href="#Af"><stop stop-color="#1a590d"/><stop offset="1" stop-color="#659707"/></linearGradient><linearGradient id="J" x1="266.298" y1="92.824" x2="266.298" y2="29.73" xlink:href="#Af"><stop stop-color="#cc9b9d"/><stop offset="1" stop-color="#ffcfc5"/></linearGradient><linearGradient id="K" x1="475.953" y1="404.498" x2="475.953" y2="354.676" xlink:href="#Af"><stop stop-color="#51002f"/><stop offset="1" stop-color="#ff1650"/></linearGradient><linearGradient id="L" x1="540.192" y1="420.06" x2="519.95" y2="343.466" xlink:href="#Af"><stop stop-color="#b31238"/><stop offset="1" stop-color="#f24c26"/></linearGradient><linearGradient id="M" x1="172.187" y1="201.675" x2="172.187" y2="70.497" xlink:href="#Af"><stop stop-color="#ffa98e"/><stop offset="1" stop-color="#ffc5a4"/></linearGradient><linearGradient id="N" x1="276.826" y1="186.906" x2="224.646" y2="186.906" xlink:href="#Af"><stop stop-color="#ff9522"/><stop offset="1" stop-color="#ffd62c"/></linearGradient><linearGradient id="O" x1="162.592" y1="137.181" x2="108.738" y2="137.181" xlink:href="#Af"><stop stop-color="#ffa98e"/><stop offset=".99" stop-color="#ff9a81"/></linearGradient><linearGradient id="P" x1="260.762" y1="176.668" x2="251.991" y2="176.668" xlink:href="#Af"><stop stop-color="#9d45c2"/><stop offset="1" stop-color="#ffa483"/></linearGradient><linearGradient id="Q" x1="274.596" y1="190.968" x2="238.785" y2="190.968" xlink:href="#Af"><stop stop-color="#6f9f06"/><stop offset="1" stop-color="#ffa483"/></linearGradient><linearGradient id="R" x1="301.644" y1="112.858" x2="320.132" y2="48.349" xlink:href="#Af"><stop stop-color="#1a590d"/><stop offset=".661" stop-color="#96bf02"/><stop offset="1" stop-color="#a9cb2f"/></linearGradient><linearGradient id="S" x1="390.39" y1="503.993" x2="390.39" y2="303.889" xlink:href="#Af"><stop stop-color="#ffa98e"/><stop offset="1" stop-color="#ffc5a4"/></linearGradient><linearGradient id="T" x1="322.481" y1="147.56" x2="319.593" y2="123.753" xlink:href="#Af"><stop stop-color="#ffa98e"/><stop offset="1" stop-color="#ffb19d"/></linearGradient><linearGradient id="U" x1="322.663" y1="144.47" x2="321.087" y2="131.479" xlink:href="#Af"><stop stop-color="#ff937f"/><stop offset="1" stop-color="#e8868d"/></linearGradient><linearGradient id="V" x1="413.133" y1="333.137" x2="413.133" y2="212.008" xlink:href="#Af"><stop stop-color="#ffa98e"/><stop offset="1" stop-color="#ffc5a4"/></linearGradient><linearGradient id="W" x1="305.956" y1="306.893" x2="305.956" y2="168.101" xlink:href="#Af"><stop stop-color="#ff9522"/><stop offset="1" stop-color="#ffd62c"/></linearGradient><linearGradient id="X" x1="305.972" y1="201.173" x2="256.313" y2="201.173" xlink:href="#Af"><stop stop-color="#6f9f06"/><stop offset="1" stop-color="#ffa483"/></linearGradient><linearGradient id="Y" x1="285.723" y1="205.793" x2="285.723" y2="153.184" xlink:href="#Af"><stop stop-color="#ffa98e"/><stop offset=".99" stop-color="#ff9a81"/></linearGradient><linearGradient id="Z" x1="249.314" y1="123.324" x2="249.314" y2="75.541" xlink:href="#Af"><stop stop-color="#97879d"/><stop offset="1" stop-color="#ffcfc5"/></linearGradient><linearGradient id="a" x1="281.233" y1="157.182" x2="281.233" y2="71.122" xlink:href="#Af"><stop stop-color="#ffa98e"/><stop offset="1" stop-color="#ffc5a4"/></linearGradient><linearGradient id="b" x1="311.966" y1="103.403" x2="255.756" y2="103.403" xlink:href="#Af"><stop stop-color="#ff937f"/><stop offset="1" stop-color="#e8868d"/></linearGradient><linearGradient id="c" x1="330.316" y1="240.958" x2="330.316" y2="58.898" xlink:href="#Af"><stop offset=".01" stop-color="#8b313b"/><stop offset="1" stop-color="#5c2c45"/></linearGradient><linearGradient id="d" x1="330.359" y1="160.242" x2="330.359" y2="75.637" xlink:href="#Af"><stop stop-color="#97879d"/><stop offset="1" stop-color="#ffcfc5"/></linearGradient><linearGradient id="e" x1="294.353" y1="131.204" x2="318.922" y2="25.015" xlink:href="#Af"><stop stop-color="#1a590d"/><stop offset=".661" stop-color="#96bf02"/><stop offset="1" stop-color="#a9cb2f"/></linearGradient><linearGradient id="f" x1="256.119" y1="115.072" x2="258.151" y2="104.283" xlink:href="#Af"><stop stop-color="#d68498"/><stop offset="1" stop-color="#ff817f"/></linearGradient><linearGradient id="g" x1="287.703" y1="115.899" x2="289.722" y2="105.165" xlink:href="#Af"><stop stop-color="#d68498"/><stop offset="1" stop-color="#ff817f"/></linearGradient><linearGradient id="h" x1="261.584" y1="511.334" x2="261.584" y2="308.551" xlink:href="#Af"><stop stop-color="#ffa98e"/><stop offset="1" stop-color="#ffc5a4"/></linearGradient><linearGradient id="i" x1="296.925" y1="387.207" x2="317.756" y2="271.806" xlink:href="#Af"><stop stop-color="#3d2517"/><stop offset="1" stop-color="#a68c77"/></linearGradient><linearGradient id="j" x1="577" y1="505.5" x2="502.74" y2="316.957" xlink:href="#Af"><stop stop-color="#b31238"/><stop offset=".653" stop-color="#f24c26"/></linearGradient><linearGradient id="k" x1="262.127" y1="127.56" x2="260.727" y2="121.553" xlink:href="#Af"><stop stop-color="#d68498"/><stop offset="1" stop-color="#ff817f"/></linearGradient><linearGradient id="l" x1="288.274" y1="115.885" x2="277.76" y2="115.885" xlink:href="#Af"><stop stop-color="#d68498"/><stop offset="1" stop-color="#ff817f"/></linearGradient><linearGradient id="m" x1="259.981" y1="115.356" x2="254.906" y2="115.356" xlink:href="#Af"><stop stop-color="#d68498"/><stop offset="1" stop-color="#ff817f"/></linearGradient><linearGradient id="n" x1="275.852" y1="136.025" x2="275.461" y2="130.886" xlink:href="#Af"><stop offset=".01" stop-color="#97423b"/><stop offset="1" stop-color="#97554f"/></linearGradient><linearGradient id="o" x1="276.128" y1="131.764" x2="275.319" y2="129.211" xlink:href="#Af"><stop stop-color="#d68498"/><stop offset="1" stop-color="#ff817f"/></linearGradient><linearGradient id="p" x1="257.763" y1="143.734" x2="256.327" y2="137.571" xlink:href="#Af"><stop offset=".01" stop-color="#97423b"/><stop offset="1" stop-color="#97554f"/></linearGradient><linearGradient id="q" x1="291.969" y1="213.696" x2="291.969" y2="163.602" xlink:href="#Af"><stop stop-color="#ffdb22"/><stop offset="1" stop-color="#ffe32c"/></linearGradient><linearGradient id="r" x1="268.864" y1="205.155" x2="268.864" y2="165.844" xlink:href="#Af"><stop stop-color="#ffdb22"/><stop offset="1" stop-color="#ffe32c"/></linearGradient><linearGradient id="s" x1="296.377" y1="254.937" x2="264.821" y2="254.937" xlink:href="#Af"><stop stop-color="#9d68c2"/><stop offset="1" stop-color="#ded8e5"/></linearGradient><linearGradient id="t" x1="386.22" y1="212.009" x2="386.22" y2="186.404" xlink:href="#Af"><stop stop-color="#cc9b9d"/><stop offset="1" stop-color="#ffcfc5"/></linearGradient><linearGradient id="u" x1="391.741" y1="183.168" x2="391.741" y2="170.305" xlink:href="#Af"><stop stop-color="#cc9b9d"/><stop offset="1" stop-color="#ffcfc5"/></linearGradient><linearGradient id="v" x1="336.006" y1="155.904" x2="336.006" y2="136.555" xlink:href="#Af"><stop stop-color="#cc9b9d"/><stop offset="1" stop-color="#ffcfc5"/></linearGradient><linearGradient id="w" x1="478.464" y1="297.646" x2="406.19" y2="297.646" xlink:href="#Af"><stop offset=".01" stop-color="#ff8e72"/><stop offset="1" stop-color="#ffa082"/></linearGradient><linearGradient id="x" x1="275.934" y1="220.833" x2="275.934" y2="216.59" xlink:href="#Af"><stop stop-color="#e5654a"/><stop offset="1" stop-color="#db8136"/></linearGradient><linearGradient id="y" x1="273.898" y1="233.017" x2="273.898" y2="221.514" xlink:href="#Af"><stop stop-color="#e5654a"/><stop offset="1" stop-color="#db8136"/></linearGradient><linearGradient id="z" x1="309.289" y1="309.763" x2="309.289" y2="15.997" xlink:href="#Af"><stop stop-color="#a190b4"/><stop offset="1" stop-color="#9d68c2"/></linearGradient><linearGradient id="AA" x1="314.56" y1="364.085" x2="314.56" y2="344.641" xlink:href="#Af"><stop stop-color="#a190b4"/><stop offset="1" stop-color="#9d68c2"/></linearGradient><linearGradient id="AB" x1="277.789" y1="227.254" x2="252.172" y2="227.254" xlink:href="#Af"><stop stop-color="#6f9f06"/><stop offset="1" stop-color="#ffa483"/></linearGradient><linearGradient id="AC" x1="329.424" y1="265.285" x2="281.274" y2="265.285" xlink:href="#Af"><stop stop-color="#6f9f06"/><stop offset="1" stop-color="#ffa483"/></linearGradient><linearGradient id="AD" x1="302.079" y1="184.717" x2="271.541" y2="184.717" xlink:href="#Af"><stop stop-color="#9d45c2"/><stop offset="1" stop-color="#ffa483"/></linearGradient><linearGradient id="AE" x1="358.208" y1="211.011" x2="322.006" y2="211.011" xlink:href="#Af"><stop stop-color="#6f9f06"/><stop offset="1" stop-color="#ffa483"/></linearGradient><linearGradient id="AF" x1="304.7" y1="254.936" x2="304.7" y2="235.342" xlink:href="#Af"><stop stop-color="#e5654a"/><stop offset="1" stop-color="#db8136"/></linearGradient><linearGradient id="AG" x1="315.396" y1="264.101" x2="315.396" y2="255.82" xlink:href="#Af"><stop stop-color="#e5654a"/><stop offset="1" stop-color="#db8136"/></linearGradient><linearGradient id="AH" x1="309.01" y1="276.951" x2="309.01" y2="255.82" xlink:href="#Af"><stop stop-color="#e5654a"/><stop offset="1" stop-color="#db8136"/></linearGradient><linearGradient id="AI" x1="298.189" y1="256.61" x2="298.189" y2="247.322" xlink:href="#Af"><stop stop-color="#e5654a"/><stop offset="1" stop-color="#db8136"/></linearGradient><linearGradient id="AJ" x1="299.778" y1="278.026" x2="299.778" y2="257.67" xlink:href="#Af"><stop offset=".01" stop-color="#8b313b"/><stop offset="1" stop-color="#5c2c45"/></linearGradient><linearGradient id="AK" x1="346.116" y1="212.008" x2="346.116" y2="194.916" xlink:href="#Af"><stop stop-color="#e5654a"/><stop offset="1" stop-color="#db8136"/></linearGradient><linearGradient id="AL" x1="335.253" y1="206.231" x2="335.253" y2="192.211" xlink:href="#Af"><stop stop-color="#e5654a"/><stop offset="1" stop-color="#db8136"/></linearGradient><linearGradient id="AM" x1="329.313" y1="192.374" x2="329.313" y2="188.104" xlink:href="#Af"><stop stop-color="#e5654a"/><stop offset="1" stop-color="#db8136"/></linearGradient><linearGradient id="AN" x1="243.025" y1="181.576" x2="243.025" y2="166.932" xlink:href="#Af"><stop stop-color="#e5654a"/><stop offset="1" stop-color="#db8136"/></linearGradient><linearGradient id="AO" x1="235.453" y1="183.427" x2="235.453" y2="166.049" xlink:href="#Af"><stop stop-color="#e5654a"/><stop offset="1" stop-color="#db8136"/></linearGradient><linearGradient id="AP" x1="332.255" y1="221.172" x2="347.246" y2="203.431" xlink:href="#Af"><stop offset=".01" stop-color="#8b313b"/><stop offset="1" stop-color="#5c2c45"/></linearGradient><linearGradient id="AQ" x1="255.519" y1="235.956" x2="240.571" y2="235.956" xlink:href="#Af"><stop stop-color="#d9edff"/><stop offset="1" stop-color="#e3ffff"/></linearGradient><linearGradient id="AR" x1="505.399" y1="339.34" x2="505.399" y2="456.173" xlink:href="#Af"><stop stop-color="#fff"/><stop offset="1" stop-color="#f2eeeb"/></linearGradient><linearGradient id="AS" x1="467.089" y1="407.453" x2="467.089" y2="319.891" xlink:href="#Af"><stop stop-color="#a68c77"/><stop offset="1" stop-color="#ded5cd"/></linearGradient><linearGradient id="AT" x1="529.458" y1="459.502" x2="529.458" y2="400.202" xlink:href="#Af"><stop stop-color="#a68c77"/><stop offset="1" stop-color="#ded5cd"/></linearGradient><linearGradient id="AU" x1="190.328" y1="142.443" x2="158.772" y2="142.443" xlink:href="#Af"><stop stop-color="#ffa98e"/><stop offset=".99" stop-color="#ff9a81"/></linearGradient><linearGradient id="AV" x1="550" y1="348.149" x2="550" y2="293.363" xlink:href="#Af"><stop stop-color="#ff9522"/><stop offset="1" stop-color="#ffd62c"/></linearGradient><linearGradient id="AW" x1="518.393" y1="319.719" x2="528.427" y2="292.629" xlink:href="#Af"><stop stop-color="#1a590d"/><stop offset=".661" stop-color="#96bf02"/><stop offset="1" stop-color="#a9cb2f"/></linearGradient><linearGradient id="AX" x1="578.837" y1="328.907" x2="521.163" y2="328.907" xlink:href="#Af"><stop stop-color="#9d45c2"/><stop offset="1" stop-color="#ffa483"/></linearGradient><linearGradient id="AY" x1="551.589" y1="321.131" x2="551.589" y2="306.378" xlink:href="#Af"><stop stop-color="#e5654a"/><stop offset="1" stop-color="#db8136"/></linearGradient><linearGradient id="AZ" x1="542.01" y1="307.425" x2="542.01" y2="302.774" xlink:href="#Af"><stop stop-color="#e5654a"/><stop offset="1" stop-color="#db8136"/></linearGradient><linearGradient id="Aa" x1="541.061" y1="317.594" x2="541.061" y2="314.562" xlink:href="#Af"><stop stop-color="#e5654a"/><stop offset="1" stop-color="#db8136"/></linearGradient><linearGradient id="Ab" x1="555.842" y1="327.057" x2="555.842" y2="322.23" xlink:href="#Af"><stop stop-color="#e5654a"/><stop offset="1" stop-color="#db8136"/></linearGradient><linearGradient id="Ac" x1="563.345" y1="314.426" x2="563.345" y2="312.685" xlink:href="#Af"><stop stop-color="#e5654a"/><stop offset="1" stop-color="#db8136"/></linearGradient><linearGradient id="Ad" x1="555.104" y1="306.58" x2="555.104" y2="302.854" xlink:href="#Af"><stop stop-color="#e5654a"/><stop offset="1" stop-color="#db8136"/></linearGradient><linearGradient id="Ae" x1="531.677" y1="299.224" x2="525.374" y2="299.224" xlink:href="#Af"><stop stop-color="#d9edff"/><stop offset="1" stop-color="#e3ffff"/></linearGradient><linearGradient id="Af" gradientUnits="userSpaceOnUse"/></defs></svg>