<svg xmlns="http://www.w3.org/2000/svg" xmlns:xlink="http://www.w3.org/1999/xlink" width="1440" height="260" fill="none" xmlns:v="https://vecta.io/nano"><style><![CDATA[.B{opacity:.7}.C{opacity:.5}.D{fill-rule:evenodd}.E{fill:#ac98fd}.F{fill:#597022}.G{fill:#a23e38}]]></style><g clip-path="url(#Al)"><path fill="#fff" d="M-240 0h1920v260H-240z"/><path d="M1680 0H-242v260h1922V0z" fill="url(#A)" class="C"/><path d="M190.96 164.795l13.919-.95 8.188-.558h.154l.668-.051 18.975-1.297-5.949-14.547-5.024-12.27-3.761-9.209 4.788 8.946.141.263 6.436-1.9-9.273-19.309-6.192-12.892 2.227-1.803-.026-.026c-.424-.533-6.437-8.201-8.862-17.634l-.238-.95-9.805 23.089-.783 1.848.751 1.303c.378-1.162.776-2.227 1.161-3.215 1.964-4.922 3.876-7.605 3.972-7.727l-2.239 7.534-.026.09-1.63 5.48.09.18-1.919 9.048-2.676 12.616-.083.379 1.322 1.168-.443 3.382-.468 3.516-.597 4.492-2.541 19.111-.251 1.893h-.006z" fill="url(#B)"/><path d="M191.685 117.077l1.687 5.134.289-.809 5.461-15.652-4.126 6.283-3.311 5.044z" fill="url(#C)"/><path style="mix-blend-mode:multiply" d="M193.757 143.792l33.151 3.6-5.025-12.263-9.009 2.246-4.018-13.611.43 12.18-15.253-5.095-.084.378 1.322 1.175-.449 3.382-.468 3.516-.597 4.492z" fill="url(#D)" class="C"/><path style="mix-blend-mode:multiply" d="M227.23 145.378l-13.2-44.356 2.227-1.803-4.319 2.638-11.744 1.591-.025.09-1.63 5.48.09.174-1.919 9.048 30.52 27.138z" fill="url(#E)" class="C"/><path d="M148.594 177.519l25.341-1.739 2.24.353v-19.322l1.091 5.564 2.56 13.085.135.673 41.59 1.682-2.407-2.599c-2.06-2.432-4.37-5.59-6.764-9.158l-.782-1.168c-4.377-6.596-9.004-14.4-13.014-21.459l-4.441-7.931-6.616-12.296 3.536-1.167-.559-1.682-8.028-26.445-3.105-10.242-.02-.051 3.626.95-2.496-13.463-6.283-33.703-.032-.193-.135-.712-.115-.667-.404 1.893-10.871 50.715-.064.321s.006 0 .019-.006l2.195-.603-4.569 15.305-6.43 21.569 2.271 2.521 7.265-19.463-4.409 20.092-6.796 30.931-2.785 12.7v.051l-.731 5.673-.013-.007z" fill="url(#F)"/><path d="M91 173.118l12.732-1.546 12.276-1.496-1.707-10.774-.539-3.401-.071-.437 2.246 4.435.533 1.052-.141-.616-3.016-12.841-1.9-8.143-.494-2.137 1.386-.61-8.804-40.768-.084.481-6.334 35.712-.071.321 1.861-.61.462-1.226-1.245 4.03-3.69 12.007-2.939 9.517 2.317-.604 2.317-6.693-2.406 11.506L91 173.118z" fill="url(#G)"/><path style="mix-blend-mode:multiply" d="M152.111 159.095l46.474-15.67-4.441-7.932-6.616-12.295 3.536-1.168-16.294 3.452-3.157-10.024-1.142 13.464-11.564-.757-6.796 30.93z" fill="url(#H)" class="C"/><path style="mix-blend-mode:multiply" d="M160.215 103.446l22.267-9.542-3.105-10.242-6.893-1.713-9.843 6.488-.065.321s.007 0 .02-.007l2.194-.603-4.569 15.305-.006-.007z" fill="url(#I)" class="C"/><path style="mix-blend-mode:multiply" d="M115.938 159.899l.532 1.052-.141-.616-.391-.436z" fill="url(#J)" class="C"/><path style="mix-blend-mode:multiply" d="M91 173.118l12.732-1.547 12.276-1.495-1.707-10.775-.539-3.401-7.098-13.014-.853 15.684-12.122 1.707L91 173.118z" fill="url(#K)" class="C"/><g style="mix-blend-mode:multiply" class="C D"><path d="M148.594 177.519h.014l-.001.007-.013-.007zm.014 0l.73-5.666v-.051l2.785-12.7.003-.011-.015.005 6.796-30.931.013.001 4.408-20.087-7.265 19.463-2.271-2.521 6.429-21.568-.006-.006.01-.004 4.565-15.295-2.194.603c-.013.006-.02.007-.02.007l.001-.001.064-.32v-.001l10.871-50.715.404-1.893.115.667.135.712.032.193 6.283 33.703 2.496 13.463-3.626-.95.017.043.009.002 3.105 10.242-.006.003v.003l8.028 26.445.557 1.676.003-.001-.003.001.002.006-3.533 1.166 6.614 12.29.577 1.049.101-.759.068-.509.376-2.874-1.322-1.167.083-.379 2.676-12.616 1.919-9.048-.09-.18 1.63-5.48.026-.09 2.239-7.534c-.096.122-2.008 2.804-3.972 7.726l-1.161 3.215-.751-1.302.783-1.849 9.805-23.089.035.141.036.143.004.017.002.009.03.12.015.061.059.234.032.128.025.095c2.425 9.433 8.438 17.102 8.862 17.634l.026.026-.01.007.01-.006-2.227 1.803 6.192 12.891 9.273 19.309-5.407 1.596 3.142 10.56-1.792-1.594 1.477 3.607 5.949 14.548-18.975 1.296-.668.051h-.154l-2.416.165.947 1.439.391.584.391.584c2.394 3.568 4.704 6.726 6.764 9.158.847 1.001 1.656 1.861 2.407 2.599l-41.59-1.682-.135-.673-2.56-13.085-1.091-5.564v19.322l-2.24-.353-25.327 1.739zm44.764-55.309l-1.687-5.134 3.311-5.044 4.126-6.282-5.461 15.652-.289.808zm-89.64 49.362L91 173.118l2.689-12.841 2.406-11.506-2.317 6.693-2.317.604 2.939-9.517 3.69-12.007 1.245-4.03-.462 1.226-1.861.61.071-.321 6.334-35.712.084-.481 8.804 40.768-1.386.61.494 2.137 1.899 8.143 3.016 12.84.001.001.14.614-.532-1.05-2.246-4.435.071.437.539 3.401 1.707 10.774-12.276 1.496z" fill="#96bf02"/></g><path d="M216.91 168.22l12.447-1.229 7.323-.717.138-.011.596-.052 16.97-1.67-5.32-18.754-4.493-15.81-3.363-11.867 4.281 11.528.126.339 5.756-2.45-8.293-24.889-5.537-16.613 1.991-2.318s-.006-.011-.023-.034c-.379-.683-5.756-10.576-7.925-22.731l-.212-1.228-8.769 29.761-.7 2.387.671 1.681c.339-1.498.695-2.875 1.039-4.143 1.756-6.347 3.466-9.802 3.552-9.957l-2.003 9.704-.023.12-1.457 7.059.08.23-1.716 11.661-2.393 16.258-.074.487 1.182 1.51-.396 4.361-.419 4.534-.534 5.79-2.272 24.63-.224 2.439-.006-.005z" fill="url(#L)"/><path d="M258.257 154.298l-.057 6.783-.476-.958-11.558-28.458 12.091 22.633z" fill="url(#M)"/><path style="mix-blend-mode:multiply" d="M214 167.888l41.29 1.658-10.726-39.562-17.336 1.544.137-21.153-4.7 16.866-3.007-2.766-.074.488 1.182 1.503-.402 4.362-.419 4.533L214 167.888z" fill="url(#N)" class="C"/><path style="mix-blend-mode:multiply" d="M243.077 102.637l-5.538-16.614 1.991-2.324-3.862 3.397-10.502 2.049-.023.12-1.457 7.059.08.23-1.716 11.661 21.027-5.578z" fill="url(#O)" class="C"/><path d="M164.986 184.621l22.662-2.243 2.003.453v-24.9l.976 7.168 2.289 16.865.121.867L230.229 185l-2.152-3.351c-1.842-3.133-3.908-7.202-6.048-11.799l-.7-1.509c-3.914-8.505-8.052-18.559-11.644-27.655l-9.888-26.07 3.162-1.51-.499-2.169-7.179-34.088-2.778-13.199-.017-.063 3.242 1.228-2.232-17.354-5.618-43.436-.029-.247-.12-.924-.104-.855-.361 2.439-9.721 65.363-.058.413s.006 0 .017-.012l1.963-.78-4.086 19.73-5.75 27.798 2.031 3.254 6.497-25.084-3.943 25.899-6.077 39.866-2.491 16.367v.063l-.654 7.311-.006-.006z" fill="url(#P)"/><path d="M113.482 178.951l11.386-1.997 10.978-1.922-1.526-13.894-.483-4.378-.063-.563 2.009 5.716.476 1.354-.126-.792-2.697-16.55-1.699-10.502-.442-2.754 1.24-.781-7.874-52.543-.074.614-5.664 46.03-.063.413 1.664-.78.413-1.584-1.113 5.193-3.3 15.478-2.628 12.269 2.071-.781 2.072-8.625-2.152 14.829-2.405 16.55z" fill="url(#Q)"/><path style="mix-blend-mode:multiply" d="M168.133 160.881l51.275 9.217c-1.429-3.61-19.604-55.482-19.604-55.482l3.162-1.509-14.57 4.447-2.823-12.917-1.022 17.353-10.341-.975-6.077 39.866z" fill="url(#R)" class="C"/><path style="mix-blend-mode:multiply" d="M175.379 89.148l19.913-12.298-2.777-13.199-6.164-2.215-8.803 8.361-.057.413s.005 0 .017-.011l1.963-.78-4.086 19.729h-.006z" fill="url(#S)" class="C"/><path style="mix-blend-mode:multiply" d="M135.783 161.914l.477 1.354-.127-.792-.35-.562z" fill="url(#T)" class="C"/><path style="mix-blend-mode:multiply" d="M113.482 178.951l11.386-1.997 10.978-1.922-1.526-13.894-.483-4.378-6.346-16.78-.764 20.217-10.84 2.204-2.405 16.55z" fill="url(#U)" class="C"/><g style="mix-blend-mode:multiply" class="C D"><path d="M164.986 184.621h.007l-.001.006-.006-.006zm.007 0l.653-7.305v-.063l2.491-16.367v-.004l-.004-.001 6.077-39.866h.005l3.942-25.894-6.497 25.084-2.031-3.254 5.75-27.798.001-.006h-.001l.001-.001 4.085-19.723-1.963.78c-.011.012-.017.012-.017.012l.058-.413 9.721-65.363.361-2.439.104.855.12.924.029.247 5.618 43.436 2.232 17.354-3.242-1.228.016.059.013.005 2.777 13.199-.01.006 7.178 34.081.499 2.169-.017.009.024-.008-3.161 1.509.095.273 9.785 25.797 6.411 15.737 3.849-21.062.419-4.534.084-.908.313-3.448-1.182-1.51.074-.487 2.393-16.258 1.716-11.661-.08-.23 1.457-7.059.023-.12 2.003-9.704c-.086.155-1.796 3.61-3.552 9.957-.344 1.268-.7 2.645-1.039 4.143l-.671-1.681.7-2.387 8.769-29.761.053.311v.003l.159.914c2.169 12.154 7.546 22.048 7.925 22.731.007.009.012.017.016.022l.004.006.001-.001-.001.002-1.988 2.324 5.538 16.613 8.292 24.889-5.756 2.45-.126-.339-4.281-11.528 3.363 11.867 4.493 15.81 5.32 18.754-.44.043 1.346 4.962-34.036-1.367.074.162.24.515.124.268.014.031.323.695c2.14 4.597 4.206 8.666 6.048 11.799.758 1.291 1.481 2.399 2.152 3.351l-37.192-2.169-.121-.867-2.289-16.865-.025-.179-.951-.171v18.082l-2.003-.453-22.655 2.243zm93.207-23.54l.057-6.783-12.091-22.633 11.558 28.458.476.958zm-133.332 15.874l-11.386 1.997 2.405-16.551 2.152-14.828-2.072 8.625-2.071.78 2.628-12.269 3.3-15.477 1.113-5.194-.413 1.584-1.664.781.063-.413 5.664-46.03.074-.614 7.874 52.543-1.24.78.442 2.755 1.699 10.502 2.697 16.55h0l.126.791-.476-1.353h0l-2.009-5.716.063.562.483 4.379 1.526 13.893-10.978 1.923z" fill="#96bf02"/></g><g class="C"><g class="D"><path d="M699.007 271.959l285.434 16.455 10.328.586 52.891-85.647h.01l-163.448-26.7-23.565-2.317-.293.272-55.413 41.667-1.356.601-7.3 3.218-14.718 7.93-2.654 1.43-2.103 1.136c-.022.007-.052.022-.074.044L699 271.951l.007.008z" fill="#c1d0c0"/><path style="mix-blend-mode:multiply" d="M772.495 233.544l211.946 54.87 10.328.586.623-48.207-51.851 1.429-37.608-15.085 34.061 1.334 55.427 9.896 52.239-35.014h.01l-163.448-26.7-23.565-2.317-.293.272 98.592 40.113-19.461 8.099-3.269 1.686-117.466-11.537-5.27.821 112.489 31.738-17.452-2.375-104.939-26.262-7.301 3.217-14.718 7.931-2.653 1.429-2.104 1.129-.073.051-4.259 2.903.015-.007zm165.571 12.805c2.074-.557 24.034 1.04 24.034 1.04l25.434 6.693-49.468-7.733z" fill="url(#V)" class="B"/><path style="mix-blend-mode:screen" opacity=".8" d="M699.008 271.959l285.434 16.455 10.327.587 52.891-85.648h.01l-163.448-26.7-23.565-2.316-.293.271-55.412 41.667-1.356.601-7.301 3.218-14.718 7.931-2.653 1.429-2.104 1.129-.073.051L699 271.952l.008.007z" fill="url(#W)"/></g><path d="M1008.41 205.958l-5.83 17.65-5.604 16.162 23.754-.513h.21l2.74-.044h.31c.05-.007.09-.007.13.007l1.45-.036c.09 0 .17.014.26.014l2.14-.051c.04.022.08.022.13.015l1.84-.044c.07 0 .14.014.21.014l2.02-.044c.06.022.14.015.22.015l1.67-.037c.09.022.19.015.29.015l1.4-.029h.86l1.85-.044 1.02-.008 1.27-.029c.12.015.24.015.37.015l1.92-.044c.11.022.23.014.35.014l1.46-.036 2.03-.022h.42c.24-.015.46 0 .71 0l1.97-.044a5.19 5.19 0 0 0 .66 0l1.71-.037c.29.015.6.008.9 0l1.41-.029c.15.015.32.015.48.007l1.81-.044c.05 0 .09.022.13.022l2.07-.044c.22.015.43.015.64 0l1.92-.044h.47l2.35-.051.38.015 1.49-.037.58.007 2.38-.051h.82l1.91-.044 1.45-.015 1.28-.029.43.015 2.64-.059h.33.74l.74-.022h.91l5.36-.088 8.25-.139h.01l2.99-.044 2.02-.022 2.04-.022 2.59-.044 1.31-.022 1.31-.022 1.58-.015h.01l1.6-.029 1.07-.015 1.08-.014 3.26-.052 1.66-.029 5.02-.081 2.27-.051 2.28-.029 2.29-.03 23.19-.395h.02l7.97-.132h.21l9.52-.176 1.1-.015 2.45-.044 4.11-.066h.07l7.26-.124 2.78-.059 1.94-.015 5.74-.102 12.6-.25 3.07-.044 11.01-.109h18.3.12l73.09.395 39.49.14 22.81-.154 1.69-.03 53.38-1.209 2.9-.051 1.09-.052 2.85-.051c.34-.037.69-.044 1.04-.051l1.39-.03a27.94 27.94 0 0 0 1.75-.066l3.04-.058.51-.015 2.54-.073h.28l9.19-.301 1.58-.029 1.43-.059a26.62 26.62 0 0 0 1.52-.058l1.72-.03c.28-.036.55-.044.81-.044l.87-.014c.28 0 .55-.008.82-.044l1.08-.022 2.42-.081c.27-.036.53-.044.79-.044l1.01-.022c.26-.029.52-.036.77-.036l.76-.015c.24-.037.48-.044.72-.044l.74-.015a16.82 16.82 0 0 1 1.19-.051l.72-.015 1.57-.095c1.27-.059 46.15 9.331 77.99 15.862l1.2.241 28.07 5.578h.22l2-.066h.2l3.39-.117h.16c.21-.037.4-.037.59-.037h.14c.18 0 .38-.036.57-.036h.11c.2 0 .38 0 .57-.037h.12c.28 0 .57 0 .86-.037h.1c.17 0 .35 0 .52-.036l66.56 26.242c.27-.03.51-.03.77-.03.12-.036.23-.036.34-.036a7.26 7.26 0 0 0 .94-.074c.82-.036 1.52-.11 2.1-.146.22-.037.42-.037.59-.074.11 0 .2-.029.3-.029.07 0 .14-.037.22-.037h.11c.08-.036.15-.036.2-.036.02-.037.06-.037.1-.037s.09-.037.14-.037.09-.036.12-.036c.04 0 .07-.037.09-.037.03 0 .06-.036.06-.036.05-.037.06-.074 0-.096 0 0 0-.036-.01-.036-.1-.074-.19-.14-.25-.25-.16-.168-.24-.41-.26-.733-.01-.132-.02-.241 0-.381 0-.095.02-.205.03-.315.02-.095.03-.169.05-.278.22-1.012.78-2.317 1.63-3.878a47.85 47.85 0 0 1 1.32-2.265l.55-.901c2.44-3.797 5.96-8.583 10.11-13.861.26-.315.52-.63.77-.975l3.38-4.192c.47-.601.96-1.195 1.44-1.781.04-.037.08-.11.12-.176l1.05-1.254 4.3-5.152c.45-.558.92-1.085 1.39-1.642a62.98 62.98 0 0 1 1.58-1.862l1.48-1.752.91-1.055 1.72-2.009 3.13-3.613 1.06-1.232c.19-.205.38-.425.56-.63l1.61-1.862 2.42-2.741c.53-.601 1.07-1.239 1.6-1.796a49.57 49.57 0 0 1 1.57-1.796l1.57-1.759 1.54-1.737 1.52-1.693c.26-.279.5-.564.76-.843l1.47-1.664c.28-.315.56-.601.84-.953.45-.461.89-.96 1.33-1.451l2.77-3.078 1.06-1.159 1.49-1.634 1.23-1.341.58-.638 2.23-2.448c.29-.315.57-.601.84-.916l2.84-3.086c.13-.147.26-.293.39-.425l.71-.785c.11-.11.22-.242.33-.351.21-.213.41-.426.6-.638l.55-.609c-.6.037-1.21.11-1.81.147l-271.62-82.153-12.29 16.397-52.6-35.08-22.05 3.313-65.08-44.587-10.46-23.807-9.31-6.208-58.21 92.266-.43.675c-.69-.33-1.34-.689-1.98-.997l-1.98-.345-1.09-.205-1.34-.249-13.54 9.419-16.79 11.691-.02-.037-3.68-8.972v-.022l-11.8 8.32-.46-.367-17.27-14.08-26.03 18.097-2.2 1.524-37.68-38.07-55.08 62.786-4.53 15.495-27.24 26.013-.01-.007z" fill="#c1d0c0"/><path style="mix-blend-mode:multiply" d="M1094.21 238.223l3-.044 2.03-.036 2.05-.037 2.58-.037 1.31-.022 1.32-.014 1.58-.022h.01l1.59-.022 1.08-.015 1.07-.022 3.27-.051 1.65-.022 5.02-.081 2.27-.037 2.28-.036 2.3-.037 6.67-12.739 6.41-12.006 5.23-9.595c8.46-15.37 16.18-28.52 23.23-39.206 8.07-12.256 15.3-21.344 21.79-26.908.83-.711 1.64-1.356 2.44-1.949l-.02-.037-3.68-8.972c1.27 4.215-6.95 16.023-21.63 33.035-5.2 6.033-11.2 12.71-17.87 19.908l-3.24 3.482c-.03.036-.09.168-.19.395-.01.03-.03.066-.03.096-.13.307-.29.74-.47 1.268-1.37 3.826-4.2 12.504-4.2 12.504-15 16.016-48.06 40.702-48.83 41.274-.01 0-.02.014-.02.014v-.029z" fill="url(#X)" class="B"/><path style="mix-blend-mode:multiply" d="M1105.55 152.186c.28-.029.57 0 .88.074l-.24-.396-.64.322z" fill="url(#Y)" class="B"/><path style="mix-blend-mode:multiply" d="M1151.19 179.203c-1.09 4.523-3.14 13.824-4.26 24.13 8.46-15.371 16.18-28.52 23.23-39.207-.77-1.51-1.02-3.503-1.09-4.83-5.2 6.032-11.21 12.702-17.88 19.907z" fill="url(#Z)" class="B"/><path style="mix-blend-mode:multiply" d="M1135.29 224.942l6.41-12.013c1.21-8.4 3.15-18.647 6.26-30.242-.37.403 0 .271-.37.674-3.85 12.878-8.78 27.926-12.3 41.581z" fill="url(#a)" class="B"/><path style="mix-blend-mode:multiply" d="M1105.55 152.187a2.61 2.61 0 0 1 .88.073l-.24-.396-.64.323z" fill="url(#b)" class="B"/><g class="D"><path style="mix-blend-mode:multiply" d="M1033.07 206.89l-2.46 30.969-.11 1.282-1.57 19.805.53-.879 11.66-19.072.11-.184 9.44-15.458 36.17-35.029 5.03-4.874 9.91-9.595 2.78-2.682 2.77-2.698.76-.725 4.34-9.067 7.25-6.707 11.55-10.665 1.71-1.575-37.69-38.071.55 7.557-4.36 16.719-6.37 9.719-.56.865-23.43 35.762-1.05 4.478-22.18 25.852-4.78 4.273z" fill="url(#c)" class="B"/><path style="mix-blend-mode:multiply" d="M1311.48 239.917l39.93-.073 1.24-3.174.43-1.092 4.29-10.951 12.11-30.902.78-.528 38.62-26.123 9.66-6.545 4.95-8.041 5.65-5.065 2.65-2.375 8.51-7.637 8.96-8.041-52.6-35.08-7.43 13.289-9.54 17.063-14.46 22.165-8.55 2.097-16.09 32.404-27.06 54.468-.37.755-1.68 3.386z" fill="url(#d)" class="B"/><path style="mix-blend-mode:multiply" d="M1174.5 240.166l38.97-.066 8.01-3.863.17-.088 68.4-32.991 25.97-44.836s1.1-5.131.13-9.418c-.82-3.621 41.94-38.108 54.88-48.435l.99-.799h.01l2.58-2.067-65.07-44.587-10.47-23.807-9.31-6.208-5 33.937-2.76 4.713-3.64 9.668-22.28 12.717-35.14 83.164-6.15.535 9.09 11.463.04.059-46.72 57.597-2.71 3.306.01.007zm111.77-88.411l7.78.476-24.33 10.13-27.84 4.207 6.48-4.713 37.91-10.1h0z" fill="url(#e)" class="B"/><path style="mix-blend-mode:multiply" d="M1159.92 237.285l8.86 1.151.74-1.459 24.44-48.413 2.8-5.533 30.2-53.72.69-1.231 3.89-12.82-.42.674-1.98-.997-1.98-.344-1.09-.205-3.65 15.971-.3.565-16.27 30.843-10.66 20.223-.49.74-13.06 19.907-13.1 20.868-8.56 13.633-.08.132.02.015z" fill="url(#f)" class="B"/><path style="mix-blend-mode:multiply" d="M1136.97 183.089l41.46-48.904.55-.645-17.83-13.428 4.44 10.951-3.26 5.57-5.38 14.704-19.98 31.752z" fill="url(#g)" class="B"/></g><path style="mix-blend-mode:multiply" d="M1041.19 238.993l44.61-.366.16-.279 4.48-7.791 45.92-46.339-6.58 4.831-2.21-6.832-43.86 34.941-33.04 6.194-9.37 15.458-.11.183z" fill="url(#h)" class="B"/><path style="mix-blend-mode:multiply" d="M1172.19 238.37l2.31 1.796 2.68-3.306-4.11.066-.87 1.444h-.01z" fill="url(#i)" class="B"/><path style="mix-blend-mode:multiply" d="M1194.48 183.171l-.52 5.402 2.79-5.534 30.21-53.72-4.53 1.056-27.72 52.363-.23.433z" fill="url(#j)" class="B D"/><path style="mix-blend-mode:multiply" d="M1108.09 167.748l17.35-5.827 16.49-5.541 8.02-2.69 1.26-.425 5.74-1.928 5.38-14.703-3.89 1.715-2.48 1.099-4.13 1.826-20.35 8.986-19.05 8.422-4.34 9.066z" fill="url(#k)" class="B"/><path style="mix-blend-mode:multiply" d="M1282.01 61.652l-22.96 11.867-.92 1.202 20.24-3.401 3.64-9.668z" fill="url(#l)" class="B"/><g class="D"><path style="mix-blend-mode:multiply" d="M1316.15 148.896l-64.7 26.474-2.1 4.406 66.67-21.462.13-9.418z" fill="url(#m)" class="B"/><path style="mix-blend-mode:multiply" d="M1309.54 53.009l-14.03 19.783-1.37 7.366-30.19 59.012 12.61-21.689 47.75 9.001-.59-5.996-40.71-4.398 13.74-29.678 12.2 2.675 62.31 11.419 2.53-2.8-64.25-44.697z" fill="url(#n)" class="B"/><path style="mix-blend-mode:multiply" d="M1220.94 167.201l27.27 4.808-24.61 7.278-8.8-11.551 6.14-.535z" fill="url(#o)" class="B"/><path style="mix-blend-mode:multiply" d="M1365.23 146.809l4.23 46.815.8-.425 38.62-26.123-34.82-32.171 9.65-17.078 11.31 7.726-9.38-11.369 3.09-4.749 19.82 22.604 14.9 14.821 5.69.565 11.16-10.013-26.03-13.281-4.38 5.109-20.67-21.66-.13-.139-23.86 39.368z" fill="url(#p)" class="B"/><path style="mix-blend-mode:multiply" d="M1174.5 240.167l38.96-.073 8.01-3.863.18-.081 68.39-32.998-85.77 12.167 5.35-8.172 26.82-3.819-33.48 2.499-25.72 31.027-2.74 3.313z" fill="url(#q)" class="B"/><path style="mix-blend-mode:multiply" d="M1316.15 148.896l35.5 3.056-35.63 6.362.13-9.418z" fill="url(#r)" class="B"/><path style="mix-blend-mode:multiply" d="M1127.57 182.216l-27.27 7.916 34.33-12.776-7.06 4.86z" fill="url(#s)" class="B"/><path style="mix-blend-mode:multiply" d="M1149.95 153.689l1.26-.425 7.23-14.916-2.48 1.1-6.01 14.241z" fill="url(#t)" class="B"/><path style="mix-blend-mode:multiply" d="M1125.44 161.922l16.49-5.541 9.9-15.107-20.35 8.987-6.04 11.661z" fill="url(#u)" class="B"/><path style="mix-blend-mode:multiply" d="M1293.46 152.583l-2.82 6.714-22.36 9.653 1.43-6.59 23.75-9.777z" fill="url(#v)" class="B"/><path style="mix-blend-mode:multiply" d="M1040.18 164.451l-4.53 15.495 24.38-3.181 1.05-4.479-20.9-7.835z" fill="url(#w)" class="B"/><path style="mix-blend-mode:multiply" d="M1070.38 136.728l16.51-3.877-2.37 3.664-14.14.213z" fill="url(#x)" class="B"/><path style="mix-blend-mode:multiply" d="M1095.8 109.222l-8.92 2.104 8.37-9.661.55 7.557z" fill="url(#y)" class="B"/><path style="mix-blend-mode:multiply" d="M1034.78 226.05l-3.74 13.069-.13.462-1.44 18.478 11.65-19.072.11-.183 9.44-15.458 36.18-35.029 5.02-4.867 9.91-9.595 2.78-2.69 2.78-2.69.76-.733 4.33-9.067 7.27-6.706 11.54-10.665-8.02-.381-17.13 15.927-1.85 1.195-3.04 10.364-.92 1.063-21.5 24.811-2.09 1.232-10.65 6.303-12.44 9.976-1.99 3.196-16.8 11.053-.03.007z" fill="url(#z)" class="B"/><path style="mix-blend-mode:multiply" d="M1423.49 152.487l68.69 5.849-2.39-1.298-58.31-12.057-7.99 7.506z" fill="url(#AA)" class="B"/><path style="mix-blend-mode:multiply" d="M1418.55 160.528l51.13 7.565-8.12 4.962 33.26 5.365-124.56 14.777 48.29-32.669z" fill="url(#AB)" class="B"/><path style="mix-blend-mode:multiply" d="M1080.61 151.885l23.61 6.165-3.04 10.364-21.23-14.535.66-1.994z" fill="url(#AC)" class="B"/><path style="mix-blend-mode:multiply" d="M1053.57 211.799l-17.1-.601 15.11 3.797 1.99-3.196z" fill="url(#AD)" class="B"/><path style="mix-blend-mode:multiply" d="M1078.66 195.324l-37.16 3.643 1.65-2.141 47.13-17.268 1.26-1.635-28.32 8.422 1.04-1.078 36.47-16-22.07 26.057z" fill="url(#AE)" class="B"/><path style="mix-blend-mode:multiply" d="M1095.8 109.22l23.12 18.551-1.4 2.126-26.09-3.958 4.37-16.719z" fill="url(#AF)" class="B"/><path style="mix-blend-mode:multiply" d="M1008.41 205.958l-11.435 33.812 33.175-.624 2.92-32.258-24.66-.93z" fill="url(#AG)" class="B"/><path style="mix-blend-mode:multiply" d="M1033.07 206.89l-6.24 31.863 3.32.395.35-.007.53-.022 10.19-.308h.08l.55-.022 35.47-.322.9-.015h.74l1.65-.015 3.1-21.278-33.05 6.194 36.18-35.029 5.03-4.874 9.9-9.595 2.78-2.682 2.78-2.698.76-.725 4.33-9.067 7.26-6.707 11.55-10.665-8.02-.388-17.67 16.462-1.32.667-3.04 10.365-.92 1.055-21.51 24.811-2.2 1.246-10.18 5.739-12.8 10.533-1.99 3.196-8.11-3.548-10.4-4.559z" fill="url(#AH)" class="B"/><path style="mix-blend-mode:multiply" d="M1129.09 236.918l22.71.374.02-.007 7.8.132.17-.264 8.76-13.641 25.93-40.343.23-.432 11.15-20.963 16.21-30.47.06-.366 2.6-16.785-30.35 21.073-3.06 2.125.64-.132 28.74-6.091-15.81 26.146-29.18 11.082 25.45-3.973-36.41 13.209-35.66 59.326z" fill="url(#AI)" class="B"/><path style="mix-blend-mode:multiply" d="M1352.65 236.668l77.53-1.473 14.41-.271 42.04-33.277-116.37-8.451-12.76 31.51-4.41 10.87-.44 1.092z" fill="url(#AJ)" class="B"/><path style="mix-blend-mode:multiply" d="M1207.56 236.303l13.91-.074 18.48-.088h.12l73.46-.366 39.55-.198h.01l77.09-.381 4.34-.022-.4-.052-76.43-10.276-.19-.139-.13-.081-28.31-20.083 9.83-18.104 22.33 21.571-20.35-26.82-.28.118-50.55 21.842-82.48 33.153z" fill="url(#AK)" class="B"/><path style="mix-blend-mode:screen" opacity=".8" d="M1008.41 205.96l-11.441 33.811 33.171-.623h.36l-1.58 19.798.53-.88 11.66-19.071h.08l44.61-.367.16-.286 8.25-.139h.01l-.01.015 2.99-.044 2.03-.037 2.05-.022 2.59-.044 1.3-.022 1.32-.015 1.58-.022h.01l1.59-.022 1.08-.014 1.08-.015 3.26-.051 1.66-.03 5.02-.08 2.27-.037 2.28-.036 2.29-.03 23.19-.396h.02l7.8.132.17-.264h.21l-.08.132 8.87 1.151.73-1.458 1.1-.015 2.45-.044-.87 1.444 2.31 1.796 38.96-.066 8.02-3.863 18.47-.095h.11l73.1.395-1.68 3.387 39.93-.074 1.24-3.166 22.81-.154 1.69-.029 53.38-1.21 2.9-.051 1.08-.051 2.86-.052c.34-.036.69-.044 1.04-.051l1.39-.029 1.74-.066 3.05-.059a7.47 7.47 0 0 0 .42.052c5.48.674 136.06 35.433 182 42.177l28.06 5.578h.23l2-.066h.2l3.38-.118c8.24 1.488 13.46 2.698 14.04 3.438 1.85 2.345-.23-3.826-2.65-10.24a47.85 47.85 0 0 1 1.32-2.265l.55-.901c2.44-3.797 5.96-8.583 10.11-13.861a19.78 19.78 0 0 0 .76-.974l3.38-4.193 1.45-1.781c.03-.037.08-.11.12-.176l1.05-1.253 4.29-5.153c.46-.557.93-1.085 1.4-1.642l1.57-1.862c.49-.594.99-1.158 1.49-1.752l.91-1.055 1.71-2.008 3.13-3.614 1.07-1.231c.19-.206.38-.426.55-.631l1.62-1.862 2.42-2.741 1.59-1.796c.54-.637 1.07-1.238 1.58-1.795l1.57-1.76 1.54-1.737 1.51-1.693c.27-.278.51-.564.77-.843l1.47-1.664c.28-.315.56-.601.84-.952.44-.462.88-.961 1.32-1.452l2.77-3.078 1.07-1.158 1.49-1.635a44.13 44.13 0 0 1 1.23-1.341c.19-.205.38-.425.57-.638l2.23-2.448.85-.916 2.83-3.086.4-.425.71-.784c.11-.11.22-.242.33-.352l.59-.638a19.39 19.39 0 0 0 .56-.608c-.6.036-1.21.11-1.82.146l-275.35-83.582-12.57 16.821-52.6-35.08-22.05 3.313-65.06-44.623-10.48-23.77-9.31-6.208-58.21 92.267-.43.674c-.68-.33-1.34-.689-1.97-.997l-1.98-.344-1.1-.205-1.34-.25-30.35 21.081-3.69-8.972v-.022l-11.8 8.319-.45-.366.54-.645-17.83-13.435-26.02 18.097-2.2 1.524-37.68-38.07-55.08 62.786-4.53 15.495-27.24 26.013.01-.014z" fill="url(#AL)"/></g></g><path d="M1337.62 223.404l18.82-1.284 11.06-.755h.21l.89-.067 25.66-1.754-8.04-19.668-6.8-16.589-5.09-12.443 6.48 12.091.19.352 8.71-2.567-12.54-26.113-8.37-17.427 3.01-2.434-.04-.033c-.57-.714-8.7-11.093-11.98-23.847l-.32-1.284-13.25 31.222-1.06 2.501 1.01 1.762c.52-1.569 1.05-3.012 1.57-4.346 2.65-6.654 5.25-10.288 5.37-10.447l-3.03 10.186-.03.126-2.21 7.409.13.235-2.59 12.234-3.62 17.059-.12.512 1.79 1.577-.6 4.573-.64 4.758-.81 6.075-3.44 25.835-.34 2.56.02-.009z" fill="url(#AM)"/><g style="mix-blend-mode:multiply" class="C F"><path d="M1336.56 225.158l58.98-2.299-16.11-39.58-12.19 3.038-5.42-18.393.57 16.463-20.62-6.889-.12.52 1.79 1.578-.61 4.573-.63 4.757-5.64 36.232z"/></g><g style="mix-blend-mode:multiply" class="C F"><path d="M1377.18 154.598l-8.38-17.428 3.02-2.442-5.84 3.566-15.89 2.148-.03.126-2.21 7.409.13.235-2.6 12.234 31.8-5.848z"/></g><path d="M1276.35 208.014l5.3 2.509 10.42-30.727-15.72 28.218z" fill="url(#AN)"/><path d="M1280.33 240.606l34.27-2.358 3.03.478v-26.121l1.47 7.519 3.46 17.696.19.906 56.24 2.274-3.26-3.516c-2.78-3.289-5.9-7.552-9.14-12.376l-1.06-1.586c-5.91-8.92-12.17-19.467-17.6-29.016l-6.01-10.732-8.95-16.622 4.78-1.586-.75-2.274-10.86-35.762-4.19-13.845-.03-.067 4.9 1.284-3.38-18.208-8.5-45.571-.04-.26-.18-.965-.16-.898-.55 2.559-14.7 68.57-.09.437s.01 0 .02-.009l2.97-.822-6.17 20.7-8.69 29.159 3.07 3.415 9.81-26.314-5.96 27.17-9.2 41.828-3.77 17.168v.067l-.99 7.669.02.009z" fill="url(#AO)"/><g style="mix-blend-mode:multiply" class="C F"><path d="M1285.08 215.701l73.21 4.161c-2.17-3.792-25.32-52.703-25.32-52.703l4.77-1.586-22.03 4.666-4.26-13.551-1.54 18.208-15.63-1.024-9.2 41.829z"/></g><g style="mix-blend-mode:multiply" class="C F"><path d="M1296.04 140.444l30.1-12.906-4.19-13.845-9.32-2.324-13.31 8.769-.09.436s.01 0 .02-.008l2.97-.823-6.17 20.701h-.01z"/></g><path d="M1203 212.078l17.22-2.089 16.59-2.014-2.3-14.575-.73-4.598-.1-.596 3.04 6 .72 1.418-.19-.831-4.08-17.36-2.56-11.009-.68-2.895 1.88-.814-11.9-55.128-.11.646-8.57 48.29-.09.427 2.52-.813.62-1.662-1.69 5.446-4.99 16.236-3.97 12.872 3.13-.823 3.14-9.045-3.26 15.557-3.64 17.36z" fill="url(#AP)"/><g style="mix-blend-mode:multiply" class="C F"><path d="M1203 212.076l17.22-2.09 16.59-2.013-2.3-14.575-.73-4.599-9.59-17.604-1.16 21.212-16.39 2.308-3.64 17.361z"/></g><g class="D"><path style="mix-blend-mode:screen" opacity=".54" d="M1142.11 168.062s-69.19-88.053-139.42-76.521-88.055 87.008-88.055 87.008-7.339-23.063-24.107-27.255c-16.775-4.192-24.108 34.595-24.108 34.595s10.408-64.279-38.67-63.83c-50.318.465-67.086 88.517-67.086 88.517s.928-80.952-33.659-86.537c-20.8-3.365-32.498 32.499-32.498 32.499s-3.844-13.976-11.184-12.931c-7.339 1.051-14.44 66.505-14.44 66.505s1.052-115.308-139.422-118.455C388.994 88.509 353 200.329 353 200.329s170.091 17.621 379 29.421 451 8.5 451 8.5l-40.89-70.188z" fill="url(#AQ)"/><path style="mix-blend-mode:screen" opacity=".54" d="M727.818 70.061s-8.855-23.759-23.295-28.423c-14.44-4.656-21.895 25.159-21.895 25.159s-3.728-7.456-13.048-7.92-13.047 18.639-13.047 18.639l71.285-7.456z" fill="url(#AR)"/><path style="mix-blend-mode:screen" opacity=".54" d="M844.053 62.599s-8.783-40.411-57.396-41.579c-48.607-1.175-57.397 50.949-57.397 50.949s-4.685-9.958-13.468-8.203-8.782 11.713-8.782 11.713l-77.305 5.853s-3.518-19.915-19.328-24.6-14.055 28.111-14.055 28.111l247.731-22.258v.015z" fill="url(#AS)"/><path d="M-284.731 71.001l12.112 85.273 89.192 48.144 302.601 47.627L35.679 151.22-284.744 71.001h.013z" fill="url(#AT)"/></g><g style="mix-blend-mode:multiply" class="C D E"><path d="M47.311 237.124l-23.328-42.081-6.44-1.399-12.843-28.685-185.581-37.873-74.737 23.341 12.188 36.474 290.742 50.223z"/></g><path d="M-310.165 51.001l19.006 223 495.039-9.981-207.284-66.557 27.387-2.408-6.667-1.903-86.231-24.626-164.686-10.99.063-8.28 143.147 15.086-58.869-12.982-10.6-13.031L4.7 164.971l-26.328-18.426-173.735-49.354c1.387.302 232.226 55.416 233.436 55.63C5.985 127.678-189.817 67.196-230.84 52.589l-79.337-1.563.012-.025z" fill="url(#AU)" class="D"/><g style="mix-blend-mode:multiply" class="C D E"><path d="M23.101 195.346l-23.278 1.802-64.579-25.66c2.18-3.126 83.761 23.278 87.857 23.858z"/></g><path d="M935.5 257.251l112.4-16.19 623.06 16.015c1.99-14.01 71.79-22.147 74.8-23.909.12-.228-273.28-20.206-273.36-20.295l-8.72-2.688-22.92-.317-290.76-3.971-1.93 4.556-171.42-.878-7.559 9.186-33.591 38.491z" fill="url(#AV)" class="D"/><g style="mix-blend-mode:multiply" class="C D E"><path d="M940.725 246.588l14.026 8.471c71.429 1.664 279.529-14.861 344.499-13.351l2.75 13.725c132.47-4.734 232.98 12.532 365.44 5.027l80.69-27.246c-3.27-.374-276.36-4.971-279.62-5.117l-85.95-12.734-33.37-4.946-24.07-3.565-139.51 2.802v11.362l-4.99-.886-.45-8.608-169.34 3.468-.36 8.738-41.378-4.978-24.287 27.18c0 .098-.055.739-.055.82l-4.011-.178-.014.016zm144.115-21.829l18.44-10.062 21.64 10.875.55 7.227-39.75-7.853-.9-.178.02-.009z"/></g><g class="D"><path d="M1103.28 214.699l21.64 10.874 620.82 7.602c-.37.04-32.53-30.699-32.74-30.78l-563.02 3.517c22.52 5.66 159 3.589 185.29 3.971l-231.99 4.816z" class="G"/><path d="M976.636 209.582l34.174 5.425 169.34-3.468c-16.9-5.465-181.519-1.453-203.514-1.957z" fill="url(#AW)"/></g><g style="mix-blend-mode:multiply" class="C D E"><path d="M1015.3 235.172l20.66 15.13 34.42 1.901-33.34-16.519-21.74-.512z"/></g><g class="D"><path d="M9.593 240.782l1608.567 17.931-40.16-8.949-12.62-.301c-1 .016-265.3-5.149-266.14-5.149l.56 3.622-452.702-13.684L826.5 237.5c-6.604-2.225-26.529-13.083-33.324-15.414l-1.569-.552c-.177-.089-1.31-.438-1.542-.544l-14.599-5.157-306.461-23.763-4.311-6.7-240.233-24.169-168.519-1.185L9.58 240.798l.014-.016z" fill="url(#AX)"/><path d="M-27 250.657l815.197 3.086c6.03-3.695 32.777-15.902 39.053-19.743l-51.783-18.167-92.89 8.982-262.499-17.485 48.941-15.251-4.311-6.7-221.431 10.663-187.321-36.026L-27 250.665v-.008z" fill="url(#AY)"/></g><g style="mix-blend-mode:multiply" class="C D E"><path d="M411.414 252.313l372.813 1.405-101.649-28.92-262.5-17.485-8.664 44.992v.008z"/></g><g style="mix-blend-mode:multiply" class="C D E"><path d="M-27 250.658l260.016.982 10.261-55.614L55.956 160-27 250.649v.009z"/></g><g class="D"><path d="M663.19 227.365l-118.513-7.553-64.81 2.9c13.945.162 175.341 8.446 183.323 4.645v.008z" fill="url(#AZ)"/><g class="G"><path d="M383.975 191.566l-142.159 12.547c-6.535-.341-135.731-22-139.293-17.753l185.806 34.223 146.034-27.206-50.388-1.819v.008zm-26.524 21.62l-38.736 9.973 84.116-8.885-45.38-1.088z"/></g><path d="M288.329 220.593l-1.623 16.575-157.631-41.775-24.055.706-2.497-9.737 185.806 34.231z" fill="url(#Aa)"/><path d="M306.19 246.036l1.706 8.178-297.292-1.43 43.266-55.305 252.321 48.557z" fill="url(#Ab)"/></g><g style="mix-blend-mode:multiply" class="C D E"><path d="M383.974 191.567l50.388 1.82-1.487 10.208 36.143-11.532-4.311-6.7-173.69 8.251-4.953 6.7 97.897-8.747h.013z"/></g><g style="mix-blend-mode:multiply" class="C D E"><path d="M288.331 220.592l-1.624 16.576-65.997-17.023.833-11.735 24.505 4.816-1.87 15.057 2.347.674 2.756-15.414 15.2 2.176.054 17.965 18.788 4.905 5.008-17.997z"/></g><path d="M318.183 245.712c-2.101-.357-185.478-50.181-185.478-50.181l-78.836 1.949 252.321 48.557 11.993-.325z" class="D G"/><g style="mix-blend-mode:multiply" class="C D E"><path d="M13.277 256.375l264.779-3.484-90.202-6.456-2.688 4.231-71.522-.025 13.944-35.433-20.48 27.385-3.206-.706 21.653-29.578-54.74-10.119c-11.802 11.15-41.956 38.194-57.551 54.193l.014-.008z"/></g><g style="mix-blend-mode:multiply" class="C D E"><path d="M402.831 214.273l-14.586 38.341-68.002 1.592-1.528-31.048 84.116-8.885z"/></g><g class="D"><path d="M387.277 219.887c-2.743.414-61.426 2.25-61.726 4.353l40.154 3.574 21.572-7.927z" class="G"/><path d="M943.632 236.956l-96.928 15.236-2.606-.39 95.195-14.87 4.339.024z" fill="url(#Ac)"/><path d="M901.225 243.631l17.874 7.529c4.407 2.249 12.457 4.702 17.928 5.798-1.705-1.421-6.958-3.93-10.246-5.717l-17.779-9.023-7.763 1.405-.014.008z" fill="url(#Ad)"/><path d="M1472.18 231.645l-117.57-16.957c14.29 2.022 104.61 18.931 117.57 16.957z" fill="url(#Ae)"/><path d="M1182.58 219.138c11.97-.495 233.81-3.216 298.33-6.862l-34.17-6.944-12.06.633-252.1 13.173z" fill="url(#Af)"/></g><g style="mix-blend-mode:multiply" class="C D E"><path d="M1438.67 205.756l-3.97.203 12.1 7.812 6.79-.211-14.92-7.812v.008z"/></g><g style="mix-blend-mode:multiply" class="C D E"><path d="M1370.77 209.305l4.87 6.221 50.17-1.177-15.66-7.106-39.36 2.054-.02.008z"/></g><g class="D"><path d="M365.733 227.846l-2.988 28.246 9.632-4.061 14.422-31.965-21.066 7.78z" fill="url(#Ag)"/><path d="M662.453 238.597l2.101 18.565 21.544-.65 15.527-19.125-39.172 1.21z" fill="url(#Ah)"/></g><g style="mix-blend-mode:multiply" class="C D E"><path d="M6.756 255.701l33.524.317 449.67 4.264-10.083-37.561 63.268-3.176 55.968 3.208 6.004-2.615-183.269-13.002 11.025-3.541 1.487-10.208-146.033 27.206-185.806-34.231 2.497 9.729-51.152 1.389-47.127 58.221h.027z"/></g><g style="mix-blend-mode:multiply" class="C D E"><path d="M284.36 181.269L95.197 164.158l10.957 2.363 195.356 20.993-13.03-9.006-4.12 2.761z"/></g><path d="M288.48 178.507c-7.177-.317-191.932-16.453-193.283-14.342l189.163 17.103 4.12-2.761z" fill="url(#Ai)" class="D"/><g style="mix-blend-mode:multiply" class="C D E"><path d="M475.911 208.476l129.619-.496-123.916-3.955-5.703 4.451z"/></g><g style="mix-blend-mode:multiply" class="C D E"><path d="M644.879 214.874l-69.421-5.92-1.87-.016 86.272 9.363-14.981-3.427z"/></g><g fill="#395b33" class="D"><path d="M827.937 234.989s2.728-17.231-1.113-28.395-8.279-15.892-8.279-15.892 9.611 30.008 7.535 43.801c0 0-3.66-16.957-12.87-30.632 0 0 8.601 21.185 10.644 30.05 0 0-3.236-11.854-9.315-21.888S793.862 196 793.862 196s26.15 18.105 28.251 37.466l5.814 1.52.01.003z"/><path d="M827.694 234.376s5.892-16.961 13.327-22.707c0 0-7.896 11.58-12.147 23.016l-1.19-.311.01.002z"/></g><path d="M1699 234.105H-243.477V291H1699V234.105Z" fill="url(#Aj)"/><path style="mix-blend-mode:multiply" opacity=".1" d="M1759 234v27.5l-2033-1.147h.001V234H1759z" fill="url(#Ak)" class="D"/><g style="mix-blend-mode:screen" opacity=".3" fill="#fff"><use xlink:href="#Am"/><path d="M323.114 244.829a1.36 1.36 0 1 0 2.72 0 1.36 1.36 0 1 0-2.72 0zm-47.702 5.451a1.36 1.36 0 1 0 2.72 0 1.36 1.36 0 1 0-2.72 0z"/><use xlink:href="#An"/><path d="M365.253 246.189a1.36 1.36 0 0 0 0-2.72 1.36 1.36 0 1 0 0 2.72zm-17.68.351a1.36 1.36 0 1 0 2.72 0 1.36 1.36 0 1 0-2.72 0zm28.48-3.18a1.36 1.36 0 1 0 2.72 0 1.36 1.36 0 1 0-2.72 0zm-31.211 5.559a1.36 1.36 0 1 0 2.72 0 1.36 1.36 0 1 0-2.72 0zm85.022-5.559a1.36 1.36 0 1 0 2.72 0 1.36 1.36 0 1 0-2.72 0zm-6.221 3.18a1.36 1.36 0 1 0 2.72 0 1.36 1.36 0 1 0-2.72 0z"/><use xlink:href="#Ao"/><path d="M390.413 247.9a1.36 1.36 0 1 0 0-2.72 1.36 1.36 0 0 0 0 2.72zm-80.721-4.54a1.36 1.36 0 0 0 2.72 0 1.36 1.36 0 0 0-2.72 0zm6.601 4.551a1.36 1.36 0 0 0 2.72 0 1.36 1.36 0 0 0-2.72 0zm58.39 1.008a1.36 1.36 0 1 0 0-2.72 1.36 1.36 0 0 0 0 2.72z"/><use xlink:href="#Ap"/><use xlink:href="#Aq"/><path d="M247.903 244.731a1.36 1.36 0 0 0 2.72 0 1.36 1.36 0 0 0-2.72 0zm-14.561 1.468a1.36 1.36 0 1 0 2.72 0 1.36 1.36 0 0 0-2.72 0z"/><use xlink:href="#Ar"/><path d="M221.182 244.241a1.37 1.37 0 0 0-1.82-.64 1.37 1.37 0 0 0-.64 1.82c.32.68 1.14.96 1.82.64a1.37 1.37 0 0 0 .64-1.82zm-161.17 1.049a1.36 1.36 0 1 0 2.72 0 1.36 1.36 0 0 0-2.72 0zm33.33 1.461a1.36 1.36 0 0 0 2.72 0 1.36 1.36 0 0 0-2.72 0zm-46.329 6.819a1.36 1.36 0 0 0 0-2.72 1.36 1.36 0 1 0 0 2.72zm20.54-4.091a1.36 1.36 0 0 0 2.72 0 1.36 1.36 0 0 0-2.72 0zm66.569-2.728a1.36 1.36 0 0 0 2.72 0 1.36 1.36 0 0 0-2.72 0zm-16.319 1.719a1.36 1.36 0 1 0 2.72 0 1.36 1.36 0 0 0-2.72 0zm28.479-3.18a1.36 1.36 0 1 0 2.72 0 1.36 1.36 0 0 0-2.72 0zm-31.199 5.551a1.36 1.36 0 0 0 2.72 0 1.36 1.36 0 0 0-2.72 0zm85.019-5.551a1.36 1.36 0 1 0 2.72 0 1.36 1.36 0 0 0-2.72 0zm-6.219 3.18a1.36 1.36 0 1 0 2.72 0 1.36 1.36 0 0 0-2.72 0zm-8.601-3.079a1.36 1.36 0 1 0 2.72 0 1.36 1.36 0 0 0-2.72 0zm-26 3.079a1.36 1.36 0 1 0 2.72 0 1.36 1.36 0 0 0-2.72 0zm-79.359-3.18a1.36 1.36 0 0 0 2.72 0 1.36 1.36 0 0 0-2.72 0zm6.609 4.539a1.36 1.36 0 1 0 2.72 0 1.36 1.36 0 0 0-2.72 0zm57.031-.35a1.36 1.36 0 0 0 2.72 0 1.36 1.36 0 0 0-2.72 0zm-121.5 3.08a1.36 1.36 0 1 0 2.72 0 1.36 1.36 0 1 0-2.72 0zm4.68-3.08a1.36 1.36 0 0 0 2.72 0 1.36 1.36 0 0 0-2.72 0zm-8.6-2.831a1.36 1.36 0 1 0 2.72 0 1.36 1.36 0 0 0-2.72 0zm-14.56 1.472a1.36 1.36 0 1 0 2.72 0 1.36 1.36 0 1 0-2.72 0zm-3.92 3.751a1.36 1.36 0 0 0 .5 1.86 1.36 1.36 0 0 0 1.86-.5 1.36 1.36 0 0 0-.5-1.86 1.36 1.36 0 0 0-1.86.5z"/></g><g style="mix-blend-mode:screen" opacity=".3" fill="#fff"><path d="M968.355 243.36a1.36 1.36 0 1 0 2.72 0 1.36 1.36 0 1 0-2.72 0zm33.345 1.469a1.36 1.36 0 1 0 2.72 0 1.36 1.36 0 0 0-2.72 0zm-47.705 5.451a1.36 1.36 0 1 0 2.72 0 1.36 1.36 0 1 0-2.72 0zm23.271-1.361a1.36 1.36 0 1 0 0-2.72 1.36 1.36 0 0 0 0 2.72zm66.574-2.73a1.36 1.36 0 1 0 0-2.72c-.76 0-1.36.609-1.36 1.36s.6 1.36 1.36 1.36zm-17.68.351a1.36 1.36 0 1 0 2.72 0 1.36 1.36 0 1 0-2.72 0zm28.48-3.18a1.36 1.36 0 0 0 2.72 0 1.36 1.36 0 0 0-2.72 0zm-31.21 5.559a1.36 1.36 0 1 0 2.72 0 1.36 1.36 0 1 0-2.72 0zm85.02-5.559a1.36 1.36 0 1 0 2.72 0 1.36 1.36 0 1 0-2.72 0zm-6.22 3.18a1.36 1.36 0 1 0 2.72 0 1.36 1.36 0 1 0-2.72 0zm-8.59-3.071a1.36 1.36 0 0 0 2.72 0 1.36 1.36 0 0 0-2.72 0zM1069 247.9a1.36 1.36 0 0 0 0-2.72 1.36 1.36 0 0 0 0 2.72zm-80.725-4.54a1.36 1.36 0 1 0 2.72 0 1.36 1.36 0 1 0-2.72 0zm6.601 4.551a1.36 1.36 0 1 0 2.72 0 1.36 1.36 0 1 0-2.72 0zm58.394 1.008a1.36 1.36 0 1 0 0-2.72c-.76 0-1.36.609-1.36 1.36s.6 1.36 1.36 1.36zm-122.864 1.711a1.36 1.36 0 1 0 2.72 0 1.36 1.36 0 1 0-2.72 0zm6.039-1.711a1.36 1.36 0 0 0 0-2.72 1.36 1.36 0 0 0 0 2.72zm-9.959-4.188a1.36 1.36 0 1 0 2.72 0 1.36 1.36 0 1 0-2.72 0zm-14.561 1.468a1.36 1.36 0 1 0 2.72 0 1.36 1.36 0 1 0-2.72 0zm-3.91 3.75a1.362 1.362 0 1 0 2.36 1.36 1.362 1.362 0 1 0-2.36-1.36zm-8.249-5.708a1.37 1.37 0 0 0-1.821-.64 1.37 1.37 0 0 0-.64 1.82c.32.68 1.14.96 1.82.64a1.37 1.37 0 0 0 .641-1.82zm-161.171 1.049a1.36 1.36 0 1 0 2.72 0 1.36 1.36 0 1 0-2.72 0zm33.33 1.461a1.36 1.36 0 1 0 2.72 0 1.36 1.36 0 1 0-2.72 0zm-46.329 6.819a1.36 1.36 0 1 0 0-2.72 1.36 1.36 0 1 0 0 2.72zm20.54-4.091a1.36 1.36 0 1 0 2.72 0 1.36 1.36 0 1 0-2.72 0zm66.569-2.728a1.36 1.36 0 0 0 2.72 0 1.36 1.36 0 0 0-2.72 0zm-16.319 1.719a1.36 1.36 0 1 0 2.72 0 1.36 1.36 0 1 0-2.72 0zm28.479-3.18a1.36 1.36 0 1 0 2.72 0 1.36 1.36 0 1 0-2.72 0zm-31.199 5.551a1.36 1.36 0 0 0 2.72 0 1.36 1.36 0 0 0-2.72 0zm85.019-5.551a1.36 1.36 0 1 0 2.72 0 1.36 1.36 0 1 0-2.72 0zm-6.219 3.18a1.36 1.36 0 1 0 2.72 0 1.36 1.36 0 1 0-2.72 0zm-8.601-3.079a1.36 1.36 0 1 0 2.72 0 1.36 1.36 0 1 0-2.72 0zm-26 3.079a1.36 1.36 0 1 0 2.72 0 1.36 1.36 0 1 0-2.72 0zm-79.36-3.18a1.36 1.36 0 1 0 2.72 0 1.36 1.36 0 1 0-2.72 0zm6.61 4.539a1.36 1.36 0 1 0 2.72 0 1.36 1.36 0 1 0-2.72 0zm57.031-.35a1.36 1.36 0 1 0 2.72 0 1.36 1.36 0 1 0-2.72 0zm-121.5 3.08a1.36 1.36 0 1 0 2.72 0 1.36 1.36 0 1 0-2.72 0zm4.68-3.08a1.36 1.36 0 1 0 2.72 0 1.36 1.36 0 1 0-2.72 0zm-8.6-2.831a1.36 1.36 0 1 0 2.72 0 1.36 1.36 0 1 0-2.72 0zm-14.56 1.472a1.36 1.36 0 0 0 2.72 0 1.36 1.36 0 0 0-2.72 0zm-3.92 3.751a1.362 1.362 0 1 0 2.36 1.36 1.362 1.362 0 1 0-2.36-1.36z"/><use xlink:href="#As"/><path d="M509.775 245.29a1.36 1.36 0 1 0 2.72 0 1.36 1.36 0 1 0-2.72 0zm33.33 1.461a1.36 1.36 0 1 0 2.72 0 1.36 1.36 0 1 0-2.72 0zm-46.329 6.819a1.36 1.36 0 0 0 0-2.72 1.36 1.36 0 1 0 0 2.72zm20.54-4.091a1.36 1.36 0 0 0 2.72 0 1.36 1.36 0 0 0-2.72 0zm66.57-2.728a1.36 1.36 0 1 0 2.72 0 1.36 1.36 0 1 0-2.72 0zm-16.32 1.719a1.36 1.36 0 1 0 2.72 0 1.36 1.36 0 0 0-2.72 0zm28.478-3.18a1.36 1.36 0 1 0 2.72 0 1.36 1.36 0 1 0-2.72 0zm-31.199 5.551a1.36 1.36 0 1 0 2.72 0 1.36 1.36 0 1 0-2.72 0zm85.02-5.551a1.36 1.36 0 1 0 2.72 0 1.36 1.36 0 1 0-2.72 0zm-6.219 3.18a1.36 1.36 0 1 0 2.72 0 1.36 1.36 0 1 0-2.72 0zm-7.23-1.719a1.36 1.36 0 0 0 0-2.72 1.36 1.36 0 0 0 0 2.72zm-27.372 1.719a1.36 1.36 0 1 0 2.72 0 1.36 1.36 0 1 0-2.72 0zm-79.359-3.18a1.36 1.36 0 1 0 2.72 0 1.36 1.36 0 1 0-2.72 0zm6.609 4.539a1.36 1.36 0 1 0 2.72 0 1.36 1.36 0 1 0-2.72 0zm57.032-.35a1.36 1.36 0 1 0 2.72 0 1.36 1.36 0 1 0-2.72 0zm-121.5 3.08a1.36 1.36 0 0 0 2.72 0 1.36 1.36 0 0 0-2.72 0zm4.679-3.078a1.36 1.36 0 1 0 2.72 0 1.36 1.36 0 1 0-2.72 0zm-7.239-1.473a1.36 1.36 0 0 0 0-2.72 1.36 1.36 0 0 0 0 2.72zm-15.921.112a1.36 1.36 0 0 0 2.72 0 1.36 1.36 0 0 0-2.72 0zm-3.92 3.751a1.362 1.362 0 1 0 2.36 1.36 1.362 1.362 0 1 0-2.36-1.36z"/><use xlink:href="#At"/></g><g style="mix-blend-mode:screen" opacity=".3" fill="#fff"><path d="M1417.18 245.29a1.36 1.36 0 1 0 2.72 0 1.36 1.36 0 1 0-2.72 0zm-13 8.28a1.36 1.36 0 0 0 0-2.72 1.36 1.36 0 0 0 0 2.72zm20.54-4.091a1.36 1.36 0 1 0 2.72 0 1.36 1.36 0 1 0-2.72 0zm12.37-4.189a1.36 1.36 0 1 0 2.72 0 1.36 1.36 0 1 0-2.72 0zm-57.86 7.269a1.36 1.36 0 1 0 2.72 0 1.36 1.36 0 1 0-2.72 0zm4.68-3.08a1.36 1.36 0 1 0 2.72 0 1.36 1.36 0 1 0-2.72 0zm-8.6-2.831a1.36 1.36 0 1 0 2.72 0 1.36 1.36 0 1 0-2.72 0zm-14.56 1.472a1.36 1.36 0 1 0 2.72 0 1.36 1.36 0 1 0-2.72 0zm-3.92 3.751a1.362 1.362 0 1 0 2.36 1.36 1.362 1.362 0 1 0-2.36-1.36zm-8.25-5.71a1.37 1.37 0 0 0-1.82-.64c-.68.32-.96 1.14-.64 1.82a1.37 1.37 0 0 0 1.82.64 1.37 1.37 0 0 0 .64-1.82zm-160.22-.871a1.36 1.36 0 1 0 2.72 0 1.36 1.36 0 1 0-2.72 0zm33.33 1.461a1.36 1.36 0 1 0 2.72 0 1.36 1.36 0 1 0-2.72 0zm-46.33 6.819a1.36 1.36 0 1 0 0-2.72 1.36 1.36 0 0 0 0 2.72zm20.54-4.091a1.36 1.36 0 0 0 2.72 0 1.36 1.36 0 0 0-2.72 0zm66.57-2.728a1.36 1.36 0 1 0 2.72 0 1.36 1.36 0 1 0-2.72 0zm-16.32 1.719a1.36 1.36 0 0 0 2.72 0 1.36 1.36 0 0 0-2.72 0zm28.48-3.18a1.36 1.36 0 0 0 2.72 0 1.36 1.36 0 0 0-2.72 0zm-31.2 5.551a1.36 1.36 0 1 0 2.72 0 1.36 1.36 0 1 0-2.72 0zm85.02-5.551a1.36 1.36 0 1 0 2.72 0 1.36 1.36 0 1 0-2.72 0zm-6.22 3.18a1.36 1.36 0 1 0 2.72 0 1.36 1.36 0 1 0-2.72 0zm-7.23-1.719a1.36 1.36 0 0 0 0-2.72 1.36 1.36 0 0 0 0 2.72zm-27.37 1.719a1.36 1.36 0 0 0 2.72 0 1.36 1.36 0 0 0-2.72 0zm-79.36-3.18a1.36 1.36 0 1 0 2.72 0 1.36 1.36 0 1 0-2.72 0zm6.61 4.539a1.36 1.36 0 0 0 2.72 0 1.36 1.36 0 0 0-2.72 0zm57.03-.35a1.36 1.36 0 1 0 2.72 0 1.36 1.36 0 1 0-2.72 0zm-121.5 3.08a1.36 1.36 0 1 0 2.72 0 1.36 1.36 0 1 0-2.72 0zm4.68-3.078a1.36 1.36 0 1 0 2.72 0 1.36 1.36 0 1 0-2.72 0zm-7.24-1.473a1.36 1.36 0 1 0 0-2.72 1.36 1.36 0 0 0 0 2.72zm-15.92.112a1.36 1.36 0 1 0 2.72 0 1.36 1.36 0 1 0-2.72 0zm-3.92 3.751a1.362 1.362 0 1 0 2.36 1.36 1.362 1.362 0 1 0-2.36-1.36zm-8.25-5.71a1.37 1.37 0 0 0-1.82-.64 1.37 1.37 0 0 0-.64 1.82 1.37 1.37 0 0 0 1.82.64 1.37 1.37 0 0 0 .64-1.82z"/></g></g><defs><linearGradient id="A" x1="723.696" y1="-.014" x2="720.941" y2="304.894" xlink:href="#Au"><stop stop-color="#44a1fd"/><stop offset=".07" stop-color="#4fa8fa"/><stop offset=".19" stop-color="#6fbbf3"/><stop offset=".36" stop-color="#a2dae8"/><stop offset=".53" stop-color="#dfffdb"/></linearGradient><linearGradient id="B" x1="231.517" y1="73.164" x2="173.082" y2="283.705" xlink:href="#Au"><stop stop-color="#645300"/><stop offset="1" stop-color="#ada801"/></linearGradient><linearGradient id="C" x1="207.843" y1="66.593" x2="149.408" y2="277.134" xlink:href="#Au"><stop stop-color="#645300"/><stop offset="1" stop-color="#ada801"/></linearGradient><linearGradient id="D" x1="216.39" y1="114.511" x2="205.577" y2="159.469" xlink:href="#Au"><stop stop-color="#645300"/><stop offset="1" stop-color="#ada801"/></linearGradient><linearGradient id="E" x1="220.133" y1="41.022" x2="208.588" y2="169.43" xlink:href="#Au"><stop stop-color="#645300"/><stop offset="1" stop-color="#ada801"/></linearGradient><linearGradient id="F" x1="192.731" y1="34.506" x2="184.453" y2="189.398" xlink:href="#Au"><stop stop-color="#645300"/><stop offset="1" stop-color="#ada801"/></linearGradient><linearGradient id="G" x1="112.491" y1="-.755" x2="102.923" y2="178.265" xlink:href="#Au"><stop stop-color="#645300"/><stop offset="1" stop-color="#ada801"/></linearGradient><linearGradient id="H" x1="177.286" y1="115.035" x2="174.7" y2="163.414" xlink:href="#Au"><stop stop-color="#645300"/><stop offset="1" stop-color="#ada801"/></linearGradient><linearGradient id="I" x1="172.266" y1="81.577" x2="170.983" y2="105.564" xlink:href="#Au"><stop stop-color="#586400"/><stop offset="1" stop-color="#fff"/></linearGradient><linearGradient id="J" x1="116.239" y1="159.809" x2="116.13" y2="161.895" xlink:href="#Au"><stop stop-color="#645300"/><stop offset="1" stop-color="#ada801"/></linearGradient><linearGradient id="K" x1="105.143" y1="139.581" x2="101.909" y2="202.855" xlink:href="#Au"><stop stop-color="#645300"/><stop offset="1" stop-color="#ada801"/></linearGradient><linearGradient id="L" x1="259.956" y1="49.613" x2="185.807" y2="316.776" xlink:href="#Au"><stop stop-color="#645300"/><stop offset="1" stop-color="#ada801"/></linearGradient><linearGradient id="M" x1="210.747" y1="67.969" x2="396.66" y2="419.059" xlink:href="#Au"><stop stop-color="#645300"/><stop offset="1" stop-color="#ada801"/></linearGradient><linearGradient id="N" x1="251.709" y1="87.834" x2="223.951" y2="203.221" xlink:href="#Au"><stop stop-color="#645300"/><stop offset="1" stop-color="#ada801"/></linearGradient><linearGradient id="O" x1="231.008" y1="87.441" x2="232.529" y2="104.995" xlink:href="#Au"><stop stop-color="#586400"/><stop offset="1" stop-color="#fff"/></linearGradient><linearGradient id="P" x1="207.487" y1=".072" x2="196.847" y2="199.129" xlink:href="#Au"><stop stop-color="#645300"/><stop offset="1" stop-color="#ada801"/></linearGradient><linearGradient id="Q" x1="136.144" y1="-44.834" x2="123.841" y2="185.298" xlink:href="#Au"><stop stop-color="#645300"/><stop offset="1" stop-color="#ada801"/></linearGradient><linearGradient id="R" x1="197.05" y1="104.218" x2="193.366" y2="173.139" xlink:href="#Au"><stop stop-color="#645300"/><stop offset="1" stop-color="#ada801"/></linearGradient><linearGradient id="S" x1="186.512" y1="60.988" x2="184.876" y2="91.627" xlink:href="#Au"><stop stop-color="#586400"/><stop offset="1" stop-color="#fff"/></linearGradient><linearGradient id="T" x1="136.064" y1="161.787" x2="135.927" y2="164.502" xlink:href="#Au"><stop stop-color="#645300"/><stop offset="1" stop-color="#ada801"/></linearGradient><linearGradient id="U" x1="126.767" y1="135.819" x2="122.636" y2="216.735" xlink:href="#Au"><stop stop-color="#645300"/><stop offset="1" stop-color="#ada801"/></linearGradient><linearGradient id="V" x1="1016.09" y1="342.023" x2="828.098" y2="122.872" xlink:href="#Au"><stop stop-color="#00849c"/><stop offset="1" stop-color="#fff"/></linearGradient><linearGradient id="W" x1="877.78" y1="281.73" x2="864.887" y2="153.621" xlink:href="#Au"><stop offset=".45" stop-color="#3c54ca"/><stop offset=".49" stop-color="#2f43a1"/><stop offset=".55" stop-color="#233176"/><stop offset=".61" stop-color="#182252"/><stop offset=".68" stop-color="#0f1534"/><stop offset=".74" stop-color="#080c1d"/><stop offset=".82" stop-color="#03050c"/><stop offset=".9" stop-color="#000103"/><stop offset="1"/></linearGradient><linearGradient id="X" x1="1153.28" y1="291.979" x2="1132.46" y2="47.885" xlink:href="#Au"><stop stop-color="#00849c"/><stop offset="1" stop-color="#fff"/></linearGradient><linearGradient id="Y" x1="1105.7" y1="151.798" x2="1106.07" y2="152.289" xlink:href="#Au"><stop stop-color="#00849c"/><stop offset="1" stop-color="#fff"/></linearGradient><linearGradient id="Z" x1="1108.8" y1="56.907" x2="1168.35" y2="207.511" xlink:href="#Au"><stop stop-color="#00849c"/><stop offset="1" stop-color="#fff"/></linearGradient><linearGradient id="a" x1="1103.61" y1="107.681" x2="1147.57" y2="218.859" xlink:href="#Au"><stop stop-color="#00849c"/><stop offset="1" stop-color="#fff"/></linearGradient><linearGradient id="b" x1="1105.98" y1="152.561" x2="1105.99" y2="151.872" xlink:href="#Au"><stop stop-color="#00849c"/><stop offset="1" stop-color="#fff"/></linearGradient><linearGradient id="c" x1="1048.55" y1="-74.673" x2="1101.31" y2="371.743" xlink:href="#Au"><stop stop-color="#00849c"/><stop offset="1" stop-color="#fff"/></linearGradient><linearGradient id="d" x1="1443.25" y1="335.35" x2="1303.97" y2="1.518" xlink:href="#Au"><stop stop-color="#00849c"/><stop offset="1" stop-color="#fff"/></linearGradient><linearGradient id="e" x1="1309" y1="277.32" x2="1202.74" y2="-57.237" xlink:href="#Au"><stop stop-color="#00849c"/><stop offset="1" stop-color="#fff"/></linearGradient><linearGradient id="f" x1="1195.15" y1="-17.386" x2="1196.36" y2="384.664" xlink:href="#Au"><stop stop-color="#00849c"/><stop offset="1" stop-color="#fff"/></linearGradient><linearGradient id="g" x1="1162.35" y1="17.687" x2="1155.07" y2="251.519" xlink:href="#Au"><stop stop-color="#00849c"/><stop offset="1" stop-color="#fff"/></linearGradient><linearGradient id="h" x1="1112.99" y1="306.111" x2="1074.92" y2="157.545" xlink:href="#Au"><stop stop-color="#00849c"/><stop offset="1" stop-color="#fff"/></linearGradient><linearGradient id="i" x1="1174.77" y1="240.129" x2="1174.7" y2="237.894" xlink:href="#Au"><stop stop-color="#00849c"/><stop offset="1" stop-color="#fff"/></linearGradient><linearGradient id="j" x1="1270.05" y1="231.935" x2="1175.36" y2="115.95" xlink:href="#Au"><stop stop-color="#00849c"/><stop offset="1" stop-color="#fff"/></linearGradient><linearGradient id="k" x1="1193.32" y1="208.648" x2="1124.79" y2="142.065" xlink:href="#Au"><stop stop-color="#00849c"/><stop offset="1" stop-color="#fff"/></linearGradient><linearGradient id="l" x1="1297.66" y1="95.002" x2="1266.17" y2="64.408" xlink:href="#Au"><stop stop-color="#00849c"/><stop offset="1" stop-color="#fff"/></linearGradient><linearGradient id="m" x1="1305.28" y1="242.254" x2="1276.8" y2="143.765" xlink:href="#Au"><stop stop-color="#00849c"/><stop offset="1" stop-color="#fff"/></linearGradient><linearGradient id="n" x1="1294.18" y1="-94.216" x2="1323.46" y2="158.051" xlink:href="#Au"><stop stop-color="#00849c"/><stop offset="1" stop-color="#fff"/></linearGradient><linearGradient id="o" x1="1227.72" y1="114.141" x2="1233.06" y2="192.847" xlink:href="#Au"><stop stop-color="#00849c"/><stop offset="1" stop-color="#fff"/></linearGradient><linearGradient id="p" x1="1555.71" y1="687.156" x2="1357.51" y2="1.702" xlink:href="#Au"><stop stop-color="#00849c"/><stop offset="1" stop-color="#fff"/></linearGradient><linearGradient id="q" x1="1026.13" y1="217.445" x2="1285.22" y2="222.744" xlink:href="#Au"><stop stop-color="#00849c"/><stop offset="1" stop-color="#fff"/></linearGradient><linearGradient id="r" x1="1382.75" y1="190.286" x2="1306.94" y2="135.812" xlink:href="#Au"><stop stop-color="#00849c"/><stop offset="1" stop-color="#fff"/></linearGradient><linearGradient id="s" x1="1151.56" y1="208.244" x2="1100.99" y2="171.903" xlink:href="#Au"><stop stop-color="#00849c"/><stop offset="1" stop-color="#fff"/></linearGradient><linearGradient id="t" x1="1164.48" y1="191.034" x2="1152.42" y2="138.238" xlink:href="#Au"><stop stop-color="#00849c"/><stop offset="1" stop-color="#fff"/></linearGradient><linearGradient id="u" x1="1150.31" y1="202.697" x2="1137.06" y2="144.705" xlink:href="#Au"><stop stop-color="#00849c"/><stop offset="1" stop-color="#fff"/></linearGradient><linearGradient id="v" x1="1360.49" y1="166.055" x2="1248.93" y2="158.644" xlink:href="#Au"><stop stop-color="#00849c"/><stop offset="1" stop-color="#fff"/></linearGradient><linearGradient id="w" x1="1130.96" y1="178.377" x2="1015.54" y2="170.71" xlink:href="#Au"><stop stop-color="#00849c"/><stop offset="1" stop-color="#fff"/></linearGradient><linearGradient id="x" x1="1132.35" y1="138.355" x2="1057.09" y2="133.356" xlink:href="#Au"><stop stop-color="#00849c"/><stop offset="1" stop-color="#fff"/></linearGradient><linearGradient id="y" x1="1086.01" y1="98.609" x2="1092.93" y2="109.405" xlink:href="#Au"><stop stop-color="#00849c"/><stop offset="1" stop-color="#fff"/></linearGradient><linearGradient id="z" x1="1043.82" y1="-19.451" x2="1087.22" y2="240.937" xlink:href="#Au"><stop stop-color="#00849c"/><stop offset="1" stop-color="#fff"/></linearGradient><linearGradient id="AA" x1="1377.17" y1="7.622" x2="1471.99" y2="181.329" xlink:href="#Au"><stop stop-color="#00849c"/><stop offset="1" stop-color="#fff"/></linearGradient><linearGradient id="AB" x1="1352.86" y1="39.823" x2="1442.25" y2="203.598" xlink:href="#Au"><stop stop-color="#00849c"/><stop offset="1" stop-color="#fff"/></linearGradient><linearGradient id="AC" x1="1117.83" y1="279.048" x2="1090.53" y2="148.528" xlink:href="#Au"><stop stop-color="#00849c"/><stop offset="1" stop-color="#fff"/></linearGradient><linearGradient id="AD" x1="1062.18" y1="293.54" x2="1039.14" y2="183.345" xlink:href="#Au"><stop stop-color="#00849c"/><stop offset="1" stop-color="#fff"/></linearGradient><linearGradient id="AE" x1="1107.43" y1="357.728" x2="1062.09" y2="140.967" xlink:href="#Au"><stop stop-color="#00849c"/><stop offset="1" stop-color="#fff"/></linearGradient><linearGradient id="AF" x1="1095.33" y1="67.756" x2="1105.71" y2="130.065" xlink:href="#Au"><stop stop-color="#00849c"/><stop offset="1" stop-color="#fff"/></linearGradient><linearGradient id="AG" x1="1029.53" y1="276.521" x2="999.203" y2="165.351" xlink:href="#Au"><stop stop-color="#00849c"/><stop offset="1" stop-color="#fff"/></linearGradient><linearGradient id="AH" x1="1124.63" y1="381.469" x2="1065.82" y2="134.546" xlink:href="#Au"><stop stop-color="#00849c"/><stop offset="1" stop-color="#fff"/></linearGradient><linearGradient id="AI" x1="1329.9" y1="336.441" x2="1143.12" y2="139.998" xlink:href="#Au"><stop stop-color="#00849c"/><stop offset="1" stop-color="#fff"/></linearGradient><linearGradient id="AJ" x1="1458.1" y1="378.982" x2="1403.73" y2="153.051" xlink:href="#Au"><stop stop-color="#00849c"/><stop offset="1" stop-color="#fff"/></linearGradient><linearGradient id="AK" x1="1352.42" y1="336.287" x2="1293.63" y2="147.899" xlink:href="#Au"><stop stop-color="#00849c"/><stop offset="1" stop-color="#fff"/></linearGradient><linearGradient id="AL" x1="1335.29" y1="250.979" x2="1325.63" y2="62.436" xlink:href="#Au"><stop offset=".31" stop-color="#3c54ca"/><stop offset=".37" stop-color="#2f43a1"/><stop offset=".44" stop-color="#233176"/><stop offset=".52" stop-color="#182252"/><stop offset=".6" stop-color="#0f1534"/><stop offset=".68" stop-color="#080c1d"/><stop offset=".77" stop-color="#03050c"/><stop offset=".87" stop-color="#000103"/><stop offset="1"/></linearGradient><linearGradient id="AM" x1="1392.46" y1="99.496" x2="1313.44" y2="384.19" xlink:href="#Au"><stop stop-color="#645300"/><stop offset="1" stop-color="#ada801"/></linearGradient><linearGradient id="AN" x1="1308.36" y1="106.888" x2="1199.54" y2="498.959" xlink:href="#Au"><stop stop-color="#645300"/><stop offset="1" stop-color="#ada801"/></linearGradient><linearGradient id="AO" x1="1340.01" y1="47.23" x2="1328.81" y2="256.666" xlink:href="#Au"><stop stop-color="#645300"/><stop offset="1" stop-color="#ada801"/></linearGradient><linearGradient id="AP" x1="1232.07" y1="-23.025" x2="1219.13" y2="219.043" xlink:href="#Au"><stop stop-color="#645300"/><stop offset="1" stop-color="#ada801"/></linearGradient><linearGradient id="AQ" x1="749.307" y1="129.123" x2="745.528" y2="248.123" xlink:href="#Au"><stop stop-color="#ffd661"/><stop offset=".06" stop-color="#c0a149"/><stop offset=".12" stop-color="#867133"/><stop offset=".17" stop-color="#564820"/><stop offset=".23" stop-color="#302912"/><stop offset=".28" stop-color="#161208"/><stop offset=".32" stop-color="#050402"/><stop offset=".35"/></linearGradient><linearGradient id="AR" x1="683.005" y1="43.633" x2="710.492" y2="134.021" xlink:href="#Au"><stop stop-color="#ffd661"/><stop offset=".06" stop-color="#c0a149"/><stop offset=".12" stop-color="#867133"/><stop offset=".17" stop-color="#564820"/><stop offset=".23" stop-color="#302912"/><stop offset=".28" stop-color="#161208"/><stop offset=".32" stop-color="#050402"/><stop offset=".35"/></linearGradient><linearGradient id="AS" x1="715.923" y1="28.962" x2="730.595" y2="182.708" xlink:href="#Au"><stop stop-color="#ffd661"/><stop offset=".06" stop-color="#c0a149"/><stop offset=".12" stop-color="#867133"/><stop offset=".17" stop-color="#564820"/><stop offset=".23" stop-color="#302912"/><stop offset=".28" stop-color="#161208"/><stop offset=".32" stop-color="#050402"/><stop offset=".35"/></linearGradient><linearGradient id="AT" x1="120.081" y1="163.504" x2="-285.261" y2="160.249" xlink:href="#Au"><stop stop-color="#6d262e"/><stop offset=".47" stop-color="#6d232c"/><stop offset=".8" stop-color="#6d1a29"/><stop offset="1" stop-color="#6d1025"/></linearGradient><linearGradient id="AU" x1="203.88" y1="162.5" x2="-310.165" y2="162.5" xlink:href="#Au"><stop stop-color="#c4594d"/><stop offset="1" stop-color="#ffa321"/></linearGradient><linearGradient id="AV" x1="1745.9" y1="233.27" x2="614.319" y2="218.007" xlink:href="#Au"><stop stop-color="#6d262e"/><stop offset=".47" stop-color="#6d232c"/><stop offset=".8" stop-color="#6d1a29"/><stop offset="1" stop-color="#6d1025"/></linearGradient><linearGradient id="AW" x1="1180.15" y1="211.824" x2="976.636" y2="211.824" xlink:href="#Au"><stop stop-color="#c4594d"/><stop offset="1" stop-color="#ffa321"/></linearGradient><linearGradient id="AX" x1="1618.16" y1="209.36" x2="9.593" y2="209.36" xlink:href="#Au"><stop stop-color="#c4594d"/><stop offset="1" stop-color="#ffa321"/></linearGradient><linearGradient id="AY" x1="822.692" y1="209.421" x2="-26.065" y2="197.973" xlink:href="#Au"><stop stop-color="#6d262e"/><stop offset=".47" stop-color="#6d232c"/><stop offset=".8" stop-color="#6d1a29"/><stop offset="1" stop-color="#6d1025"/></linearGradient><linearGradient id="AZ" x1="663.19" y1="224.092" x2="479.867" y2="224.092" xlink:href="#Au"><stop stop-color="#c4594d"/><stop offset="1" stop-color="#ffa321"/></linearGradient><linearGradient id="Aa" x1="289.048" y1="214.136" x2="101.77" y2="201.169" xlink:href="#Au"><stop stop-color="#6d262e"/><stop offset=".47" stop-color="#6d232c"/><stop offset=".8" stop-color="#6d1a29"/><stop offset="1" stop-color="#6d1025"/></linearGradient><linearGradient id="Ab" x1="309.717" y1="231.987" x2="13.755" y2="211.495" xlink:href="#Au"><stop stop-color="#6d262e"/><stop offset=".47" stop-color="#6d232c"/><stop offset=".8" stop-color="#6d1a29"/><stop offset="1" stop-color="#6d1025"/></linearGradient><linearGradient id="Ac" x1="943.704" y1="245.003" x2="844.389" y2="243.663" xlink:href="#Au"><stop stop-color="#6d262e"/><stop offset=".47" stop-color="#6d232c"/><stop offset=".8" stop-color="#6d1a29"/><stop offset="1" stop-color="#6d1025"/></linearGradient><linearGradient id="Ad" x1="937.307" y1="249.853" x2="901.333" y2="249.367" xlink:href="#Au"><stop stop-color="#6d262e"/><stop offset=".47" stop-color="#6d232c"/><stop offset=".8" stop-color="#6d1a29"/><stop offset="1" stop-color="#6d1025"/></linearGradient><linearGradient id="Ae" x1="1472.44" y1="223.709" x2="1354.67" y2="222.121" xlink:href="#Au"><stop stop-color="#6d262e"/><stop offset=".47" stop-color="#6d232c"/><stop offset=".8" stop-color="#6d1a29"/><stop offset="1" stop-color="#6d1025"/></linearGradient><linearGradient id="Af" x1="1481.07" y1="213.209" x2="1182.9" y2="209.187" xlink:href="#Au"><stop stop-color="#6d262e"/><stop offset=".47" stop-color="#6d232c"/><stop offset=".8" stop-color="#6d1a29"/><stop offset="1" stop-color="#6d1025"/></linearGradient><linearGradient id="Ag" x1="386.123" y1="217.204" x2="370.141" y2="278.595" xlink:href="#Au"><stop stop-color="#6d262e"/><stop offset=".47" stop-color="#6d232c"/><stop offset=".8" stop-color="#6d1a29"/><stop offset="1" stop-color="#6d1025"/></linearGradient><linearGradient id="Ah" x1="686.969" y1="231.748" x2="675.848" y2="274.458" xlink:href="#Au"><stop stop-color="#6d262e"/><stop offset=".47" stop-color="#6d232c"/><stop offset=".8" stop-color="#6d1a29"/><stop offset="1" stop-color="#6d1025"/></linearGradient><linearGradient id="Ai" x1="288.48" y1="172.619" x2="95.197" y2="172.619" xlink:href="#Au"><stop stop-color="#c4594d"/><stop offset="1" stop-color="#ffa321"/></linearGradient><linearGradient id="Aj" x1="729.893" y1="238.191" x2="729.765" y2="289.271" xlink:href="#Au"><stop stop-color="#86c4cb"/><stop offset=".55" stop-color="#6e96c0"/><stop offset=".84" stop-color="#5f7aba"/><stop offset="1" stop-color="#5a70b8"/></linearGradient><linearGradient id="Ak" x1="870.363" y1="210.665" x2="870.454" y2="270.189" xlink:href="#Au"><stop stop-color="#295ed1"/><stop offset="1" stop-color="#fff"/></linearGradient><clipPath id="Al"><path fill="#fff" transform="translate(-240)" d="M0 0h1920v260H0z"/></clipPath><path id="Am" d="M289.772 243.36a1.36 1.36 0 1 0 2.72 0 1.36 1.36 0 1 0-2.72 0z"/><path id="An" d="M298.683 248.919a1.36 1.36 0 1 0 0-2.72 1.36 1.36 0 0 0 0 2.72z"/><path id="Ao" d="M415.052 243.469a1.36 1.36 0 0 0 2.72 0 1.36 1.36 0 0 0-2.72 0z"/><path id="Ap" d="M251.823 250.63a1.36 1.36 0 1 0 2.72 0 1.36 1.36 0 0 0-2.72 0z"/><path id="Aq" d="M257.862 248.919a1.36 1.36 0 0 0 0-2.72 1.36 1.36 0 0 0 0 2.72z"/><path id="Ar" d="M229.432 249.949a1.36 1.36 0 1 0 2.36 1.36 1.36 1.36 0 1 0-2.36-1.36z"/><path id="As" d="M669.996 246.161a1.37 1.37 0 0 0-1.82-.64c-.68.32-.96 1.14-.64 1.82a1.37 1.37 0 0 0 1.82.64 1.37 1.37 0 0 0 .64-1.82z"/><path id="At" d="M441.176 246.161a1.37 1.37 0 0 0-1.82-.64 1.37 1.37 0 0 0-.64 1.82 1.37 1.37 0 0 0 1.82.64 1.37 1.37 0 0 0 .64-1.82z"/><linearGradient id="Au" gradientUnits="userSpaceOnUse"/></defs></svg>