<svg width="93" height="24" viewBox="0 0 93 24" fill="none" xmlns="http://www.w3.org/2000/svg">
<path fill-rule="evenodd" clip-rule="evenodd" d="M52.3599 2.21191V5.08685H55.2617V2.21191H52.3599ZM52.3599 6.66563V17.9966H55.2617V6.66563H52.3599ZM42.9743 18.2146C42.4499 18.219 41.9291 18.1276 41.4375 17.9448C40.9815 17.7768 40.5627 17.5212 40.2047 17.1925C39.8621 16.8721 39.5867 16.4866 39.3944 16.0587C39.1964 15.6089 39.097 15.1218 39.1031 14.6304C39.0994 14.1147 39.2219 13.6058 39.4599 13.1483C39.7 12.6917 40.0407 12.2955 40.4562 11.9898C40.9174 11.6536 41.4329 11.3991 41.9802 11.2374C42.6124 11.0516 43.2687 10.9606 43.9276 10.9677C44.4245 10.9664 44.9205 11.0096 45.4097 11.0967C45.8519 11.1713 46.2845 11.2949 46.6994 11.4653V10.8204C46.7203 10.5036 46.6742 10.1859 46.564 9.8881C46.4538 9.59031 46.282 9.31912 46.0599 9.09225C45.5316 8.65371 44.8542 8.4365 44.1694 8.48611C43.5637 8.48555 42.9629 8.59478 42.3961 8.80851C41.7686 9.05247 41.1732 9.37187 40.6228 9.75966L39.7372 7.92079C41.127 6.97466 42.7697 6.46941 44.451 6.47098C45.8216 6.38531 47.1749 6.81331 48.247 7.67146C48.7118 8.11643 49.0735 8.6578 49.3067 9.25752C49.5399 9.85724 49.639 10.5008 49.5969 11.1429V14.669C49.5756 14.8979 49.6374 15.1268 49.7709 15.3139C49.9369 15.4625 50.1546 15.5397 50.3771 15.5289V17.9921C50.1232 18.0456 49.8667 18.0857 49.6087 18.1125C49.3711 18.134 49.1648 18.1458 48.9939 18.1458C48.5454 18.1626 48.1041 18.0295 47.7397 17.7675C47.4478 17.5221 47.2565 17.1777 47.2023 16.8002L47.1368 16.1726C46.6552 16.8171 46.0251 17.3359 45.3 17.6848C44.575 18.0353 43.7797 18.2165 42.9743 18.2146ZM43.7965 16.0931C44.2742 16.095 44.7481 16.0076 45.1937 15.8352C45.5883 15.6934 45.9412 15.4551 46.22 15.1419C46.3587 15.0524 46.474 14.9312 46.5565 14.7882C46.6389 14.6452 46.686 14.4846 46.694 14.3198V13.0237C46.3283 12.8885 45.9519 12.7842 45.5687 12.712C45.1844 12.6348 44.7936 12.5945 44.4016 12.5916C43.7511 12.5625 43.1082 12.7401 42.5649 13.0989C42.3593 13.2315 42.1878 13.4107 42.0643 13.6218C41.9408 13.833 41.8687 14.0703 41.8538 14.3145C41.839 14.5587 41.8818 14.8029 41.9788 15.0275C42.0758 15.2521 42.2243 15.4507 42.4123 15.6073C42.7983 15.9339 43.2911 16.1068 43.7965 16.0931ZM38.4132 9.17407C37.6008 9.17381 36.7976 9.34673 36.0573 9.68132C35.4007 9.97195 34.871 10.4898 34.5656 11.1397V17.9933H31.6638V6.6624H34.3227V9.08377C34.6789 8.3474 35.2004 7.70334 35.8467 7.2019C36.4076 6.74977 37.1038 6.49853 37.8242 6.48828C37.9433 6.48625 38.0623 6.49022 38.181 6.50012C38.2576 6.50646 38.3337 6.51759 38.4089 6.53344L38.4132 9.17407ZM57.8089 2.21191H60.7107V14.2361C60.7107 15.1152 61.1069 15.5555 61.8994 15.5569C62.0865 15.5521 62.2722 15.5228 62.4518 15.4698C62.6531 15.4153 62.8515 15.3504 63.0461 15.2753L63.4362 17.5892C63.0022 17.7903 62.5442 17.9347 62.0734 18.0191C61.6112 18.1144 61.1408 18.1648 60.6688 18.1696C60.2868 18.1941 59.9038 18.1429 59.5417 18.0187C59.1796 17.8946 58.8456 17.7 58.5591 17.4463C58.2981 17.1726 58.0966 16.8479 57.9671 16.4927C57.8377 16.1374 57.7831 15.7591 57.8068 15.3817L57.8089 2.21191ZM65.0526 14.8789V17.9956H67.4321V14.8789H65.0526ZM68.8368 12.3339C68.8329 11.5657 68.9725 10.8036 69.2484 10.0866C69.514 9.3924 69.918 8.75946 70.436 8.22628C70.9729 7.68096 71.6125 7.24737 72.3178 6.95056C73.1055 6.62201 73.9525 6.45956 74.8058 6.47338C75.916 6.44016 77.0134 6.71785 77.9742 7.27513C78.8131 7.77326 79.4919 8.50126 79.9302 9.37301L77.0982 10.2328C76.8688 9.82919 76.5346 9.49502 76.131 9.26553C75.7472 9.06061 75.3216 8.94624 74.8869 8.93115C74.4521 8.91606 74.0196 9.00066 73.6225 9.17848C73.2644 9.34128 72.9444 9.57743 72.6832 9.87167C72.4062 10.1858 72.193 10.5508 72.0556 10.9464C71.9001 11.3908 71.823 11.8588 71.8277 12.3296C71.8216 12.8013 71.9021 13.2701 72.0653 13.7128C72.2116 14.1084 72.4282 14.4743 72.7047 14.7929C72.9647 15.0906 73.2848 15.3298 73.644 15.4947C74.0036 15.6603 74.3949 15.7454 74.7908 15.744C75.2965 15.7483 75.7936 15.6133 76.2277 15.3539C76.6249 15.1397 76.9456 14.8073 77.1455 14.4028L79.9785 15.2626C79.5689 16.1487 78.8975 16.888 78.0547 17.3808C77.0781 17.9513 75.961 18.2361 74.8305 18.203C73.9772 18.2168 73.1302 18.0544 72.3425 17.7259C71.642 17.4325 71.008 17.0006 70.4785 16.4562C69.9491 15.9118 69.535 15.2659 69.2613 14.5575C68.981 13.8497 68.837 13.0952 68.8368 12.3339ZM81.4434 10.0866C81.1675 10.8036 81.0279 11.5657 81.0318 12.3339C81.0323 13.0953 81.1767 13.8497 81.4573 14.5575C81.731 15.266 82.1451 15.9118 82.6746 16.4563C83.2041 17.0007 83.8381 17.4325 84.5386 17.7259C85.3263 18.0544 86.1733 18.2168 87.0266 18.203C88.1571 18.2362 89.2742 17.9513 90.2508 17.3808C91.0936 16.8881 91.7651 16.1488 92.1746 15.2626L89.3416 14.4028C89.1417 14.8073 88.821 15.1397 88.4238 15.3539C87.9897 15.6133 87.4926 15.7483 86.9869 15.744C86.591 15.7455 86.1996 15.6604 85.8401 15.4947C85.4809 15.3298 85.1608 15.0906 84.9008 14.7929C84.6243 14.4743 84.4077 14.1084 84.2613 13.7128C84.0983 13.2701 84.0178 12.8013 84.0238 12.3296C84.0191 11.8588 84.0963 11.3908 84.2517 10.9464C84.3888 10.5509 84.6016 10.1858 84.8783 9.87167C85.1395 9.5775 85.4594 9.34137 85.8176 9.17848C86.2146 9.00066 86.6471 8.91606 87.0819 8.93115C87.5166 8.94624 87.9422 9.06061 88.326 9.26553C88.7296 9.49502 89.0638 9.82919 89.2933 10.2328L92.1262 9.37301C91.6879 8.50129 91.0092 7.77331 90.1702 7.27513C89.2095 6.71785 88.1121 6.44016 87.0019 6.47338C86.1486 6.45956 85.3016 6.62201 84.5139 6.95056C83.8085 7.24737 83.1689 7.68096 82.6321 8.22628C82.1138 8.75937 81.7093 9.39231 81.4434 10.0866Z" fill="#0D0D0D"/>
<path fill-rule="evenodd" clip-rule="evenodd" d="M26.1988 3.27796V0L0.0172119 5.77778V6.35385L26.1988 3.27796ZM10.1218 8.78262V6.9158L12.2638 6.67615V8.65366L10.1218 8.78262ZM26.1161 20.7317V23.9999L0 18.2383V17.6622L26.1161 20.7317ZM20.2072 18.0975V5.91748L23.4314 5.57251V18.4425L20.2072 18.0975ZM17.5193 17.7462V6.26587L15.0882 6.52704V17.4893L17.5193 17.7462ZM12.2488 10.1486V17.2182L10.1068 17.014V10.2087L12.2488 10.1486ZM7.85957 16.7971V7.21045L6.13999 7.37598V16.6391L7.85957 16.7971ZM4.14421 7.54688V16.4672L2.83624 16.3329V7.6823L4.14421 7.54688Z" fill="url(#paint0_linear_128_1890)"/>
<defs>
<linearGradient id="paint0_linear_128_1890" x1="6.51779e-09" y1="24.1633" x2="26" y2="24.1633" gradientUnits="userSpaceOnUse">
<stop stop-color="#219653"/>
<stop offset="1" stop-color="#5BC24A"/>
</linearGradient>
</defs>
</svg>
