<svg width="124" height="32" viewBox="0 0 124 32" fill="none" xmlns="http://www.w3.org/2000/svg">
<path fill-rule="evenodd" clip-rule="evenodd" d="M70.3636 2.94922V6.78247H74.2327V2.94922H70.3636ZM70.3636 8.88751V23.9954H74.2327V8.88751H70.3636ZM57.8495 24.2861C57.1502 24.292 56.4558 24.1701 55.8003 23.9265C55.1923 23.7024 54.634 23.3616 54.1567 22.9234C53.6999 22.4961 53.3326 21.9822 53.0762 21.4116C52.8122 20.8118 52.6798 20.1624 52.6879 19.5072C52.6829 18.8195 52.8463 18.1411 53.1636 17.5311C53.4837 16.9222 53.9379 16.394 54.492 15.9863C55.1069 15.5381 55.7942 15.1988 56.524 14.9832C57.3669 14.7354 58.242 14.6142 59.1205 14.6235C59.783 14.6219 60.4444 14.6795 61.0966 14.7955C61.6863 14.895 62.263 15.0599 62.8162 15.287V14.4272C62.8441 14.0048 62.7827 13.5812 62.6357 13.1841C62.4888 12.7871 62.2598 12.4255 61.9636 12.123C61.2592 11.5383 60.356 11.2487 59.4429 11.3148C58.6353 11.3141 57.8342 11.4597 57.0785 11.7447C56.2419 12.07 55.4479 12.4958 54.7141 13.0129L53.5333 10.5611C55.3864 9.29954 57.5767 8.62588 59.8184 8.62797C61.6458 8.51375 63.4502 9.08441 64.8797 10.2286C65.4994 10.8219 65.9817 11.5437 66.2927 12.3434C66.6036 13.143 66.7357 14.001 66.6795 14.8572V19.5587C66.6512 19.8639 66.7336 20.1691 66.9116 20.4185C67.1329 20.6166 67.4232 20.7196 67.7198 20.7051V23.9895C67.3813 24.0607 67.0393 24.1143 66.6953 24.15C66.3786 24.1787 66.1034 24.1944 65.8756 24.1944C65.2776 24.2168 64.6892 24.0393 64.2033 23.69C63.8141 23.3627 63.5591 22.9037 63.4868 22.4003L63.3994 21.5635C62.7573 22.4229 61.9171 23.1145 60.9504 23.5797C59.9837 24.0471 58.9233 24.2887 57.8495 24.2861ZM58.9457 21.4574C59.5827 21.46 60.2145 21.3434 60.8086 21.1135C61.3348 20.9246 61.8053 20.6068 62.1771 20.1892C62.362 20.0699 62.5157 19.9082 62.6256 19.7176C62.7355 19.5269 62.7984 19.3128 62.809 19.093V17.3649C62.3214 17.1846 61.8195 17.0456 61.3087 16.9493C60.7962 16.8464 60.2751 16.7927 59.7525 16.7888C58.8852 16.75 58.028 16.9868 57.3035 17.4651C57.0294 17.642 56.8008 17.8809 56.6361 18.1624C56.4715 18.444 56.3753 18.7604 56.3555 19.086C56.3357 19.4115 56.3928 19.7372 56.5221 20.0367C56.6514 20.3361 56.8494 20.601 57.1 20.8097C57.6148 21.2451 58.2718 21.4757 58.9457 21.4574ZM51.7679 12.2321C50.6847 12.2317 49.6139 12.4623 48.6268 12.9084C47.7513 13.2959 47.045 13.9864 46.6378 14.853V23.9911H42.7688V8.88321H46.314V12.1117C46.7889 11.1299 47.4843 10.2711 48.346 9.60254C49.0939 8.99969 50.0221 8.66471 50.9826 8.65104C51.1414 8.64834 51.3002 8.65362 51.4584 8.66682C51.5605 8.67528 51.6619 8.69012 51.7622 8.71126L51.7679 12.2321ZM77.6289 2.94922H81.498V18.9814C81.498 20.1536 82.0263 20.7407 83.0828 20.7426C83.3324 20.7361 83.58 20.6971 83.8194 20.6265C84.0879 20.5538 84.3524 20.4672 84.6119 20.3671L85.132 23.4523C84.5533 23.7203 83.9427 23.913 83.315 24.0255C82.6986 24.1525 82.0714 24.2198 81.4421 24.2261C80.9328 24.2589 80.422 24.1905 79.9393 24.025C79.4565 23.8595 79.0112 23.6001 78.6291 23.2617C78.2812 22.8968 78.0125 22.4639 77.8399 21.9902C77.6673 21.5165 77.5945 21.0122 77.6261 20.509L77.6289 2.94922ZM87.2872 19.8385V23.9941H90.4598V19.8385H87.2872ZM92.3327 16.4452C92.3276 15.421 92.5137 14.4048 92.8815 13.4488C93.2357 12.5232 93.7744 11.6793 94.465 10.9684C95.1809 10.2413 96.0337 9.66316 96.9741 9.26741C98.0244 8.82935 99.1537 8.61275 100.291 8.63117C101.772 8.58688 103.235 8.95714 104.516 9.70017C105.635 10.3644 106.54 11.335 107.124 12.4973L103.348 13.6437C103.042 13.1056 102.596 12.66 102.058 12.354C101.547 12.0808 100.979 11.9283 100.4 11.9082C99.8198 11.8881 99.2432 12.0009 98.7138 12.238C98.2362 12.455 97.8096 12.7699 97.4614 13.1622C97.092 13.581 96.8077 14.0677 96.6245 14.5952C96.4172 15.1877 96.3144 15.8118 96.3207 16.4395C96.3125 17.0684 96.4199 17.6935 96.6374 18.2837C96.8325 18.8112 97.1214 19.2991 97.49 19.7239C97.8366 20.1208 98.2635 20.4398 98.7424 20.6596C99.2218 20.8805 99.7436 20.9939 100.271 20.9921C100.946 20.9977 101.608 20.8177 102.187 20.4719C102.717 20.1863 103.145 19.7431 103.411 19.2037L107.188 20.3501C106.642 21.5316 105.747 22.5173 104.623 23.1745C103.321 23.935 101.832 24.3148 100.324 24.2707C99.1867 24.2891 98.0573 24.0725 97.0071 23.6345C96.0731 23.2433 95.2277 22.6675 94.5218 21.9416C93.8158 21.2157 93.2637 20.3546 92.8987 19.41C92.5251 18.4662 92.333 17.4603 92.3327 16.4452ZM109.142 13.4488C108.774 14.4048 108.588 15.421 108.593 16.4452C108.593 17.4604 108.786 18.4663 109.16 19.41C109.525 20.3546 110.077 21.2158 110.783 21.9417C111.489 22.6676 112.334 23.2434 113.269 23.6345C114.319 24.0725 115.448 24.2891 116.586 24.2707C118.093 24.3149 119.583 23.9351 120.885 23.1745C122.009 22.5175 122.904 21.5317 123.45 20.3501L119.672 19.2037C119.406 19.7431 118.978 20.1863 118.449 20.4719C117.87 20.8177 117.207 20.9977 116.533 20.9921C116.005 20.994 115.483 20.8805 115.004 20.6596C114.525 20.4398 114.098 20.1208 113.751 19.7239C113.383 19.2991 113.094 18.8112 112.899 18.2837C112.681 17.6935 112.574 17.0684 112.582 16.4395C112.576 15.8118 112.679 15.1877 112.886 14.5952C113.069 14.0678 113.353 13.5811 113.721 13.1622C114.07 12.77 114.496 12.4552 114.974 12.238C115.503 12.0009 116.08 11.8881 116.66 11.9082C117.239 11.9283 117.807 12.0808 118.318 12.354C118.856 12.66 119.302 13.1056 119.608 13.6437L123.385 12.4973C122.801 11.3351 121.896 10.3644 120.777 9.70017C119.496 8.95714 118.033 8.58688 116.553 8.63117C115.415 8.61275 114.286 8.82935 113.236 9.26741C112.295 9.66316 111.442 10.2413 110.726 10.9684C110.035 11.6792 109.496 12.5231 109.142 13.4488Z" fill="white"/>
<path fill-rule="evenodd" clip-rule="evenodd" d="M35.4821 4.37062V0L0.573242 7.70371V8.4718L35.4821 4.37062ZM14.0461 11.7102V9.22107L16.902 8.90153V11.5382L14.0461 11.7102ZM35.3717 27.6422V31.9999L0.550293 24.3177V23.5496L35.3717 27.6422ZM27.4932 24.13V7.88998L31.7921 7.43001V24.59L27.4932 24.13ZM23.9093 23.6616V8.35449L20.6679 8.70272V23.3191L23.9093 23.6616ZM16.882 13.5314V22.9576L14.0261 22.6853V13.6117L16.882 13.5314ZM11.0297 22.3961V9.61393L8.73694 9.83464V22.1855L11.0297 22.3961ZM6.0759 10.0625V21.9563L4.33195 21.7771V10.2431L6.0759 10.0625Z" fill="#62B455"/>
</svg>
