<svg width="29" height="26" viewBox="0 0 29 26" fill="none" xmlns="http://www.w3.org/2000/svg">
<path fill-rule="evenodd" clip-rule="evenodd" d="M28.3821 3.55113V0L0.0186462 6.25927V6.88334L28.3821 3.55113ZM10.9653 9.5145V7.49212L13.2858 7.23249V9.37479L10.9653 9.5145ZM28.2924 22.4593V25.9999L0 19.7581V19.1341L28.2924 22.4593ZM21.8911 19.6056V6.41061L25.384 6.03689V19.9793L21.8911 19.6056ZM18.9792 19.225V6.78803L16.3456 7.07096V18.9468L18.9792 19.225ZM13.2695 10.9943V18.653L10.9491 18.4318V11.0595L13.2695 10.9943ZM8.51453 18.1969V7.81132L6.65165 7.99065V18.0257L8.51453 18.1969ZM4.48956 8.17578V17.8395L3.0726 17.6939V8.32249L4.48956 8.17578Z" fill="#62B455"/>
</svg>
