<svg width="49" height="34" viewBox="0 0 49 34" fill="none" xmlns="http://www.w3.org/2000/svg">
<path fill-rule="evenodd" clip-rule="evenodd" d="M5.59361 0.67749H43.4066C46.0189 0.67749 48.174 2.70574 48.174 5.31349V28.6223C48.174 31.23 46.0189 33.3227 43.4066 33.3227H5.59361C2.98131 33.3227 0.826172 31.23 0.826172 28.6223V5.31349C0.826172 2.70574 2.98131 0.67749 5.59361 0.67749ZM43.3738 29.9743C44.1249 29.9743 44.68 29.3626 44.68 28.6222V5.31339C44.68 4.54072 44.1249 3.96122 43.3738 3.96122H5.56091C4.80988 3.96122 4.25476 4.57291 4.25476 5.31339V28.6222C4.25476 29.3948 4.80988 29.9743 5.56091 29.9743H43.3738ZM15.2918 27.6886H7.32426V6.31152H15.2918C20.9082 6.31152 24.0103 9.78852 24.0103 16.9035C24.0103 23.0848 21.9205 27.6564 15.2918 27.6886ZM18.753 17.3542C18.753 13.0402 18.2959 9.69193 13.5938 9.69193H12.5488V24.2438H14.4101C17.153 24.2438 18.7857 22.0546 18.7857 17.3542H18.753ZM37.8234 16.4998C37.8013 16.5059 37.7793 16.5117 37.7575 16.5172V16.485C37.7795 16.4899 37.8015 16.4948 37.8234 16.4998ZM41.5453 11.527C41.5453 14.3516 39.3558 16.0811 37.8234 16.4998C41.6829 17.3857 42.2963 20.1637 42.2963 21.6683C42.2963 27.6886 35.9615 27.6886 33.937 27.6886H26.2634V6.31152H35.3411C41.4473 6.31152 41.5453 11.0763 41.5453 11.527ZM33.088 9.62755H31.4553V14.7787H33.5125C35.3411 14.7787 36.3533 13.6197 36.3533 12.2031C36.3533 10.4324 35.4064 9.62755 33.088 9.62755ZM31.4553 24.2438H33.5778L33.6104 24.2116C34.4268 24.2116 37.1044 24.2116 37.1044 21.4751C37.1044 20.2839 36.4513 18.7386 33.7411 18.7386H31.4553V24.2438Z" fill="#F01414"/>
</svg>
