<svg width="135" height="23" viewBox="0 0 135 23" fill="none" xmlns="http://www.w3.org/2000/svg">
<path fill-rule="evenodd" clip-rule="evenodd" d="M99.3967 2.67439C99.3967 5.98507 104.126 5.66468 104.126 2.88798C104.126 1.82002 103.225 0.645264 102.099 0.645264H101.536C100.41 0.645264 99.3967 1.71322 99.3967 2.67439ZM91.8526 1.1792V16.0239C91.8526 18.6938 93.2038 20.6161 95.9062 20.6161C96.1853 20.6161 96.4279 20.6211 96.6384 20.6254C97.2809 20.6385 97.6256 20.6456 97.8048 20.4869C98.0122 20.3032 97.9977 19.8975 97.9666 19.0221C97.9517 18.6024 97.933 18.0749 97.933 17.4122L97.8485 17.4124L97.7535 17.413C96.7792 17.4189 95.681 17.4255 95.681 15.9171V0.858814H92.0778C91.8526 0.858814 91.8526 0.96561 91.8526 1.1792ZM9.99298 8.33458C9.7332 8.15859 9.47342 7.88979 9.20155 7.60848C8.64853 7.03625 8.04548 6.41225 7.2906 6.41225C6.5024 6.41225 5.82681 7.05303 5.82681 7.8006C5.82681 8.49045 6.70771 9.24992 7.34334 9.79793C7.49494 9.92862 7.63258 10.0473 7.74099 10.1501C7.91145 10.3118 8.13353 10.542 8.37596 10.7933C8.93422 11.372 9.60044 12.0627 9.99298 12.286C10.7092 11.8331 12.3255 10.2066 13.6092 8.91456C14.1418 8.37856 14.6172 7.90015 14.9473 7.58701C15.1755 7.37061 15.4229 7.11767 15.688 6.8467C16.9926 5.51294 18.7246 3.74235 20.6899 3.74235C23.1671 3.74235 24.9687 5.45109 24.9687 7.9074C24.9687 9.59761 23.75 10.7099 22.7668 11.6072L22.7667 11.6073L22.7662 11.6077L22.766 11.6079L22.766 11.6079L22.766 11.6079L22.766 11.608C22.6313 11.7309 22.501 11.8498 22.3789 11.9657L15.5103 18.587C15.2797 18.8057 14.9238 19.1159 14.5244 19.4639C13.5586 20.3055 12.3384 21.3688 12.0198 21.8977C12.4702 22.6453 13.4835 22.6453 14.2717 22.6453C15.4877 22.6453 16.9367 21.1714 17.9089 20.1826C18.107 19.981 18.2854 19.7996 18.4379 19.655C19.0572 19.0676 19.6764 18.507 20.2957 17.9464L20.2958 17.9462L20.2959 17.9461C20.9152 17.3855 21.5344 16.8248 22.1537 16.2375C22.5153 15.8945 22.9118 15.5433 23.3225 15.1793L23.3227 15.1792L23.323 15.1789L23.323 15.1789L23.3231 15.1789C25.4703 13.2766 28.0088 11.0276 28.0088 7.8006C28.0088 3.52876 23.7301 0.00448495 19.0009 1.17924C16.583 1.73518 14.4989 3.919 12.6865 5.81814C11.7136 6.8376 10.8189 7.77503 9.99298 8.33458ZM127.884 9.72293H128.109C129.798 9.72293 131.037 10.6841 131.037 12.286H124.957C125.294 10.8977 126.083 9.72293 127.884 9.72293ZM121.128 13.354V14.2084C121.128 19.8686 128.109 22.6453 132.388 19.655C133.176 19.121 134.64 17.7326 134.64 16.5579L131.487 15.7035C130.812 16.8783 130.249 17.7326 128.335 17.7326C126.533 17.7326 124.957 16.5579 124.957 14.8491H134.528C135.428 14.8491 135.428 6.73264 128.109 6.73264C124.281 6.73264 121.128 9.82973 121.128 13.354ZM58.5231 16.3443C58.5231 17.4123 58.8609 18.053 60.4373 18.053C63.0271 18.053 63.2523 16.3443 63.2523 14.5288C62.771 14.5288 62.1217 14.6482 61.484 14.7656C61.0774 14.8404 60.6754 14.9144 60.3247 14.9559C59.5365 15.0627 58.5231 15.4899 58.5231 16.3443ZM58.4105 11.8589L55.0326 11.2181C55.0326 6.09187 65.9547 4.59672 67.0807 10.8977C67.1577 11.6287 67.1293 13.01 67.1037 14.2542V14.2543V14.2544V14.2546V14.2548V14.255V14.2552V14.2554V14.2557L67.1037 14.256L67.1036 14.2586C67.0918 14.8306 67.0807 15.3733 67.0807 15.8103C67.0807 17.3464 67.1717 18.6236 67.2719 20.0298V20.0298V20.0299V20.03L67.3059 20.5093H63.7027L63.5901 19.0142C63.4154 19.1384 63.2746 19.2948 63.1217 19.4646C62.8804 19.7327 62.6088 20.0342 62.1263 20.2958C61.1129 20.8297 60.0995 20.8297 58.9735 20.8297C54.2444 20.8297 52.4428 13.7812 58.8609 12.82C59.094 12.7648 59.5006 12.7095 59.9752 12.645C61.3345 12.4601 63.2523 12.1994 63.2523 11.6453V11.1113C63.2523 9.61614 60.3247 9.18896 59.0861 10.3637C58.675 10.7536 58.6392 10.9854 58.598 11.2514C58.5715 11.4226 58.5428 11.608 58.4105 11.8589ZM9.99298 19.9753C10.3373 19.7304 14.9602 15.3025 17.621 12.754L17.6212 12.7538C18.4404 11.9691 19.0736 11.3627 19.3387 11.1113C19.6221 10.8425 19.929 10.5793 20.2339 10.3179C21.2617 9.43665 22.2663 8.57533 22.2663 7.58698C22.2663 7.053 21.4781 6.41222 20.8025 6.41222C19.972 6.41222 18.9902 7.41643 18.291 8.13158L18.291 8.13163L18.2908 8.13183C18.1369 8.28921 17.9968 8.43257 17.8749 8.54815C17.4245 8.97533 17.0023 9.40251 16.58 9.8297C16.1578 10.2569 15.7355 10.6841 15.2851 11.1113C14.9524 11.3818 14.0378 12.2613 13.0579 13.2035C11.7167 14.4932 10.2532 15.9005 9.99298 16.0239C9.42998 15.2763 6.9528 13.1404 6.05201 12.3928C5.83526 12.1667 5.58931 11.9366 5.33344 11.6972L5.3334 11.6972C4.25999 10.693 3.01183 9.52533 3.01183 7.80057C3.01183 5.55785 4.92601 3.74232 7.2906 3.74232C8.41659 3.74232 9.20478 4.1695 9.99298 4.59669L12.0198 2.67436C11.4568 1.92679 9.42998 1.17921 8.30399 1.07242C6.5024 0.858824 5.03861 1.17921 3.80002 1.81999C1.66064 2.88795 -0.140946 5.34426 0.0842522 8.44135C0.39213 11.1668 2.29011 12.8276 3.98794 14.3133C4.15294 14.4577 4.31604 14.6004 4.47562 14.7423C4.92601 15.2229 5.37641 15.6501 5.8268 16.0773C6.2772 16.5045 6.7276 16.9316 7.178 17.4122C7.46442 17.6386 7.89252 18.057 8.34217 18.4964C8.9531 19.0934 9.60381 19.7293 9.99298 19.9753ZM80.2548 7.1598V8.65495C80.5123 8.4921 80.7117 8.29477 80.9176 8.091C81.5218 7.49294 82.182 6.83941 84.5336 6.83941C87.5737 6.83941 89.2627 9.18893 89.2627 11.9656V20.5093H85.6595C85.3105 20.5093 85.3522 18.4566 85.3964 16.2809C85.4377 14.2456 85.4813 12.1027 85.2091 11.4316C84.984 10.7909 84.3084 10.1501 83.4076 10.1501C82.2816 10.1501 81.2682 10.1501 80.5926 11.5384C80.3097 12.2539 80.3427 15.2164 80.3609 16.8506V16.8506L80.3609 16.852C80.3644 17.1685 80.3674 17.4352 80.3674 17.6258C80.3674 17.7294 80.3759 17.9013 80.3862 18.111L80.3863 18.1133L80.3864 18.1141C80.4295 18.9864 80.5048 20.5093 80.1422 20.5093H76.539V7.1598H80.2548ZM110.206 8.65495V7.1598H106.49V20.5093H110.319V13.4608C110.319 11.8588 110.882 10.1501 112.571 10.1501C113.697 10.1501 114.598 10.1501 115.273 11.4316C115.536 12.0789 115.48 14.0958 115.426 16.0646C115.363 18.3185 115.303 20.5093 115.724 20.5093H119.327V11.9656C119.327 9.18893 117.525 6.83941 114.598 6.83941C112.217 6.83941 111.506 7.50892 110.864 8.11276C110.656 8.3088 110.455 8.49791 110.206 8.65495ZM33.864 10.1501V7.48021C33.864 7.21172 34.2001 7.18698 34.6403 7.15458C35.2507 7.10966 36.0613 7.05001 36.4538 6.30546C36.7149 5.89272 36.7069 5.6714 36.6898 5.19765C36.6848 5.05847 36.679 4.89751 36.679 4.70351C36.679 4.44978 36.6658 4.23777 36.6548 4.06077V4.06067L36.6548 4.06049C36.6337 3.72201 36.6206 3.51161 36.723 3.38238C36.8912 3.17009 37.3712 3.17681 38.6395 3.19458C39.0836 3.20079 39.6243 3.20837 40.2822 3.20837V7.15983H42.9846V10.4705H40.2822V16.1307C40.2822 17.6259 41.9712 17.5191 42.9846 17.3055V20.4025C42.7056 20.4356 42.567 20.4687 42.4417 20.4986C42.1625 20.5653 41.9493 20.6161 40.3948 20.6161C38.368 20.6161 36.4538 18.9074 36.4538 16.9851V10.4705H34.0892C33.864 10.4705 33.864 10.3637 33.864 10.1501ZM48.9523 7.15983V8.97537C48.9999 8.92464 49.0471 8.87391 49.0942 8.82332C49.9394 7.91542 50.7423 7.05304 52.5555 7.05304C52.6394 7.05304 52.7179 7.05273 52.7913 7.05245C53.3254 7.05039 53.5903 7.04937 53.7169 7.17346C53.8415 7.29561 53.8322 7.539 53.8135 8.02197C53.8048 8.24777 53.7941 8.52594 53.7941 8.86857V10.7909C51.0917 10.4705 49.0649 11.1113 49.0649 14.5288V20.5093H45.2365V7.15983H48.9523ZM99.8471 7.48019V20.1889C99.8471 20.4025 99.8471 20.5093 100.072 20.5093H103.675V7.1598H100.072C99.8471 7.1598 99.8471 7.2666 99.8471 7.48019ZM73.7241 20.5093H69.8958V7.1598H73.7241V20.5093ZM69.4453 3.10157V2.67439C69.4453 1.71322 70.4587 0.645264 71.4721 0.645264H72.0351C73.1611 0.645264 74.1745 1.82002 74.1745 2.88798C74.1745 3.95594 73.1611 5.0239 72.0351 5.0239H71.4721C70.5713 5.0239 69.4453 4.06274 69.4453 3.10157Z" fill="#00A88F"/>
</svg>
