<svg width="75" height="50" viewBox="0 0 75 50" fill="none" xmlns="http://www.w3.org/2000/svg">
<path fill-rule="evenodd" clip-rule="evenodd" d="M11.3001 12.0152C11.3164 11.9829 11.3303 11.9543 11.3425 11.9289H26.9159C30.6186 11.9289 32.5514 13.9427 34.8186 16.305L34.8186 16.305C35.2074 16.7101 35.606 17.1255 36.0251 17.5427C36.7191 18.32 41.0568 22.6383 41.5774 23.0702C42.3003 23.646 43.3245 23.622 44.3487 23.598C44.5535 23.5932 44.7584 23.5884 44.9608 23.5884H57.3666C57.7831 23.5884 57.9774 23.3673 58.1717 23.1462C58.2203 23.0909 58.2689 23.0356 58.3209 22.9838C59.362 22.0338 63.2659 18.32 63.5262 17.8018C61.1486 17.7441 58.6934 17.7635 56.2643 17.7828L56.2637 17.7828C55.0591 17.7923 53.861 17.8018 52.6819 17.8018C52.1024 17.8018 51.5317 17.8127 50.9712 17.8234C48.0072 17.8802 45.3277 17.9315 43.1389 16.3336C42.2913 15.7494 41.6397 15.0676 41 14.3983L40.9999 14.3982L40.9997 14.398C40.7883 14.1768 40.5782 13.957 40.3628 13.7426C39.466 12.8498 38.5693 11.9844 37.6671 11.1136C36.3 9.79426 34.9203 8.4628 33.5092 7.00595C32.9887 6.40138 32.5549 6.22865 31.5139 6.22865H17.2862C16.8614 6.22865 15.3969 7.78135 14.6366 8.58738L14.6366 8.58741L14.6366 8.58742C14.4652 8.76916 14.3296 8.91293 14.2498 8.99238L12.0809 11.1516C11.9074 11.2379 11.8206 11.3243 11.6471 11.497C11.5207 11.6229 11.4762 11.6672 11.4439 11.7191C11.4263 11.7474 11.4124 11.7779 11.3909 11.825C11.3782 11.8528 11.3629 11.8864 11.3425 11.9289H11.3001V12.0152ZM51.9011 0.442069C52.1894 0.585555 55.5306 3.94718 57.0517 5.4775L57.0531 5.47892C57.3624 5.79015 57.5963 6.02546 57.7137 6.14228C58.3437 6.82652 58.9737 7.43547 59.6287 8.06854L59.6289 8.06866C59.9659 8.39445 60.3096 8.72663 60.6633 9.07875L63.1792 11.5834C63.2659 11.6698 63.3141 11.7081 63.3463 11.7337C63.3623 11.7465 63.3744 11.7561 63.3852 11.7669C63.4178 11.7993 63.4394 11.8425 63.5262 12.0152H52.2481C51.6358 12.0152 51.0957 12.0185 50.6165 12.0213H50.6163H50.6161H50.6159H50.6158H50.6156H50.6155H50.6154H50.6153H50.6152H50.6151C48.3845 12.0347 47.4754 12.0401 46.756 11.6752C46.2611 11.4241 45.8558 10.9978 45.1719 10.2782L45.1718 10.278L45.1716 10.2778C44.8551 9.94483 44.4789 9.54903 44.0065 9.07875L44.0065 9.07872C42.0979 7.17866 40.276 5.36497 38.4542 3.46491C36.1986 1.21937 34.8973 0.355702 30.3861 0.355702H16.4186C16.0647 0.355702 15.7957 0.340782 15.5805 0.328843C14.8988 0.291031 14.7564 0.283132 14.163 0.873903L5.74783 9.25148C5.10514 9.8913 4.46246 10.5213 3.8264 11.1449L3.82619 11.1451C2.5734 12.3732 1.34632 13.5761 0.195557 14.779C0.45582 15.2108 4.18625 18.8382 4.88029 19.4428C5.88296 20.441 6.92348 21.4674 7.97372 22.5035C10.1039 24.6049 12.2741 26.7457 14.2498 28.7704C14.551 29.0703 14.6888 29.2075 14.8547 29.2667C14.9946 29.3166 15.1544 29.3111 15.449 29.301C15.6101 29.2955 15.8113 29.2886 16.0716 29.2886C16.7074 29.2886 17.4664 29.2974 18.259 29.3065H18.2591C19.954 29.3261 21.8021 29.3474 22.9252 29.2886C22.4002 28.5917 19.6027 25.8741 16.8915 23.2404L16.8914 23.2402C14.2264 20.6514 11.6449 18.1435 11.3869 17.7154C13.819 17.6001 16.3671 17.6388 18.9021 17.6772H18.9021H18.9022H18.9022H18.9022H18.9023H18.9023H18.9023H18.9023H18.9024H18.9024H18.9024H18.9025H18.9025C20.1652 17.6963 21.4246 17.7154 22.6649 17.7154C23.403 17.7154 24.0358 17.7094 24.5831 17.7042H24.5833H24.5834H24.5835H24.5835H24.5836H24.5836H24.5837H24.5837H24.5838H24.5838H24.5839H24.5839C26.5764 17.6852 27.4377 17.677 28.135 18.0096C28.6659 18.2629 29.1017 18.7139 29.8693 19.5082C30.1598 19.8088 30.4979 20.1587 30.9066 20.5655L36.5456 26.1794C39.3218 28.9431 40.4496 29.2886 44.527 29.2886H58.668C59.0282 29.2886 59.2915 29.3024 59.4941 29.313H59.4942H59.4942H59.4942C59.7839 29.3282 59.9493 29.3368 60.0964 29.2894C60.2923 29.2262 60.4557 29.0634 60.8368 28.684L72.0281 17.5427C72.1562 17.4152 72.3344 17.2416 72.54 17.0414L72.5417 17.0397L72.5422 17.0392L72.5424 17.0391L72.5427 17.0388C73.312 16.2895 74.4623 15.1691 74.8043 14.6926C73.821 13.6562 72.7607 12.6198 71.7004 11.5834C71.1702 11.0652 70.6401 10.547 70.1195 10.0288C69.1549 9.06845 68.1253 8.06193 67.0763 7.03641L67.0759 7.03607L67.0758 7.03595L67.0756 7.03582L67.0754 7.03561L67.075 7.03521C64.9168 4.92531 62.6763 2.73504 60.7501 0.70117C60.1929 0.146509 60.1389 0.148429 59.511 0.170762C59.3567 0.176249 59.1678 0.182969 58.9282 0.182969C58.6446 0.182969 58.2197 0.179363 57.7172 0.175098C55.7604 0.158491 52.6269 0.131897 52.0746 0.269335L51.9011 0.442069ZM51.0336 46.9074C50.8601 44.3164 53.8965 44.2301 53.9832 46.562C53.9832 47.512 53.723 48.5484 52.6819 48.6348C51.5541 48.7211 51.1203 47.9438 51.0336 46.9074ZM49.472 46.9938C49.6455 50.8803 55.8051 50.7076 55.5448 46.562C55.2845 42.5891 49.2985 42.7618 49.472 46.9938ZM19.455 46.1301C19.455 44.4028 22.0576 44.3164 21.9709 46.1301H19.455ZM22.8647 48.1685C22.914 48.1511 22.9631 48.1337 23.0119 48.1166V49.3257C21.6239 49.7575 20.1491 50.103 18.9345 49.153C16.8524 47.512 17.9802 42.6754 21.6239 43.7982C23.0987 44.23 23.4457 45.5256 23.4457 47.1665H19.455C19.7905 49.2542 21.4237 48.6774 22.8647 48.1685ZM66.8229 46.9938C66.8229 47.6847 66.6494 48.1165 66.2156 48.462C65.001 49.3257 63.6997 47.7711 65.001 47.1665C65.4186 46.9586 65.9479 46.9731 66.4544 46.987L66.4548 46.987C66.5796 46.9904 66.7029 46.9938 66.8229 46.9938ZM63.6997 45.4392C63.7804 45.41 63.8704 45.3758 63.9675 45.339C65.0187 44.9401 66.9023 44.2253 66.8229 46.0437C66.4426 46.1126 66.0622 46.1266 65.6874 46.1403C65.1217 46.1611 64.5685 46.1814 64.0467 46.3892C61.5309 47.5983 64.1335 51.6576 66.9096 48.8938L66.9964 49.6712H68.2977C68.3845 48.6347 68.2977 45.2664 67.8639 44.5755C67.3434 43.6255 65.7818 43.6255 64.654 43.7982C64.4805 43.7982 64.307 43.8846 64.1335 43.9709L63.613 44.23V45.4392H63.6997ZM57.9733 48.5205C57.9832 48.9409 57.9925 49.3378 57.9739 49.6712H57.8872H56.4124V43.8846H57.8872L57.9739 44.5755C58.7547 43.3664 60.8368 43.28 61.5309 44.6619C61.9646 45.5255 61.8779 48.6348 61.7911 49.6712H60.3163C60.2956 49.1572 60.3143 48.6089 60.3325 48.0742C60.3908 46.3626 60.4444 44.7894 59.1885 44.921C57.8936 45.1245 57.9372 46.9803 57.9733 48.5205ZM8.52397 49.6712C8.54254 49.3385 8.53329 48.9346 8.52344 48.5043C8.48726 46.9242 8.44296 44.9889 9.73853 44.921C10.8859 44.8609 10.8563 46.0979 10.8201 47.6127C10.8043 48.2742 10.7872 48.9886 10.8663 49.6712H12.3412V46.2165C12.3412 44.921 11.9941 44.0573 11.0398 43.7982C9.91204 43.4528 8.61072 44.0573 8.43722 44.5755L8.26371 43.7982H6.96239V49.5848H8.43722L8.52397 49.6712ZM38.9223 46.9914C38.0548 46.983 37.8284 46.9808 37.0661 47.512C36.8926 48.462 37.4132 48.8938 38.3675 48.6347C39.0615 48.462 39.3218 47.7711 39.3218 46.9938C39.1743 46.9938 39.0422 46.9925 38.9223 46.9914ZM36.6409 45.1368C36.502 45.2095 36.3594 45.2842 36.1986 45.3528V45.2664V43.9709C37.5867 43.4527 39.6688 43.1936 40.3628 44.4028C40.7966 45.1801 40.8833 48.462 40.7966 49.4984H39.4953L39.4085 48.7211C39.3818 48.7477 39.3549 48.7749 39.3274 48.8025C38.9084 49.2247 38.3849 49.7522 37.3264 49.6712C36.4589 49.6712 35.7648 49.0666 35.5913 48.3756C35.0708 46.1301 37.4132 45.9574 39.235 45.9574C39.3218 45.1801 38.888 44.7482 38.0204 44.7482C37.3827 44.7482 37.0262 44.9349 36.6409 45.1368ZM30.4728 49.5848C30.4921 49.2388 30.4771 48.8201 30.4611 48.3762C30.4053 46.8258 30.3384 44.9689 31.6874 44.8346C32.9391 44.7034 32.8901 46.166 32.832 47.8986C32.8136 48.4476 32.7943 49.0237 32.8152 49.5848H34.29C34.3768 48.462 34.4635 45.4392 34.0297 44.5755C33.2489 43.28 31.6874 43.4527 30.3861 44.4891V43.7982H28.9112V49.5848L30.3861 49.4984L30.4728 49.5848ZM15.8113 47.4256C15.8113 48.462 16.1583 48.7211 17.1994 48.462H17.2861L17.3729 49.6712C14.2603 50.1138 14.3131 48.6027 14.3946 46.2685C14.4085 45.8702 14.4233 45.448 14.4233 45.0073L13.3822 44.921L13.2955 43.7982H14.4233V42.5891L15.8981 42.1572V43.7982H17.1994V44.921H15.8981C15.7628 45.3249 15.7857 46.2537 15.8024 46.9299L15.8024 46.93C15.8071 47.1213 15.8113 47.2923 15.8113 47.4256ZM41.5774 44.921H42.7052C42.7052 45.3289 42.6909 45.7298 42.6773 46.1155V46.1155V46.1156V46.1156V46.1156V46.1157C42.5954 48.4245 42.5328 50.1892 45.6548 49.6712L45.5681 48.5484C44.1147 48.8378 44.1222 48.4606 44.1629 46.4018V46.4015C44.1709 46.0024 44.18 45.5402 44.18 45.0074H45.4813V43.8846H44.18V42.2436L42.7052 42.7618V43.8846H41.5774V44.921ZM71.3341 49.6712H69.8593V41.2072H71.3341V49.6712ZM3.75249 49.6712L5.31407 49.5848V41.8118H3.75249V49.6712ZM26.3246 48.2198C26.3352 48.6816 26.3457 49.1411 26.3086 49.5848H26.2219H24.747V43.7982H26.1351V44.921C26.4821 44.1437 27.0894 43.5391 28.2172 43.7118V45.1801C27.0026 45.0073 26.5689 45.2664 26.3954 46.3892C26.2961 46.9819 26.3104 47.6029 26.3246 48.2198ZM46.7826 49.6712H48.2574V43.7982H46.7826V43.9709V49.6712ZM48.2574 42.7618H46.7826V42.4163V41.7254V41.2936H48.2574V41.7254V42.7618Z" fill="#010066"/>
</svg>
