<svg width="90" height="26" viewBox="0 0 90 26" fill="none" xmlns="http://www.w3.org/2000/svg">
<path fill-rule="evenodd" clip-rule="evenodd" d="M13.1717 15.8883C13.1717 15.2481 13.3888 14.4655 13.5336 14.0387C13.7507 13.5407 14.0402 13.0427 14.4021 12.6158C14.7639 12.2601 15.1258 11.9756 15.7048 11.7622C18.8893 10.4816 21.9291 12.4736 21.9291 15.1769C21.9291 15.3159 21.9303 15.4477 21.9315 15.5738L21.9315 15.5741C21.9394 16.4159 21.9449 17.0049 21.5672 17.8092C21.2053 18.5917 20.4816 19.3743 19.6855 19.73C18.0932 20.5125 15.3429 20.228 14.3297 18.8051C13.6783 18.0226 13.1717 17.0266 13.1717 15.8883ZM18.3827 25.6347H17.2971C16.6091 25.6347 15.9211 25.5285 15.1396 25.4078L15.1396 25.4078C15.0168 25.3888 14.8917 25.3695 14.7639 25.3501C14.1126 25.2079 13.4612 24.9944 12.8822 24.7099C12.3032 24.4965 11.0004 23.785 10.5662 23.2871C10.4214 23.1803 10.3129 23.1092 10.2043 23.0381L10.2043 23.038C10.0957 22.9669 9.98715 22.8958 9.84241 22.7891C9.04629 22.0065 8.32253 20.7971 7.88828 19.8011C7.38165 18.8763 7.01978 17.0978 7.01978 15.7461C7.01978 14.1098 7.5264 12.1179 8.32253 10.8373C8.39491 10.695 8.46728 10.5883 8.53966 10.4816L8.53966 10.4816C8.61203 10.3749 8.68441 10.2682 8.75678 10.1259C11.7242 5.85742 18.3827 4.93258 22.4357 6.92454C24.6794 7.99166 26.344 9.55677 27.3572 11.9756C28.1534 13.8252 28.3705 16.1729 27.8639 18.1649C27.3572 20.0145 26.2716 22.0776 24.7517 23.1448C22.5805 24.781 20.6263 25.5636 18.3827 25.6347ZM29.7456 24.781V13.9675C29.7456 12.6159 30.0351 11.6199 30.4694 10.6239C31.1208 8.98764 33.0025 7.28025 34.6672 6.63997C36.8384 5.78628 39.5887 5.64399 41.7599 6.71112L42.9179 7.42253C43.2988 7.67865 43.5075 7.8802 43.6441 8.01209C43.7548 8.11901 43.8182 8.18015 43.8873 8.18745C43.9796 8.1972 44.0823 8.11096 44.322 7.90958C44.481 7.77602 44.7003 7.59182 45.0168 7.35139C47.9118 5.28829 51.9649 5.64399 54.8599 7.56481C55.1119 7.66391 55.1884 7.7285 55.3094 7.83068L55.3095 7.83071L55.3096 7.83079C55.3623 7.87529 55.4235 7.92693 55.5113 7.99166L56.5245 9.05878C57.7549 10.4816 58.2615 12.7581 58.2615 14.679C58.2615 15.0216 58.2669 15.5756 58.2735 16.2554L58.2735 16.2607L58.2736 16.2613C58.3012 19.1107 58.3503 24.161 58.1168 25.1367C57.5819 25.1367 56.9872 25.1441 56.3711 25.1517H56.371H56.371C55.0699 25.1678 53.6736 25.185 52.5439 25.1367C52.0716 25.0787 52.0808 24.8787 52.1003 24.4594C52.1047 24.3647 52.1096 24.2587 52.1096 24.1408V14.679C52.1096 13.5407 52.0372 13.1138 51.5306 12.4736C50.5174 11.1219 47.7671 11.1219 47.1881 13.3984C47.0161 14.0071 47.0567 16.2556 47.0999 18.6537C47.1477 21.3003 47.1988 24.129 46.971 25.1367C46.4048 25.1367 45.7848 25.1443 45.151 25.152C43.8405 25.168 42.4713 25.1847 41.3981 25.1367C40.8566 25.0776 40.8653 24.871 40.8836 24.4351C40.8873 24.3466 40.8914 24.2488 40.8914 24.1408V14.679C40.9638 10.6239 36.6937 10.8373 35.9699 13.3984C35.8049 13.9175 35.8506 15.9901 35.9011 18.2803V18.2803V18.2804V18.2804C35.9613 21.0121 36.0284 24.0532 35.7528 25.1367H32.5683C32.3417 25.1367 32.0868 25.146 31.8252 25.1556C30.8333 25.1917 29.7456 25.2314 29.7456 24.781ZM79.5399 20.1568C84.6062 20.1568 85.1852 11.3353 79.0333 11.3353C77.6581 11.3353 76.7173 11.9044 75.9935 12.6159C74.546 13.9675 74.4736 16.3863 75.3421 18.1649C75.8488 19.0897 76.7896 19.73 77.7305 20.0146C78.1881 20.1832 78.6005 20.1742 79.1106 20.1629C79.2459 20.16 79.3881 20.1568 79.5399 20.1568ZM85.2575 23.9273C83.3758 25.2079 81.0598 25.6347 78.7438 25.6347C77.5134 25.6347 75.4145 25.1367 74.6184 24.781C74.5037 24.7247 74.3862 24.6683 74.2675 24.6114L74.2675 24.6114C73.787 24.3809 73.2876 24.1414 72.8814 23.8562C72.7366 23.7851 72.3747 23.5005 72.23 23.3582C70.7825 22.1488 70.4206 21.722 69.4797 19.8723C68.9731 18.8763 68.5388 17.0266 68.5388 15.8884C68.5388 14.8212 68.9007 13.0427 69.335 11.9044C69.914 10.4105 71.4339 8.70308 72.7366 7.77824C75.0526 6.28427 76.9344 5.9997 79.757 5.9997C83.7377 5.9997 87.2117 8.27623 88.7316 11.4776C89.8172 13.6118 89.8896 16.1018 89.3106 18.3783C89.1658 19.0897 89.0211 19.5166 88.6592 20.1568C87.7907 21.9354 86.9222 22.8602 85.2575 23.9273ZM60.5775 24.2119V6.49769C61.0329 6.32984 63.7714 6.382 65.3427 6.41194C65.7692 6.42006 66.1098 6.42655 66.2952 6.42655C66.5847 6.42655 66.6571 6.49769 66.6571 6.71111V24.781C66.6571 24.9944 66.5847 25.1367 66.2952 25.1367H60.9394C60.5611 25.1367 60.5673 24.8128 60.5752 24.4001C60.5763 24.3391 60.5775 24.2761 60.5775 24.2119Z" fill="#09246A"/>
<path fill-rule="evenodd" clip-rule="evenodd" d="M0.216553 4.86146C0.216553 6.49771 0.867931 7.70711 2.17069 8.70309C2.38781 8.84538 2.53256 8.91652 2.89444 9.0588C7.09221 11.1219 11.4347 5.57287 7.88834 2.15808C7.01983 1.30439 5.9342 0.806396 4.7762 0.806396H4.55907C3.47344 0.806396 2.46019 1.23324 1.59168 2.0158C0.940306 2.65607 0.216553 4.00776 0.216553 4.86146Z" fill="#FF6B6B"/>
</svg>
