<?xml version="1.0" encoding="utf-8"?><svg xmlns="http://www.w3.org/2000/svg" xmlns:xlink="http://www.w3.org/1999/xlink"><symbol fill="none" viewBox="0 0 24 24" id="ArrowsLeftRight" xmlns="http://www.w3.org/2000/svg"><path d="M3.394 17h18" stroke="currentColor" stroke-width="1.5" stroke-linecap="square" stroke-linejoin="round"/><path d="m18.394 21 3.047-3.554a.686.686 0 0 0 0-.892L18.393 13" stroke="currentColor" stroke-width="1.5" stroke-linecap="square"/><path d="M20.606 8h-18" stroke="currentColor" stroke-width="1.5" stroke-linecap="square" stroke-linejoin="round"/><path d="M5.606 4 2.559 7.554a.686.686 0 0 0 0 .892L5.606 12" stroke="currentColor" stroke-width="1.5" stroke-linecap="square"/></symbol><symbol fill="none" viewBox="0 0 24 24" id="ChatsCircle" xmlns="http://www.w3.org/2000/svg"><path d="M3.194 13.195a6.747 6.747 0 1 1 2.36 2.36h0l-2.33.667a.563.563 0 0 1-.696-.696l.666-2.33h0Z" stroke="currentColor" stroke-width="1.5" stroke-linecap="round" stroke-linejoin="round"/><path d="M8.63 16.49a6.754 6.754 0 0 0 9.815 3.566h0l2.331.666a.563.563 0 0 0 .696-.696l-.666-2.33h0A6.753 6.753 0 0 0 15.369 7.51" stroke="currentColor" stroke-width="1.5" stroke-linecap="round" stroke-linejoin="round"/></symbol><symbol fill="none" viewBox="0 0 24 24" id="ChatsTeardrop" xmlns="http://www.w3.org/2000/svg"><path d="M9 16.5H2.812a.563.563 0 0 1-.562-.563V9.749A6.75 6.75 0 0 1 9 3h0a6.75 6.75 0 0 1 6.75 6.75v0A6.75 6.75 0 0 1 9 16.5v0Z" stroke="currentColor" stroke-width="1.5" stroke-linecap="round" stroke-linejoin="round"/><path d="M8.634 16.5A6.752 6.752 0 0 0 15 21h6.188a.562.562 0 0 0 .562-.563v-6.188a6.75 6.75 0 0 0-6.381-6.74" stroke="currentColor" stroke-width="1.5" stroke-linecap="round" stroke-linejoin="round"/></symbol><symbol fill="none" viewBox="0 0 24 24" id="Pencil_Edit" xmlns="http://www.w3.org/2000/svg"><path clip-rule="evenodd" d="m18.125 2.572 2.5 2.035a1.24 1.24 0 0 1-.01 1.787l-1.9 2.314-6.466 7.89a.821.821 0 0 1-.431.266l-3.353.771a.85.85 0 0 1-.88-.752l.158-3.307a.771.771 0 0 1 .19-.457l6.187-7.54 2.18-2.658a1.365 1.365 0 0 1 1.825-.349Z" stroke="currentColor" stroke-width="1.5" stroke-linecap="round" stroke-linejoin="round"/><path d="M3 20.887a.75.75 0 0 0 0 1.5v-1.5Zm17.612 1.5a.75.75 0 1 0 0-1.5v1.5ZM14.815 5.299a.75.75 0 1 0-1.39.561l1.39-.561Zm4.065 4.145a.75.75 0 0 0-.33-1.463l.33 1.463ZM3 22.387h17.612v-1.5H3v1.5ZM13.424 5.86c.29.718.888 1.744 1.772 2.53.898.8 2.156 1.399 3.684 1.054l-.33-1.463c-.915.206-1.696-.124-2.357-.711-.674-.6-1.153-1.415-1.378-1.971l-1.39.561Z" fill="currentColor"/></symbol><symbol fill="none" viewBox="0 0 24 24" id="Question" xmlns="http://www.w3.org/2000/svg"><path clip-rule="evenodd" d="M4 13.143v-2.286A6.857 6.857 0 0 1 10.857 4h2.286A6.857 6.857 0 0 1 20 10.857v2.286A6.857 6.857 0 0 1 13.143 20h-2.286A6.857 6.857 0 0 1 4 13.143Z" stroke="currentColor" stroke-width="1.5" stroke-linecap="round" stroke-linejoin="round"/><path d="M9.714 9.302c0-1.246 1.029-1.932 2.568-1.874a2.075 2.075 0 0 1 2.004 2.058 2.98 2.98 0 0 1-1.3 2.617A2.197 2.197 0 0 0 12 14.286" stroke="currentColor" stroke-width="1.5" stroke-linecap="round" stroke-linejoin="round"/><path d="M12 15.429a1.143 1.143 0 1 1 0 2.285 1.143 1.143 0 0 1 0-2.285Z" fill="currentColor"/></symbol><symbol fill="none" viewBox="0 0 24 24" id="Ticket" xmlns="http://www.w3.org/2000/svg"><path d="M20.25 5.75a1 1 0 0 1 1 1v2.26a3 3 0 0 0 0 5.98v2.26a1 1 0 0 1-1 1H3.75a1 1 0 0 1-1-1v-2.26a3 3 0 0 0 0-5.98V6.75a1 1 0 0 1 1-1h16.5Z" stroke="currentColor" stroke-width="1.5"/></symbol><symbol fill="none" viewBox="0 0 24 24" id="TrainSimple" xmlns="http://www.w3.org/2000/svg"><path d="M4.125 12h15.75M9 19.5l-2.25 3M15 19.5l2.25 3M17.625 3H6.375a2.25 2.25 0 0 0-2.25 2.25v12a2.25 2.25 0 0 0 2.25 2.25h11.25a2.25 2.25 0 0 0 2.25-2.25v-12A2.25 2.25 0 0 0 17.625 3Z" stroke="currentColor" stroke-width="1.5" stroke-linecap="round" stroke-linejoin="round"/><path d="M7.875 17.25a1.125 1.125 0 1 0 0-2.25 1.125 1.125 0 0 0 0 2.25ZM16.125 17.25a1.125 1.125 0 1 0 0-2.25 1.125 1.125 0 0 0 0 2.25Z" fill="currentColor"/></symbol><symbol fill="none" viewBox="0 0 24 24" id="arrow_down" xmlns="http://www.w3.org/2000/svg"><path d="M11.932 18V5M4.932 13.38l6.219 5.331a1.2 1.2 0 0 0 1.562 0l6.219-5.33" stroke="currentColor" stroke-width="1.5" stroke-linecap="square"/></symbol><symbol fill="none" viewBox="0 0 24 24" id="arrow_left" xmlns="http://www.w3.org/2000/svg"><path d="M5.932 12h13M10.551 5l-5.33 6.22a1.2 1.2 0 0 0 0 1.56L10.55 19" stroke="currentColor" stroke-width="1.5" stroke-linecap="square"/></symbol><symbol fill="none" viewBox="0 0 24 24" id="arrow_right" xmlns="http://www.w3.org/2000/svg"><path d="M17.932 12h-13M13.312 19l5.331-6.22a1.2 1.2 0 0 0 0-1.56L13.313 5" stroke="currentColor" stroke-width="1.5" stroke-linecap="square"/></symbol><symbol fill="none" viewBox="0 0 24 24" id="arrow_up" xmlns="http://www.w3.org/2000/svg"><path d="M11.932 6v13M18.932 10.62l-6.22-5.331a1.2 1.2 0 0 0-1.561 0l-6.22 5.33" stroke="currentColor" stroke-width="1.5" stroke-linecap="square"/></symbol><symbol fill="none" viewBox="0 0 24 24" id="check" xmlns="http://www.w3.org/2000/svg"><path d="m5 13.5 3.293 3.293a1 1 0 0 0 1.414 0L19.5 7" stroke="currentColor" stroke-width="1.5" stroke-linecap="square"/></symbol><symbol fill="none" viewBox="0 0 24 24" id="close" xmlns="http://www.w3.org/2000/svg"><path d="M18 6 6 17.676M18 18 6 6.324" stroke="currentColor" stroke-width="1.5" stroke-linecap="square"/></symbol><symbol fill="none" viewBox="0 0 24 24" id="down" xmlns="http://www.w3.org/2000/svg"><path d="m19 8-6.22 6.64c-.448.48-1.112.48-1.56 0L5 8" stroke="currentColor" stroke-width="1.5" stroke-linecap="square"/></symbol><symbol fill="none" viewBox="0 0 24 24" id="globe" xmlns="http://www.w3.org/2000/svg"><path d="M12 21a9 9 0 1 0 0-18 9 9 0 0 0 0 18ZM3 12h18" stroke="currentColor" stroke-width="1.5" stroke-linecap="round" stroke-linejoin="round"/><path d="M12 3a13.77 13.77 0 0 1 3.6 9 13.77 13.77 0 0 1-3.6 9 13.77 13.77 0 0 1-3.6-9A13.77 13.77 0 0 1 12 3v0Z" stroke="currentColor" stroke-width="1.5" stroke-linecap="round" stroke-linejoin="round"/></symbol><symbol fill="none" viewBox="0 0 40 40" id="globe-2" xmlns="http://www.w3.org/2000/svg"><path fill-rule="evenodd" clip-rule="evenodd" d="M18.46 3.035c-1.87.172-3.882.908-5.535 2.025-.97.656-2.34 2.023-2.99 2.986-.984 1.455-1.636 3.066-1.904 4.7l-.144.88-.535.001h-.535l-.077-.29c-.198-.739-1.128-1.012-1.71-.501-.358.315-.391.507-.349 2.05.043 1.543.176 2.48.539 3.795 1.599 5.789 6.655 10.126 12.575 10.788l.698.078v1.081l-5.004 1.11c-3.237.718-5.06 1.152-5.166 1.229-.089.065-.224.201-.299.302-.129.172-.137.273-.137 1.637 0 1.6.005 1.619.458 1.957l.183.138H30.585l.184-.138c.453-.338.458-.359.458-1.95v-1.447l-.192-.251c-.105-.139-.285-.29-.399-.336-.114-.046-2.414-.573-5.111-1.17l-4.904-1.087V29.52h.207c.427 0 1.65-.213 2.52-.439 5.12-1.33 9.191-5.369 10.575-10.492.337-1.251.468-2.203.51-3.703.042-1.543.01-1.735-.35-2.05-.581-.51-1.511-.238-1.71.501l-.077.29h-1.069l-.144-.881c-.839-5.12-5.077-9.116-10.277-9.687a15.187 15.187 0 0 0-2.346-.024Zm2.88 2.245c3.388.665 6.203 3.126 7.293 6.376.096.287.159.538.14.557-.02.02-.523.121-1.118.226-1.117.196-1.28.26-1.544.615-.115.154-.141.302-.16.91l-.022.727h-.193c-.181 0-.22-.054-.622-.855-.457-.912-.68-1.17-1.073-1.245-.368-.069-.533-.008-1.812.671-1.252.665-1.505.866-1.578 1.257-.023.122.053.974.168 1.894l.21 1.671-.2.253c-.402.509-1.516 1.382-1.688 1.325-.032-.01-.426-.97-.877-2.133-.468-1.209-.884-2.183-.97-2.275-.084-.09-.313-.222-.51-.296-.525-.196-1.03-.464-1.005-.534.011-.034.481-.69 1.043-1.46l1.023-1.398.64-.008c.352-.004 1.543-.027 2.646-.05 1.888-.04 2.018-.05 2.19-.179.65-.486.615-1.236-.117-2.47-.493-.834-1.843-1.977-2.919-2.472-.422-.194-1.208-.31-3.554-.521-.22-.02-.443-.059-.496-.087-.175-.093 1.33-.496 2.324-.621.478-.06 2.245.017 2.781.122Zm-4.908 2.686c3.24.357 3.078.316 3.988 1l.497.372-.697.042c-.383.023-1.25.046-1.928.05-1.057.007-1.263.025-1.463.13-.304.162-3.566 4.576-3.63 4.913-.054.293.008.584.176.82.175.245 1.002.828 1.758 1.238l.593.321.934 2.421c.877 2.27.951 2.434 1.191 2.627.226.182.303.205.665.2.737-.008 1.963-.605 2.984-1.453.567-.47 1.334-1.364 1.555-1.812l.17-.344-.174-1.418a53.91 53.91 0 0 0-.205-1.565c-.026-.12.019-.174.233-.284l.266-.135.33.656c.35.698.605.977.954 1.043.118.022.788.03 1.49.019 1.166-.02 1.29-.033 1.458-.158.409-.306.456-.436.48-1.323l.022-.818.336-.045c.185-.025.427-.063.538-.085l.2-.04-.04.792c-.128 2.458-1.07 4.58-2.804 6.314-1.393 1.393-3.05 2.277-5.005 2.669-.877.176-2.757.16-3.621-.03-1.973-.436-3.502-1.262-4.879-2.64-1.394-1.393-2.28-3.057-2.668-5.005-.146-.735-.163-2.612-.03-3.343.334-1.831 1.203-3.581 2.435-4.904.463-.496.534-.548.755-.546.133.001 1.545.146 3.136.321Zm-8.4 8.67c.593 3.629 2.964 6.84 6.27 8.496a11.412 11.412 0 0 0 4.79 1.24c5.837.258 11.047-3.972 11.99-9.735l.145-.881h1.03v.19c0 .272-.179 1.28-.338 1.904-.215.84-.445 1.467-.862 2.346a12.585 12.585 0 0 1-5.99 5.995c-3.534 1.693-7.497 1.684-11.063-.024-3.746-1.796-6.328-5.255-7.046-9.44a7.324 7.324 0 0 1-.102-.781v-.19H7.887l.144.88ZM24.81 33.733c3.498.775 4.293.97 4.31 1.062.02.105-.612.112-9.563.112-8.816 0-9.584-.009-9.564-.108.017-.086.891-.303 4.277-1.059l4.256-.95.998-.004.997-.003 4.289.95Z" fill="#F24C26"/></symbol><symbol fill="none" viewBox="0 0 24 24" id="left" xmlns="http://www.w3.org/2000/svg"><path d="m15 19-6.64-6.22c-.48-.448-.48-1.112 0-1.56L15 5" stroke="currentColor" stroke-width="1.5" stroke-linecap="square"/></symbol><symbol fill="none" viewBox="0 0 24 24" id="map" xmlns="http://www.w3.org/2000/svg"><path d="M8.362 18.108a25.039 25.039 0 0 0 3.707 3 27.15 27.15 0 0 0 3.717-3.096c1.917-1.928 3.614-4.334 3.614-6.706 0-4.186-3.307-7.556-7.325-7.556-4.019 0-7.325 3.37-7.325 7.556 0 2.502 1.704 4.912 3.612 6.802Z" stroke="currentColor" stroke-width="1.5"/><circle cx="12.075" cy="10.125" r="2.575" stroke="currentColor" stroke-width="1.5"/></symbol><symbol fill="none" viewBox="0 0 24 24" id="plus" xmlns="http://www.w3.org/2000/svg"><path d="M18 12H6M12 18V6" stroke="currentColor" stroke-width="1.5" stroke-linecap="square"/></symbol><symbol fill="none" viewBox="0 0 24 24" id="right" xmlns="http://www.w3.org/2000/svg"><path d="m8 5 6.64 6.22c.48.448.48 1.112 0 1.56L8 19" stroke="currentColor" stroke-width="1.5" stroke-linecap="square"/></symbol><symbol fill="none" viewBox="0 0 40 40" id="route" xmlns="http://www.w3.org/2000/svg"><path fill-rule="evenodd" clip-rule="evenodd" d="M19.384 2.624c-.298.184-.421.349-.509.676l-.077.29H8.569l-.233.156c-.492.329-.47.098-.471 5.27v4.64l.15.266c.094.17.251.315.431.402.275.133.422.137 5.32.137h5.037v2.251l-4.529.02c-4.097.017-4.549.03-4.734.134-.243.137-4.771 4.672-4.881 4.888-.106.21-.094.678.022.897.151.284 4.765 4.852 4.983 4.933.127.047 1.719.071 4.666.071h4.473v7.794h-6.75c-6.617 0-6.756.003-6.975.136a1.046 1.046 0 0 0 0 1.779c.22.134.375.136 14.826.136h14.603l.232-.155a1.05 1.05 0 0 0 0-1.74l-.232-.156H20.923v-7.79l5.156-.019c5.087-.018 5.16-.02 5.345-.16.104-.077.253-.226.33-.33.14-.186.141-.247.141-4.952v-4.763l-.159-.223c-.346-.486-.026-.459-5.703-.48l-5.11-.02v-2.251h4.514c3.719 0 4.553-.017 4.734-.096.283-.123 4.873-4.729 4.968-4.985.107-.287.087-.569-.06-.852-.17-.327-4.626-4.77-4.88-4.865-.128-.048-1.71-.072-4.735-.072h-4.541v-.188c-.001-.256-.226-.605-.495-.77-.286-.174-.77-.178-1.044-.009Zm11.605 4.71 1.692 1.69-1.657 1.66-1.657 1.658H9.985v-6.7h19.311l1.693 1.691Zm-18.103.728c-.728.32-.842 1.271-.212 1.778l.263.211 6.834.019c6.65.018 6.843.014 7.136-.115.328-.145.54-.424.611-.807.055-.293-.178-.799-.465-1.007-.19-.14-.255-.14-7.075-.155-5.618-.013-6.922.001-7.092.076ZM29.81 22.186v3.35H10.428l-1.674-1.675-1.674-1.675 1.674-1.675 1.674-1.675H29.81v3.35Zm-17.022-.898c-.514.275-.687 1.03-.346 1.508.342.481-.176.45 7.455.45h6.87l.24-.15c.329-.204.505-.527.505-.926 0-.368-.142-.609-.504-.855l-.226-.154h-6.879c-6.57 0-6.89.005-7.115.127Z" fill="#F24C26"/></symbol><symbol fill="none" viewBox="0 0 24 24" id="social_facebook" xmlns="http://www.w3.org/2000/svg"><path d="M12.875 8.563v-2.75c0-.76.616-1.375 1.375-1.375h1.375V1h-2.75A4.125 4.125 0 0 0 8.75 5.125v3.438H6V12h2.75v11h4.125V12h2.75L17 8.562h-4.125Z" fill="currentColor"/></symbol><symbol fill="none" viewBox="0 0 24 24" id="social_instagram" xmlns="http://www.w3.org/2000/svg"><path d="M12.002 2.981c2.94 0 3.288.013 4.444.065 1.074.047 1.655.227 2.041.378.512.198.881.438 1.264.82.387.388.623.753.82 1.264.151.387.332.972.379 2.042.052 1.16.065 1.508.065 4.444 0 2.94-.013 3.287-.065 4.443-.047 1.075-.228 1.655-.378 2.042a3.403 3.403 0 0 1-.821 1.263 3.384 3.384 0 0 1-1.264.821c-.386.15-.97.331-2.041.378-1.16.052-1.509.065-4.444.065-2.94 0-3.288-.013-4.444-.065-1.074-.047-1.654-.227-2.041-.378a3.403 3.403 0 0 1-1.264-.82 3.384 3.384 0 0 1-.82-1.264c-.15-.387-.331-.971-.379-2.042-.051-1.16-.064-1.508-.064-4.443 0-2.94.013-3.288.064-4.444.048-1.075.228-1.655.379-2.042.197-.511.438-.88.82-1.263a3.384 3.384 0 0 1 1.264-.821c.387-.15.971-.331 2.041-.378 1.156-.052 1.505-.065 4.444-.065Zm0-1.981c-2.987 0-3.36.013-4.534.064-1.169.052-1.973.241-2.669.512a5.37 5.37 0 0 0-1.951 1.272 5.39 5.39 0 0 0-1.272 1.947c-.27.7-.46 1.5-.512 2.669C1.013 8.64 1 9.015 1 12.002s.013 3.361.064 4.534c.052 1.17.241 1.973.512 2.67a5.37 5.37 0 0 0 1.272 1.95c.61.61 1.225.989 1.947 1.268.7.27 1.5.46 2.669.512 1.173.051 1.547.064 4.534.064s3.36-.013 4.534-.064c1.169-.052 1.973-.241 2.669-.512a5.377 5.377 0 0 0 1.947-1.268c.61-.61.988-1.225 1.268-1.947.27-.7.46-1.5.51-2.668.053-1.174.065-1.548.065-4.535 0-2.986-.012-3.36-.064-4.534-.052-1.169-.24-1.972-.511-2.669a5.152 5.152 0 0 0-1.26-1.955A5.378 5.378 0 0 0 19.21 1.58c-.7-.27-1.5-.46-2.668-.511C15.363 1.013 14.989 1 12.002 1Z" fill="currentColor"/><path d="M12.002 6.35a5.653 5.653 0 0 0-5.651 5.652 5.653 5.653 0 0 0 5.651 5.652 5.653 5.653 0 0 0 5.652-5.652 5.653 5.653 0 0 0-5.652-5.651Zm0 9.318a3.666 3.666 0 1 1 .001-7.333 3.666 3.666 0 0 1 0 7.333ZM19.197 6.127a1.32 1.32 0 1 1-2.64 0 1.32 1.32 0 0 1 2.64 0Z" fill="currentColor"/></symbol><symbol fill="none" viewBox="0 0 24 24" id="social_youtube" xmlns="http://www.w3.org/2000/svg"><path fill-rule="evenodd" clip-rule="evenodd" d="M22.747 4.834c.372.375.64.84.775 1.351.502 1.885.502 5.815.502 5.815s0 3.93-.502 5.814A3.016 3.016 0 0 1 21.4 19.95c-1.876.505-9.376.505-9.376.505s-7.5 0-9.377-.505a3.017 3.017 0 0 1-2.121-2.136C.024 15.93.024 12 .024 12s0-3.93.502-5.815A3.016 3.016 0 0 1 2.647 4.05c1.877-.505 9.377-.505 9.377-.505s7.5 0 9.376.505c.51.139.974.41 1.347.784ZM15.841 12 9.57 8.431v7.138L15.842 12Z" fill="currentColor"/></symbol><symbol fill="none" viewBox="0 0 48 48" id="step-01" xmlns="http://www.w3.org/2000/svg"><path d="M0 4a4 4 0 0 1 4-4h40a4 4 0 0 1 4 4v40a4 4 0 0 1-4 4H4a4 4 0 0 1-4-4V4Z" fill="#96BF02"/><path d="M1.344 35.32c5.344 0 9.376-4.16 9.376-11.52 0-7.36-4.032-11.52-9.376-11.52C-3.968 12.28-8 16.44-8 23.8c0 7.36 4.032 11.52 9.344 11.52Zm0-3.616c-3.04 0-5.152-2.496-5.152-7.904 0-5.408 2.112-7.904 5.152-7.904 3.072 0 5.184 2.496 5.184 7.904 0 5.408-2.112 7.904-5.184 7.904ZM12.223 12.6v3.488h4.736V35h4.16V12.6h-8.896Z" fill="#fff"/></symbol><symbol fill="none" viewBox="0 0 48 48" id="step-02" xmlns="http://www.w3.org/2000/svg"><path d="M0 4a4 4 0 0 1 4-4h40a4 4 0 0 1 4 4v40a4 4 0 0 1-4 4H4a4 4 0 0 1-4-4V4Z" fill="#96BF02"/><path d="M1.344 35.32c5.344 0 9.376-4.16 9.376-11.52 0-7.36-4.032-11.52-9.376-11.52C-3.968 12.28-8 16.44-8 23.8c0 7.36 4.032 11.52 9.344 11.52Zm0-3.616c-3.04 0-5.152-2.496-5.152-7.904 0-5.408 2.112-7.904 5.152-7.904 3.072 0 5.184 2.496 5.184 7.904 0 5.408-2.112 7.904-5.184 7.904ZM19.039 31.48l5.984-5.696c3.104-2.912 3.712-4.896 3.712-7.072 0-3.968-3.136-6.432-8-6.432-3.68 0-6.784 1.376-8.512 3.712l2.912 2.24c1.248-1.6 3.072-2.336 5.248-2.336 2.752 0 4.16 1.184 4.16 3.232 0 1.248-.384 2.56-2.56 4.64l-8.896 8.448V35h16.512v-3.52h-10.56Z" fill="#fff"/></symbol><symbol fill="none" viewBox="0 0 48 48" id="step-03" xmlns="http://www.w3.org/2000/svg"><path d="M0 4a4 4 0 0 1 4-4h40a4 4 0 0 1 4 4v40a4 4 0 0 1-4 4H4a4 4 0 0 1-4-4V4Z" fill="#96BF02"/><path d="M1.344 35.32c5.344 0 9.376-4.16 9.376-11.52 0-7.36-4.032-11.52-9.376-11.52C-3.968 12.28-8 16.44-8 23.8c0 7.36 4.032 11.52 9.344 11.52Zm0-3.616c-3.04 0-5.152-2.496-5.152-7.904 0-5.408 2.112-7.904 5.152-7.904 3.072 0 5.184 2.496 5.184 7.904 0 5.408-2.112 7.904-5.184 7.904ZM22.755 21.848l5.44-6.464V12.6H12.93v3.488h10.176l-5.088 6.048v2.848h2.048c3.392 0 4.864 1.312 4.864 3.328 0 2.08-1.76 3.392-4.736 3.392-2.528 0-4.96-.864-6.56-2.208l-1.792 3.232c2.08 1.632 5.248 2.592 8.416 2.592 6.016 0 8.864-3.264 8.864-7.04 0-3.36-2.144-5.888-6.368-6.432Z" fill="#fff"/></symbol><symbol fill="none" viewBox="0 0 40 40" id="suitcase" xmlns="http://www.w3.org/2000/svg"><path fill-rule="evenodd" clip-rule="evenodd" d="M15.421 5.083c-.72.225-1.238.68-1.563 1.366-.177.375-.184.44-.205 1.909l-.023 1.52-4.733.02-4.733.02-.395.184c-.557.26-.94.63-1.207 1.17l-.23.463V33.93l.186.393a2.41 2.41 0 0 0 1.177 1.199l.467.228h32.342l.467-.228a2.41 2.41 0 0 0 1.176-1.199l.186-.393V11.735l-.23-.464c-.267-.54-.65-.91-1.206-1.17l-.396-.184-4.733-.019-4.733-.02-.022-1.52c-.022-1.474-.029-1.533-.208-1.914a2.41 2.41 0 0 0-1.177-1.199l-.466-.228-4.722-.014c-3.765-.01-4.782.005-5.019.08Zm9.38 2.11c.093.091.111.32.111 1.4v1.29H15.753v-1.29c0-1.08.019-1.309.111-1.4.098-.098.601-.11 4.469-.11 3.868 0 4.37.012 4.468.11ZM6.977 12.277c-.342.964-1.231 1.86-2.212 2.23l-.354.134v-1.22c0-1.015.019-1.238.11-1.33.093-.091.317-.11 1.336-.11h1.225l-.105.296Zm24.57.23c.29 1.06 1.018 2.199 1.871 2.923.746.633 1.468.988 2.749 1.353.07.02.085 1.265.07 6.058l-.018 6.033-.468.128a6.002 6.002 0 0 0-4.206 4.172l-.13.475H9.25l-.128-.466a5.967 5.967 0 0 0-4.092-4.147l-.585-.167V16.792l.478-.13c2.002-.545 3.626-2.138 4.173-4.095.063-.225.127-.449.143-.497.022-.07 2.277-.084 11.101-.07l11.073.018.134.49Zm4.597-.415c.092.091.11.314.11 1.33v1.22l-.354-.135c-.98-.37-1.87-1.266-2.212-2.23l-.104-.295h1.224c1.02 0 1.244.018 1.336.11Zm-16.379 2.191c-.47.302-3.357 3.227-3.416 3.462-.09.354.006.792.235 1.076.118.146.875.917 1.682 1.711 1.638 1.613 1.783 1.707 2.366 1.534.246-.073.56-.345 1.768-1.534.807-.794 1.564-1.565 1.682-1.711.228-.284.324-.723.234-1.076-.062-.247-3.132-3.338-3.505-3.53-.37-.188-.677-.169-1.046.068Zm1.326 3.108.721.719-.74.732-.74.733-.739-.733-.74-.732.721-.72c.397-.394.738-.718.759-.718.02 0 .362.324.758.719Zm-9.248 4.491c-.593.148-1.037.4-1.484.842-1.25 1.238-1.25 3.174.002 4.417 1.82 1.81 4.898.824 5.335-1.708.171-.992-.15-1.972-.89-2.71-.795-.794-1.896-1.106-2.962-.84Zm13.594.66c-1.126.41-2.132.801-2.236.869-.255.166-.426.518-.417.857.007.295 2.36 6.807 2.58 7.14.17.26.527.455.83.455.352 0 4.46-1.484 4.691-1.695.205-.187.367-.537.367-.789 0-.197-2.404-6.81-2.594-7.133-.156-.267-.541-.465-.892-.457-.172.003-1.081.297-2.33.752Zm-12.359 1.482c.313.158.562.562.562.909 0 .535-.52 1.05-1.062 1.05-.328 0-.763-.272-.918-.574-.26-.507-.097-1.06.401-1.36.338-.203.652-.21 1.017-.025Zm14.144.331c.217.598 1.493 4.072 1.553 4.226l.071.183-.991.36c-.546.199-.998.353-1.006.343-.06-.08-1.66-4.553-1.637-4.576.031-.03 1.815-.71 1.895-.722.025-.003.077.08.115.186ZM5.325 31.425c.693.403 1.344 1.166 1.628 1.908l.135.352H5.86c-1.022 0-1.246-.019-1.338-.11-.092-.092-.111-.314-.111-1.327V31.03l.297.104c.164.057.44.188.617.29Zm30.93.82c0 1.016-.019 1.238-.111 1.33-.092.091-.316.11-1.336.11h-1.224l.104-.295c.336-.945 1.174-1.807 2.142-2.203a9.95 9.95 0 0 1 .407-.16c.01-.002.017.547.017 1.218Z" fill="#F24C26"/></symbol><symbol fill="none" viewBox="0 0 48 48" id="travel-1" xmlns="http://www.w3.org/2000/svg"><path fill-rule="evenodd" clip-rule="evenodd" d="M24 5C13.507 5 5 13.507 5 24s8.507 19 19 19 19-8.507 19-19S34.493 5 24 5ZM3 24C3 12.402 12.402 3 24 3s21 9.402 21 21-9.402 21-21 21S3 35.598 3 24Z" fill="#F24C26"/><path fill-rule="evenodd" clip-rule="evenodd" d="M24 11c-7.18 0-13 5.82-13 13s5.82 13 13 13 13-5.82 13-13-5.82-13-13-13ZM9 24c0-8.284 6.716-15 15-15 8.284 0 15 6.716 15 15 0 8.284-6.716 15-15 15-8.284 0-15-6.716-15-15Z" fill="#F24C26"/><path fill-rule="evenodd" clip-rule="evenodd" d="m28.36 19.64-6.342 2.378-2.379 6.342 6.343-2.378 2.379-6.343Zm-.665 7.47a1 1 0 0 1-.585.585l-8.828 3.31a1 1 0 0 1-1.288-1.287l3.31-8.828a1 1 0 0 1 .586-.585l8.828-3.311c.804-.301 1.59.484 1.288 1.288l-3.31 8.828Z" fill="#F24C26"/><path fill-rule="evenodd" clip-rule="evenodd" d="M21.464 21.464a1 1 0 0 1 1.415 0l4.242 4.243a1 1 0 0 1-1.414 1.414l-4.243-4.242a1 1 0 0 1 0-1.415Z" fill="#F24C26"/><path d="M24.914 16.722a1 1 0 1 1-1.414-1.414 1 1 0 0 1 1.414 1.414ZM33.046 24.854a1 1 0 1 1-1.414-1.415 1 1 0 0 1 1.414 1.415ZM23.5 34.4a1 1 0 1 1-1.414-1.415A1 1 0 0 1 23.5 34.4ZM15.368 26.268a1 1 0 1 1-1.414-1.414 1 1 0 0 1 1.414 1.414Z" fill="#F24C26"/></symbol><symbol fill="none" viewBox="0 0 48 48" id="travel-2" xmlns="http://www.w3.org/2000/svg"><path fill-rule="evenodd" clip-rule="evenodd" d="M1 16.27a3 3 0 0 1 3-3h24.455a1 1 0 0 1 .98.802 1.751 1.751 0 0 0 3.43 0 1 1 0 0 1 .98-.801H44a3 3 0 0 1 3 3v19.1a3 3 0 0 1-3 3H33.845a1 1 0 0 1-.98-.801 1.751 1.751 0 0 0-3.43 0 1 1 0 0 1-.98.8H4a3 3 0 0 1-3-3v-19.1Zm3-1a1 1 0 0 0-1 1v19.1a1 1 0 0 0 1 1h23.735a3.75 3.75 0 0 1 6.83 0H44a1 1 0 0 0 1-1v-19.1a1 1 0 0 0-1-1h-9.435a3.75 3.75 0 0 1-6.83 0H4Z" fill="#F24C26"/><path fill-rule="evenodd" clip-rule="evenodd" d="M7.946 14.56a1 1 0 0 1 .53-1.311L21.664 7.65a1 1 0 0 1 1.215.355 1.751 1.751 0 0 0 3.158-1.34 1 1 0 0 1 .589-1.12l9.163-3.89a3.2 3.2 0 0 1 4.196 1.695l1.827 4.303a1 1 0 0 1-1.841.782L38.144 4.13a1.2 1.2 0 0 0-1.573-.635l-8.5 3.608a3.75 3.75 0 0 1-6.288 2.669L9.257 15.09a1 1 0 0 1-1.311-.53ZM7.6 22.85a5 5 0 0 1 5-5h5.2a5 5 0 0 1 5 5v8.2a1 1 0 0 1-1 1H8.6a1 1 0 0 1-1-1v-8.2Zm5-3a3 3 0 0 0-3 3v7.2h11.2v-7.2a3 3 0 0 0-3-3h-5.2Z" fill="#F24C26"/><path fill-rule="evenodd" clip-rule="evenodd" d="M8.6 24h13.2v2H8.6v-2ZM16.735 30.716a1 1 0 0 1 1.405.163l1.744 2.2a1 1 0 0 1-1.568 1.242l-1.743-2.2a1 1 0 0 1 .162-1.405Zm-2.959.016a1 1 0 0 1 .127 1.408l-1.835 2.2a1 1 0 0 1-1.536-1.28l1.835-2.2a1 1 0 0 1 1.409-.128ZM11.706 28a1 1 0 0 1 1-1h.194a1 1 0 1 1 0 2h-.194a1 1 0 0 1-1-1ZM16.5 28a1 1 0 0 1 1-1h.194a1 1 0 0 1 0 2H17.5a1 1 0 0 1-1-1ZM31.6 18.946a1 1 0 0 1 1 1v1.4a1 1 0 1 1-2 0v-1.4a1 1 0 0 1 1-1Zm0 4.2a1 1 0 0 1 1 1v2.8a1 1 0 1 1-2 0v-2.8a1 1 0 0 1 1-1Zm0 5.6a1 1 0 0 1 1 1v1.4a1 1 0 1 1-2 0v-1.4a1 1 0 0 1 1-1ZM41.5 18.946a1 1 0 0 1 1 1v10.1a1 1 0 1 1-2 0v-10.1a1 1 0 0 1 1-1ZM37.1 18.946a1 1 0 0 1 1 1v2.4a1 1 0 1 1-2 0v-2.4a1 1 0 0 1 1-1Z" fill="#F24C26"/></symbol><symbol fill="none" viewBox="0 0 24 24" id="up" xmlns="http://www.w3.org/2000/svg"><path d="m5 15 6.22-6.64c.448-.48 1.112-.48 1.56 0L19 15" stroke="currentColor" stroke-width="1.5" stroke-linecap="square"/></symbol></svg>