<svg class="d-none" xmlns="http://www.w3.org/2000/svg">
    <defs>
        <symbol id="arrow-dropdown" viewBox="0 0 13 8">
            <path fill-rule="evenodd" d="M1.45.667l5 5 5-5 1.178 1.179-5.589 5.589c-.325.325-.853.325-1.179 0L.271 1.845 1.45.667z"/>
        </symbol>
        <symbol id="arrow-mobile-menu" viewBox="0 0 9 16">
            <path fill-rule="evenodd" d="M1.414.586l6.707 6.707a1 1 0 0 1 0 1.414l-6.707 6.707L0 14l6-6-6-6L1.414.586z"/>
        </symbol>
        <symbol id="arrow-mobile-menu-back" viewBox="0 0 18 16">
            <path fill-rule="evenodd" d="M1.086 7.5a1 1 0 0 0 0 1.414l6.707 6.707 1.414-1.414-5-5h13v-2h-13l5-5L7.793.793 1.086 7.5z"/>
        </symbol>
        <symbol id="arrow-down" viewBox="0 0 14 16">
            <path fill-rule="evenodd" d="M6.352 15.445c.358.358.938.358 1.296 0l6.148-6.148L12.5 8l-4.583 4.583V.667H6.083v11.917L1.5 8 .204 9.296l6.148 6.148z"/>
        </symbol>
        <symbol id="arrow-scroll-top" viewBox="0 0 16 17">
            <path fill-rule="evenodd" d="M8.707.879a1 1 0 0 0-1.414 0L.586 7.586 2 9l5-5v13h2V4l5 5 1.414-1.414L8.707.879z"/>
        </symbol>
        <symbol id="soc-instagram" viewBox="0 0 24 24">
            <path fill-rule="evenodd" d="M15.964 4H8.036A4.04 4.04 0 0 0 4 8.036v7.928A4.04 4.04 0 0 0 8.036 20h7.928A4.04 4.04 0 0 0 20 15.964V8.036A4.04 4.04 0 0 0 15.964 4zm2.295 11.964a2.3 2.3 0 0 1-2.295 2.295H8.036a2.3 2.3 0 0 1-2.295-2.295V8.036a2.3 2.3 0 0 1 2.295-2.295h7.928a2.3 2.3 0 0 1 2.295 2.295v7.928zm-2.006-7.232c-.538 0-.975-.437-.975-.975s.438-.975.975-.975.975.437.975.975-.437.975-.975.975zM7.879 12c0-2.272 1.849-4.121 4.121-4.121S16.121 9.728 16.121 12 14.272 16.121 12 16.121 7.879 14.272 7.879 12zm1.741 0c0 1.312 1.068 2.38 2.38 2.38s2.38-1.068 2.38-2.38S13.312 9.621 12 9.621 9.62 10.688 9.62 12z"/>
        </symbol>
        <symbol id="soc-facebook" viewBox="0 0 24 24">
            <path fill-rule="evenodd" d="M13 9.5v-2a1 1 0 0 1 1-1h1V4h-2a3 3 0 0 0-3 3v2.5H8V12h2v8h3v-8h2l1-2.5h-3z"/>
        </symbol>
        <symbol id="soc-youtube" viewBox="0 0 24 24">
            <path fill-rule="evenodd" d="M5.317 1.038c0 .064 1.151.055 1.173-.01s.156.061.156.151c0 .036.019.065.042.065s.042.074.042.165.019.165.042.165.042.056.042.124.019.124.042.124.042.074.042.165.019.165.042.165.042.056.042.124.019.124.042.124.042.074.042.165.019.165.042.165.042.074.042.165.019.165.042.165.042.056.042.124.019.124.042.124.042.074.042.165.019.165.042.165.042.056.042.124.019.124.042.124.042.074.042.165c0 .137.014.165.083.165s.083-.027.083-.165c0-.091.019-.165.042-.165s.042-.074.042-.165.019-.165.042-.165.042-.074.042-.165.019-.165.042-.165.042-.056.042-.124.019-.124.042-.124.042-.074.042-.165.019-.165.042-.165.042-.074.042-.165.019-.165.042-.165.042-.074.042-.165.019-.165.042-.165.042-.056.042-.124.019-.124.042-.124.042-.074.042-.165.019-.165.042-.165.042-.074.042-.165v-.165h.789c.498 0 .789.015.789.041s-.019.041-.042.041-.042.037-.042.082-.019.082-.042.082-.042.056-.042.124-.019.124-.042.124-.042.056-.042.124-.019.124-.042.124-.042.056-.042.124-.019.124-.042.124-.042.056-.042.124-.019.124-.042.124-.041.056-.041.124-.019.124-.042.124-.042.056-.042.124-.019.124-.042.124-.042.056-.042.124-.019.124-.042.124-.042.056-.042.124-.019.124-.042.124-.042.037-.042.082-.019.082-.042.082-.042.056-.042.124-.019.124-.042.124-.042.056-.042.124-.019.124-.042.124-.042.056-.042.124-.019.124-.042.124-.042.056-.042.124-.019.124-.042.124-.042.056-.042.124-.019.124-.042.124-.042.056-.042.124-.019.124-.042.124-.042.056-.042.124-.019.124-.042.124-.042.056-.042.124-.019.124-.042.124-.042.056-.042.124-.019.124-.042.124-.042.604-.042 1.73v1.73h-.747-.747V7.463L6.77 5.774c-.023 0-.042-.056-.042-.124s-.019-.124-.042-.124-.042-.037-.042-.082-.019-.082-.042-.082-.042-.056-.042-.124-.019-.124-.042-.124-.041-.056-.041-.124-.019-.124-.042-.124-.042-.056-.042-.124-.019-.124-.042-.124-.042-.056-.042-.124-.019-.124-.042-.124-.042-.056-.042-.124-.019-.124-.042-.124-.042-.056-.042-.124-.019-.124-.042-.124-.042-.056-.042-.124-.019-.124-.042-.124-.042-.056-.042-.124-.019-.124-.042-.124-.042-.056-.042-.124-.019-.124-.042-.124-.042-.056-.042-.124-.019-.124-.042-.124-.042-.056-.042-.124-.019-.124-.042-.124-.042-.056-.042-.124-.019-.124-.042-.124-.042-.056-.042-.124-.019-.124-.042-.124-.042-.056-.042-.124-.019-.124-.042-.124-.042-.037-.042-.082-.019-.082-.042-.082-.042-.074-.042-.165-.019-.165-.042-.165-.042-.037-.042-.082-.019-.082-.042-.082c-.058 0-.052-.115.01-.185s.114-.078.114-.02zm6.808 1.977c0 .023.093.041.208.041s.207.019.207.041.037.041.083.041.083.019.083.041.037.041.083.041.083.019.083.041.028.041.063.041c.082 0 .518.432.518.514 0 .034.019.063.042.063s.041.037.041.082.019.082.042.082.041.093.041.206.019.206.041.206.042.577.042 1.647l-.042 1.647c-.023 0-.041.11-.041.247s-.018.247-.041.247-.042.052-.042.114-.034.139-.083.174-.083.084-.083.113a.8.8 0 0 1-.342.34c-.03 0-.081.037-.114.082s-.107.082-.175.082-.115.019-.115.041-.056.041-.124.041-.125.019-.125.041-.208.041-.54.041-.54-.016-.54-.041-.075-.041-.166-.041-.166-.019-.166-.041-.033-.041-.074-.041-.101-.037-.134-.082-.084-.082-.114-.082c-.076 0-.426-.355-.426-.431 0-.035-.019-.063-.041-.063s-.042-.037-.042-.082-.019-.082-.041-.082-.042-.056-.042-.124-.019-.124-.042-.124-.041-.673-.041-1.936l.041-1.936c.023 0 .042-.056.042-.124s.019-.124.042-.124.041-.037.041-.082.019-.082.042-.082.041-.028.041-.063a.76.76 0 0 1 .342-.349c.03 0 .081-.037.114-.082s.093-.082.134-.082.074-.019.074-.041.056-.041.125-.041.124-.019.124-.041.111-.041.249-.041.249-.018.249-.041.111-.041.249-.041.249.018.249.041zm3.76.182c.05.05.059.428.059 2.412 0 2.48-.001 2.471.18 2.471.034 0 .073.023.086.051.019.041.029.041.048 0 .013-.028.075-.051.136-.051s.137-.035.172-.082.085-.082.115-.082.101-.046.157-.101l.102-.101V5.426 3.138h.605c.469 0 .618.013.664.059s.059.507.059 3.006v2.947h-.664-.664v-.288c0-.159-.011-.288-.024-.288a1.01 1.01 0 0 0-.184.165c-.088.091-.185.165-.216.165s-.083.037-.116.082-.093.082-.134.082-.074.019-.074.041-.056.041-.125.041-.125.019-.125.041-.166.041-.415.041-.415-.016-.415-.041-.029-.041-.064-.041a.43.43 0 0 1-.268-.266c0-.035-.019-.064-.042-.064s-.041-.056-.041-.124-.019-.124-.042-.124-.041-.933-.041-2.718V3.138h.605c.469 0 .618.013.664.059zm-4.455 1.075l-.135.14v1.751l.042 1.751c.023 0 .042.029.042.065 0 .083.1.182.184.182.036 0 .065.019.065.041s.075.041.166.041.166-.019.166-.041.029-.041.064-.041.11-.046.166-.101l.102-.101V6.145 4.329l-.102-.101c-.088-.087-.139-.101-.363-.098-.242.003-.272.013-.396.143zm8.001 6.732c0 .023.111.041.249.041s.249.018.249.041.056.041.125.041.125.018.125.041.056.041.125.041.125.018.125.041.037.041.083.041.083.018.083.041.052.041.115.041.14.034.175.082.093.082.134.082.074.018.074.041.03.041.066.041.119.056.183.123.137.124.163.124c.06 0 .668.602.668.662 0 .025.056.098.125.161s.125.145.125.181.019.066.041.066.041.037.041.082.019.082.041.082.042.037.042.082.019.082.041.082.041.037.041.082.019.082.041.082.042.056.042.124.019.123.042.123.041.056.041.124.019.123.041.123.042.093.042.206.019.206.041.206.041.741.041 2.142l-.041 2.142c-.023 0-.041.093-.041.206s-.019.206-.042.206-.041.055-.041.123-.019.123-.041.123-.042.056-.042.124-.019.123-.042.123-.041.037-.041.082-.019.082-.041.082-.041.037-.041.082-.019.082-.042.082-.041.037-.041.082-.019.082-.041.082-.041.03-.041.066-.056.118-.125.181-.125.136-.125.161c0 .06-.607.662-.668.662-.025 0-.099.056-.163.123s-.146.124-.183.124-.066.018-.066.041-.033.041-.074.041-.101.037-.134.082-.107.082-.175.082-.115.018-.115.041-.037.041-.083.041-.083.019-.083.041-.056.041-.125.041-.125.018-.125.041-.056.041-.125.041-.125.018-.125.041-.111.041-.249.041-.249.018-.249.041S16.926 22 12 22s-7.43-.014-7.43-.041-.111-.041-.249-.041-.249-.018-.249-.041-.056-.041-.125-.041-.125-.019-.125-.041-.056-.041-.125-.041-.125-.018-.125-.041-.056-.041-.125-.041-.125-.018-.125-.041-.037-.041-.083-.041-.083-.019-.083-.041-.033-.041-.074-.041-.101-.037-.134-.082-.089-.082-.125-.082-.092-.037-.125-.082-.084-.082-.114-.082c-.065 0-.758-.68-.758-.745 0-.025-.056-.098-.125-.161s-.125-.145-.125-.181-.019-.066-.042-.066-.042-.037-.042-.082-.019-.082-.042-.082-.042-.037-.042-.082-.019-.082-.042-.082-.042-.037-.042-.082-.019-.082-.042-.082-.042-.037-.042-.082-.019-.082-.042-.082-.042-.074-.042-.165-.019-.165-.042-.165-.042-.074-.042-.165-.019-.165-.042-.165S1 17.937 1 16.482l.042-2.224c.023 0 .042-.074.042-.165s.019-.165.042-.165.042-.074.042-.165.019-.165.042-.165.042-.037.042-.082.019-.082.042-.082.042-.037.042-.082.019-.082.042-.082.042-.037.042-.082.019-.082.042-.082.042-.037.042-.082.019-.082.042-.082.042-.03.042-.066.056-.118.125-.181.125-.136.125-.161c0-.064.693-.745.758-.745.03 0 .081-.037.114-.082s.089-.082.125-.082.092-.037.125-.082.093-.082.134-.082.074-.018.074-.041.037-.041.083-.041.083-.019.083-.041.056-.041.125-.041.125-.019.125-.041.056-.041.125-.041.125-.019.125-.041.056-.041.125-.041.125-.019.125-.041.111-.041.249-.041.249-.018.249-.041 2.504-.041 7.43-.041l7.43.041zM4.155 12.94v.494h.605c.469 0 .618.013.664.059s.059.523.059 3.13v3.071h.581.581v-3.13-3.13h.623.623v-.453c0-.275.016-.453.042-.453s.042-.019.042-.041-.664-.041-1.909-.041H4.155v.494zm8.302 3.13v3.624h.54.54v-.206c0-.113.011-.206.025-.206s.077.056.141.124.146.123.183.123.066.019.066.041.037.041.083.041.083.018.083.041.075.041.166.041.166.018.166.041.075.041.166.041.166-.018.166-.041.071-.041.157-.041c.109 0 .175-.025.217-.082.033-.045.093-.082.134-.082s.074-.03.074-.073.037-.1.083-.133.083-.107.083-.174.019-.114.042-.114.041-.686.041-1.977l-.041-1.977c-.023 0-.042-.056-.042-.123s-.019-.124-.041-.124-.042-.028-.042-.063c0-.082-.269-.349-.351-.349-.035 0-.064-.018-.064-.041s-.056-.041-.125-.041-.125-.018-.125-.041-.093-.041-.207-.041-.208.018-.208.041-.056.041-.124.041-.124.019-.124.041-.03.041-.066.041-.137.074-.225.165c-.293.303-.291.312-.291-.988v-1.153h-.54-.54v3.624zm5.313-1.853c0 .023-.093.041-.207.041s-.208.018-.208.041-.056.041-.125.041-.125.019-.125.041-.028.041-.063.041-.184.12-.332.267-.269.295-.269.33-.019.063-.042.063-.041.056-.041.124-.019.123-.041.123-.041.59-.041 1.688l.041 1.689c.023 0 .041.056.041.123s.019.124.041.124.042.037.042.082.019.082.041.082.041.028.041.063c0 .082.352.431.435.431.035 0 .063.018.063.041s.037.041.083.041.083.018.083.041.111.041.249.041.249.018.249.041.075.041.166.041.166-.018.166-.041.111-.041.249-.041.249-.018.249-.041.037-.041.083-.041.083-.019.083-.041.037-.041.083-.041.083-.018.083-.041.029-.041.064-.041a.43.43 0 0 0 .268-.266c0-.035.019-.064.041-.064s.042-.037.042-.082.019-.082.042-.082.041-.056.041-.124.019-.123.041-.123.041-.165.041-.412v-.412h-.54-.54v.371c0 .22-.017.371-.041.371s-.041.037-.041.082c0 .055-.028.082-.083.082-.046 0-.083.019-.083.041s-.104.041-.23.041c-.189 0-.248-.018-.332-.101-.056-.056-.102-.13-.102-.165s-.019-.064-.041-.064-.041-.274-.041-.741v-.741h1.038 1.038v-.988l-.041-.988c-.023 0-.041-.037-.041-.082s-.019-.082-.041-.082-.042-.037-.042-.082-.019-.082-.042-.082-.041-.029-.041-.064c0-.078-.183-.266-.259-.266-.03 0-.082-.037-.115-.082s-.107-.082-.175-.082-.115-.018-.115-.041-.093-.041-.208-.041-.207-.019-.207-.041-.075-.041-.166-.041-.166.018-.166.041zM8.472 16.77l.042 2.43c.023 0 .042.047.042.104 0 .116.247.39.351.39.035 0 .064.018.064.041s.111.041.249.041.249-.018.249-.041.056-.041.125-.041.125-.019.125-.041.037-.041.083-.041.083-.018.083-.041.03-.041.066-.041.119-.056.183-.123.146-.124.183-.124.066-.034.066-.082c0-.055.028-.082.083-.082.075 0 .083.027.083.288v.288h.498.498v-2.677-2.677h-.498-.498v2.04 2.04l-.144.143c-.079.079-.173.143-.208.143s-.064.018-.064.041-.037.041-.083.041-.083.018-.083.041c0 .08-.213.04-.313-.06l-.102-.101v-2.164-2.164h-.54-.54v2.43zm5.916-1.546l.144.143v1.669l-.041 1.669c-.023 0-.042.029-.042.065 0 .124-.112.182-.35.182-.127 0-.231-.018-.231-.041s-.029-.041-.064-.041-.11-.046-.166-.101l-.102-.101v-1.693c0-1.782.003-1.811.184-1.811.036 0 .065-.018.065-.041s.103-.041.23-.041c.207 0 .244.014.374.143zm3.819 0l.144.143v.475.475h-.498-.498v-.476c0-.45.005-.481.102-.577.056-.056.131-.101.166-.101s.064-.018.064-.041.085-.041.188-.041c.159 0 .21.022.332.143z"/>
        </symbol>
    </defs>
</svg>