<?xml version="1.0" encoding="utf-8"?><svg xmlns="http://www.w3.org/2000/svg" xmlns:xlink="http://www.w3.org/1999/xlink"><symbol fill="none" viewBox="0 0 24 24" id="ArrowsLeftRight" xmlns="http://www.w3.org/2000/svg"><path d="M3.394 17h18" stroke="currentColor" stroke-width="1.5" stroke-linecap="square" stroke-linejoin="round"/><path d="m18.394 21 3.047-3.554a.686.686 0 0 0 0-.892L18.393 13" stroke="currentColor" stroke-width="1.5" stroke-linecap="square"/><path d="M20.606 8h-18" stroke="currentColor" stroke-width="1.5" stroke-linecap="square" stroke-linejoin="round"/><path d="M5.606 4 2.559 7.554a.686.686 0 0 0 0 .892L5.606 12" stroke="currentColor" stroke-width="1.5" stroke-linecap="square"/></symbol><symbol fill="none" viewBox="0 0 24 24" id="ChatsCircle" xmlns="http://www.w3.org/2000/svg"><path d="M3.194 13.195a6.747 6.747 0 1 1 2.36 2.36h0l-2.33.667a.563.563 0 0 1-.696-.696l.666-2.33h0Z" stroke="currentColor" stroke-width="1.5" stroke-linecap="round" stroke-linejoin="round"/><path d="M8.63 16.49a6.754 6.754 0 0 0 9.815 3.566h0l2.331.666a.563.563 0 0 0 .696-.696l-.666-2.33h0A6.753 6.753 0 0 0 15.369 7.51" stroke="currentColor" stroke-width="1.5" stroke-linecap="round" stroke-linejoin="round"/></symbol><symbol fill="none" viewBox="0 0 24 24" id="ChatsTeardrop" xmlns="http://www.w3.org/2000/svg"><path d="M9 16.5H2.812a.563.563 0 0 1-.562-.563V9.749A6.75 6.75 0 0 1 9 3h0a6.75 6.75 0 0 1 6.75 6.75v0A6.75 6.75 0 0 1 9 16.5v0Z" stroke="currentColor" stroke-width="1.5" stroke-linecap="round" stroke-linejoin="round"/><path d="M8.634 16.5A6.752 6.752 0 0 0 15 21h6.188a.562.562 0 0 0 .562-.563v-6.188a6.75 6.75 0 0 0-6.381-6.74" stroke="currentColor" stroke-width="1.5" stroke-linecap="round" stroke-linejoin="round"/></symbol><symbol fill="none" viewBox="0 0 24 24" id="Pencil_Edit" xmlns="http://www.w3.org/2000/svg"><path clip-rule="evenodd" d="m18.125 2.572 2.5 2.035a1.24 1.24 0 0 1-.01 1.787l-1.9 2.314-6.466 7.89a.821.821 0 0 1-.431.266l-3.353.771a.85.85 0 0 1-.88-.752l.158-3.307a.771.771 0 0 1 .19-.457l6.187-7.54 2.18-2.658a1.365 1.365 0 0 1 1.825-.349Z" stroke="currentColor" stroke-width="1.5" stroke-linecap="round" stroke-linejoin="round"/><path d="M3 20.887a.75.75 0 0 0 0 1.5v-1.5Zm17.612 1.5a.75.75 0 1 0 0-1.5v1.5ZM14.815 5.299a.75.75 0 1 0-1.39.561l1.39-.561Zm4.065 4.145a.75.75 0 0 0-.33-1.463l.33 1.463ZM3 22.387h17.612v-1.5H3v1.5ZM13.424 5.86c.29.718.888 1.744 1.772 2.53.898.8 2.156 1.399 3.684 1.054l-.33-1.463c-.915.206-1.696-.124-2.357-.711-.674-.6-1.153-1.415-1.378-1.971l-1.39.561Z" fill="currentColor"/></symbol><symbol fill="none" viewBox="0 0 24 24" id="Question" xmlns="http://www.w3.org/2000/svg"><path clip-rule="evenodd" d="M4 13.143v-2.286A6.857 6.857 0 0 1 10.857 4h2.286A6.857 6.857 0 0 1 20 10.857v2.286A6.857 6.857 0 0 1 13.143 20h-2.286A6.857 6.857 0 0 1 4 13.143Z" stroke="currentColor" stroke-width="1.5" stroke-linecap="round" stroke-linejoin="round"/><path d="M9.714 9.302c0-1.246 1.029-1.932 2.568-1.874a2.075 2.075 0 0 1 2.004 2.058 2.98 2.98 0 0 1-1.3 2.617A2.197 2.197 0 0 0 12 14.286" stroke="currentColor" stroke-width="1.5" stroke-linecap="round" stroke-linejoin="round"/><path d="M12 15.429a1.143 1.143 0 1 1 0 2.285 1.143 1.143 0 0 1 0-2.285Z" fill="currentColor"/></symbol><symbol fill="none" viewBox="0 0 24 24" id="Ticket" xmlns="http://www.w3.org/2000/svg"><path d="M20.25 5.75a1 1 0 0 1 1 1v2.26a3 3 0 0 0 0 5.98v2.26a1 1 0 0 1-1 1H3.75a1 1 0 0 1-1-1v-2.26a3 3 0 0 0 0-5.98V6.75a1 1 0 0 1 1-1h16.5Z" stroke="currentColor" stroke-width="1.5"/></symbol><symbol fill="none" viewBox="0 0 24 24" id="TrainSimple" xmlns="http://www.w3.org/2000/svg"><path d="M4.125 12h15.75M9 19.5l-2.25 3M15 19.5l2.25 3M17.625 3H6.375a2.25 2.25 0 0 0-2.25 2.25v12a2.25 2.25 0 0 0 2.25 2.25h11.25a2.25 2.25 0 0 0 2.25-2.25v-12A2.25 2.25 0 0 0 17.625 3Z" stroke="currentColor" stroke-width="1.5" stroke-linecap="round" stroke-linejoin="round"/><path d="M7.875 17.25a1.125 1.125 0 1 0 0-2.25 1.125 1.125 0 0 0 0 2.25ZM16.125 17.25a1.125 1.125 0 1 0 0-2.25 1.125 1.125 0 0 0 0 2.25Z" fill="currentColor"/></symbol><symbol fill="none" viewBox="0 0 24 24" id="arrow_down" xmlns="http://www.w3.org/2000/svg"><path d="M11.932 18V5M4.932 13.38l6.219 5.331a1.2 1.2 0 0 0 1.562 0l6.219-5.33" stroke="currentColor" stroke-width="1.5" stroke-linecap="square"/></symbol><symbol fill="none" viewBox="0 0 24 24" id="arrow_left" xmlns="http://www.w3.org/2000/svg"><path d="M5.932 12h13M10.551 5l-5.33 6.22a1.2 1.2 0 0 0 0 1.56L10.55 19" stroke="currentColor" stroke-width="1.5" stroke-linecap="square"/></symbol><symbol fill="none" viewBox="0 0 24 24" id="arrow_right" xmlns="http://www.w3.org/2000/svg"><path d="M17.932 12h-13M13.312 19l5.331-6.22a1.2 1.2 0 0 0 0-1.56L13.313 5" stroke="currentColor" stroke-width="1.5" stroke-linecap="square"/></symbol><symbol fill="none" viewBox="0 0 24 24" id="arrow_up" xmlns="http://www.w3.org/2000/svg"><path d="M11.932 6v13M18.932 10.62l-6.22-5.331a1.2 1.2 0 0 0-1.561 0l-6.22 5.33" stroke="currentColor" stroke-width="1.5" stroke-linecap="square"/></symbol><symbol fill="none" viewBox="0 0 24 24" id="check" xmlns="http://www.w3.org/2000/svg"><path d="m5 13.5 3.293 3.293a1 1 0 0 0 1.414 0L19.5 7" stroke="currentColor" stroke-width="1.5" stroke-linecap="square"/></symbol><symbol fill="none" viewBox="0 0 24 24" id="close" xmlns="http://www.w3.org/2000/svg"><path d="M18 6 6 17.676M18 18 6 6.324" stroke="currentColor" stroke-width="1.5" stroke-linecap="square"/></symbol><symbol fill="none" viewBox="0 0 24 24" id="down" xmlns="http://www.w3.org/2000/svg"><path d="m19 8-6.22 6.64c-.448.48-1.112.48-1.56 0L5 8" stroke="currentColor" stroke-width="1.5" stroke-linecap="square"/></symbol><symbol fill="none" viewBox="0 0 24 24" id="globe" xmlns="http://www.w3.org/2000/svg"><path d="M12 21a9 9 0 1 0 0-18 9 9 0 0 0 0 18ZM3 12h18" stroke="currentColor" stroke-width="1.5" stroke-linecap="round" stroke-linejoin="round"/><path d="M12 3a13.77 13.77 0 0 1 3.6 9 13.77 13.77 0 0 1-3.6 9 13.77 13.77 0 0 1-3.6-9A13.77 13.77 0 0 1 12 3v0Z" stroke="currentColor" stroke-width="1.5" stroke-linecap="round" stroke-linejoin="round"/></symbol><symbol fill="none" viewBox="0 0 24 24" id="left" xmlns="http://www.w3.org/2000/svg"><path d="m15 19-6.64-6.22c-.48-.448-.48-1.112 0-1.56L15 5" stroke="currentColor" stroke-width="1.5" stroke-linecap="square"/></symbol><symbol fill="none" viewBox="0 0 24 24" id="map" xmlns="http://www.w3.org/2000/svg"><path d="M8.362 18.108a25.039 25.039 0 0 0 3.707 3 27.15 27.15 0 0 0 3.717-3.096c1.917-1.928 3.614-4.334 3.614-6.706 0-4.186-3.307-7.556-7.325-7.556-4.019 0-7.325 3.37-7.325 7.556 0 2.502 1.704 4.912 3.612 6.802Z" stroke="currentColor" stroke-width="1.5"/><circle cx="12.075" cy="10.125" r="2.575" stroke="currentColor" stroke-width="1.5"/></symbol><symbol fill="none" viewBox="0 0 24 24" id="plus" xmlns="http://www.w3.org/2000/svg"><path d="M18 12H6M12 18V6" stroke="currentColor" stroke-width="1.5" stroke-linecap="square"/></symbol><symbol fill="none" viewBox="0 0 24 24" id="right" xmlns="http://www.w3.org/2000/svg"><path d="m8 5 6.64 6.22c.48.448.48 1.112 0 1.56L8 19" stroke="currentColor" stroke-width="1.5" stroke-linecap="square"/></symbol><symbol fill="none" viewBox="0 0 24 24" id="social_facebook" xmlns="http://www.w3.org/2000/svg"><path d="M12.875 8.563v-2.75c0-.76.616-1.375 1.375-1.375h1.375V1h-2.75A4.125 4.125 0 0 0 8.75 5.125v3.438H6V12h2.75v11h4.125V12h2.75L17 8.562h-4.125Z" fill="currentColor"/></symbol><symbol fill="none" viewBox="0 0 24 24" id="social_instagram" xmlns="http://www.w3.org/2000/svg"><path d="M12.002 2.981c2.94 0 3.288.013 4.444.065 1.074.047 1.655.227 2.041.378.512.198.881.438 1.264.82.387.388.623.753.82 1.264.151.387.332.972.379 2.042.052 1.16.065 1.508.065 4.444 0 2.94-.013 3.287-.065 4.443-.047 1.075-.228 1.655-.378 2.042a3.403 3.403 0 0 1-.821 1.263 3.384 3.384 0 0 1-1.264.821c-.386.15-.97.331-2.041.378-1.16.052-1.509.065-4.444.065-2.94 0-3.288-.013-4.444-.065-1.074-.047-1.654-.227-2.041-.378a3.403 3.403 0 0 1-1.264-.82 3.384 3.384 0 0 1-.82-1.264c-.15-.387-.331-.971-.379-2.042-.051-1.16-.064-1.508-.064-4.443 0-2.94.013-3.288.064-4.444.048-1.075.228-1.655.379-2.042.197-.511.438-.88.82-1.263a3.384 3.384 0 0 1 1.264-.821c.387-.15.971-.331 2.041-.378 1.156-.052 1.505-.065 4.444-.065Zm0-1.981c-2.987 0-3.36.013-4.534.064-1.169.052-1.973.241-2.669.512a5.37 5.37 0 0 0-1.951 1.272 5.39 5.39 0 0 0-1.272 1.947c-.27.7-.46 1.5-.512 2.669C1.013 8.64 1 9.015 1 12.002s.013 3.361.064 4.534c.052 1.17.241 1.973.512 2.67a5.37 5.37 0 0 0 1.272 1.95c.61.61 1.225.989 1.947 1.268.7.27 1.5.46 2.669.512 1.173.051 1.547.064 4.534.064s3.36-.013 4.534-.064c1.169-.052 1.973-.241 2.669-.512a5.377 5.377 0 0 0 1.947-1.268c.61-.61.988-1.225 1.268-1.947.27-.7.46-1.5.51-2.668.053-1.174.065-1.548.065-4.535 0-2.986-.012-3.36-.064-4.534-.052-1.169-.24-1.972-.511-2.669a5.152 5.152 0 0 0-1.26-1.955A5.378 5.378 0 0 0 19.21 1.58c-.7-.27-1.5-.46-2.668-.511C15.363 1.013 14.989 1 12.002 1Z" fill="currentColor"/><path d="M12.002 6.35a5.653 5.653 0 0 0-5.651 5.652 5.653 5.653 0 0 0 5.651 5.652 5.653 5.653 0 0 0 5.652-5.652 5.653 5.653 0 0 0-5.652-5.651Zm0 9.318a3.666 3.666 0 1 1 .001-7.333 3.666 3.666 0 0 1 0 7.333ZM19.197 6.127a1.32 1.32 0 1 1-2.64 0 1.32 1.32 0 0 1 2.64 0Z" fill="currentColor"/></symbol><symbol fill="none" viewBox="0 0 24 24" id="social_youtube" xmlns="http://www.w3.org/2000/svg"><path fill-rule="evenodd" clip-rule="evenodd" d="M22.747 4.834c.372.375.64.84.775 1.351.502 1.885.502 5.815.502 5.815s0 3.93-.502 5.814A3.016 3.016 0 0 1 21.4 19.95c-1.876.505-9.376.505-9.376.505s-7.5 0-9.377-.505a3.017 3.017 0 0 1-2.121-2.136C.024 15.93.024 12 .024 12s0-3.93.502-5.815A3.016 3.016 0 0 1 2.647 4.05c1.877-.505 9.377-.505 9.377-.505s7.5 0 9.376.505c.51.139.974.41 1.347.784ZM15.841 12 9.57 8.431v7.138L15.842 12Z" fill="currentColor"/></symbol><symbol fill="none" viewBox="0 0 24 24" id="up" xmlns="http://www.w3.org/2000/svg"><path d="m5 15 6.22-6.64c.448-.48 1.112-.48 1.56 0L19 15" stroke="currentColor" stroke-width="1.5" stroke-linecap="square"/></symbol></svg>