<svg width="40" height="40" viewBox="0 0 40 40" fill="none" xmlns="http://www.w3.org/2000/svg">
<path fill-rule="evenodd" clip-rule="evenodd" d="M18.4597 3.03484C16.5897 3.20653 14.5778 3.94264 12.9246 5.05996C11.9547 5.71554 10.5851 7.08321 9.93458 8.0458C8.95105 9.50118 8.29859 11.1123 8.03108 12.746L7.88692 13.6268L7.3521 13.627L6.81734 13.6274L6.73981 13.3374C6.54205 12.598 5.61198 12.3252 5.03028 12.836C4.67154 13.151 4.63882 13.3431 4.68118 14.8862C4.72353 16.4291 4.85659 17.3665 5.21972 18.681C6.81881 24.4697 11.8749 28.8071 17.7948 29.4687L18.4929 29.5467V30.0874V30.6282L13.4892 31.7383C10.2518 32.4565 8.42813 32.8903 8.32326 32.9669C8.23409 33.0322 8.09944 33.1681 8.02404 33.2691C7.89537 33.4415 7.88692 33.5419 7.88692 34.9059C7.88692 36.5052 7.89158 36.525 8.34474 36.8634L8.5284 37.0005H19.5569H30.5853L30.769 36.8634C31.222 36.5252 31.2268 36.5044 31.2268 34.9125V33.4659L31.0352 33.2146C30.9298 33.0765 30.7502 32.9255 30.6362 32.8792C30.5222 32.8329 28.2221 32.306 25.5248 31.7084L20.6208 30.6217V30.0707V29.5198H20.8284C21.2546 29.5198 22.4786 29.3066 23.3471 29.081C28.4687 27.7509 32.5391 23.7125 33.9225 18.5888C34.2602 17.3379 34.3913 16.386 34.4326 14.8862C34.4749 13.3431 34.4422 13.151 34.0835 12.836C33.5018 12.3252 32.5717 12.598 32.3739 13.3374L32.2964 13.6274L31.7616 13.627L31.2268 13.6268L31.0827 12.746C30.2443 7.62542 26.0062 3.63031 20.8063 3.05904C20.1983 2.99222 19.0526 2.98045 18.4597 3.03484ZM21.34 5.28026C24.7284 5.94468 27.543 8.40554 28.6326 11.6562C28.729 11.9435 28.792 12.1943 28.7728 12.2135C28.7536 12.2328 28.2505 12.3342 27.655 12.4388C26.5379 12.6352 26.3758 12.6998 26.1108 13.0543C25.996 13.2077 25.97 13.3563 25.9512 13.9645L25.9287 14.6913H25.7356C25.5546 14.6913 25.5154 14.6374 25.114 13.8364C24.6567 12.9236 24.4338 12.6652 24.041 12.5915C23.6726 12.5224 23.5082 12.5832 22.2294 13.2622C20.9765 13.9273 20.7241 14.1282 20.6509 14.5187C20.6279 14.6411 20.7037 15.4934 20.8194 16.4127L21.0296 18.0843L20.8293 18.3371C20.4267 18.8455 19.3133 19.7191 19.1412 19.6618C19.1092 19.6511 18.7145 18.6913 18.2642 17.529C17.7959 16.3203 17.3803 15.3463 17.2933 15.2536C17.2096 15.1645 16.9808 15.0317 16.7849 14.9583C16.2594 14.7617 15.7548 14.4937 15.7789 14.424C15.7904 14.3905 16.26 13.7336 16.8223 12.9645L17.8447 11.566L18.4847 11.5582C18.8367 11.554 20.0277 11.5315 21.1315 11.5083C23.0189 11.4688 23.1492 11.4581 23.3217 11.3291C23.9718 10.8433 23.9363 10.0935 23.2045 8.85831C22.7107 8.02505 21.3607 6.88213 20.2851 6.38687C19.8633 6.19264 19.077 6.0774 16.7308 5.86601C16.5114 5.8462 16.2885 5.80697 16.2355 5.77877C16.0602 5.68561 17.5651 5.28338 18.5594 5.15764C19.0371 5.09726 20.8042 5.17519 21.34 5.28026ZM16.4316 7.96607C19.6712 8.32289 19.5095 8.28232 20.4196 8.96543L20.9166 9.3384L20.2201 9.3801C19.837 9.4031 18.9696 9.42551 18.2924 9.42997C17.2346 9.43702 17.0286 9.45537 16.8295 9.5607C16.5247 9.72195 13.2626 14.1364 13.1994 14.4732C13.1445 14.7658 13.2068 15.0566 13.3748 15.2925C13.5495 15.538 14.3767 16.1205 15.1335 16.5311L15.7255 16.8524L16.6604 19.2735C17.5365 21.5425 17.6113 21.7075 17.851 21.9001C18.0769 22.0816 18.1543 22.1049 18.5159 22.1006C19.2527 22.0918 20.4791 21.4946 21.5003 20.6475C22.0668 20.1777 22.8345 19.2829 23.0553 18.8353L23.2251 18.4909L23.0513 17.0732C22.9557 16.2934 22.8631 15.5889 22.8455 15.5076C22.8197 15.3882 22.8646 15.3337 23.0793 15.2242L23.345 15.0886L23.6745 15.745C24.0249 16.4433 24.2802 16.7221 24.6291 16.7875C24.7469 16.8096 25.4172 16.8182 26.1186 16.8068C27.2847 16.7877 27.4098 16.7741 27.5774 16.6488C27.986 16.3434 28.0332 16.2132 28.0569 15.3262L28.0788 14.5076L28.4153 14.4629C28.6004 14.4383 28.8423 14.4002 28.9527 14.3781L29.1536 14.3379L29.1126 15.1297C28.9854 17.5881 28.0435 19.7096 26.3093 21.4438C24.916 22.8372 23.259 23.7207 21.3037 24.1128C20.4265 24.2888 18.5471 24.2729 17.6828 24.0824C15.7095 23.6473 14.1814 22.8208 12.8044 21.4438C11.4104 20.0497 10.5237 18.3862 10.1363 16.4381C9.99011 15.7027 9.97335 13.8256 10.1065 13.0954C10.4403 11.2638 11.309 9.51402 12.5409 8.19136C13.0037 7.69451 13.0748 7.64297 13.2955 7.64517C13.4294 7.64643 14.8407 7.79086 16.4316 7.96607ZM8.03108 16.6366C8.62502 20.2645 10.9958 23.4758 14.3029 25.1318C15.848 25.9055 17.3519 26.295 19.0914 26.3719C24.9291 26.6302 30.139 22.4004 31.0827 16.6366L31.2268 15.7558L31.7422 15.7555L32.2575 15.7552V15.946C32.2575 16.218 32.0784 17.2254 31.9191 17.8498C31.7045 18.6909 31.4744 19.317 31.0567 20.196C29.8011 22.8386 27.7246 24.9165 25.0663 26.1906C21.5334 27.8839 17.5701 27.8753 14.0045 26.1666C10.2581 24.3713 7.67553 20.9119 6.95758 16.7273C6.90186 16.4025 6.85624 16.0509 6.85624 15.946V15.7552L7.37158 15.7555L7.88692 15.7558L8.03108 16.6366ZM24.8099 33.7316C28.3075 34.5065 29.1028 34.7025 29.1204 34.7938C29.1405 34.8985 28.5079 34.9059 19.5569 34.9059C10.7408 34.9059 9.97348 34.8972 9.9933 34.7977C10.0104 34.7116 10.8845 34.4954 14.2705 33.7395L18.5262 32.7894L19.5236 32.7854L20.5211 32.7815L24.8099 33.7316Z" fill="#F24C26"/>
</svg>
