<svg width="24" height="24" viewBox="0 0 24 24" fill="none" xmlns="http://www.w3.org/2000/svg">
<path fill-rule="evenodd" clip-rule="evenodd" d="M18.1249 2.57219L20.6254 4.60727C20.8668 4.84251 21.0021 5.16586 21.0001 5.50294C20.9982 5.84001 20.8592 6.16178 20.6151 6.39423L18.715 8.70828L12.2485 16.5979C12.1365 16.7297 11.9858 16.8229 11.8178 16.864L8.46503 17.6354C8.02015 17.6538 7.63651 17.3256 7.58569 16.8833L7.74253 13.5755C7.75416 13.4066 7.82102 13.2462 7.9328 13.1191L14.1203 5.57917L16.2994 2.92059C16.7227 2.34431 17.519 2.19234 18.1249 2.57219Z" stroke="currentColor" stroke-width="1.5" stroke-linecap="round" stroke-linejoin="round"/>
<path d="M2.99988 20.8865C2.58566 20.8865 2.24988 21.2223 2.24988 21.6365C2.24988 22.0508 2.58566 22.3865 2.99988 22.3865V20.8865ZM20.6124 22.3865C21.0266 22.3865 21.3624 22.0508 21.3624 21.6365C21.3624 21.2223 21.0266 20.8865 20.6124 20.8865V22.3865ZM14.8153 5.29857C14.6603 4.91446 14.2232 4.72876 13.8391 4.8838C13.455 5.03884 13.2693 5.4759 13.4244 5.86L14.8153 5.29857ZM18.8798 9.44381C19.2838 9.35254 19.5374 8.95101 19.4461 8.54698C19.3548 8.14295 18.9533 7.88941 18.5493 7.98068L18.8798 9.44381ZM2.99988 22.3865H20.6124V20.8865H2.99988V22.3865ZM13.4244 5.86C13.7141 6.57788 14.3116 7.60419 15.1961 8.39079C16.0939 9.1891 17.3524 9.78887 18.8798 9.44381L18.5493 7.98068C17.6354 8.18714 16.8536 7.85743 16.1929 7.26988C15.519 6.67063 15.0398 5.8547 14.8153 5.29857L13.4244 5.86Z" fill="currentColor"/>
</svg>
