<svg width="24" height="24" viewBox="0 0 24 24" fill="none" xmlns="http://www.w3.org/2000/svg">
<path fill-rule="evenodd" clip-rule="evenodd" d="M4 13.1429V10.8571C4 7.07005 7.07005 4 10.8571 4H13.1429C16.93 4 20 7.07005 20 10.8571V13.1429C20 16.93 16.93 20 13.1429 20H10.8571C7.07005 20 4 16.93 4 13.1429Z" stroke="currentColor" stroke-width="1.5" stroke-linecap="round" stroke-linejoin="round"/>
<path d="M9.71436 9.30157C9.71436 8.05585 10.7429 7.37014 12.2824 7.42842C13.3933 7.46695 14.2767 8.37397 14.2858 9.48557C14.3395 10.525 13.8469 11.5172 12.9864 12.1027C12.2549 12.5713 11.8683 13.4269 12.0001 14.2856" stroke="currentColor" stroke-width="1.5" stroke-linecap="round" stroke-linejoin="round"/>
<path d="M11.9999 15.4286C12.6311 15.4286 13.1428 15.9403 13.1428 16.5715C13.1428 17.2027 12.6311 17.7144 11.9999 17.7144C11.3687 17.7144 10.8571 17.2027 10.8571 16.5715C10.8571 15.9403 11.3687 15.4286 11.9999 15.4286Z" fill="currentColor"/>
</svg>
