<svg width="40" height="40" viewBox="0 0 40 40" fill="none" xmlns="http://www.w3.org/2000/svg">
<path fill-rule="evenodd" clip-rule="evenodd" d="M19.3844 2.62427C19.0864 2.80831 18.9626 2.97273 18.8754 3.30033L18.798 3.59088H13.6834H8.56877L8.33646 3.74607C7.84444 4.0747 7.86508 3.84404 7.86502 9.01662L7.86488 13.6561L8.01419 13.9218C8.10935 14.0911 8.26598 14.237 8.44598 14.3242C8.72061 14.4572 8.86807 14.4609 13.7659 14.4609H18.8033V15.5866V16.7123L14.2741 16.7318C10.177 16.7493 9.72537 16.7622 9.53983 16.8663C9.29665 17.0028 4.76855 21.5376 4.6589 21.7544C4.55307 21.9636 4.56482 22.4316 4.68139 22.6511C4.83247 22.9354 9.44589 27.5028 9.66391 27.5838C9.79073 27.631 11.3827 27.6554 14.3298 27.6554H18.8033V31.5522V35.449L12.0522 35.4493C5.43634 35.4495 5.29674 35.4523 5.07838 35.5854C4.41805 35.988 4.41805 36.961 5.07838 37.3636C5.29886 37.4981 5.4533 37.4995 19.9041 37.4997L34.5071 37.5L34.7394 37.3448C35.3567 36.9324 35.3567 36.0166 34.7394 35.6042L34.5071 35.449H27.7148H20.9226V31.5539V27.6588L26.0792 27.64C31.1659 27.6215 31.2384 27.6193 31.4245 27.4803C31.5284 27.4027 31.6767 27.2544 31.7543 27.1505C31.8935 26.9641 31.8952 26.9027 31.8952 22.1983V17.4348L31.736 17.2116C31.3899 16.7264 31.7104 16.7533 26.0329 16.732L20.9226 16.7128V15.5869V14.4609H25.4369C29.156 14.4609 29.99 14.4441 30.1712 14.3652C30.4536 14.2424 35.0442 9.63635 35.1394 9.38039C35.2463 9.09291 35.2264 8.81097 35.0793 8.52753C34.9095 8.20054 30.4528 3.75858 30.1987 3.66315C30.0706 3.61502 28.4894 3.59088 25.4645 3.59088H20.9226L20.9224 3.40288C20.922 3.14719 20.6974 2.79792 20.4276 2.63343C20.142 2.45924 19.6583 2.455 19.3844 2.62427ZM30.9889 7.33333L32.6814 9.02489L31.0241 10.6832L29.3667 12.3416H19.6755H9.9842V8.99173V5.64184H19.6403H29.2963L30.9889 7.33333ZM12.8863 8.0619C12.1577 8.38109 12.044 9.33321 12.6739 9.84001L12.9365 10.0514L19.7711 10.0698C26.4208 10.0876 26.6137 10.0845 26.9071 9.95479C27.2354 9.80951 27.4462 9.53134 27.518 9.14836C27.5731 8.85459 27.3401 8.34903 27.0534 8.14072C26.8621 8.00174 26.7983 8.0003 19.9776 7.98553C14.36 7.9733 13.0565 7.98738 12.8863 8.0619ZM29.8101 22.1862V25.5361H20.1188H10.4275L8.75363 23.8612L7.07971 22.1862L8.75363 20.5113L10.4275 18.8363H20.1188H29.8101V22.1862ZM12.7878 21.2875C12.274 21.5631 12.1009 22.3177 12.4417 22.7963C12.784 23.2771 12.2657 23.2459 19.8971 23.2459H26.7678L27.0071 23.0968C27.3358 22.892 27.512 22.5686 27.512 22.1702C27.512 21.8019 27.3701 21.5611 27.0078 21.3146L26.7818 21.1607H19.9031C13.3337 21.1607 13.0137 21.1664 12.7878 21.2875Z" fill="#F24C26"/>
</svg>
