<svg width="48" height="48" viewBox="0 0 48 48" fill="none" xmlns="http://www.w3.org/2000/svg">
<path d="M0 4C0 1.79086 1.79086 0 4 0H44C46.2091 0 48 1.79086 48 4V44C48 46.2091 46.2091 48 44 48H4C1.79086 48 0 46.2091 0 44V4Z" fill="#96BF02"/>
<path d="M1.344 35.3198C6.688 35.3198 10.72 31.1598 10.72 23.7998C10.72 16.4398 6.688 12.2798 1.344 12.2798C-3.968 12.2798 -8 16.4398 -8 23.7998C-8 31.1598 -3.968 35.3198 1.344 35.3198ZM1.344 31.7038C-1.696 31.7038 -3.808 29.2078 -3.808 23.7998C-3.808 18.3918 -1.696 15.8958 1.344 15.8958C4.416 15.8958 6.528 18.3918 6.528 23.7998C6.528 29.2078 4.416 31.7038 1.344 31.7038Z" fill="white"/>
<path d="M22.7547 21.8478L28.1948 15.3838V12.5998H12.9307V16.0878H23.1068L18.0187 22.1358V24.9838H20.0667C23.4587 24.9838 24.9308 26.2958 24.9308 28.3118C24.9308 30.3918 23.1707 31.7038 20.1947 31.7038C17.6667 31.7038 15.2347 30.8398 13.6347 29.4958L11.8427 32.7278C13.9227 34.3598 17.0907 35.3198 20.2587 35.3198C26.2747 35.3198 29.1227 32.0558 29.1227 28.2798C29.1227 24.9198 26.9788 22.3918 22.7547 21.8478Z" fill="white"/>
</svg>
