<svg width="48" height="48" viewBox="0 0 48 48" fill="none" xmlns="http://www.w3.org/2000/svg">
<path d="M0 4C0 1.79086 1.79086 0 4 0H44C46.2091 0 48 1.79086 48 4V44C48 46.2091 46.2091 48 44 48H4C1.79086 48 0 46.2091 0 44V4Z" fill="#96BF02"/>
<path d="M1.344 35.3198C6.688 35.3198 10.72 31.1598 10.72 23.7998C10.72 16.4398 6.688 12.2798 1.344 12.2798C-3.968 12.2798 -8 16.4398 -8 23.7998C-8 31.1598 -3.968 35.3198 1.344 35.3198ZM1.344 31.7038C-1.696 31.7038 -3.808 29.2078 -3.808 23.7998C-3.808 18.3918 -1.696 15.8958 1.344 15.8958C4.416 15.8958 6.528 18.3918 6.528 23.7998C6.528 29.2078 4.416 31.7038 1.344 31.7038Z" fill="white"/>
<path d="M19.039 31.4798L25.023 25.7838C28.127 22.8718 28.735 20.8878 28.735 18.7118C28.735 14.7438 25.599 12.2798 20.735 12.2798C17.055 12.2798 13.951 13.6558 12.223 15.9918L15.135 18.2318C16.383 16.6318 18.207 15.8958 20.383 15.8958C23.135 15.8958 24.543 17.0798 24.543 19.1278C24.543 20.3758 24.159 21.6878 21.983 23.7678L13.087 32.2158V34.9998H29.599V31.4798H19.039Z" fill="white"/>
</svg>
