<svg width="48" height="48" viewBox="0 0 48 48" fill="none" xmlns="http://www.w3.org/2000/svg">
<path d="M0 4C0 1.79086 1.79086 0 4 0H44C46.2091 0 48 1.79086 48 4V44C48 46.2091 46.2091 48 44 48H4C1.79086 48 0 46.2091 0 44V4Z" fill="#96BF02"/>
<path d="M1.344 35.3198C6.688 35.3198 10.72 31.1598 10.72 23.7998C10.72 16.4398 6.688 12.2798 1.344 12.2798C-3.968 12.2798 -8 16.4398 -8 23.7998C-8 31.1598 -3.968 35.3198 1.344 35.3198ZM1.344 31.7038C-1.696 31.7038 -3.808 29.2078 -3.808 23.7998C-3.808 18.3918 -1.696 15.8958 1.344 15.8958C4.416 15.8958 6.528 18.3918 6.528 23.7998C6.528 29.2078 4.416 31.7038 1.344 31.7038Z" fill="white"/>
<path d="M12.223 12.5998V16.0878H16.959V34.9998H21.119V12.5998H12.223Z" fill="white"/>
</svg>
