<svg width="40" height="40" viewBox="0 0 40 40" fill="none" xmlns="http://www.w3.org/2000/svg">
<path fill-rule="evenodd" clip-rule="evenodd" d="M15.4214 5.08252C14.7015 5.30843 14.1827 5.76207 13.8585 6.44884C13.6815 6.82373 13.6745 6.8894 13.6527 8.35786L13.6302 9.87863L8.8973 9.89802L4.16447 9.91741L3.76854 10.1019C3.21163 10.3614 2.82965 10.7316 2.56243 11.2711L2.33276 11.7347V22.8322V33.9298L2.5184 34.3233C2.77956 34.8767 3.1521 35.2562 3.69506 35.5218L4.16151 35.75H20.3328H36.504L36.9705 35.5218C37.5134 35.2562 37.886 34.8767 38.1471 34.3233L38.3328 33.9298V22.8322V11.7347L38.1031 11.2711C37.8359 10.7316 37.4539 10.3614 36.897 10.1019L36.5011 9.91741L31.7682 9.89802L27.0353 9.87863L27.0128 8.35786C26.991 6.88415 26.9845 6.82492 26.8047 6.44366C26.5436 5.89033 26.1709 5.51068 25.6281 5.24514L25.1618 5.01692L20.44 5.00313C16.6747 4.99214 15.6581 5.00817 15.4214 5.08252ZM24.8013 7.19211C24.8939 7.28417 24.912 7.51281 24.912 8.59225V9.88241H20.3328H15.7535V8.59225C15.7535 7.51281 15.7716 7.28417 15.8642 7.19211C15.9625 7.09452 16.4651 7.08213 20.3328 7.08213C24.2005 7.08213 24.7031 7.09452 24.8013 7.19211ZM6.97705 12.2778C6.63487 13.2416 5.74586 14.1383 4.76548 14.5085L4.41104 14.6423V13.4225C4.41104 12.4069 4.42957 12.1842 4.52172 12.0926C4.61387 12.001 4.83776 11.9826 5.85717 11.9826H7.08188L6.97705 12.2778ZM31.5478 12.5077C31.8371 13.5689 32.5652 14.7068 33.4182 15.4306C34.1644 16.0637 34.8858 16.4188 36.1668 16.7838C36.2371 16.8039 36.2516 18.0491 36.2373 22.842L36.2193 28.875L35.7505 29.0026C33.711 29.5577 32.1023 31.1538 31.5452 33.1747L31.4142 33.6498H20.3328H9.25132L9.12289 33.184C8.57161 31.1841 7.01474 29.6067 5.03058 29.0374L4.44627 28.8698V22.8312V16.7924L4.92434 16.6623C6.92604 16.1174 8.54963 14.5239 9.09675 12.5672C9.15973 12.342 9.22405 12.1181 9.23955 12.0699C9.26209 12 11.5173 11.9858 20.341 11.9999L31.4142 12.0176L31.5478 12.5077ZM36.1438 12.0926C36.236 12.1842 36.2545 12.4069 36.2545 13.4225V14.6423L35.9001 14.5085C34.9197 14.1383 34.0307 13.2416 33.6885 12.2778L33.5837 11.9826H34.8084C35.8278 11.9826 36.0517 12.001 36.1438 12.0926ZM19.7654 14.284C19.2942 14.5865 16.4085 17.5109 16.3491 17.7459C16.2598 18.0995 16.3554 18.5379 16.5837 18.8218C16.7016 18.9684 17.4586 19.7386 18.266 20.5333C19.9039 22.1456 20.0492 22.2398 20.6322 22.0671C20.8784 21.9941 21.1923 21.7217 22.3996 20.5333C23.2069 19.7386 23.9639 18.9684 24.0818 18.8218C24.3102 18.5379 24.4057 18.0995 24.3163 17.7456C24.254 17.4989 21.1838 14.4081 20.8111 14.2169C20.4418 14.0275 20.134 14.0472 19.7654 14.284ZM21.0914 17.3918L21.8123 18.1107L21.0725 18.8433L20.3328 19.5759L19.593 18.8433L18.8532 18.1107L19.5742 17.3918C19.9706 16.9965 20.312 16.6731 20.3328 16.6731C20.3535 16.6731 20.6949 16.9965 21.0914 17.3918ZM11.8435 21.8831C11.2503 22.0306 10.8063 22.2825 10.359 22.7253C9.10887 23.9628 9.10971 25.8989 10.361 27.1422C12.1814 28.9512 15.2589 27.9658 15.6959 25.4341C15.8671 24.4416 15.5455 23.4623 14.8055 22.7237C14.0111 21.9305 12.9097 21.618 11.8435 21.8831ZM25.4367 22.5421C24.3109 22.9528 23.305 23.3442 23.2013 23.4119C22.9463 23.5785 22.7752 23.9297 22.7839 24.2688C22.7913 24.5644 25.1437 31.0763 25.3633 31.4093C25.5344 31.6687 25.8909 31.864 26.1941 31.8643C26.546 31.8647 30.6548 30.3798 30.8851 30.1689C31.0898 29.9816 31.2525 29.6322 31.2525 29.3802C31.2525 29.1833 28.8478 22.5704 28.6584 22.2466C28.5023 21.9796 28.1169 21.7822 27.7664 21.7895C27.5938 21.7931 26.6845 22.0869 25.4367 22.5421ZM13.0782 24.0247C13.3908 24.1832 13.64 24.5865 13.64 24.9339C13.64 25.469 13.1192 25.984 12.578 25.984C12.2504 25.984 11.8151 25.7118 11.6601 25.4098C11.4 24.903 11.5633 24.3498 12.0614 24.0501C12.3987 23.8472 12.7125 23.8394 13.0782 24.0247ZM27.2223 24.3564C27.4387 24.9542 28.7153 28.4283 28.7752 28.582L28.8463 28.7649L27.8547 29.1255C27.3092 29.3239 26.8568 29.4779 26.8492 29.4678C26.7897 29.3885 25.189 24.9153 25.212 24.8925C25.243 24.8617 27.0267 24.182 27.1067 24.1704C27.132 24.1668 27.184 24.2505 27.2223 24.3564ZM5.32457 31.4248C6.01829 31.8282 6.66932 32.591 6.95288 33.3326L7.08758 33.6848H5.85999C4.83797 33.6848 4.61394 33.6664 4.52172 33.5748C4.42957 33.4832 4.41104 33.2608 4.41104 32.2478V31.0308L4.70813 31.1349C4.87157 31.1922 5.14894 31.3226 5.32457 31.4248ZM36.2545 32.2447C36.2545 33.2605 36.236 33.4832 36.1438 33.5748C36.0517 33.6664 35.8278 33.6848 34.8084 33.6848H33.5837L33.6885 33.3896C34.0238 32.445 34.8624 31.5826 35.8301 31.1869C36.0441 31.0994 36.2272 31.0271 36.2369 31.0262C36.2465 31.0253 36.2545 31.5736 36.2545 32.2447Z" fill="#F24C26"/>
</svg>
