<svg width="24" height="24" viewBox="0 0 24 24" fill="none" xmlns="http://www.w3.org/2000/svg">
<path d="M20.25 5.75C20.8024 5.75 21.2501 6.1978 21.2501 6.74996V9.01021V9.01026C19.7008 9.13801 18.5 10.4367 18.5 12C18.5 13.5633 19.7008 14.862 21.2501 14.9897V14.9898V17.25C21.2501 17.8022 20.8024 18.25 20.25 18.25H3.75C3.19778 18.25 2.75005 17.8024 2.75 17.25C2.75 17.25 2.75 17.2499 2.75 17.2499L2.75029 14.9897C4.29947 14.8618 5.5 13.5631 5.5 12C5.5 10.4369 4.29947 9.13825 2.75029 9.01029L2.75 6.75C2.75 6.74997 2.75 6.74995 2.75 6.74992C2.75 6.74992 2.75 6.74991 2.75 6.7499C2.75005 6.19766 3.19775 5.75 3.75 5.75H20.25Z" stroke="currentColor" stroke-width="1.5"/>
</svg>
