<svg width="48" height="48" viewBox="0 0 48 48" fill="none" xmlns="http://www.w3.org/2000/svg">
<path fill-rule="evenodd" clip-rule="evenodd" d="M24 5C13.5066 5 5 13.5066 5 24C5 34.4934 13.5066 43 24 43C34.4934 43 43 34.4934 43 24C43 13.5066 34.4934 5 24 5ZM3 24C3 12.402 12.402 3 24 3C35.598 3 45 12.402 45 24C45 35.598 35.598 45 24 45C12.402 45 3 35.598 3 24Z" fill="#F24C26"/>
<path fill-rule="evenodd" clip-rule="evenodd" d="M24 11C16.8203 11 11 16.8203 11 24C11 31.1797 16.8203 37 24 37C31.1797 37 37 31.1797 37 24C37 16.8203 31.1797 11 24 11ZM9 24C9 15.7157 15.7157 9 24 9C32.2843 9 39 15.7157 39 24C39 32.2843 32.2843 39 24 39C15.7157 39 9 32.2843 9 24Z" fill="#F24C26"/>
<path fill-rule="evenodd" clip-rule="evenodd" d="M28.3606 19.6391L22.0179 22.0176L19.6394 28.3603L25.9821 25.9818L28.3606 19.6391ZM27.6951 27.1096C27.5937 27.3801 27.3803 27.5934 27.1099 27.6949L18.2817 31.0054C17.4778 31.3069 16.6928 30.5219 16.9943 29.718L20.3048 20.8898C20.4063 20.6194 20.6196 20.406 20.8901 20.3046L29.7182 16.994C30.5221 16.6926 31.3071 17.4776 31.0057 18.2815L27.6951 27.1096Z" fill="#F24C26"/>
<path fill-rule="evenodd" clip-rule="evenodd" d="M21.4644 21.4643C21.8549 21.0738 22.4881 21.0738 22.8786 21.4643L27.1213 25.7069C27.5118 26.0975 27.5118 26.7306 27.1213 27.1212C26.7307 27.5117 26.0976 27.5117 25.707 27.1212L21.4644 22.8785C21.0739 22.488 21.0739 21.8548 21.4644 21.4643Z" fill="#F24C26"/>
<path d="M24.9141 16.7219C24.5236 17.1124 23.8904 17.1124 23.4999 16.7219C23.1094 16.3314 23.1094 15.6982 23.4999 15.3077C23.8904 14.9172 24.5236 14.9172 24.9141 15.3077C25.3047 15.6982 25.3047 16.3314 24.9141 16.7219Z" fill="#F24C26"/>
<path d="M33.046 24.8536C32.6554 25.2441 32.0223 25.2441 31.6318 24.8536C31.2412 24.4631 31.2412 23.8299 31.6318 23.4394C32.0223 23.0489 32.6554 23.0489 33.046 23.4394C33.4365 23.8299 33.4365 24.4631 33.046 24.8536Z" fill="#F24C26"/>
<path d="M23.5 34.3996C23.1094 34.7901 22.4763 34.7901 22.0857 34.3996C21.6952 34.0091 21.6952 33.3759 22.0857 32.9854C22.4763 32.5948 23.1094 32.5948 23.5 32.9854C23.8905 33.3759 23.8905 34.0091 23.5 34.3996Z" fill="#F24C26"/>
<path d="M15.3682 26.2679C14.9777 26.6584 14.3446 26.6584 13.954 26.2679C13.5635 25.8773 13.5635 25.2442 13.954 24.8537C14.3446 24.4631 14.9777 24.4631 15.3682 24.8537C15.7588 25.2442 15.7588 25.8773 15.3682 26.2679Z" fill="#F24C26"/>
</svg>
