<svg width="48" height="48" viewBox="0 0 48 48" fill="none" xmlns="http://www.w3.org/2000/svg">
<path fill-rule="evenodd" clip-rule="evenodd" d="M1 16.2707C1 14.6138 2.34314 13.2707 4 13.2707H28.455C28.9306 13.2707 29.3404 13.6057 29.435 14.0718C29.597 14.8702 30.3045 15.4709 31.15 15.4709C31.9955 15.4709 32.703 14.8702 32.865 14.0718C32.9596 13.6057 33.3694 13.2707 33.845 13.2707H44C45.6569 13.2707 47 14.6138 47 16.2707V35.3707C47 37.0275 45.6569 38.3707 44 38.3707H33.845C33.3694 38.3707 32.9596 38.0357 32.865 37.5697C32.7029 36.7713 31.9954 36.1708 31.15 36.1708C30.3046 36.1708 29.5971 36.7713 29.435 37.5697C29.3404 38.0357 28.9306 38.3707 28.455 38.3707H4C2.34315 38.3707 1 37.0275 1 35.3707V16.2707ZM4 15.2707C3.44772 15.2707 3 15.7184 3 16.2707V35.3707C3 35.923 3.44772 36.3707 4 36.3707H27.7347C28.3245 35.0732 29.6311 34.1708 31.15 34.1708C32.6689 34.1708 33.9755 35.0732 34.5653 36.3707H44C44.5523 36.3707 45 35.923 45 35.3707V16.2707C45 15.7184 44.5523 15.2707 44 15.2707H34.5654C33.9757 16.5684 32.669 17.4708 31.15 17.4708C29.631 17.4708 28.3243 16.5684 27.7346 15.2707H4Z" fill="#F24C26"/>
<path fill-rule="evenodd" clip-rule="evenodd" d="M7.94591 14.5599C7.73011 14.0515 7.9673 13.4645 8.47568 13.2487L21.6642 7.65047C22.102 7.46464 22.6101 7.61286 22.8793 8.00494C23.3405 8.67651 24.2263 8.95292 25.0046 8.62256C25.7828 8.29221 26.1994 7.46296 26.0366 6.66475C25.9416 6.19873 26.1879 5.73027 26.6257 5.54444L35.7894 1.65471C37.4162 0.964162 39.2948 1.72316 39.9853 3.34998L41.812 7.65334C42.0278 8.16172 41.7906 8.74878 41.2822 8.96458C40.7738 9.18037 40.1868 8.94318 39.971 8.4348L38.1443 4.13144C37.8854 3.52139 37.1809 3.23676 36.5708 3.49571L28.0703 7.10398C28.0344 8.52887 27.1842 9.87007 25.786 10.4636C24.3878 11.0571 22.8325 10.737 21.7826 9.77295L9.25714 15.0897C8.74876 15.3055 8.1617 15.0683 7.94591 14.5599Z" fill="#F24C26"/>
<path fill-rule="evenodd" clip-rule="evenodd" d="M7.59998 22.8498C7.59998 20.0884 9.83855 17.8498 12.6 17.8498H17.8C20.5614 17.8498 22.8 20.0884 22.8 22.8498V31.0498C22.8 31.6021 22.3523 32.0498 21.8 32.0498H8.59998C8.04769 32.0498 7.59998 31.6021 7.59998 31.0498V22.8498ZM12.6 19.8498C10.9431 19.8498 9.59998 21.1929 9.59998 22.8498V30.0498H20.8V22.8498C20.8 21.1929 19.4568 19.8498 17.8 19.8498H12.6Z" fill="#F24C26"/>
<path fill-rule="evenodd" clip-rule="evenodd" d="M8.59998 23.9997H21.8V25.9997H8.59998V23.9997Z" fill="#F24C26"/>
<path fill-rule="evenodd" clip-rule="evenodd" d="M16.7354 30.716C17.1683 30.3729 17.7972 30.4457 18.1403 30.8786L19.8838 33.0786C20.2268 33.5114 20.154 34.1404 19.7212 34.4834C19.2883 34.8264 18.6594 34.7536 18.3164 34.3208L16.5728 32.1208C16.2298 31.6879 16.3026 31.059 16.7354 30.716ZM13.776 30.7318C14.2 31.0856 14.257 31.7162 13.9033 32.1403L12.068 34.3403C11.7142 34.7644 11.0836 34.8213 10.6595 34.4676C10.2354 34.1138 10.1784 33.4832 10.5322 33.0591L12.3675 30.8591C12.7213 30.435 13.3519 30.378 13.776 30.7318Z" fill="#F24C26"/>
<path fill-rule="evenodd" clip-rule="evenodd" d="M11.7057 27.9997C11.7057 27.4474 12.1534 26.9997 12.7057 26.9997H12.9C13.4523 26.9997 13.9 27.4474 13.9 27.9997C13.9 28.552 13.4523 28.9997 12.9 28.9997H12.7057C12.1534 28.9997 11.7057 28.552 11.7057 27.9997Z" fill="#F24C26"/>
<path fill-rule="evenodd" clip-rule="evenodd" d="M16.5 27.9995C16.5 27.4472 16.9477 26.9995 17.5 26.9995H17.6944C18.2466 26.9995 18.6944 27.4472 18.6944 27.9995C18.6944 28.5518 18.2466 28.9995 17.6944 28.9995H17.5C16.9477 28.9995 16.5 28.5518 16.5 27.9995Z" fill="#F24C26"/>
<path fill-rule="evenodd" clip-rule="evenodd" d="M31.6 18.9457C32.1523 18.9457 32.6 19.3934 32.6 19.9457V21.3457C32.6 21.898 32.1523 22.3457 31.6 22.3457C31.0477 22.3457 30.6 21.898 30.6 21.3457V19.9457C30.6 19.3934 31.0477 18.9457 31.6 18.9457ZM31.6 23.1457C32.1523 23.1457 32.6 23.5934 32.6 24.1457V26.9457C32.6 27.498 32.1523 27.9457 31.6 27.9457C31.0477 27.9457 30.6 27.498 30.6 26.9457V24.1457C30.6 23.5934 31.0477 23.1457 31.6 23.1457ZM31.6 28.7457C32.1523 28.7457 32.6 29.1934 32.6 29.7457V31.1457C32.6 31.698 32.1523 32.1457 31.6 32.1457C31.0477 32.1457 30.6 31.698 30.6 31.1457V29.7457C30.6 29.1934 31.0477 28.7457 31.6 28.7457Z" fill="#F24C26"/>
<path fill-rule="evenodd" clip-rule="evenodd" d="M41.5 18.9457C42.0523 18.9457 42.5 19.3934 42.5 19.9457V30.0457C42.5 30.598 42.0523 31.0457 41.5 31.0457C40.9477 31.0457 40.5 30.598 40.5 30.0457V19.9457C40.5 19.3934 40.9477 18.9457 41.5 18.9457Z" fill="#F24C26"/>
<path fill-rule="evenodd" clip-rule="evenodd" d="M37.1 18.9457C37.6523 18.9457 38.1 19.3934 38.1 19.9457V22.3457C38.1 22.898 37.6523 23.3457 37.1 23.3457C36.5477 23.3457 36.1 22.898 36.1 22.3457V19.9457C36.1 19.3934 36.5477 18.9457 37.1 18.9457Z" fill="#F24C26"/>
</svg>
